<svg version="1.1" id="Layer_1" xmlns="http://www.w3.org/2000/svg" xmlns:xlink="http://www.w3.org/1999/xlink" x="0px" y="0px"
	 width="100%" viewBox="0 0 896 528" enable-background="new 0 0 896 528" xml:space="preserve">
<path fill="#000000" opacity="1.000000" stroke="none" 
	d="
M616.252563,184.039124 
	C622.064636,222.989258 617.366394,259.957672 598.407593,294.290192 
	C572.433350,341.326965 533.058472,371.038269 480.110718,381.131836 
	C427.844299,391.095520 380.460358,378.767212 339.237030,345.278717 
	C307.164215,319.223816 287.252350,285.174194 280.020599,244.479797 
	C272.461884,201.945541 279.284119,161.379349 302.158325,124.504356 
	C328.611847,81.859283 366.828888,55.025589 416.351044,45.859699 
	C468.851166,36.142616 516.305786,48.680664 557.510925,82.465065 
	C588.316040,107.722404 607.272522,140.629242 615.358459,179.704880 
	C615.628235,181.008728 615.925415,182.306900 616.252563,184.039124 
M283.496887,242.992477 
	C284.119324,245.745819 284.715424,248.505417 285.368256,251.251526 
	C292.006683,279.174530 304.868347,303.855957 324.056549,325.202515 
	C328.116516,329.719177 328.853577,329.713623 333.248047,325.467316 
	C338.393951,320.494904 343.286713,315.259186 348.466949,310.324127 
	C351.285400,307.639069 351.608368,305.623901 348.782898,302.484344 
	C327.871613,279.248657 316.866791,251.790421 314.877441,220.709579 
	C314.602936,216.420685 312.708801,215.291397 308.955780,215.330383 
	C301.631348,215.406494 294.301971,215.472031 286.981476,215.280975 
	C282.556702,215.165482 281.181152,217.160400 281.254883,221.335129 
	C281.378662,228.343384 282.777435,235.192368 283.496887,242.992477 
M334.656311,335.950867 
	C364.709717,363.734070 400.388824,378.099731 441.053558,380.651337 
	C444.448730,380.864380 445.953033,379.777283 445.885529,376.221130 
	C445.743317,368.728027 445.851318,361.230286 445.841339,353.734467 
	C445.832550,347.139404 445.312988,346.548706 438.844177,346.342133 
	C430.485870,346.075256 422.325348,344.600220 414.258423,342.506134 
	C393.562195,337.133606 375.298431,327.199219 359.288269,313.082886 
	C357.007751,311.072113 355.010712,309.369507 352.139954,312.342926 
	C346.240631,318.453217 340.206329,324.433807 334.189545,330.429626 
	C332.442688,332.170380 332.197968,333.790100 334.656311,335.950867 
M340.321808,134.879517 
	C343.149536,131.383942 345.841095,127.765556 348.848022,124.431618 
	C351.258820,121.758591 351.139160,119.601257 348.625977,117.151451 
	C343.376953,112.034828 338.260620,106.782402 333.038971,101.637329 
	C328.616821,97.280083 328.117645,97.338364 324.038086,101.913536 
	C310.829254,116.727066 300.377258,133.278992 293.024261,151.713898 
	C286.005554,169.310623 281.943390,187.568436 281.272827,206.560684 
	C281.132629,210.531555 282.643494,211.850052 286.507446,211.750732 
	C294.333191,211.549545 302.169128,211.593735 309.997742,211.724869 
	C313.441986,211.782547 314.593658,210.329178 314.798462,206.985062 
	C316.403015,180.788818 324.425323,156.806427 340.321808,134.879517 
M613.648438,192.794006 
	C613.006470,189.200729 612.397339,185.601227 611.717346,182.015152 
	C605.859741,151.123810 591.871216,124.323669 571.006592,100.957344 
	C568.364502,97.998497 566.150146,98.242538 563.534973,100.937019 
	C558.432068,106.194748 553.325928,111.463478 547.960815,116.447372 
	C544.746643,119.433151 544.421143,121.677162 547.576538,125.077812 
	C554.619202,132.667923 560.436584,141.195053 565.349792,150.338898 
	C574.881836,168.078705 579.802246,187.088120 581.106750,207.093781 
	C581.296936,210.010834 582.068970,211.773346 585.468811,211.718918 
	C593.794128,211.585648 602.123901,211.597366 610.449768,211.710754 
	C613.801331,211.756378 614.912964,210.181580 614.670166,207.108932 
	C614.316956,202.639221 614.002930,198.166443 613.648438,192.794006 
M555.529419,103.025436 
	C556.584717,101.963257 557.644104,100.905045 558.694702,99.838211 
	C564.152405,94.296051 564.124695,93.536690 558.342529,88.533974 
	C549.006165,80.456085 539.042542,73.294952 528.222412,67.295372 
	C505.414215,54.648529 480.903412,48.188824 454.979126,46.565067 
	C451.415070,46.341835 450.079712,47.784172 450.080017,51.080963 
	C450.080719,58.734791 450.181122,66.391197 450.011871,74.041496 
	C449.908417,78.717186 451.972015,80.605881 456.561493,80.724571 
	C465.732574,80.961739 474.690552,82.732407 483.532715,85.115929 
	C503.322479,90.450562 520.866516,100.017326 536.120117,113.624107 
	C539.926758,117.019814 542.396667,116.749748 545.541443,113.089859 
	C548.460388,109.692795 551.846558,106.697197 555.529419,103.025436 
M564.119019,314.632141 
	C563.421021,315.347229 562.714661,316.054382 562.026489,316.778778 
	C558.327026,320.673004 558.639404,321.522034 563.366882,326.463867 
	C566.566345,329.808380 568.634216,329.069427 571.378906,325.907349 
	C578.932495,317.204987 585.870728,308.091095 591.734802,298.157013 
	C605.798645,274.332367 613.206299,248.557251 614.725403,220.984360 
	C614.970886,216.528992 613.309509,215.118164 608.997375,215.269302 
	C601.678101,215.525803 594.340576,215.451508 587.015808,215.286865 
	C583.174194,215.200485 581.250000,216.384033 580.964539,220.572006 
	C580.434204,228.350739 579.595154,236.113251 577.788635,243.743652 
	C573.711182,260.966217 566.750854,276.912415 556.259644,291.156219 
	C553.155151,295.371185 553.484497,298.024963 557.597900,300.848236 
	C559.922729,302.443878 561.859436,304.618103 564.221619,306.143616 
	C568.257263,308.749725 568.513000,311.267395 564.119019,314.632141 
M450.021179,356.578339 
	C450.030304,362.908112 450.220245,369.244568 449.986450,375.565369 
	C449.824493,379.943481 451.764221,381.116852 455.733704,380.617310 
	C459.688995,380.119537 463.703156,380.075531 467.651184,379.536865 
	C501.333130,374.941376 531.316589,361.983887 557.104187,339.675140 
	C559.438660,337.655609 562.117371,335.864288 563.657593,332.690002 
	C562.445862,331.365021 561.374023,330.119324 560.224976,328.949432 
	C555.276611,323.911072 554.993652,323.981415 549.872009,328.857117 
	C546.298950,332.258636 543.286987,336.301971 538.487427,339.297180 
	C535.088745,334.791473 531.727661,330.511322 528.569763,326.086121 
	C526.538452,323.239655 524.537354,322.751099 521.477173,324.730255 
	C501.078857,337.922943 478.925476,345.795807 454.439972,346.375946 
	C451.310364,346.450104 449.925110,348.035370 450.036041,351.111267 
	C450.089996,352.608032 450.024139,354.109131 450.021179,356.578339 
M518.706238,147.494934 
	C519.083984,149.977280 520.993164,151.518356 522.426147,153.297256 
	C535.131287,169.069168 542.138794,187.049332 543.285522,207.248718 
	C543.486694,210.793213 544.999817,211.785187 548.268677,211.728851 
	C556.088928,211.594040 563.920349,211.485504 571.732788,211.766739 
	C576.099609,211.923935 577.088074,210.109482 576.957764,206.136734 
	C576.555603,193.877319 573.885986,182.114410 569.870361,170.598969 
	C564.261841,154.515625 555.624512,140.215820 544.351685,127.494232 
	C543.029053,126.001579 541.498169,123.321640 539.124634,125.657578 
	C532.152527,132.519135 524.520325,138.764969 518.706238,147.494934 
M361.512177,303.035156 
	C358.703857,305.443146 358.978577,307.564056 361.709167,310.008972 
	C368.561035,316.143982 375.943604,321.521301 383.935394,326.034546 
	C401.436737,335.918243 420.182251,341.634399 440.311249,342.749573 
	C444.407440,342.976501 446.016113,341.493530 445.910095,337.347321 
	C445.710144,329.530182 445.808807,321.704071 445.866638,313.882324 
	C445.889404,310.804352 444.673035,309.152863 441.442841,309.329041 
	C436.104675,309.620239 431.154999,308.290344 425.973663,306.889252 
	C410.569977,302.723877 396.709839,295.959991 384.756775,285.437500 
	C382.178223,283.167542 380.612091,283.759277 378.548737,285.887665 
	C373.104919,291.503174 367.528046,296.989716 361.512177,303.035156 
M403.245941,64.661613 
	C405.971802,63.629082 408.341919,61.533363 411.954224,61.718655 
	C413.496460,67.690323 415.053741,73.605278 416.542328,79.537453 
	C417.191010,82.122589 418.185577,83.479263 421.380768,82.913628 
	C427.753601,81.785492 434.157593,80.746101 440.669067,80.502563 
	C443.496063,80.396835 445.839081,79.161629 445.816498,75.629150 
	C445.764313,67.463402 445.856110,59.296181 445.740936,51.131649 
	C445.695282,47.896011 443.949402,46.363350 440.537109,46.678978 
	C431.265625,47.536575 421.991791,48.289978 412.869537,50.321140 
	C383.436615,56.874687 357.580658,70.273590 335.218262,90.509613 
	C332.255768,93.190399 332.364197,95.157822 335.166504,97.799049 
	C339.408234,101.796936 343.368530,106.092033 347.488983,110.220329 
	C355.244080,117.990158 355.186981,117.901482 363.365417,110.524010 
	C365.896545,108.240776 366.047699,106.216179 364.089203,103.655495 
	C361.963989,100.876854 359.938416,98.022278 357.843018,95.220528 
	C353.814148,89.833595 353.854553,89.514023 359.714569,86.554787 
	C373.991699,79.344955 388.284424,72.166077 403.245941,64.661613 
M575.368347,235.938110 
	C576.423767,230.540909 576.890625,225.092499 576.930420,219.593414 
	C576.950928,216.763580 575.960388,215.278046 572.866516,215.315430 
	C564.714783,215.413895 556.560669,215.394608 548.408386,215.319504 
	C545.087769,215.288925 543.539124,216.804230 543.351440,220.065186 
	C542.321899,237.951752 536.404419,254.154739 526.204895,268.795166 
	C524.184082,271.695862 524.192383,273.586334 527.130005,275.831116 
	C533.074463,280.373657 538.960144,285.026062 544.534363,290.008728 
	C548.323364,293.395599 550.444397,292.509277 553.158264,288.683716 
	C564.309570,272.964386 571.714539,255.727600 575.368347,235.938110 
M502.485413,130.714279 
	C501.284180,132.626205 501.738861,134.052383 503.553894,135.374939 
	C505.975067,137.139191 508.477600,138.887711 510.529633,141.039307 
	C513.362244,144.009384 515.427673,143.280151 517.946289,140.646210 
	C523.012390,135.348282 528.330933,130.292755 533.475891,125.068901 
	C537.453430,121.030380 537.363281,120.033104 533.109985,116.274727 
	C521.490295,106.007133 508.309082,98.298561 493.919525,92.661758 
	C481.910126,87.957344 469.387024,85.364555 456.542603,84.368462 
	C453.479095,84.130890 450.174530,84.037552 450.142456,88.526360 
	C450.083008,96.857422 450.126831,105.189178 450.112061,113.520615 
	C450.106964,116.409958 451.621246,117.589859 454.399689,117.926491 
	C459.348541,118.526100 464.365265,119.002281 469.167694,120.247223 
	C473.718903,121.427055 476.072937,119.958885 477.564392,115.802353 
	C478.938812,111.971992 479.520264,107.789520 482.426880,103.857483 
	C490.829285,108.551117 499.095215,113.127098 507.312012,117.789642 
	C509.197296,118.859436 508.911987,120.429016 507.863281,122.060570 
	C506.151825,124.723221 504.522186,127.438423 502.485413,130.714279 
M500.112976,293.856689 
	C485.901794,302.411774 470.915985,308.686798 454.054565,309.302979 
	C451.370239,309.401031 450.020569,310.532715 450.022278,313.208496 
	C450.027679,321.698273 450.079773,330.188202 450.040344,338.677734 
	C450.026520,341.659790 451.382599,342.745178 454.319244,342.756317 
	C460.348663,342.779114 466.229492,341.766449 472.114685,340.685547 
	C488.700226,337.639404 503.973358,331.311737 518.158569,322.264008 
	C520.914368,320.506317 523.095398,318.642456 520.438110,315.097961 
	C515.345947,308.305756 510.306091,301.473877 505.297699,294.619629 
	C504.020691,292.872040 502.647217,292.158844 500.112976,293.856689 
M506.199707,208.334473 
	C506.473480,211.156967 508.323181,211.713333 510.769684,211.697327 
	C518.915466,211.643982 527.063232,211.590851 535.207458,211.717010 
	C538.804260,211.772751 540.059265,210.020660 539.639038,206.791016 
	C539.083496,202.522339 538.580383,198.224167 537.636719,194.032791 
	C534.295410,179.193451 527.859619,165.845032 517.856323,154.305557 
	C516.043884,152.214767 514.211792,150.213348 511.343903,153.145203 
	C505.299835,159.324081 499.167664,165.417023 493.044159,171.517654 
	C491.479218,173.076782 491.360901,174.477432 492.820679,176.261093 
	C500.281769,185.377640 504.310699,195.972137 506.199707,208.334473 
M329.674408,251.011124 
	C326.219788,252.251968 325.120819,254.485214 326.445465,258.020355 
	C332.343658,273.760986 340.900238,287.867218 352.087646,300.414490 
	C354.291962,302.886688 356.148773,302.745239 358.315521,300.549042 
	C364.149841,294.635284 370.003723,288.740540 375.886047,282.874542 
	C377.867249,280.898834 378.123413,279.098724 376.139008,276.860291 
	C368.228699,267.937256 362.273010,257.820343 358.112885,246.646973 
	C357.155121,244.074661 355.708832,243.049438 352.761139,244.000214 
	C345.341278,246.393448 337.825531,248.489304 329.674408,251.011124 
M334.008850,152.480286 
	C331.182556,157.770477 328.921234,163.307205 326.598846,168.831512 
	C324.729340,173.278641 326.395599,175.338425 330.475861,176.519089 
	C337.663055,178.598740 344.884583,180.576080 352.001129,182.876526 
	C355.586304,184.035431 357.292999,182.648926 358.432983,179.514221 
	C362.289215,168.910553 368.083466,159.429199 375.495331,150.972412 
	C377.827423,148.311508 377.999664,146.355835 375.359619,143.829239 
	C369.709869,138.422348 364.120422,132.936890 358.783936,127.224205 
	C355.741974,123.967789 353.715790,124.749115 351.189056,127.730927 
	C344.819580,135.247589 339.086670,143.183853 334.008850,152.480286 
M527.462524,215.339218 
	C522.631470,215.338959 517.779053,215.621506 512.975220,215.259888 
	C508.049805,214.889099 506.022491,217.083588 505.457184,221.673523 
	C504.425537,230.049713 501.752472,237.898926 496.939880,244.882782 
	C494.925171,247.806412 495.260498,249.902863 498.039093,252.080612 
	C503.936981,256.703278 509.657074,261.552185 515.521729,266.218262 
	C519.957825,269.747711 520.730347,269.599396 524.073303,264.730713 
	C531.833191,253.429337 536.690247,240.972733 538.669250,227.409912 
	C540.430298,215.340607 540.404175,215.336792 527.462524,215.339218 
M396.104523,289.379456 
	C405.133759,295.469910 414.831268,300.034302 425.429749,302.741791 
	C429.311920,303.733521 430.927612,302.439545 431.519470,298.722412 
	C432.744080,291.031403 434.069611,283.355072 435.474548,275.694855 
	C436.085815,272.361908 435.156799,270.286957 431.709137,269.357819 
	C424.056885,267.295593 417.178772,263.624207 411.110779,258.568634 
	C409.009247,256.817688 407.532318,256.733673 405.639954,258.691772 
	C401.715240,262.752808 397.586182,266.617432 393.688721,270.703552 
	C384.163116,280.690460 384.196869,280.722656 396.104523,289.379456 
M361.999176,182.800797 
	C361.437225,185.539551 363.336456,186.218491 365.348511,186.812225 
	C369.970337,188.176056 374.575195,189.600052 379.214203,190.902374 
	C391.397736,194.322662 391.560913,194.394043 397.739441,183.836960 
	C399.858856,180.215591 405.108398,177.257019 403.771149,173.119415 
	C402.578247,169.428268 398.189301,166.745224 395.144257,163.683395 
	C390.746033,159.260986 386.287811,154.898270 381.561462,150.219299 
	C372.626648,160.030746 365.780945,170.075241 361.999176,182.800797 
M462.548706,270.043213 
	C460.732758,270.836487 460.129089,272.404755 460.409943,274.148560 
	C461.961578,283.782715 463.090881,293.505310 465.900696,303.507141 
	C477.863922,301.380768 488.428406,296.857971 498.186066,290.312561 
	C500.536682,288.735779 499.539398,286.871155 498.273071,285.159393 
	C493.320221,278.464386 488.312500,271.809723 483.386749,265.094910 
	C481.566467,262.613434 479.715057,262.348907 477.031281,263.971039 
	C472.748688,266.559509 468.073303,268.370239 462.548706,270.043213 
M376.360626,236.993927 
	C372.550262,238.174866 368.772675,239.479599 364.919739,240.499756 
	C361.491638,241.407440 360.863068,243.173279 362.145111,246.370407 
	C366.079803,256.182648 371.273590,265.199585 378.141693,273.266052 
	C380.482452,276.015259 382.617554,276.295898 385.199738,273.677826 
	C391.040619,267.755737 396.946411,261.897644 402.826416,256.014099 
	C404.044739,254.795120 405.263458,253.598572 403.712067,251.778290 
	C402.153412,249.949524 400.765442,251.007828 399.381927,251.993423 
	C395.861176,254.501572 392.371765,257.054260 388.830078,259.532257 
	C387.757294,260.282867 386.526886,261.186096 385.284302,259.879669 
	C384.902100,259.477814 384.660767,258.621185 384.807648,258.100494 
	C385.167389,256.825226 386.558167,256.720306 387.532013,256.140015 
	C393.643616,252.498245 393.796936,249.512589 388.129089,245.553360 
	C387.493164,245.109146 387.071289,244.358612 386.527618,243.723816 
	C387.394623,241.427460 389.471863,240.919113 391.090668,239.864624 
	C392.633881,238.859390 395.176239,238.575760 393.982819,235.617828 
	C392.915741,232.973129 390.827118,232.843109 388.613556,233.415039 
	C384.754364,234.412216 380.948853,235.617050 376.360626,236.993927 
M441.346741,117.914558 
	C444.668030,117.701721 445.883575,115.877846 445.837952,112.630676 
	C445.727997,104.805061 445.740753,96.975601 445.856476,89.149933 
	C445.907013,85.733101 444.402557,84.207275 441.078247,84.340530 
	C434.922455,84.587273 428.834137,85.457260 422.808533,86.660538 
	C419.440063,87.333214 418.911987,89.764359 419.707520,92.805977 
	C421.263031,98.753601 422.702087,104.731560 424.218506,110.689552 
	C426.447968,119.449280 426.459747,119.456909 435.080139,118.716125 
	C436.899475,118.559784 438.709625,118.296455 441.346741,117.914558 
M488.467102,215.346313 
	C483.490417,215.358414 478.512665,215.437363 473.537384,215.359329 
	C470.167816,215.306458 468.403564,217.017181 467.419067,220.061737 
	C466.468140,223.002502 465.631927,225.641968 468.721344,228.059692 
	C474.989014,232.964615 481.073608,238.103317 487.236969,243.141663 
	C490.038239,245.431656 492.332520,244.959854 494.229034,241.911346 
	C497.056549,237.366287 499.115265,232.476318 500.494568,227.336288 
	C503.467010,216.258926 502.719849,215.336517 491.440369,215.347244 
	C490.776794,215.347870 490.113220,215.347900 488.467102,215.346313 
M420.266083,243.761063 
	C418.008362,246.192917 415.732147,248.607971 413.499359,251.062515 
	C412.017944,252.691055 411.949219,254.286163 413.776611,255.756790 
	C419.266632,260.174927 425.298340,263.610962 432.093292,265.550720 
	C434.681091,266.289459 436.832977,265.452209 437.413940,262.578156 
	C439.151917,253.979706 440.914246,245.384094 441.828644,236.639969 
	C442.175751,233.320847 439.669128,232.568344 437.565399,231.289871 
	C435.445496,230.001526 433.859741,230.678345 432.264679,232.235153 
	C428.463867,235.944733 424.602539,239.592316 420.266083,243.761063 
M450.127899,151.978226 
	C450.785858,157.856216 455.829773,155.016968 458.791595,156.219833 
	C462.181183,157.596436 464.408661,156.114288 465.523438,152.562698 
	C467.904633,144.976562 470.354492,137.407944 472.994141,129.908859 
	C474.134766,126.668304 472.843445,125.229317 469.973175,124.465332 
	C465.486023,123.270996 460.953796,122.492699 456.291840,122.173210 
	C451.673309,121.856705 449.954315,123.790657 450.018402,128.190430 
	C450.129517,135.818115 450.063293,143.448395 450.127899,151.978226 
M493.772247,211.684753 
	C496.584045,210.954941 501.665039,213.714661 501.580292,208.384033 
	C501.388458,196.319763 496.210022,186.165497 488.106171,177.264709 
	C481.798523,181.495132 477.651459,187.007019 472.601593,191.536072 
	C470.504150,193.417221 468.568207,195.488998 466.661926,197.568573 
	C465.644348,198.678696 464.712494,200.039276 465.761566,201.591980 
	C466.847656,203.199539 468.374969,202.650421 469.788330,202.059372 
	C474.077972,200.265533 478.342743,198.411652 482.644531,196.647766 
	C484.118042,196.043564 486.246613,194.828110 486.909973,197.062042 
	C488.283173,201.686630 491.207581,206.191544 488.659515,211.682678 
	C490.320587,211.682678 491.635498,211.682678 493.772247,211.684753 
M445.828552,135.520905 
	C445.850555,121.303909 443.955811,119.704979 431.785522,123.150688 
	C428.889404,123.970650 427.871704,125.467422 428.546509,128.197876 
	C430.539886,136.263947 432.608215,144.311462 434.643494,152.367188 
	C435.686432,156.495300 438.895569,155.789383 441.882111,155.647095 
	C444.888611,155.503876 445.827087,153.737930 445.802032,150.999664 
	C445.757874,146.171661 445.812103,141.342743 445.828552,135.520905 
M416.998444,185.501205 
	C413.910187,182.877777 411.804077,179.071426 407.594299,177.417068 
	C403.987091,181.424423 401.079010,185.625443 398.969757,190.379623 
	C397.406403,193.903381 397.911041,196.481888 402.009247,197.714752 
	C409.332733,199.917847 416.609283,202.278305 423.945770,204.435928 
	C426.230377,205.107819 428.531891,205.236542 430.036926,202.599350 
	C431.485809,200.060577 429.965149,198.513199 428.432281,196.954742 
	C424.814880,193.276886 421.148132,189.647583 416.998444,185.501205 
M458.039703,260.528534 
	C459.322296,266.151215 460.486084,266.815948 465.902161,264.871735 
	C469.181427,263.694580 472.390503,262.357452 475.290100,260.366241 
	C476.981384,259.204742 478.098480,257.877716 476.617004,255.879379 
	C471.189178,248.557968 465.743286,241.249527 460.241425,233.983749 
	C459.000336,232.344711 457.339630,231.923935 455.398438,232.992554 
	C453.561310,234.003891 453.634094,235.478333 453.952911,237.255890 
	C455.294769,244.737198 456.533508,252.236984 458.039703,260.528534 
M372.297485,135.210968 
	C373.945465,136.844055 375.545471,138.529388 377.253296,140.097275 
	C379.503662,142.163239 381.296906,144.859375 385.029327,141.491684 
	C388.393707,138.456085 388.525726,136.188751 385.817017,132.831314 
	C382.178558,128.321442 378.903015,123.519775 375.443787,118.864098 
	C369.256470,110.536713 368.778351,110.590111 361.114166,117.640327 
	C358.651978,119.905281 358.731750,121.573196 360.950073,123.748993 
	C364.616791,127.345406 368.185822,131.041428 372.297485,135.210968 
M504.345276,141.170792 
	C498.745728,137.182434 498.360016,137.249100 494.834564,142.867218 
	C491.040314,148.913681 487.355225,155.032196 483.415222,160.982010 
	C481.561829,163.780899 481.261780,165.703659 484.293823,168.025803 
	C487.335358,170.355194 489.326477,169.452805 491.564667,167.155884 
	C496.199402,162.399475 500.903717,157.710831 505.583221,152.998093 
	C511.370819,147.169403 511.350372,146.795135 504.345276,141.170792 
M450.034149,164.854721 
	C450.408630,173.558929 449.285278,182.358551 450.764069,191.417221 
	C453.325470,190.415375 453.886414,188.959564 454.331299,187.590591 
	C456.637177,180.495010 458.720123,173.324860 461.133087,166.266968 
	C462.777069,161.458374 459.980774,160.598297 456.313263,159.831299 
	C452.636688,159.062439 449.911682,159.192673 450.034149,164.854721 
M400.542816,152.921402 
	C398.246826,149.880692 395.962860,146.830795 393.651123,143.802109 
	C391.708099,141.256500 389.900085,142.662506 388.178101,144.087204 
	C386.452759,145.514679 384.668152,147.126648 386.870300,149.410477 
	C393.079956,155.850296 399.369781,162.213165 405.664246,168.570480 
	C406.799133,169.716705 408.194244,170.258759 409.649811,169.058258 
	C411.272614,167.719879 410.351288,166.312744 409.493103,165.114746 
	C406.695740,161.209808 403.803467,157.372879 400.542816,152.921402 
M440.796417,160.060272 
	C437.989838,160.321732 437.131714,161.783417 437.824371,164.494171 
	C439.587891,171.395477 441.204315,178.334488 442.986053,185.230911 
	C443.316711,186.510757 442.818085,188.376801 445.654907,189.030151 
	C445.654907,180.155884 445.740448,171.480453 445.597321,162.808792 
	C445.559479,160.515411 443.580292,160.028442 440.796417,160.060272 
M471.889038,179.328308 
	C470.458160,181.561462 468.886566,183.719131 467.636475,186.049240 
	C466.415527,188.324951 464.458679,190.362350 464.295502,192.355331 
	C470.773315,186.287994 477.466339,180.019043 484.134644,173.773270 
	C479.656097,168.478561 478.800201,168.484375 475.440948,173.658752 
	C474.358124,175.326675 473.332794,177.031921 471.889038,179.328308 
M405.299500,232.709778 
	C408.693268,230.775299 412.577576,229.651611 416.145111,226.366592 
	C410.933167,226.005173 406.999390,227.797562 403.032135,229.136063 
	C400.714447,229.917999 395.996246,229.598251 397.983826,233.840469 
	C399.761536,237.634796 402.365875,233.397400 405.299500,232.709778 
M420.179840,179.262390 
	C414.992981,172.293411 414.992981,172.293411 411.625000,173.884857 
	C414.899475,178.783218 419.642181,181.996689 424.283447,185.434677 
	C423.055511,183.567047 421.827576,181.699402 420.179840,179.262390 
M419.781891,238.200027 
	C414.883270,240.665543 409.613983,242.722977 407.765045,248.551102 
	C412.973419,246.649063 416.498230,242.843002 419.781891,238.200027 
M459.637024,215.499329 
	C457.948730,215.813370 456.773010,216.599518 457.714294,218.462509 
	C458.389740,219.799347 459.592224,220.747528 461.240112,220.617264 
	C462.548187,220.513855 463.306976,219.589005 463.454102,218.386063 
	C463.735291,216.086548 461.901306,215.898514 459.637024,215.499329 
M439.128906,226.465286 
	C440.095642,228.159576 441.539368,228.181717 442.736755,227.033875 
	C443.974304,225.847580 444.225891,224.287842 442.939117,222.854279 
	C440.923706,223.171097 439.983215,224.446106 439.128906,226.465286 
z"/>
<path fill="#000000" opacity="1.000000" stroke="none" 
	d="
M277.174011,448.377319 
	C277.835785,444.697937 278.681030,441.441040 278.843597,438.150452 
	C279.082275,433.318054 275.649689,430.852875 270.948120,432.249451 
	C264.283691,434.229095 261.935547,439.834778 260.451111,445.738312 
	C258.509064,453.461884 256.876526,461.277557 255.489990,469.120605 
	C254.760986,473.244354 252.833496,474.843079 248.754669,474.358307 
	C245.816956,474.009155 242.786972,474.768097 239.555084,473.699738 
	C239.026825,468.158386 241.216019,463.026917 242.138550,457.734802 
	C243.050812,452.501587 244.474243,447.358429 245.424423,442.130524 
	C246.079834,438.524292 246.777924,434.661591 242.464905,432.532379 
	C238.122498,430.388611 235.091492,433.074188 232.358429,435.734222 
	C228.472351,439.516541 227.510849,444.729431 226.396286,449.763794 
	C224.960175,456.250549 223.522018,462.743896 222.379395,469.285858 
	C221.713913,473.095856 219.977783,474.863586 216.022018,474.353577 
	C212.944321,473.956757 209.730011,474.963837 206.586227,473.555084 
	C206.283630,467.060394 208.641708,461.082825 209.765915,454.921661 
	C211.582428,444.966461 213.827011,435.090088 215.776749,425.158051 
	C216.372971,422.120911 217.664566,420.166565 221.047256,420.676544 
	C224.814560,421.244537 229.023590,418.965027 232.357193,422.574280 
	C233.296936,423.591705 234.545471,422.634247 235.565414,422.122314 
	C245.056274,417.358673 254.036850,416.834351 262.015991,425.602020 
	C264.075562,424.337982 265.991089,423.068817 267.992493,421.953735 
	C271.989563,419.726715 276.258698,418.292084 280.880707,418.830933 
	C292.188293,420.149200 297.308899,427.104126 295.068542,438.357056 
	C293.026764,448.612549 290.460480,458.765503 288.517944,469.037903 
	C287.739471,473.154449 285.964233,474.766754 281.847351,474.386322 
	C278.924530,474.116211 275.956696,474.333984 272.492493,474.333984 
	C273.048553,465.112732 275.728455,457.058563 277.174011,448.377319 
z"/>
<path fill="#000000" opacity="1.000000" stroke="none" 
	d="
M688.403137,466.340942 
	C677.494751,477.511139 664.262756,478.568665 652.501526,469.465515 
	C649.774597,473.750793 643.447266,475.871094 638.636292,474.084076 
	C635.616638,472.962463 636.755249,470.537994 637.155029,468.587646 
	C639.720032,456.074066 642.395081,443.583038 645.044495,431.086792 
	C646.902893,422.321503 648.901978,413.583374 650.578369,404.783600 
	C651.166626,401.695709 652.608826,400.533417 655.615479,400.640350 
	C659.070984,400.763214 662.534302,400.668884 666.925110,400.668884 
	C665.430115,408.240845 664.076538,415.096832 662.754761,421.791595 
	C664.476257,423.210632 665.537720,421.936249 666.632263,421.414185 
	C681.560181,414.294373 695.059326,421.901093 696.238464,438.341827 
	C696.959473,448.395325 695.028259,457.883148 688.403137,466.340942 
M656.290039,454.889618 
	C658.529785,463.735199 667.167603,466.488037 673.816956,460.323944 
	C678.876709,455.633423 680.660522,449.529388 680.759766,442.754486 
	C680.830444,437.933685 679.933716,433.631134 674.994080,431.650574 
	C670.069214,429.675995 664.293213,431.882141 660.967224,436.592834 
	C657.266846,441.833893 655.825500,447.689209 656.290039,454.889618 
z"/>
<path fill="#000000" opacity="1.000000" stroke="none" 
	d="
M453.651978,451.319580 
	C449.359650,467.874817 439.315948,475.874542 424.146210,475.369232 
	C419.217133,475.205048 415.370789,472.779205 411.140015,469.799713 
	C408.829498,475.371094 408.268890,480.973969 406.958832,486.381622 
	C406.452332,488.472534 406.967987,491.749176 403.972809,492.107849 
	C399.900421,492.595581 395.597198,493.192078 391.674927,491.623810 
	C389.920990,490.922516 390.877777,488.666351 391.214508,487.080261 
	C395.142944,468.578094 399.015015,450.063599 403.045044,431.583527 
	C405.604279,419.847870 408.908813,418.041168 420.671448,421.832733 
	C422.441498,422.403290 423.513733,421.605286 424.838501,421.055603 
	C442.417969,413.761536 457.402222,425.204620 454.921783,444.048584 
	C454.618683,446.351440 454.174408,448.635742 453.651978,451.319580 
M439.523682,444.241241 
	C439.572937,437.333282 436.921356,432.699402 432.213348,431.465698 
	C426.975433,430.093109 422.091095,432.572418 418.478027,438.233948 
	C416.278137,441.681091 415.124084,445.484009 414.484833,449.424927 
	C413.423370,455.969147 415.711761,460.777954 420.545929,462.776062 
	C425.477417,464.814392 430.951263,462.768677 434.817841,457.562256 
	C437.592224,453.826599 438.684692,449.522308 439.523682,444.241241 
z"/>
<path fill="#000000" opacity="1.000000" stroke="none" 
	d="
M324.056641,474.563202 
	C320.051270,475.717865 316.353363,475.526917 312.729095,475.196381 
	C305.720764,474.557251 300.527466,470.082001 299.084473,463.867706 
	C297.721527,457.998108 300.962280,450.550323 306.332611,446.950226 
	C313.052002,442.445801 320.894226,442.733765 328.417816,441.770569 
	C330.916290,441.450684 333.367554,441.120697 335.676300,440.167877 
	C337.637482,439.358551 339.066498,437.835968 339.141266,435.655884 
	C339.217010,433.448425 337.721619,432.004303 335.913666,430.958710 
	C332.019775,428.706726 325.586975,428.972443 323.111816,432.747742 
	C318.558899,439.692261 312.501099,436.780701 306.203125,437.069183 
	C306.627441,430.709015 309.131500,426.156097 313.996735,423.367737 
	C324.703949,417.231232 335.949158,417.227692 347.102356,421.956940 
	C353.257599,424.566925 355.440735,430.257996 353.882141,437.978821 
	C352.010437,447.250763 349.888336,456.472046 347.999512,465.740692 
	C347.477142,468.304108 347.398712,470.957977 347.064728,474.050659 
	C341.982483,474.112122 336.859253,475.531921 332.001770,473.123505 
	C328.972198,471.621460 326.998444,474.203400 324.056641,474.563202 
M329.678833,462.324036 
	C332.073883,460.611603 333.470825,458.190308 334.368042,455.475861 
	C335.023315,453.493286 334.699463,451.504944 332.311340,451.332367 
	C327.359436,450.974457 322.338165,450.944977 317.856720,453.614288 
	C315.381958,455.088287 314.015930,457.449707 314.630371,460.315369 
	C315.266571,463.282715 317.601807,464.502441 320.532440,464.674469 
	C323.565704,464.852478 326.495148,464.617462 329.678833,462.324036 
z"/>
<path fill="#000000" opacity="1.000000" stroke="none" 
	d="
M531.584229,422.142181 
	C537.996216,425.630920 541.075623,431.046326 541.779419,437.632141 
	C543.064392,449.656647 540.276978,460.604614 530.757202,468.681274 
	C521.235291,476.759796 510.077362,477.235504 498.791870,473.222260 
	C490.780548,470.373352 486.784760,464.054382 486.676544,455.525787 
	C486.624054,451.388092 486.209839,447.214752 487.263275,443.112457 
	C492.551514,422.518677 511.042664,413.617188 531.584229,422.142181 
M521.515564,457.956909 
	C524.815308,453.737762 526.203430,448.775848 526.567627,443.591125 
	C526.909607,438.724243 525.835693,434.183167 520.854492,431.853912 
	C516.504578,429.819824 511.020081,431.398529 507.355530,435.576782 
	C504.294189,439.067291 503.001862,443.314240 502.128235,447.791351 
	C500.854614,454.318268 502.616089,459.891449 506.953827,462.255096 
	C511.729492,464.857330 515.721008,463.798309 521.515564,457.956909 
z"/>
<path fill="#000000" opacity="1.000000" stroke="none" 
	d="
M374.729401,409.830048 
	C375.094391,405.704437 377.106110,404.260345 380.778900,404.603424 
	C384.048676,404.908783 387.409546,404.087524 390.752625,405.313599 
	C391.244659,408.084412 390.129517,410.571381 389.657013,413.128143 
	C388.522156,419.269531 389.107758,420.088562 395.197174,420.691040 
	C395.998322,420.770325 396.786835,420.977234 397.515594,421.112823 
	C398.001160,428.731842 396.602142,430.635101 389.822327,431.113647 
	C387.000946,431.312866 385.626709,432.559143 385.069092,435.214996 
	C383.567871,442.364990 381.861664,449.473755 380.472076,456.644501 
	C379.828461,459.965637 380.621246,462.720612 384.901459,462.702148 
	C387.651489,462.690277 389.755615,463.847992 389.136292,466.821198 
	C388.526337,469.749542 389.469330,473.930664 384.498718,474.397919 
	C380.850342,474.740814 377.259735,475.118927 373.572937,474.457733 
	C366.050385,473.108673 362.586823,468.428284 364.075836,460.934052 
	C365.434967,454.093414 367.059448,447.305725 368.437042,440.468506 
	C370.087952,432.274902 369.943634,432.131622 362.129150,430.664368 
	C360.660583,423.886444 362.268066,421.405212 368.921265,420.649231 
	C371.068665,420.405273 372.299866,419.499329 372.819366,417.482086 
	C373.440277,415.071442 374.059875,412.660461 374.729401,409.830048 
z"/>
<path fill="#000000" opacity="1.000000" stroke="none" 
	d="
M576.557007,404.889771 
	C579.476868,407.621674 577.328491,410.390015 576.953857,412.925659 
	C575.879028,420.201080 575.721130,420.240387 582.863098,420.498810 
	C583.502197,420.521942 584.134155,420.739563 584.717590,420.856476 
	C585.604736,428.407379 584.066040,430.521149 576.998535,431.147400 
	C574.252625,431.390686 572.817078,432.560913 572.270813,435.282257 
	C570.772339,442.748413 569.081787,450.175873 567.553833,457.636353 
	C566.971619,460.479065 568.430237,462.037292 571.166809,462.541962 
	C572.937378,462.868469 574.828674,462.123230 576.516052,463.089508 
	C577.600037,472.233215 575.279541,474.963074 566.389343,475.062592 
	C554.181335,475.199219 549.990173,470.519165 551.761902,458.638763 
	C552.079346,456.510559 552.650208,454.420166 553.104187,452.312378 
	C554.221191,447.125610 555.399597,441.951019 556.431885,436.747467 
	C557.031860,433.722748 557.061401,430.947083 552.651978,431.097717 
	C550.541809,431.169769 548.114502,430.711945 548.928711,427.908539 
	C549.703552,425.241150 548.529602,420.539154 553.301514,420.822357 
	C558.797668,421.148468 560.205688,418.507172 561.266113,413.736572 
	C563.651733,403.004669 561.426758,404.922485 572.625916,404.673065 
	C573.787109,404.647186 574.951050,404.744659 576.557007,404.889771 
z"/>
<path fill="#000000" opacity="1.000000" stroke="none" 
	d="
M480.410370,439.269836 
	C478.306763,449.442291 476.153412,459.175598 474.261414,468.959412 
	C473.511414,472.837646 471.909119,474.968323 467.633759,474.353119 
	C464.566345,473.911743 461.331573,475.017578 457.754272,473.213898 
	C459.510162,464.699982 461.257416,456.120880 463.051849,447.551636 
	C465.945526,433.733337 468.897278,419.927124 471.762604,406.102966 
	C472.458282,402.746490 473.435577,400.483398 477.764374,400.559631 
	C490.428375,400.782654 488.928711,399.832031 486.436829,411.082092 
	C484.389404,420.325745 482.451660,429.593719 480.410370,439.269836 
z"/>
<path fill="#000000" opacity="1.000000" stroke="none" 
	d="
M596.929077,405.128845 
	C597.481750,401.809967 598.993835,400.356354 602.098328,400.617889 
	C605.542053,400.908020 609.051941,400.168365 612.786743,401.213379 
	C612.904175,407.437195 610.768677,413.227051 609.580566,419.132996 
	C606.245422,435.710510 602.554871,452.216187 599.128845,468.775940 
	C598.370483,472.441284 597.228455,474.563385 592.732056,474.451202 
	C582.497620,474.195831 582.442078,474.452850 584.512573,464.457489 
	C588.581726,444.813324 592.711060,425.181610 596.929077,405.128845 
z"/>
<path fill="#000000" opacity="1.000000" stroke="none" 
	d="
M624.218567,420.638977 
	C628.131836,420.632507 631.581238,420.632507 635.476379,420.632507 
	C635.216309,427.792755 633.135864,433.946350 631.940491,440.216248 
	C630.012634,450.328247 627.492798,460.326263 625.466675,470.421356 
	C624.892395,473.282837 623.641785,474.432190 620.818420,474.347260 
	C617.344849,474.242706 613.865845,474.322327 610.360168,474.322327 
	C608.660767,470.592926 610.526367,467.406189 611.118591,464.348358 
	C613.706238,450.985840 616.838501,437.729645 619.565613,424.392426 
	C620.099915,421.779510 621.093262,420.488403 624.218567,420.638977 
z"/>
<path fill="#000000" opacity="1.000000" stroke="none" 
	d="
M628.250977,400.679230 
	C632.450806,400.906830 636.260193,400.091095 639.948059,401.228821 
	C638.576843,413.615814 635.730774,415.484924 622.864502,412.621094 
	C622.112244,406.003418 623.849731,401.794708 628.250977,400.679230 
z"/>
</svg>