<svg version="1.1" id="Layer_1" xmlns="http://www.w3.org/2000/svg" xmlns:xlink="http://www.w3.org/1999/xlink" x="0px" y="0px"
	 width="100%" viewBox="0 0 300 168" enable-background="new 0 0 300 168" xml:space="preserve">
<path fill="#FEFEFE" opacity="1.000000" stroke="none" 
	d="
M178.000000,169.000000 
	C118.666672,169.000000 59.833347,169.000000 1.000016,169.000000 
	C1.000010,113.000015 1.000010,57.000027 1.000005,1.000031 
	C100.999969,1.000021 200.999939,1.000021 300.999939,1.000010 
	C300.999939,56.999969 300.999939,112.999939 300.999969,168.999954 
	C260.166656,169.000000 219.333328,169.000000 178.000000,169.000000 
M113.224533,51.967247 
	C113.125290,52.302082 113.026047,52.636921 112.435867,53.438759 
	C108.938385,59.107399 105.440903,64.776039 101.792953,70.688553 
	C97.614304,64.080170 93.795631,58.041092 90.086693,51.377979 
	C89.777222,51.139633 89.467751,50.901287 88.415329,50.264030 
	C82.293198,50.306847 76.171059,50.349659 69.455521,50.173416 
	C69.537636,50.967571 69.619751,51.761730 69.913971,53.179874 
	C76.456932,62.554829 83.080910,71.875473 89.444908,81.370384 
	C90.282669,82.620293 90.530418,85.220779 89.789909,86.410622 
	C86.297935,92.021492 82.366638,97.358948 78.329910,103.171333 
	C70.473915,85.885414 62.772263,68.939117 55.064419,51.366875 
	C54.762909,51.128365 54.461395,50.889854 53.409138,50.273323 
	C48.290062,50.321407 43.170986,50.369492 37.468319,50.185188 
	C36.917667,50.384064 36.367016,50.582939 35.227196,51.179100 
	C25.391171,73.297470 15.555144,95.415833 5.221110,117.931053 
	C5.402493,118.435852 5.583877,118.940643 6.585289,119.629112 
	C12.066234,119.448883 17.547178,119.268654 23.613760,118.843391 
	C23.802694,118.252655 23.991627,117.661919 24.649689,116.559380 
	C31.450218,101.634621 38.250748,86.709862 45.637287,72.209274 
	C52.393730,87.147430 59.150173,102.085587 65.847679,117.478889 
	C65.857002,117.818199 66.010880,118.068733 66.403938,118.478935 
	C66.403938,118.478935 66.628082,118.621925 67.018913,119.312675 
	C73.126579,119.458900 79.234329,119.676460 85.341820,119.669586 
	C86.195602,119.668633 87.048149,118.565544 88.330307,117.441269 
	C92.706169,110.989136 97.082024,104.536995 101.713554,97.707870 
	C103.874237,100.884224 106.424767,103.640541 107.836082,106.891441 
	C112.382889,117.364807 119.845963,121.893532 131.210983,119.606728 
	C132.331177,119.381325 133.536041,119.576576 135.104156,119.576576 
	C134.492966,117.964546 134.195236,116.316338 133.335373,115.049728 
	C127.222656,106.045517 121.091705,97.049927 114.747314,88.208931 
	C112.742615,85.415359 112.566574,83.521843 114.736679,80.528183 
	C121.154648,71.674599 127.083466,62.466434 133.836136,53.059727 
	C134.210953,52.258060 134.585754,51.456398 134.960556,50.654732 
	C134.289597,50.567192 133.618637,50.479649 132.031296,50.232887 
	C126.373055,50.302105 120.714806,50.371323 114.509422,50.318245 
	C114.246712,50.794365 113.983994,51.270481 113.999084,51.998932 
	C113.999084,51.998932 113.718437,51.749832 113.224533,51.967247 
M140.050827,118.560806 
	C140.358643,118.665733 140.666473,118.770668 141.900116,119.020927 
	C146.607437,118.972397 151.314743,118.923866 156.646484,118.948898 
	C156.800583,118.623322 156.954681,118.297752 157.348068,117.064690 
	C157.268311,95.385933 157.188553,73.707169 157.195618,51.302418 
	C156.831177,51.054916 156.466736,50.807419 155.322601,50.298271 
	C150.591812,50.393536 145.861023,50.488800 140.389740,50.567783 
	C140.301361,51.035820 140.212997,51.503860 139.979294,52.902813 
	C140.027695,74.609077 140.076096,96.315338 140.050827,118.560806 
M234.405823,68.124275 
	C230.442154,63.636078 227.187897,58.069099 222.360397,54.894482 
	C213.546738,49.098515 204.035339,46.867161 192.730637,49.519390 
	C176.378128,53.355892 163.199188,66.901970 162.981888,83.487610 
	C162.784348,98.564575 169.173889,110.088646 182.430725,117.193893 
	C195.991562,124.462090 209.645111,123.715195 222.498215,115.229446 
	C237.987061,105.003540 243.513138,83.465332 234.405823,68.124275 
M293.844055,61.720150 
	C288.012909,51.853470 278.670319,48.996113 268.033600,49.096424 
	C265.727325,49.118172 263.462250,50.453907 261.126190,50.928284 
	C253.407379,52.495682 247.936569,56.845657 245.067657,64.137062 
	C240.054886,76.877060 247.990250,89.013336 263.127625,91.996178 
	C267.038086,92.766747 271.031799,93.228142 274.854126,94.304451 
	C279.742096,95.680832 280.752441,100.406502 277.547485,104.016922 
	C274.213623,107.772499 261.121674,106.404861 258.862396,100.850639 
	C256.353638,94.682991 256.053467,94.970398 249.667252,97.325836 
	C247.333801,98.186485 244.682266,98.184700 241.486313,98.684105 
	C242.056564,101.221199 242.219238,103.718193 243.165009,105.871193 
	C250.463593,122.486061 278.558594,126.763443 291.451843,113.034492 
	C302.172333,101.619102 298.218750,86.961349 284.628540,80.436600 
	C279.144592,77.803711 272.611298,77.318359 266.526062,75.991074 
	C263.231293,75.272430 260.598236,73.298172 261.510315,70.134811 
	C262.196472,67.755066 264.799896,64.978333 267.148315,64.211639 
	C273.371490,62.179989 277.243195,64.971466 281.078125,73.157967 
	C284.044159,72.392715 287.078613,71.652161 290.089111,70.824379 
	C296.594635,69.035568 296.662872,68.863701 293.844055,61.720150 
z"/>
<path fill="#232323" opacity="1.000000" stroke="none" 
	d="
M115.056564,50.440536 
	C120.714806,50.371323 126.373055,50.302105 132.522263,50.688187 
	C133.076691,51.894642 133.140152,52.645802 133.203629,53.396965 
	C127.083466,62.466434 121.154648,71.674599 114.736679,80.528183 
	C112.566574,83.521843 112.742615,85.415359 114.747314,88.208931 
	C121.091705,97.049927 127.222656,106.045517 133.335373,115.049728 
	C134.195236,116.316338 134.492966,117.964546 135.104156,119.576576 
	C133.536041,119.576576 132.331177,119.381325 131.210983,119.606728 
	C119.845963,121.893532 112.382889,117.364807 107.836082,106.891441 
	C106.424767,103.640541 103.874237,100.884224 101.713554,97.707870 
	C97.082024,104.536995 92.706169,110.989136 87.656204,117.765762 
	C80.197426,118.267471 73.412750,118.444695 66.628082,118.621925 
	C66.628082,118.621925 66.403938,118.478935 66.408127,118.127884 
	C66.362694,117.446022 66.194122,117.194992 65.906616,117.023743 
	C59.150173,102.085587 52.393730,87.147430 45.318203,71.641602 
	C42.588001,65.485786 40.176884,59.897640 37.819435,53.921700 
	C37.932705,52.495132 37.992306,51.456352 38.051910,50.417576 
	C43.170986,50.369492 48.290062,50.321407 53.851772,50.734268 
	C54.553143,51.461079 54.811878,51.726948 55.070610,51.992821 
	C62.772263,68.939117 70.473915,85.885414 78.329910,103.171333 
	C82.366638,97.358948 86.297935,92.021492 89.789909,86.410622 
	C90.530418,85.220779 90.282669,82.620293 89.444908,81.370384 
	C83.080910,71.875473 76.456932,62.554829 69.871735,52.508194 
	C69.902634,51.355167 69.975777,50.873821 70.048927,50.392475 
	C76.171059,50.349659 82.293198,50.306847 88.843552,50.727089 
	C89.506836,51.460770 89.741905,51.731392 89.976967,52.002014 
	C93.795631,58.041092 97.614304,64.080170 101.792953,70.688553 
	C105.440903,64.776039 108.938385,59.107399 112.894058,53.059334 
	C113.474312,52.369881 113.596375,52.059856 113.718437,51.749832 
	C113.718437,51.749832 113.999084,51.998932 114.112991,51.831783 
	C114.503448,51.256603 114.780006,50.848572 115.056564,50.440536 
z"/>
<path fill="#242424" opacity="1.000000" stroke="none" 
	d="
M234.577698,68.463348 
	C243.513138,83.465332 237.987061,105.003540 222.498215,115.229446 
	C209.645111,123.715195 195.991562,124.462090 182.430725,117.193893 
	C169.173889,110.088646 162.784348,98.564575 162.981888,83.487610 
	C163.199188,66.901970 176.378128,53.355892 192.730637,49.519390 
	C204.035339,46.867161 213.546738,49.098515 222.360397,54.894482 
	C227.187897,58.069099 230.442154,63.636078 234.577698,68.463348 
M191.270599,67.560959 
	C190.200562,68.342613 189.051926,69.037125 188.073090,69.919922 
	C181.195496,76.122726 179.683914,86.318756 184.237320,95.473122 
	C187.437805,101.907494 196.401703,106.310280 203.658203,104.931847 
	C211.963791,103.354149 217.346283,98.290291 219.449173,90.281250 
	C221.598618,82.094940 219.497574,74.772850 212.827286,69.254936 
	C206.408585,63.945148 199.312805,63.615726 191.270599,67.560959 
z"/>
<path fill="#242424" opacity="1.000000" stroke="none" 
	d="
M293.973419,62.073307 
	C296.662872,68.863701 296.594635,69.035568 290.089111,70.824379 
	C287.078613,71.652161 284.044159,72.392715 281.078125,73.157967 
	C277.243195,64.971466 273.371490,62.179989 267.148315,64.211639 
	C264.799896,64.978333 262.196472,67.755066 261.510315,70.134811 
	C260.598236,73.298172 263.231293,75.272430 266.526062,75.991074 
	C272.611298,77.318359 279.144592,77.803711 284.628540,80.436600 
	C298.218750,86.961349 302.172333,101.619102 291.451843,113.034492 
	C278.558594,126.763443 250.463593,122.486061 243.165009,105.871193 
	C242.219238,103.718193 242.056564,101.221199 241.486313,98.684105 
	C244.682266,98.184700 247.333801,98.186485 249.667252,97.325836 
	C256.053467,94.970398 256.353638,94.682991 258.862396,100.850639 
	C261.121674,106.404861 274.213623,107.772499 277.547485,104.016922 
	C280.752441,100.406502 279.742096,95.680832 274.854126,94.304451 
	C271.031799,93.228142 267.038086,92.766747 263.127625,91.996178 
	C247.990250,89.013336 240.054886,76.877060 245.067657,64.137062 
	C247.936569,56.845657 253.407379,52.495682 261.126190,50.928284 
	C263.462250,50.453907 265.727325,49.118172 268.033600,49.096424 
	C278.670319,48.996113 288.012909,51.853470 293.973419,62.073307 
z"/>
<path fill="#232323" opacity="1.000000" stroke="none" 
	d="
M157.108810,52.028412 
	C157.188553,73.707169 157.268311,95.385933 156.997482,117.604630 
	C156.330170,118.295410 156.121887,118.539001 156.022064,118.875336 
	C151.314743,118.923866 146.607437,118.972397 141.359665,118.750389 
	C140.650681,118.231514 140.419113,118.078766 140.124481,118.021606 
	C140.076096,96.315338 140.027695,74.609077 140.296890,52.273254 
	C140.786407,51.290489 140.958313,50.937279 141.130234,50.584068 
	C145.861023,50.488800 150.591812,50.393536 155.785675,50.734097 
	C156.535446,51.456085 156.822128,51.742249 157.108810,52.028412 
z"/>
<path fill="#3B6BE3" opacity="1.000000" stroke="none" 
	d="
M37.765766,54.309494 
	C40.176884,59.897640 42.588001,65.485786 45.025200,71.429520 
	C38.250748,86.709862 31.450218,101.634621 24.144077,116.968712 
	C23.435017,117.948166 23.231569,118.518295 23.028122,119.088417 
	C17.547178,119.268654 12.066234,119.448883 6.176914,119.058655 
	C5.752066,118.170212 5.735592,117.852211 5.719118,117.534203 
	C15.555144,95.415833 25.391171,73.297470 35.647446,51.296806 
	C36.633717,52.379509 37.199741,53.344501 37.765766,54.309494 
z"/>
<path fill="#4C4C4C" opacity="1.000000" stroke="none" 
	d="
M66.823502,118.967300 
	C73.412750,118.444695 80.197426,118.267471 87.441681,118.031441 
	C87.048149,118.565544 86.195602,119.668633 85.341820,119.669586 
	C79.234329,119.676460 73.126579,119.458900 66.823502,118.967300 
z"/>
<path fill="#3C3C3C" opacity="1.000000" stroke="none" 
	d="
M37.819435,53.921700 
	C37.199741,53.344501 36.633717,52.379509 35.942028,51.098167 
	C36.367016,50.582939 36.917667,50.384064 37.760113,50.301384 
	C37.992306,51.456352 37.932705,52.495132 37.819435,53.921700 
z"/>
<path fill="#3D3D3D" opacity="1.000000" stroke="none" 
	d="
M133.519882,53.228348 
	C133.140152,52.645802 133.076691,51.894642 132.980453,50.767792 
	C133.618637,50.479649 134.289597,50.567192 134.960556,50.654732 
	C134.585754,51.456398 134.210953,52.258060 133.519882,53.228348 
z"/>
<path fill="#3D3D3D" opacity="1.000000" stroke="none" 
	d="
M69.752228,50.282944 
	C69.975777,50.873821 69.902634,51.355167 69.765678,52.196198 
	C69.619751,51.761730 69.537636,50.967571 69.752228,50.282944 
z"/>
<path fill="#5D83E5" opacity="1.000000" stroke="none" 
	d="
M23.320942,118.965904 
	C23.231569,118.518295 23.435017,117.948166 23.909513,117.224609 
	C23.991627,117.661919 23.802694,118.252655 23.320942,118.965904 
z"/>
<path fill="#3D3D3D" opacity="1.000000" stroke="none" 
	d="
M114.782990,50.379391 
	C114.780006,50.848572 114.503448,51.256603 113.974091,51.705620 
	C113.983994,51.270481 114.246712,50.794365 114.782990,50.379391 
z"/>
<path fill="#4C4C4C" opacity="1.000000" stroke="none" 
	d="
M65.877151,117.251312 
	C66.194122,117.194992 66.362694,117.446022 66.360809,118.003662 
	C66.010880,118.068733 65.857002,117.818199 65.877151,117.251312 
z"/>
<path fill="#5D83E5" opacity="1.000000" stroke="none" 
	d="
M5.470114,117.732628 
	C5.735592,117.852211 5.752066,118.170212 5.766900,118.966827 
	C5.583877,118.940643 5.402493,118.435852 5.470114,117.732628 
z"/>
<path fill="#0E0E0E" opacity="1.000000" stroke="none" 
	d="
M140.087646,118.291206 
	C140.419113,118.078766 140.650681,118.231514 140.896759,118.677719 
	C140.666473,118.770668 140.358643,118.665733 140.087646,118.291206 
z"/>
<path fill="#0E0E0E" opacity="1.000000" stroke="none" 
	d="
M156.334274,118.912109 
	C156.121887,118.539001 156.330170,118.295410 156.877838,118.058372 
	C156.954681,118.297752 156.800583,118.623322 156.334274,118.912109 
z"/>
<path fill="#3D3D3D" opacity="1.000000" stroke="none" 
	d="
M113.471481,51.858540 
	C113.596375,52.059856 113.474312,52.369881 113.139526,52.825829 
	C113.026047,52.636921 113.125290,52.302082 113.471481,51.858540 
z"/>
<path fill="#0E0E0E" opacity="1.000000" stroke="none" 
	d="
M157.152222,51.665413 
	C156.822128,51.742249 156.535446,51.456085 156.175537,50.864922 
	C156.466736,50.807419 156.831177,51.054916 157.152222,51.665413 
z"/>
<path fill="#0E0E0E" opacity="1.000000" stroke="none" 
	d="
M140.759979,50.575924 
	C140.958313,50.937279 140.786407,51.290489 140.369568,51.807800 
	C140.212997,51.503860 140.301361,51.035820 140.759979,50.575924 
z"/>
<path fill="#3D3D3D" opacity="1.000000" stroke="none" 
	d="
M90.031830,51.689995 
	C89.741905,51.731392 89.506836,51.460770 89.215027,50.926544 
	C89.467751,50.901287 89.777222,51.139633 90.031830,51.689995 
z"/>
<path fill="#3C3C3C" opacity="1.000000" stroke="none" 
	d="
M55.067513,51.679848 
	C54.811878,51.726948 54.553143,51.461079 54.227142,50.923279 
	C54.461395,50.889854 54.762909,51.128365 55.067513,51.679848 
z"/>
<path fill="#FDFDFD" opacity="1.000000" stroke="none" 
	d="
M191.591766,67.350418 
	C199.312805,63.615726 206.408585,63.945148 212.827286,69.254936 
	C219.497574,74.772850 221.598618,82.094940 219.449173,90.281250 
	C217.346283,98.290291 211.963791,103.354149 203.658203,104.931847 
	C196.401703,106.310280 187.437805,101.907494 184.237320,95.473122 
	C179.683914,86.318756 181.195496,76.122726 188.073090,69.919922 
	C189.051926,69.037125 190.200562,68.342613 191.591766,67.350418 
z"/>
</svg>