<svg version="1.1" id="Layer_1" xmlns="http://www.w3.org/2000/svg" xmlns:xlink="http://www.w3.org/1999/xlink" x="0px" y="0px"
	 width="100%" viewBox="0 0 225 225" enable-background="new 0 0 225 225" xml:space="preserve">
<path fill="#16161A" opacity="1.000000" stroke="none" 
	d="
M148.000000,226.000000 
	C98.666672,226.000000 49.833340,226.000000 1.000006,226.000000 
	C1.000004,151.000000 1.000004,76.000015 1.000002,1.000017 
	C75.999992,1.000011 150.999985,1.000011 225.999969,1.000005 
	C225.999985,75.999985 225.999985,150.999969 226.000000,225.999969 
	C200.166672,226.000000 174.333328,226.000000 148.000000,226.000000 
M127.553627,60.567642 
	C126.926704,60.385609 126.300064,60.045551 125.672829,60.044460 
	C105.901718,60.010201 86.130478,59.986202 66.359619,60.059624 
	C65.187592,60.063980 64.018616,60.891171 62.641441,61.721119 
	C62.206753,62.094608 61.772068,62.468098 60.645290,63.390236 
	C60.433975,64.173599 60.039612,64.956604 60.038120,65.740372 
	C60.000740,85.337196 59.983425,104.934181 60.054111,124.530807 
	C60.058388,125.716461 60.820988,126.899384 61.750500,128.619293 
	C63.277294,129.014084 64.797966,129.719345 66.331955,129.749634 
	C72.791512,129.877136 79.255043,129.803131 85.717125,129.802963 
	C89.441109,129.802872 93.165092,129.802948 97.197021,129.802948 
	C97.197021,140.574783 97.113441,150.499924 97.274040,160.421112 
	C97.302971,162.208084 98.337051,163.978806 99.446365,166.432373 
	C100.073288,166.614395 100.699944,166.954437 101.327179,166.955536 
	C121.098289,166.989807 140.869553,167.013824 160.640396,166.940430 
	C161.812424,166.936081 162.981415,166.108856 164.358582,165.278885 
	C164.793259,164.905411 165.227936,164.531937 166.354691,163.609802 
	C166.566025,162.826447 166.960403,162.043427 166.961899,161.259674 
	C166.999298,141.662827 167.016632,122.065811 166.945938,102.469162 
	C166.941650,101.283501 166.179031,100.100586 165.249481,98.380676 
	C163.722687,97.985901 162.202011,97.280663 160.668015,97.250381 
	C154.208450,97.122864 147.744934,97.196869 141.282852,97.197044 
	C137.558868,97.197144 133.834885,97.197060 129.802979,97.197060 
	C129.802979,86.425484 129.886551,76.500214 129.725952,66.578888 
	C129.697037,64.791908 128.662964,63.021202 127.553627,60.567642 
z"/>
<path fill="#F7F7F7" opacity="1.000000" stroke="none" 
	d="
M98.907066,165.757019 
	C98.337051,163.978806 97.302971,162.208084 97.274040,160.421112 
	C97.113441,150.499924 97.197021,140.574783 97.197021,129.802948 
	C93.165092,129.802948 89.441109,129.802872 85.717125,129.802963 
	C79.255043,129.803131 72.791512,129.877136 66.331955,129.749634 
	C64.797966,129.719345 63.277294,129.014084 61.556480,127.880692 
	C61.354099,105.708595 61.345737,84.275085 61.337379,62.841583 
	C61.772068,62.468098 62.206753,62.094608 63.226151,61.547756 
	C85.238220,61.330589 106.665581,61.286789 128.092941,61.242985 
	C128.662964,63.021202 129.697037,64.791908 129.725952,66.578888 
	C129.886551,76.500214 129.802979,86.425484 129.802979,97.197060 
	C133.834885,97.197060 137.558868,97.197144 141.282852,97.197044 
	C147.744934,97.196869 154.208450,97.122864 160.668015,97.250381 
	C162.202011,97.280663 163.722687,97.985901 165.443512,99.119278 
	C165.645889,121.291405 165.654251,142.724945 165.662613,164.158478 
	C165.227936,164.531937 164.793259,164.905411 163.773865,165.452255 
	C141.761795,165.669418 120.334435,165.713226 98.907066,165.757019 
M81.417595,75.013611 
	C81.297882,75.337227 81.178177,75.660851 80.854111,76.904205 
	C80.920654,88.606934 80.987190,100.309654 81.014168,112.624458 
	C81.348656,112.768311 81.683151,112.912163 82.846016,113.297569 
	C84.560410,113.215729 86.274803,113.133888 88.650909,113.151176 
	C88.946350,112.452103 89.241791,111.753029 89.777641,110.152374 
	C89.777641,106.909073 89.777641,103.665771 89.777641,100.865768 
	C94.705292,100.133858 98.840324,99.825470 102.810669,98.848076 
	C107.204834,97.766357 110.822197,91.292923 110.423584,86.382019 
	C109.945839,80.496330 107.827705,77.117828 101.633301,76.139183 
	C95.188240,75.120934 88.543182,75.368462 81.417595,75.013611 
M133.750824,152.036728 
	C136.942154,150.795776 140.719711,150.254776 143.206207,148.172272 
	C148.874924,143.424545 146.534149,135.709030 138.489746,131.402985 
	C143.309586,129.215240 145.281296,125.411034 143.947800,120.447662 
	C142.632324,115.551285 138.421936,114.063431 133.919220,113.876190 
	C128.625931,113.656082 123.313072,113.906509 117.094154,114.117004 
	C116.951424,126.348320 116.796974,138.579559 116.722122,150.811310 
	C116.719856,151.181641 117.548805,151.557053 118.903450,152.124390 
	C123.273811,152.059601 127.644180,151.994812 132.499329,152.055176 
	C132.657242,152.001160 132.815170,151.947144 133.750824,152.036728 
z"/>
<path fill="#000000" opacity="1.000000" stroke="none" 
	d="
M99.176712,166.094696 
	C120.334435,165.713226 141.761795,165.669418 163.670486,165.645081 
	C162.981415,166.108856 161.812424,166.936081 160.640396,166.940430 
	C140.869553,167.013824 121.098289,166.989807 101.327179,166.955536 
	C100.699944,166.954437 100.073288,166.614395 99.176712,166.094696 
z"/>
<path fill="#000000" opacity="1.000000" stroke="none" 
	d="
M166.008652,163.884140 
	C165.654251,142.724945 165.645889,121.291405 165.703400,99.387131 
	C166.179031,100.100586 166.941650,101.283501 166.945938,102.469162 
	C167.016632,122.065811 166.999298,141.662827 166.961899,161.259674 
	C166.960403,162.043427 166.566025,162.826447 166.008652,163.884140 
z"/>
<path fill="#000000" opacity="1.000000" stroke="none" 
	d="
M60.991333,63.115910 
	C61.345737,84.275085 61.354099,105.708595 61.296600,127.612839 
	C60.820988,126.899384 60.058388,125.716461 60.054111,124.530807 
	C59.983425,104.934181 60.000740,85.337196 60.038120,65.740372 
	C60.039612,64.956604 60.433975,64.173599 60.991333,63.115910 
z"/>
<path fill="#000000" opacity="1.000000" stroke="none" 
	d="
M127.823288,60.905312 
	C106.665581,61.286789 85.238220,61.330589 63.329536,61.354927 
	C64.018616,60.891171 65.187592,60.063980 66.359619,60.059624 
	C86.130478,59.986202 105.901718,60.010201 125.672829,60.044460 
	C126.300064,60.045551 126.926704,60.385609 127.823288,60.905312 
z"/>
<path fill="#18181C" opacity="1.000000" stroke="none" 
	d="
M118.008698,113.952881 
	C123.313072,113.906509 128.625931,113.656082 133.919220,113.876190 
	C138.421936,114.063431 142.632324,115.551285 143.947800,120.447662 
	C145.281296,125.411034 143.309586,129.215240 138.489746,131.402985 
	C146.534149,135.709030 148.874924,143.424545 143.206207,148.172272 
	C140.719711,150.254776 136.942154,150.795776 133.266968,151.815704 
	C132.526917,151.706436 132.270737,151.818222 132.014542,151.930023 
	C127.644180,151.994812 123.273811,152.059601 118.457886,151.563171 
	C118.011116,138.652267 118.009911,126.302574 118.008698,113.952881 
M131.926514,135.206070 
	C129.832001,135.206070 127.737503,135.206070 124.207230,135.206070 
	C125.357933,139.330551 125.291656,144.512695 127.514603,145.829071 
	C131.123199,147.966019 136.551620,144.691055 137.324005,141.522995 
	C138.261734,137.676682 135.940994,136.164139 131.926514,135.206070 
M132.666000,128.743820 
	C133.579803,126.733917 134.493622,124.724022 135.407425,122.714119 
	C132.268616,121.563087 129.129822,120.412064 125.592255,119.114799 
	C125.592255,123.392532 125.592255,126.105972 125.592255,128.933868 
	C127.913597,128.933868 129.882355,128.933868 132.666000,128.743820 
z"/>
<path fill="#1D1D20" opacity="1.000000" stroke="none" 
	d="
M81.053734,112.012383 
	C80.987190,100.309654 80.920654,88.606934 81.171204,76.360352 
	C81.758835,75.634293 81.924599,75.382965 81.985580,75.062515 
	C88.543182,75.368462 95.188240,75.120934 101.633301,76.139183 
	C107.827705,77.117828 109.945839,80.496330 110.423584,86.382019 
	C110.822197,91.292923 107.204834,97.766357 102.810669,98.848076 
	C98.840324,99.825470 94.705292,100.133858 89.777641,100.865768 
	C89.777641,103.665771 89.777641,106.909073 89.385849,110.695480 
	C88.659103,111.843079 88.324150,112.447563 87.989197,113.052048 
	C86.274803,113.133888 84.560410,113.215729 82.335793,112.947845 
	C81.654694,112.289032 81.397415,112.093788 81.053734,112.012383 
M98.561127,92.725723 
	C101.587486,90.736511 102.964561,87.923508 101.067017,84.719894 
	C98.400200,80.217506 93.980011,82.107956 90.106293,82.077095 
	C90.106293,86.017914 90.106293,89.572784 90.106293,93.472176 
	C92.854012,93.293747 95.296654,93.135132 98.561127,92.725723 
z"/>
<path fill="#000000" opacity="1.000000" stroke="none" 
	d="
M117.551422,114.034943 
	C118.009911,126.302574 118.011116,138.652267 118.001274,151.466034 
	C117.548805,151.557053 116.719856,151.181641 116.722122,150.811310 
	C116.796974,138.579559 116.951424,126.348320 117.551422,114.034943 
z"/>
<path fill="#000000" opacity="1.000000" stroke="none" 
	d="
M88.320053,113.101608 
	C88.324150,112.447563 88.659103,111.843079 89.265640,111.146271 
	C89.241791,111.753029 88.946350,112.452103 88.320053,113.101608 
z"/>
<path fill="#000000" opacity="1.000000" stroke="none" 
	d="
M81.033951,112.318420 
	C81.397415,112.093788 81.654694,112.289032 81.921600,112.827072 
	C81.683151,112.912163 81.348656,112.768311 81.033951,112.318420 
z"/>
<path fill="#000000" opacity="1.000000" stroke="none" 
	d="
M81.701584,75.038063 
	C81.924599,75.382965 81.758835,75.634293 81.273376,75.900482 
	C81.178177,75.660851 81.297882,75.337227 81.701584,75.038063 
z"/>
<path fill="#000000" opacity="1.000000" stroke="none" 
	d="
M132.256927,151.992584 
	C132.270737,151.818222 132.526917,151.706436 132.878098,151.743896 
	C132.815170,151.947144 132.657242,152.001160 132.256927,151.992584 
z"/>
<path fill="#EAEAEA" opacity="1.000000" stroke="none" 
	d="
M132.332489,135.276611 
	C135.940994,136.164139 138.261734,137.676682 137.324005,141.522995 
	C136.551620,144.691055 131.123199,147.966019 127.514603,145.829071 
	C125.291656,144.512695 125.357933,139.330551 124.207230,135.206070 
	C127.737503,135.206070 129.832001,135.206070 132.332489,135.276611 
z"/>
<path fill="#EAEAEB" opacity="1.000000" stroke="none" 
	d="
M132.258560,128.838837 
	C129.882355,128.933868 127.913597,128.933868 125.592255,128.933868 
	C125.592255,126.105972 125.592255,123.392532 125.592255,119.114799 
	C129.129822,120.412064 132.268616,121.563087 135.407425,122.714119 
	C134.493622,124.724022 133.579803,126.733917 132.258560,128.838837 
z"/>
<path fill="#FBFBFB" opacity="1.000000" stroke="none" 
	d="
M98.150208,92.851120 
	C95.296654,93.135132 92.854012,93.293747 90.106293,93.472176 
	C90.106293,89.572784 90.106293,86.017914 90.106293,82.077095 
	C93.980011,82.107956 98.400200,80.217506 101.067017,84.719894 
	C102.964561,87.923508 101.587486,90.736511 98.150208,92.851120 
z"/>
</svg>