<svg version="1.1" id="Layer_1" xmlns="http://www.w3.org/2000/svg" xmlns:xlink="http://www.w3.org/1999/xlink" x="0px" y="0px"
	 width="100%" viewBox="0 0 225 225" enable-background="new 0 0 225 225" xml:space="preserve">
<path fill="#0E0E0F" opacity="1.000000" stroke="none" 
	d="
M125.000000,226.000000 
	C83.333336,226.000000 42.166672,226.000000 1.000005,226.000000 
	C1.000004,151.000000 1.000004,76.000015 1.000002,1.000016 
	C75.999992,1.000010 150.999985,1.000010 225.999969,1.000005 
	C225.999985,75.999985 225.999985,150.999969 226.000000,225.999969 
	C192.500000,226.000000 159.000000,226.000000 125.000000,226.000000 
M174.148056,133.690613 
	C181.370041,101.547150 161.127441,69.538742 129.018112,62.329342 
	C97.295692,55.206806 65.163605,75.509315 57.881321,107.276794 
	C50.526844,139.359192 70.583954,171.204361 102.892677,178.742416 
	C134.371155,186.086777 166.537582,166.059540 174.148056,133.690613 
M48.960884,141.315964 
	C43.007092,121.041084 45.274822,101.722435 56.349373,83.731705 
	C75.738716,52.233521 115.383171,41.473217 148.590286,58.435158 
	C154.568695,61.488888 158.722839,61.067020 160.835587,57.191624 
	C163.126953,52.988575 161.387924,49.054668 155.036942,45.957504 
	C124.239975,30.938845 94.357285,32.856308 66.462929,52.690693 
	C31.983194,77.207642 21.695387,124.320885 41.994526,160.900665 
	C44.659359,165.702805 48.272121,167.364487 52.062141,165.531235 
	C56.147861,163.554977 56.960091,159.644287 54.541164,154.419556 
	C52.658058,150.352173 50.949242,146.204117 48.960884,141.315964 
M188.746460,163.239014 
	C191.594193,156.526459 194.806107,149.933426 197.071411,143.029755 
	C197.765762,140.913620 196.533646,137.351151 194.938416,135.560257 
	C193.702774,134.173035 189.999252,133.488480 188.344620,134.340363 
	C186.168930,135.460510 184.156342,138.157333 183.409760,140.586777 
	C178.926926,155.174469 170.616867,167.005737 158.675095,176.350937 
	C156.065170,178.393372 153.071426,179.948883 150.485474,182.017471 
	C147.539658,184.373947 146.733353,187.585876 148.671982,190.905350 
	C150.702393,194.382004 153.823349,195.487549 157.619461,193.675598 
	C159.111267,192.963501 160.554520,192.121628 161.936707,191.212402 
	C172.788620,184.074112 181.660187,175.014496 188.746460,163.239014 
z"/>
<path fill="#3F92F4" opacity="1.000000" stroke="none" 
	d="
M174.056976,134.090973 
	C166.537582,166.059540 134.371155,186.086777 102.892677,178.742416 
	C70.583954,171.204361 50.526844,139.359192 57.881321,107.276794 
	C65.163605,75.509315 97.295692,55.206806 129.018112,62.329342 
	C161.127441,69.538742 181.370041,101.547150 174.056976,134.090973 
M128.477570,77.442734 
	C128.477570,77.442734 128.283768,77.285110 128.170395,76.798454 
	C127.704086,76.754707 127.237770,76.710960 126.069435,76.177872 
	C116.743988,74.337898 107.591515,74.317802 98.293320,78.799217 
	C97.810463,79.077034 97.327614,79.354851 96.146172,79.659073 
	C94.746803,80.752502 93.347443,81.845940 91.283638,82.848259 
	C90.136391,83.804672 88.989136,84.761086 87.151413,85.830093 
	C63.411839,103.438988 65.541138,142.828796 91.309616,158.797028 
	C107.487663,168.822250 124.344322,169.202713 140.362381,158.915268 
	C156.860199,148.319672 163.687561,132.638840 160.862747,112.246773 
	C159.644699,108.761383 158.426666,105.275993 157.178848,101.857323 
	C157.178848,101.857323 157.251740,101.862389 157.193283,101.172577 
	C156.262970,99.661530 155.332672,98.150482 154.062592,97.001930 
	C154.062592,97.001930 154.413025,96.648003 154.333099,95.974037 
	C152.940292,94.259735 151.547485,92.545425 150.063736,90.926857 
	C150.063736,90.926857 150.180206,90.864655 150.027130,90.216118 
	C148.387589,88.760414 146.748032,87.304710 145.094971,85.917145 
	C145.094971,85.917145 145.164368,85.913757 144.975922,85.388008 
	C144.655991,85.237114 144.336060,85.086220 143.903107,84.718758 
	C143.903107,84.718758 143.662918,84.763260 143.333374,84.184746 
	C142.940369,83.998825 142.547348,83.812897 142.193893,83.716583 
	C142.193893,83.716583 142.281479,83.672729 141.921021,83.134377 
	C140.620422,82.417358 139.319824,81.700340 138.002441,80.998779 
	C138.002441,80.998779 138.011780,80.980812 137.523575,80.494110 
	C135.364182,79.592072 133.204788,78.690041 130.903549,77.653633 
	C130.903549,77.653633 130.762207,77.788551 130.265442,77.283287 
	C129.658554,77.372894 129.051651,77.462494 128.477570,77.442734 
z"/>
<path fill="#3F92F4" opacity="1.000000" stroke="none" 
	d="
M49.061928,141.703934 
	C50.949242,146.204117 52.658058,150.352173 54.541164,154.419556 
	C56.960091,159.644287 56.147861,163.554977 52.062141,165.531235 
	C48.272121,167.364487 44.659359,165.702805 41.994526,160.900665 
	C21.695387,124.320885 31.983194,77.207642 66.462929,52.690693 
	C94.357285,32.856308 124.239975,30.938845 155.036942,45.957504 
	C161.387924,49.054668 163.126953,52.988575 160.835587,57.191624 
	C158.722839,61.067020 154.568695,61.488888 148.590286,58.435158 
	C115.383171,41.473217 75.738716,52.233521 56.349373,83.731705 
	C45.274822,101.722435 43.007092,121.041084 49.061928,141.703934 
z"/>
<path fill="#3F92F2" opacity="1.000000" stroke="none" 
	d="
M188.546631,163.544952 
	C181.660187,175.014496 172.788620,184.074112 161.936707,191.212402 
	C160.554520,192.121628 159.111267,192.963501 157.619461,193.675598 
	C153.823349,195.487549 150.702393,194.382004 148.671982,190.905350 
	C146.733353,187.585876 147.539658,184.373947 150.485474,182.017471 
	C153.071426,179.948883 156.065170,178.393372 158.675095,176.350937 
	C170.616867,167.005737 178.926926,155.174469 183.409760,140.586777 
	C184.156342,138.157333 186.168930,135.460510 188.344620,134.340363 
	C189.999252,133.488480 193.702774,134.173035 194.938416,135.560257 
	C196.533646,137.351151 197.765762,140.913620 197.071411,143.029755 
	C194.806107,149.933426 191.594193,156.526459 188.546631,163.544952 
z"/>
<path fill="#0D0F12" opacity="1.000000" stroke="none" 
	d="
M143.662918,84.763260 
	C143.662918,84.763260 143.903107,84.718758 144.112061,85.031952 
	C144.602127,85.534683 144.883240,85.724220 145.164368,85.913757 
	C145.164368,85.913757 145.094971,85.917145 145.169098,86.216461 
	C146.888885,87.965393 148.534546,89.415024 150.180206,90.864655 
	C150.180206,90.864655 150.063736,90.926857 150.102081,91.243385 
	C151.564636,93.255943 152.988831,94.951973 154.413025,96.648003 
	C154.413025,96.648003 154.062592,97.001930 154.229340,97.178818 
	C155.347961,98.857933 156.299850,100.360161 157.251740,101.862389 
	C157.251740,101.862389 157.178848,101.857323 157.174164,102.230087 
	C158.393127,106.076538 159.616776,109.550217 160.840439,113.023903 
	C163.687561,132.638840 156.860199,148.319672 140.362381,158.915268 
	C124.344322,169.202713 107.487663,168.822250 91.309616,158.797028 
	C65.541138,142.828796 63.411839,103.438988 87.763794,85.996780 
	C92.559853,87.143188 91.376999,89.972244 90.078316,92.758896 
	C91.386559,92.871918 92.172043,92.939774 92.932159,93.347748 
	C90.754387,96.422012 88.276276,98.961693 86.507248,101.924713 
	C79.675217,113.367950 79.037109,125.279007 85.430367,137.017990 
	C86.639946,139.238968 90.299904,141.143677 92.946327,141.307983 
	C96.308823,141.516739 98.594040,138.474777 98.751526,134.984451 
	C98.834900,133.136810 97.864723,131.169556 97.104935,129.368179 
	C93.497261,120.814842 95.151726,111.621719 101.511398,105.451828 
	C107.539062,99.604034 117.152771,98.115440 125.161987,101.789734 
	C132.689240,105.242928 136.829010,102.544403 136.932373,93.767914 
	C136.235550,92.651306 135.556015,91.872688 134.914124,91.062584 
	C134.951767,91.031097 134.909790,91.119820 134.800293,90.806648 
	C133.757294,90.025406 132.823761,89.557335 131.907074,89.071320 
	C131.923889,89.053368 131.899490,89.099251 131.836578,88.776047 
	C130.912964,87.562157 130.138107,86.015175 129.177383,85.889565 
	C123.801239,85.186630 118.379242,84.837280 112.976410,84.329857 
	C112.563660,84.291092 112.178032,83.963661 111.498100,83.633705 
	C112.490425,82.690445 113.279266,81.940613 114.021553,81.235031 
	C112.236946,80.363297 110.511513,79.520470 108.230865,78.406433 
	C115.048279,77.766914 120.909874,77.217064 126.771461,76.667213 
	C127.237770,76.710960 127.704086,76.754707 128.027893,77.321274 
	C128.956665,78.177536 130.027939,78.510986 131.412552,79.024002 
	C133.821182,79.795975 135.916473,80.388397 138.011780,80.980812 
	C138.011780,80.980812 138.002441,80.998779 138.111099,81.327713 
	C139.573669,82.328667 140.927567,83.000702 142.281479,83.672729 
	C142.281479,83.672729 142.193893,83.716583 142.374420,83.924812 
	C142.924271,84.343117 143.293594,84.553192 143.662918,84.763260 
M122.012955,112.395386 
	C115.861496,108.826408 109.853333,110.303894 106.878082,116.117256 
	C104.186150,121.377037 106.677597,127.750641 112.332199,130.069962 
	C116.606071,131.822952 121.466194,130.432251 124.227745,126.666084 
	C127.413109,122.321915 126.921394,118.001686 122.012955,112.395386 
z"/>
<path fill="#0C1321" opacity="1.000000" stroke="none" 
	d="
M126.420448,76.422546 
	C120.909874,77.217064 115.048279,77.766914 108.230865,78.406433 
	C110.511513,79.520470 112.236946,80.363297 114.021553,81.235031 
	C113.279266,81.940613 112.490425,82.690445 111.498100,83.633705 
	C112.178032,83.963661 112.563660,84.291092 112.976410,84.329857 
	C118.379242,84.837280 123.801239,85.186630 129.177383,85.889565 
	C130.138107,86.015175 130.912964,87.562157 131.462845,88.731476 
	C122.701584,84.916992 113.877243,85.456795 105.037918,86.667130 
	C104.859985,84.828804 104.624290,83.221298 104.431694,81.907722 
	C102.050224,81.621124 99.521370,81.316788 96.996384,81.006271 
	C97.000244,81.000092 97.008301,80.990723 97.280869,80.977905 
	C97.990120,80.231285 98.426811,79.497475 98.863503,78.763664 
	C107.591515,74.317802 116.743988,74.337898 126.420448,76.422546 
z"/>
<path fill="#0F0D09" opacity="1.000000" stroke="none" 
	d="
M96.992516,81.012451 
	C99.521370,81.316788 102.050224,81.621124 104.431694,81.907722 
	C104.624290,83.221298 104.859985,84.828804 104.672249,86.730217 
	C100.485054,89.018623 96.721291,91.013130 92.957527,93.007629 
	C92.172043,92.939774 91.386559,92.871918 90.078316,92.758896 
	C91.376999,89.972244 92.559853,87.143188 88.109024,85.940475 
	C88.989136,84.761086 90.136391,83.804672 91.959381,82.900200 
	C94.087585,82.305580 95.540054,81.659019 96.992516,81.012451 
M94.936401,86.095436 
	C96.622108,86.095436 98.307816,86.095436 99.993523,86.095436 
	C99.886810,85.436699 99.780090,84.777969 99.673370,84.119232 
	C98.147118,84.600609 96.620857,85.081993 94.936401,86.095436 
z"/>
<path fill="#0F1A2D" opacity="1.000000" stroke="none" 
	d="
M160.851593,112.635338 
	C159.616776,109.550217 158.393127,106.076538 157.189056,102.196724 
	C158.426666,105.275993 159.644699,108.761383 160.851593,112.635338 
z"/>
<path fill="#0F1A2D" opacity="1.000000" stroke="none" 
	d="
M150.103668,90.540390 
	C148.534546,89.415024 146.888885,87.965393 145.175858,86.182388 
	C146.748032,87.304710 148.387589,88.760414 150.103668,90.540390 
z"/>
<path fill="#0F1A2D" opacity="1.000000" stroke="none" 
	d="
M154.373062,96.311020 
	C152.988831,94.951973 151.564636,93.255943 150.147552,91.195518 
	C151.547485,92.545425 152.940292,94.259735 154.373062,96.311020 
z"/>
<path fill="#0F1A2D" opacity="1.000000" stroke="none" 
	d="
M137.767670,80.737457 
	C135.916473,80.388397 133.821182,79.795975 131.393646,78.761017 
	C131.056076,78.141647 131.050735,77.964821 131.045395,77.788002 
	C133.204788,78.690041 135.364182,79.592072 137.767670,80.737457 
z"/>
<path fill="#0C1321" opacity="1.000000" stroke="none" 
	d="
M96.996384,81.006271 
	C95.540054,81.659019 94.087585,82.305580 92.291603,82.945755 
	C93.347443,81.845940 94.746803,80.752502 96.537643,79.985245 
	C96.955505,80.537849 96.981903,80.764282 97.008301,80.990723 
	C97.008301,80.990723 97.000244,81.000092 96.996384,81.006271 
z"/>
<path fill="#0F1A2D" opacity="1.000000" stroke="none" 
	d="
M157.222504,101.517487 
	C156.299850,100.360161 155.347961,98.857933 154.399231,96.997566 
	C155.332672,98.150482 156.262970,99.661530 157.222504,101.517487 
z"/>
<path fill="#0F1A2D" opacity="1.000000" stroke="none" 
	d="
M142.101257,83.403549 
	C140.927567,83.000702 139.573669,82.328667 138.119492,81.319977 
	C139.319824,81.700340 140.620422,82.417358 142.101257,83.403549 
z"/>
<path fill="#0C1321" opacity="1.000000" stroke="none" 
	d="
M130.974472,77.720818 
	C131.050735,77.964821 131.056076,78.141647 131.080322,78.581459 
	C130.027939,78.510986 128.956665,78.177536 128.084564,77.564606 
	C128.283768,77.285110 128.477570,77.442734 129.040131,77.560516 
	C129.989182,77.715050 130.375702,77.751801 130.762207,77.788551 
	C130.762207,77.788551 130.903549,77.653633 130.974472,77.720818 
z"/>
<path fill="#0F0D09" opacity="1.000000" stroke="none" 
	d="
M97.280869,80.977905 
	C96.981903,80.764282 96.955505,80.537849 96.886932,79.972046 
	C97.327614,79.354851 97.810463,79.077034 98.578415,78.781441 
	C98.426811,79.497475 97.990120,80.231285 97.280869,80.977905 
z"/>
<path fill="#0F1A2D" opacity="1.000000" stroke="none" 
	d="
M145.070145,85.650879 
	C144.883240,85.724220 144.602127,85.534683 144.168564,85.140228 
	C144.336060,85.086220 144.655991,85.237114 145.070145,85.650879 
z"/>
<path fill="#0F1A2D" opacity="1.000000" stroke="none" 
	d="
M143.498138,84.473999 
	C143.293594,84.553192 142.924271,84.343117 142.354645,83.880005 
	C142.547348,83.812897 142.940369,83.998825 143.498138,84.473999 
z"/>
<path fill="#0F1A2D" opacity="1.000000" stroke="none" 
	d="
M130.513824,77.535919 
	C130.375702,77.751801 129.989182,77.715050 129.023712,77.615204 
	C129.051651,77.462494 129.658554,77.372894 130.513824,77.535919 
z"/>
<path fill="#3F92F2" opacity="1.000000" stroke="none" 
	d="
M92.932159,93.347755 
	C96.721291,91.013130 100.485054,89.018623 104.614487,86.961029 
	C113.877243,85.456795 122.701584,84.916992 131.525757,89.054680 
	C131.899490,89.099251 131.923889,89.053368 132.087982,89.324493 
	C133.137970,90.103691 134.023880,90.611755 134.909790,91.119820 
	C134.909790,91.119820 134.951767,91.031097 135.035294,91.345169 
	C135.729095,92.474800 136.339371,93.290352 136.949646,94.105896 
	C136.829010,102.544403 132.689240,105.242928 125.161987,101.789734 
	C117.152771,98.115440 107.539062,99.604034 101.511398,105.451828 
	C95.151726,111.621719 93.497261,120.814842 97.104935,129.368179 
	C97.864723,131.169556 98.834900,133.136810 98.751526,134.984451 
	C98.594040,138.474777 96.308823,141.516739 92.946327,141.307983 
	C90.299904,141.143677 86.639946,139.238968 85.430367,137.017990 
	C79.037109,125.279007 79.675217,113.367950 86.507248,101.924713 
	C88.276276,98.961693 90.754387,96.422012 92.932159,93.347755 
z"/>
<path fill="#4092F1" opacity="1.000000" stroke="none" 
	d="
M122.332268,112.606674 
	C126.921394,118.001686 127.413109,122.321915 124.227745,126.666084 
	C121.466194,130.432251 116.606071,131.822952 112.332199,130.069962 
	C106.677597,127.750641 104.186150,121.377037 106.878082,116.117256 
	C109.853333,110.303894 115.861496,108.826408 122.332268,112.606674 
z"/>
<path fill="#0C1321" opacity="1.000000" stroke="none" 
	d="
M134.800293,90.806648 
	C134.023880,90.611755 133.137970,90.103691 132.071152,89.342445 
	C132.823761,89.557335 133.757294,90.025406 134.800293,90.806648 
z"/>
<path fill="#0C1321" opacity="1.000000" stroke="none" 
	d="
M136.932373,93.767914 
	C136.339371,93.290352 135.729095,92.474800 134.997650,91.376663 
	C135.556015,91.872688 136.235550,92.651306 136.932373,93.767914 
z"/>
<path fill="#0C1321" opacity="1.000000" stroke="none" 
	d="
M95.015503,85.829407 
	C96.620857,85.081993 98.147118,84.600609 99.673370,84.119232 
	C99.780090,84.777969 99.886810,85.436699 99.993523,86.095436 
	C98.307816,86.095436 96.622108,86.095436 95.015503,85.829407 
z"/>
</svg>