<svg version="1.1" id="Layer_1" xmlns="http://www.w3.org/2000/svg" xmlns:xlink="http://www.w3.org/1999/xlink" x="0px" y="0px"
	 width="100%" viewBox="0 0 359 140" enable-background="new 0 0 359 140" xml:space="preserve">
<path fill="#FEFEFD" opacity="1.000000" stroke="none" 
	d="
M1.000000,125.000000 
	C1.000000,83.708855 1.000000,42.417709 1.000000,1.000000 
	C102.354195,1.000000 203.708435,1.000000 305.405273,1.339606 
	C305.224335,2.062379 304.717773,2.751831 304.174713,2.781892 
	C297.922821,3.127960 291.648193,3.172608 285.414398,3.704785 
	C279.490479,4.210507 273.596436,5.121901 267.709869,5.994093 
	C260.949402,6.995770 254.211594,8.150454 247.910446,9.166660 
	C249.924515,15.475460 245.218506,16.717670 243.321640,19.290550 
	C243.421112,21.856506 243.465103,24.518576 242.479874,26.720041 
	C234.608536,44.308228 226.617767,61.844460 218.458878,79.300941 
	C217.154327,82.092140 214.763397,84.362183 213.015717,86.967758 
	C212.483582,87.761093 212.050797,88.939888 212.213104,89.824631 
	C212.889069,93.509300 213.852615,97.104446 218.827240,96.180267 
	C220.914581,101.048637 220.914581,101.048637 225.310486,99.797256 
	C226.637711,97.380257 227.936508,96.062477 231.036240,95.840584 
	C242.092667,95.049110 253.147644,93.995552 264.128601,92.495331 
	C269.460175,91.766945 274.643341,89.885620 279.842987,88.354179 
	C280.401184,88.189766 280.619904,86.872696 281.334778,86.121033 
	C282.799194,87.503944 283.924896,88.856148 285.002808,90.641602 
	C287.361969,91.333092 289.795593,91.953217 292.170685,91.778328 
	C298.108521,91.341110 304.019836,90.543144 310.291443,89.930115 
	C311.714447,90.364174 312.787781,90.758041 313.919495,91.540352 
	C314.946350,92.154099 315.947632,92.663506 316.877777,92.556213 
	C321.214081,92.056000 325.530731,91.385384 330.261047,90.827354 
	C331.939606,90.637016 333.229858,90.465492 334.479919,90.139709 
	C338.131073,89.188202 341.766144,88.175133 345.685425,86.916695 
	C347.894714,85.685310 349.826080,84.723404 352.275177,83.503662 
	C349.538940,81.466881 347.281982,79.786880 344.902222,77.817551 
	C342.289520,76.852936 339.228882,73.324905 337.756104,78.941185 
	C337.525208,78.995132 337.057587,79.073868 336.732819,78.983650 
	C335.239563,79.243546 334.071075,79.593658 332.518799,79.963287 
	C331.110535,79.897125 330.086060,79.811455 328.843201,79.451126 
	C325.039398,79.258560 321.431732,79.117905 317.873627,79.473106 
	C312.018341,80.057610 306.209778,81.133095 300.350159,81.637291 
	C298.411407,81.804108 296.376007,80.847733 294.937836,80.527893 
	C297.176270,74.106682 299.252075,68.151970 301.544617,62.304085 
	C306.060303,56.917572 309.453461,51.024422 310.034149,43.492149 
	C312.574799,36.139832 315.393433,29.246599 317.325409,22.113218 
	C318.167816,19.002831 317.192383,15.400106 317.248779,11.892948 
	C317.455048,11.764923 317.927521,11.651008 318.260681,11.816123 
	C319.085846,11.989601 319.577881,11.997964 320.135986,12.295889 
	C320.653595,12.776345 321.105133,12.967238 321.556641,13.158133 
	C321.150055,11.971049 320.743439,10.783964 320.389069,9.312274 
	C319.311615,7.045215 318.181976,5.062761 316.713745,3.152681 
	C313.302765,4.917846 314.265045,2.303856 314.000000,1.000000 
	C329.320862,1.000000 344.641724,1.000000 359.981293,1.000000 
	C359.981293,47.616241 359.981293,94.232491 359.981293,140.924377 
	C240.333359,140.924377 120.666687,140.924377 1.000000,140.924377 
	C1.000000,136.946854 1.000000,132.950089 1.254293,128.649597 
	C2.128435,128.752548 2.748284,129.159195 3.368133,129.565857 
	C3.588010,128.823303 3.807886,128.080750 4.266860,127.226936 
	C4.679816,127.141785 4.853676,127.167877 5.188736,127.463135 
	C6.277983,128.562256 7.206028,129.392197 8.044437,130.579453 
	C7.303918,133.325226 6.653036,135.713699 6.095698,138.440552 
	C7.876726,137.557770 10.289371,136.700226 11.117753,135.048248 
	C13.760921,129.777206 17.723171,126.531578 23.736547,125.144859 
	C33.265629,121.953133 43.031719,119.902061 51.422073,115.327629 
	C62.763233,109.144402 73.196495,101.228172 83.698586,93.613182 
	C87.038040,91.191788 89.354134,87.359032 92.124924,84.136383 
	C92.111328,84.100655 92.185104,84.120682 92.506042,84.335861 
	C94.280029,82.028244 95.733078,79.505447 97.601410,76.974930 
	C100.576843,76.802368 103.136993,76.637527 106.314735,76.432930 
	C101.157593,84.500282 96.533760,92.394943 91.212128,99.787262 
	C88.426201,103.657219 87.184326,107.104683 89.515579,111.634491 
	C90.567581,111.412773 91.678490,111.178635 92.940926,111.261642 
	C93.383301,112.036102 93.674156,112.493431 93.965012,112.950752 
	C94.573128,112.295509 95.181244,111.640266 95.985481,110.804611 
	C96.138412,110.451881 96.095215,110.279564 96.066971,110.092484 
	C96.081909,110.077721 96.109299,110.045876 96.515282,109.913124 
	C97.329048,108.335434 97.736832,106.890495 98.312775,105.333176 
	C98.526299,105.093391 98.619743,104.960953 98.607018,104.839645 
	C98.580551,104.587280 98.497864,104.340820 98.384171,104.572861 
	C102.364899,105.376152 102.378448,101.471344 104.481827,99.318001 
	C105.177040,98.453156 105.591751,97.738800 106.336044,96.769714 
	C107.156174,94.822769 107.646721,93.130554 108.238556,91.473724 
	C108.339828,91.509117 108.529541,91.173088 108.822433,91.511169 
	C110.809372,89.724068 112.503418,87.598892 114.440483,85.367416 
	C114.845985,84.808807 115.008476,84.356483 114.809265,83.393585 
	C114.045654,82.994637 113.643730,83.106277 113.383751,83.376205 
	C113.892532,83.410110 114.259377,83.285744 114.967056,83.451820 
	C116.611031,82.155396 117.957840,80.599854 119.151825,78.934723 
	C119.275520,78.762222 118.490219,77.937927 118.442032,77.538574 
	C119.893471,76.308823 121.029579,74.956566 122.550018,73.731903 
	C126.236748,71.916992 129.539139,69.974480 132.990631,67.774811 
	C140.555634,66.611336 140.627640,66.633118 138.388062,74.037422 
	C134.309998,87.519951 130.076141,100.955551 126.037262,114.449623 
	C124.642166,119.110756 123.633797,123.887627 122.130219,129.881546 
	C126.205353,128.732956 128.890823,127.976051 131.930984,127.119179 
	C133.292465,123.369736 134.850250,119.079666 136.639648,114.589920 
	C139.203262,107.535957 141.535263,100.681679 143.942047,93.443367 
	C149.037933,81.699356 150.310516,69.123672 155.980835,57.850956 
	C158.369858,53.101532 157.534531,46.730217 158.494843,40.907085 
	C158.231750,36.631973 161.458923,36.185097 164.521698,35.184860 
	C168.169113,33.989685 171.437820,32.891254 174.607117,31.556799 
	C177.017441,30.541910 179.301468,29.227072 181.731384,28.417671 
	C181.511093,30.067268 181.399963,31.436174 180.861603,32.608971 
	C171.084656,53.907829 161.263794,75.186546 151.425903,96.457359 
	C150.557053,98.335930 149.505508,100.130005 148.341370,102.337776 
	C150.702759,102.902763 152.326172,103.291183 153.535309,103.580482 
	C153.298279,106.103737 153.107529,108.134384 152.984482,110.412674 
	C153.022079,111.150360 152.970749,111.640671 152.977127,112.130241 
	C152.978668,112.249092 153.170288,112.365463 152.986954,112.158752 
	C156.652451,108.752274 160.342346,105.361115 163.966125,101.900711 
	C164.358963,101.525574 164.369125,100.749710 164.918198,100.160568 
	C167.888931,99.452820 170.498260,98.744202 173.512024,98.047852 
	C179.082642,96.096489 184.248810,94.132858 189.774338,92.171234 
	C201.455231,85.575356 212.794830,78.956795 220.458115,67.863747 
	C221.533127,66.307587 221.422302,63.932213 221.921509,61.594788 
	C221.639862,59.311905 221.688629,57.178879 220.856430,55.476509 
	C219.787247,53.289406 218.010635,51.448120 216.826233,49.193115 
	C220.544312,46.137672 223.929489,43.288605 227.417770,40.571941 
	C231.259583,37.579975 232.729004,33.716393 232.025833,28.946217 
	C231.977890,28.931377 231.927917,29.018452 232.083099,28.929213 
	C232.473877,28.756416 232.654953,28.606827 232.888412,27.979195 
	C232.510040,17.276876 224.867371,12.625908 215.592331,11.030266 
	C199.296692,8.226825 184.992889,13.946180 171.524521,22.437645 
	C171.123062,22.690754 171.183273,23.714882 171.074860,24.387049 
	C170.690659,26.769575 163.431870,31.472422 160.899155,30.644428 
	C163.518295,21.105854 166.474335,14.949905 159.082428,9.655693 
	C148.782547,22.715624 138.138123,35.516792 128.315430,48.920166 
	C122.119331,57.374928 115.313484,64.285019 104.525322,65.684113 
	C101.995270,66.012238 98.688324,65.815796 96.812515,64.418884 
	C94.118912,62.412971 92.410179,59.084538 90.599808,56.069099 
	C95.991020,51.665962 101.349503,47.805298 106.004066,43.228714 
	C108.047684,41.219330 108.656479,37.750679 110.071869,34.647865 
	C114.548775,24.785345 111.472237,17.181374 104.056396,12.034323 
	C95.466400,6.072333 85.563026,4.003052 75.567940,5.273822 
	C58.654190,7.424228 42.515812,12.378188 29.348970,23.472507 
	C29.487885,24.710625 29.513449,26.227057 28.792822,26.792488 
	C24.443382,30.205233 19.923147,33.400307 15.277019,36.802208 
	C16.179430,39.120655 16.985285,41.071995 20.099440,38.715824 
	C21.679382,37.520439 23.743454,36.964920 25.810661,36.454063 
	C27.631891,36.418453 29.374760,36.337635 30.804089,35.626568 
	C35.572758,33.254234 40.229053,30.656031 44.976597,28.551388 
	C44.570786,31.202494 44.524044,33.631641 43.601170,35.662685 
	C31.427984,62.453098 19.179197,89.209595 6.803582,115.907013 
	C5.304907,119.140045 2.955253,121.978615 1.000000,125.000000 
M222.087860,102.195320 
	C221.795181,102.725716 221.502502,103.256111 221.209824,103.786507 
	C221.680298,103.478798 222.150757,103.171089 222.816788,103.799660 
	C223.307953,103.536324 223.799133,103.272987 224.290314,103.009659 
	C223.757233,102.743164 223.224152,102.476677 222.087860,102.195320 
M220.918106,106.156059 
	C220.723175,105.875259 220.528229,105.594460 220.333298,105.313667 
	C220.381317,105.724258 220.429352,106.134857 220.918106,106.156059 
z"/>
<path fill="#F5D93E" opacity="1.000000" stroke="none" 
	d="
M90.281029,56.320663 
	C92.410179,59.084538 94.118912,62.412971 96.812515,64.418884 
	C98.688324,65.815796 101.995270,66.012238 104.525322,65.684113 
	C115.313484,64.285019 122.119331,57.374928 128.315430,48.920166 
	C138.138123,35.516792 148.782547,22.715624 159.082428,9.655693 
	C166.474335,14.949905 163.518295,21.105854 160.619385,30.687630 
	C159.530426,32.710728 158.479889,34.266617 158.112137,35.969921 
	C157.760422,37.598938 158.118713,39.381245 158.164902,41.096169 
	C157.534531,46.730217 158.369858,53.101532 155.980835,57.850956 
	C150.310516,69.123672 149.037933,81.699356 143.581970,93.521927 
	C140.900772,100.919556 138.654404,107.854576 136.408051,114.789604 
	C134.850250,119.079666 133.292465,123.369736 131.930984,127.119179 
	C128.890823,127.976051 126.205353,128.732956 122.130219,129.881546 
	C123.633797,123.887627 124.642166,119.110756 126.037262,114.449623 
	C130.076141,100.955551 134.309998,87.519951 138.388062,74.037422 
	C140.627640,66.633118 140.555634,66.611336 132.628372,67.762245 
	C127.761902,66.639435 122.849976,69.402306 122.165680,73.604309 
	C121.029579,74.956566 119.893471,76.308823 118.135849,77.779861 
	C116.551628,79.652885 115.588921,81.407127 114.626213,83.161377 
	C114.259377,83.285744 113.892532,83.410110 113.269379,83.775223 
	C111.518547,86.401672 110.024040,88.787376 108.529541,91.173088 
	C108.529541,91.173088 108.339828,91.509117 107.956009,91.658096 
	C106.988716,92.743477 106.405243,93.679871 105.542435,94.766975 
	C104.590912,95.969772 103.918709,97.021866 103.008354,98.322632 
	C101.326218,100.411507 99.882248,102.251717 98.438278,104.091934 
	C98.497864,104.340820 98.580551,104.587280 98.607018,104.839645 
	C98.619743,104.960953 98.526299,105.093391 97.941124,105.560852 
	C96.970642,107.282570 96.539970,108.664223 96.109299,110.045876 
	C96.109299,110.045876 96.081909,110.077721 95.885422,109.711067 
	C94.874596,109.869743 94.060249,110.395065 93.134262,110.973511 
	C93.022629,111.026634 92.789406,110.944504 92.789406,110.944504 
	C91.678490,111.178635 90.567581,111.412773 89.515579,111.634491 
	C87.184326,107.104683 88.426201,103.657219 91.212128,99.787262 
	C96.533760,92.394943 101.157593,84.500282 106.314735,76.432930 
	C103.136993,76.637527 100.576843,76.802368 97.231598,76.858734 
	C95.026024,79.207077 93.605560,81.663879 92.185104,84.120682 
	C92.185104,84.120682 92.111328,84.100655 91.881104,83.807053 
	C81.479546,91.422897 71.554832,99.682434 61.032970,107.094276 
	C55.762066,110.807228 49.496395,113.191490 43.510101,115.782745 
	C37.069763,118.570549 30.429720,120.897011 23.539370,123.549500 
	C15.830936,123.710648 12.303589,128.826935 9.001385,134.320480 
	C8.179418,135.687897 7.011213,136.847214 6.002154,138.102173 
	C6.653036,135.713699 7.303918,133.325226 8.294594,130.337250 
	C9.088131,126.541740 6.956137,127.012054 5.027535,127.193977 
	C4.853676,127.167877 4.679816,127.141785 3.885487,127.204765 
	C2.510012,127.195892 1.755006,127.097946 1.000000,127.000000 
	C1.000000,126.555557 1.000000,126.111107 1.000000,125.333328 
	C2.955253,121.978615 5.304907,119.140045 6.803582,115.907013 
	C19.179197,89.209595 31.427984,62.453098 43.601170,35.662685 
	C44.524044,33.631641 44.570786,31.202494 45.252350,28.323389 
	C45.989723,26.927671 46.499531,26.166967 47.009335,25.406263 
	C46.732357,25.004871 46.455376,24.603479 46.178398,24.202087 
	C39.315151,28.174767 32.451904,32.147446 25.588657,36.120125 
	C23.743454,36.964920 21.679382,37.520439 20.099440,38.715824 
	C16.985285,41.071995 16.179430,39.120655 15.277019,36.802208 
	C19.923147,33.400307 24.443382,30.205233 28.792822,26.792488 
	C29.513449,26.227057 29.487885,24.710625 29.348970,23.472507 
	C42.515812,12.378188 58.654190,7.424228 75.567940,5.273822 
	C85.563026,4.003052 95.466400,6.072333 104.056396,12.034323 
	C111.472237,17.181374 114.548775,24.785345 109.753845,34.772400 
	C107.760956,37.319881 106.551849,39.789753 104.657814,41.501934 
	C100.502464,45.258320 95.923187,48.542492 91.695320,52.224243 
	C90.670067,53.117065 86.987831,53.710442 90.281029,56.320663 
M60.412342,31.708708 
	C59.325226,34.822750 58.238113,37.936794 57.080727,41.045010 
	C57.080727,41.045010 57.121864,41.102283 56.438084,40.704082 
	C55.293663,43.861008 54.149239,47.017933 53.035751,50.914459 
	C52.394520,53.197544 51.753288,55.480629 50.843887,58.718529 
	C57.257191,56.166599 62.572498,53.891556 67.999939,51.926155 
	C78.426094,48.150597 85.718796,40.553768 92.427582,32.231857 
	C94.166122,30.075285 95.604996,27.677128 97.181519,25.389936 
	C94.918221,23.932045 92.654633,22.474621 90.392365,21.015125 
	C90.252831,20.925104 90.123856,20.818714 89.944427,19.958923 
	C87.536713,19.300346 85.156425,18.240925 82.715080,18.073938 
	C78.711586,17.800100 74.600494,17.692440 70.670143,18.338350 
	C68.647659,18.670723 64.813278,17.854231 65.066750,22.049328 
	C65.066750,22.049328 65.173523,22.040775 64.424049,22.106932 
	C63.333035,25.421398 62.242020,28.735865 61.073463,32.039730 
	C61.073463,32.039730 61.124699,32.098892 60.412342,31.708708 
M146.180389,44.060684 
	C146.463135,43.073425 146.745865,42.086166 147.028595,41.098911 
	C146.711899,40.937164 146.395203,40.775417 146.078506,40.613674 
	C142.661301,45.253117 139.244095,49.892559 135.216248,55.361050 
	C137.176239,55.093361 137.809219,55.006912 138.929504,55.414410 
	C144.794907,54.187271 145.912796,49.806931 146.180389,44.060684 
M51.729237,71.668129 
	C44.700916,72.448875 38.963097,74.541855 36.568298,82.415573 
	C35.054852,87.391548 31.919651,91.864037 29.645346,96.626114 
	C29.087662,97.793839 29.052588,99.211166 28.557936,101.208130 
	C27.365118,103.890350 26.172300,106.572563 24.401035,110.555504 
	C27.568571,109.673416 29.779037,109.353531 31.732450,108.467155 
	C47.570412,101.280540 62.417767,92.451569 75.615761,81.060402 
	C77.544075,79.396072 78.726830,76.838234 80.151031,74.627144 
	C81.877045,71.947502 81.291367,69.945084 78.146080,68.053841 
	C77.521057,67.643425 76.949303,67.056778 76.262939,66.849304 
	C67.412910,64.174141 60.059818,68.610420 51.729237,71.668129 
z"/>
<path fill="#F7DA3F" opacity="1.000000" stroke="none" 
	d="
M313.861115,91.151917 
	C312.787781,90.758041 311.714447,90.364174 310.267212,89.542274 
	C309.248138,88.791512 308.577087,88.145798 307.961761,88.195107 
	C300.320007,88.807465 292.686371,89.520905 285.050629,90.208344 
	C283.924896,88.856148 282.799194,87.503944 280.923950,86.123077 
	C274.559143,87.605118 269.025848,89.706100 263.311035,90.499832 
	C252.457886,92.007248 241.515411,92.979759 230.579544,93.729584 
	C226.294022,94.023415 224.494476,95.572983 224.927933,99.763481 
	C220.914581,101.048637 220.914581,101.048637 218.827240,96.180267 
	C213.852615,97.104446 212.889069,93.509300 212.213104,89.824631 
	C212.050797,88.939888 212.483582,87.761093 213.015717,86.967758 
	C214.763397,84.362183 217.154327,82.092140 218.458878,79.300941 
	C226.617767,61.844460 234.608536,44.308228 242.479874,26.720041 
	C243.465103,24.518576 243.421112,21.856506 243.321640,19.290550 
	C245.218506,16.717670 249.924515,15.475460 247.910446,9.166660 
	C254.211594,8.150454 260.949402,6.995770 267.709869,5.994093 
	C273.596436,5.121901 279.490479,4.210507 285.414398,3.704785 
	C291.648193,3.172608 297.922821,3.127960 304.174713,2.781892 
	C304.717773,2.751831 305.224335,2.062379 305.873901,1.339606 
	C308.370575,1.000000 310.741119,1.000000 313.555847,1.000000 
	C314.265045,2.303856 313.302765,4.917846 316.727264,3.500170 
	C317.042358,4.469926 317.005280,5.164568 316.750336,6.140540 
	C316.678650,6.608697 316.824829,6.795523 316.985504,6.991039 
	C317.000000,6.999729 316.976776,6.974652 316.696747,6.752141 
	C315.746826,7.341527 315.076965,8.153422 314.334259,9.330903 
	C314.207520,10.627247 314.153595,11.558004 314.099670,12.488763 
	C314.264618,12.523025 314.429535,12.557286 314.594452,12.591548 
	C314.864227,11.717710 315.134003,10.843871 315.458130,10.036057 
	C315.512451,10.102079 315.664764,10.179852 315.815216,10.428463 
	C316.324615,11.125044 316.683563,11.573013 317.042511,12.020978 
	C317.192383,15.400106 318.167816,19.002831 317.325409,22.113218 
	C315.393433,29.246599 312.574799,36.139832 309.650024,43.534096 
	C307.888702,46.368385 306.404602,48.719902 305.343628,51.248928 
	C303.841400,54.829716 302.651337,58.541466 301.327881,62.197250 
	C299.252075,68.151970 297.176270,74.106682 294.937836,80.527893 
	C296.376007,80.847733 298.411407,81.804108 300.350159,81.637291 
	C306.209778,81.133095 312.018341,80.057610 317.873627,79.473106 
	C321.431732,79.117905 325.039398,79.258560 328.924652,79.760582 
	C330.536255,80.537750 331.847961,80.730797 333.533691,80.941330 
	C335.306335,80.711334 336.704987,80.463852 338.414551,80.119148 
	C339.469604,79.704498 340.213776,79.387077 341.315552,78.974037 
	C342.790436,78.621239 343.907715,78.364059 345.025024,78.106873 
	C347.281982,79.786880 349.538940,81.466881 352.275177,83.503662 
	C349.826080,84.723404 347.894714,85.685310 345.305969,86.892540 
	C341.434357,87.397598 338.220032,87.657333 335.000519,87.520393 
	C333.015076,86.770805 331.034851,86.417877 328.775940,86.058792 
	C328.312927,86.970642 328.128571,87.888664 327.653564,88.869446 
	C326.973633,88.996140 326.584351,89.060074 325.777649,89.073067 
	C321.527191,89.732063 317.694153,90.441986 313.861115,91.151917 
M284.000000,13.999571 
	C284.000000,13.999571 283.998779,14.004198 283.380341,14.012856 
	C282.801758,14.069083 282.223175,14.125310 281.343933,14.210756 
	C282.169800,14.908363 282.737549,15.387904 282.680847,16.082874 
	C282.390167,16.402617 282.099487,16.722359 281.102844,17.168159 
	C279.745758,17.483459 278.388672,17.798758 276.208771,18.013659 
	C266.225586,16.554138 260.327454,19.527901 257.765167,27.720602 
	C255.585205,31.242823 253.430573,34.781063 251.218201,38.282803 
	C248.949265,41.874077 250.491928,43.225700 254.111908,42.970917 
	C260.699799,42.507256 267.273621,41.842255 273.852142,41.248379 
	C277.323151,40.935036 280.817261,40.526497 282.282288,43.882908 
	C281.769104,46.060551 281.395233,47.646942 280.226105,49.209480 
	C270.126831,50.850815 260.068054,52.857914 249.911499,53.981403 
	C244.720810,54.555584 241.440659,56.146873 239.729935,61.300785 
	C238.225449,65.833359 235.876846,70.081085 234.040817,74.512527 
	C233.705902,75.320877 234.043106,76.407707 234.172165,78.105263 
	C232.985687,80.250000 232.077850,82.219025 235.978683,82.145103 
	C241.902725,82.032822 247.993134,82.842659 253.712967,81.725395 
	C261.508331,80.202705 268.672424,79.277428 276.183136,83.235588 
	C280.920013,85.731941 284.880280,82.645859 286.080200,77.582581 
	C286.864197,74.274307 288.622070,71.196823 290.490051,67.599503 
	C290.612976,66.938385 290.735901,66.277260 290.837830,65.290283 
	C290.837830,65.290283 290.992554,65.002716 291.488251,64.623123 
	C291.609650,64.230247 291.731049,63.837376 291.856323,62.708355 
	C292.171844,60.826679 292.487366,58.945000 293.388733,56.686146 
	C293.557983,56.035320 293.727203,55.384495 293.940857,54.003574 
	C297.044464,46.089043 299.174652,37.580605 303.535492,30.433168 
	C307.596283,23.777525 307.990570,16.644581 309.947754,9.345793 
	C308.019745,9.486500 306.555298,10.140783 305.065125,10.729941 
	C302.996002,11.547976 300.896240,12.288886 298.830414,13.114843 
	C296.580292,14.014477 294.353973,14.973597 291.743774,15.393973 
	C291.135071,15.319846 290.526367,15.245718 289.885010,15.036923 
	C289.885010,15.036923 290.010834,14.978835 289.532013,14.390156 
	C288.314514,14.253728 287.097015,14.117300 285.714905,13.479078 
	C285.144867,13.652326 284.574860,13.825574 284.000000,13.999571 
M336.267517,86.476013 
	C336.267517,86.476013 336.505646,86.576996 336.505646,86.576996 
	C336.505646,86.576996 336.450958,86.362625 336.267517,86.476013 
z"/>
<path fill="#FAF9F6" opacity="1.000000" stroke="none" 
	d="
M1.000000,127.250000 
	C1.755006,127.097946 2.510012,127.195892 3.646391,127.316017 
	C3.807886,128.080750 3.588010,128.823303 3.368133,129.565857 
	C2.748284,129.159195 2.128435,128.752548 1.254293,128.172943 
	C1.000000,128.000000 1.000000,127.500000 1.000000,127.250000 
z"/>
<path fill="#F5D93E" opacity="1.000000" stroke="none" 
	d="
M158.494843,40.907085 
	C158.118713,39.381245 157.760422,37.598938 158.112137,35.969921 
	C158.479889,34.266617 159.530426,32.710728 160.562256,31.047194 
	C163.431870,31.472422 170.690659,26.769575 171.074860,24.387049 
	C171.183273,23.714882 171.123062,22.690754 171.524521,22.437645 
	C184.992889,13.946180 199.296692,8.226825 215.592331,11.030266 
	C224.867371,12.625908 232.510040,17.276876 232.768097,28.119736 
	C232.426254,28.945803 232.221939,29.061190 231.927917,29.018452 
	C231.927917,29.018452 231.977890,28.931377 231.701569,29.116306 
	C229.325638,32.679180 227.564590,36.343472 225.023438,39.347977 
	C222.839600,41.930038 219.647629,43.635323 217.160477,46.000687 
	C216.476181,46.651459 216.720535,48.278690 216.538757,49.457863 
	C218.010635,51.448120 219.787247,53.289406 220.856430,55.476509 
	C221.688629,57.178879 221.639862,59.311905 221.619247,61.754692 
	C218.114151,69.549774 212.431366,74.541290 206.115631,78.956764 
	C199.966171,83.255981 193.812180,87.548752 187.295410,91.874252 
	C184.771164,92.628883 182.536942,93.188080 180.471298,94.120682 
	C177.942917,95.262192 175.555786,96.716515 173.107574,98.035583 
	C170.498260,98.744202 167.888931,99.452820 164.991760,100.129738 
	C164.703888,100.098045 164.847183,100.153755 164.865631,99.809868 
	C165.388794,94.167145 161.650620,98.632858 160.590118,96.936249 
	C160.365768,97.467529 160.141434,97.998810 159.917084,98.530090 
	C161.503769,99.102402 163.090439,99.674713 164.545227,100.682983 
	C160.562271,100.393539 157.886078,101.682549 156.238892,105.397514 
	C155.468079,107.135918 154.044495,108.584877 152.916763,110.165024 
	C153.107529,108.134384 153.298279,106.103737 153.535309,103.580482 
	C152.326172,103.291183 150.702759,102.902763 148.341370,102.337776 
	C149.505508,100.130005 150.557053,98.335930 151.425903,96.457359 
	C161.263794,75.186546 171.084656,53.907829 180.861603,32.608971 
	C181.399963,31.436174 181.511093,30.067268 181.862335,28.041176 
	C181.004456,27.059250 179.916290,26.377344 179.236359,26.663940 
	C174.209763,28.782686 169.252991,31.070108 164.322784,33.406822 
	C164.033447,33.543957 164.164688,34.568516 164.100220,35.180103 
	C161.458923,36.185097 158.231750,36.631973 158.494843,40.907085 
M187.082382,60.643108 
	C184.032074,61.678783 179.454834,61.804279 178.199646,63.909996 
	C173.158417,72.367218 169.145737,81.437538 164.254486,91.284592 
	C166.017792,90.574303 166.583939,90.346245 167.884613,90.038475 
	C181.701584,84.808388 194.165314,77.252533 205.196259,67.497581 
	C207.102524,65.811783 207.484390,62.402164 208.451065,59.131710 
	C206.620346,58.308640 204.632904,56.557396 202.988037,56.835121 
	C197.888016,57.696224 192.918198,59.328648 187.082382,60.643108 
M216.052780,21.672543 
	C215.378464,21.234961 214.707733,20.425896 214.029266,20.419373 
	C209.197083,20.372902 204.342239,20.270782 199.546875,20.731087 
	C198.523239,20.829344 197.713898,23.160055 196.541275,25.159071 
	C193.059082,33.398575 189.576889,41.638081 185.689560,50.836243 
	C199.752731,46.210632 211.427048,40.990185 218.846573,29.025383 
	C221.571014,24.631905 221.816681,24.178326 216.052780,21.672543 
z"/>
<path fill="#14130F" opacity="1.000000" stroke="none" 
	d="
M23.876814,123.424767 
	C30.429720,120.897011 37.069763,118.570549 43.510101,115.782745 
	C49.496395,113.191490 55.762066,110.807228 61.032970,107.094276 
	C71.554832,99.682434 81.479546,91.422897 91.894699,83.842781 
	C89.354134,87.359032 87.038040,91.191788 83.698586,93.613182 
	C73.196495,101.228172 62.763233,109.144402 51.422073,115.327629 
	C43.031719,119.902061 33.265629,121.953133 23.536003,125.050858 
	C23.265324,124.457153 23.571070,123.940964 23.876814,123.424767 
z"/>
<path fill="#15140E" opacity="1.000000" stroke="none" 
	d="
M225.310486,99.797256 
	C224.494476,95.572983 226.294022,94.023415 230.579544,93.729584 
	C241.515411,92.979759 252.457886,92.007248 263.311035,90.499832 
	C269.025848,89.706100 274.559143,87.605118 280.585236,86.092361 
	C280.619904,86.872696 280.401184,88.189766 279.842987,88.354179 
	C274.643341,89.885620 269.460175,91.766945 264.128601,92.495331 
	C253.147644,93.995552 242.092667,95.049110 231.036240,95.840584 
	C227.936508,96.062477 226.637711,97.380257 225.310486,99.797256 
z"/>
<path fill="#11100A" opacity="1.000000" stroke="none" 
	d="
M187.660172,91.844360 
	C193.812180,87.548752 199.966171,83.255981 206.115631,78.956764 
	C212.431366,74.541290 218.114151,69.549774 221.558136,62.095943 
	C221.422302,63.932213 221.533127,66.307587 220.458115,67.863747 
	C212.794830,78.956795 201.455231,85.575356 189.337448,92.080170 
	C188.247513,91.939514 187.953842,91.891937 187.660172,91.844360 
z"/>
<path fill="#100F0B" opacity="1.000000" stroke="none" 
	d="
M90.599808,56.069099 
	C86.987831,53.710442 90.670067,53.117065 91.695320,52.224243 
	C95.923187,48.542492 100.502464,45.258320 104.657814,41.501934 
	C106.551849,39.789753 107.760956,37.319881 109.598755,35.069145 
	C108.656479,37.750679 108.047684,41.219330 106.004066,43.228714 
	C101.349503,47.805298 95.991020,51.665962 90.599808,56.069099 
z"/>
<path fill="#1B1910" opacity="1.000000" stroke="none" 
	d="
M216.826218,49.193115 
	C216.720535,48.278690 216.476181,46.651459 217.160477,46.000687 
	C219.647629,43.635323 222.839600,41.930038 225.023438,39.347977 
	C227.564590,36.343472 229.325638,32.679180 231.749512,29.131145 
	C232.729004,33.716393 231.259583,37.579975 227.417770,40.571941 
	C223.929489,43.288605 220.544312,46.137672 216.826218,49.193115 
z"/>
<path fill="#17160D" opacity="1.000000" stroke="none" 
	d="
M25.810661,36.454063 
	C32.451904,32.147446 39.315151,28.174767 46.178398,24.202087 
	C46.455376,24.603479 46.732357,25.004871 47.009335,25.406263 
	C46.499531,26.166967 45.989723,26.927671 45.204163,27.916378 
	C40.229053,30.656031 35.572758,33.254234 30.804089,35.626568 
	C29.374760,36.337635 27.631891,36.418453 25.810661,36.454063 
z"/>
<path fill="#2E2A13" opacity="1.000000" stroke="none" 
	d="
M285.002808,90.641602 
	C292.686371,89.520905 300.320007,88.807465 307.961761,88.195107 
	C308.577087,88.145798 309.248138,88.791512 309.917542,89.502083 
	C304.019836,90.543144 298.108521,91.341110 292.170685,91.778328 
	C289.795593,91.953217 287.361969,91.333092 285.002808,90.641602 
z"/>
<path fill="#1B1A15" opacity="1.000000" stroke="none" 
	d="
M23.539370,123.549500 
	C23.571070,123.940964 23.265324,124.457153 23.160124,125.067352 
	C17.723171,126.531578 13.760921,129.777206 11.117753,135.048248 
	C10.289371,136.700226 7.876726,137.557770 6.095698,138.440552 
	C7.011213,136.847214 8.179418,135.687897 9.001385,134.320480 
	C12.303589,128.826935 15.830936,123.710648 23.539370,123.549500 
z"/>
<path fill="#262313" opacity="1.000000" stroke="none" 
	d="
M301.544617,62.304085 
	C302.651337,58.541466 303.841400,54.829716 305.343628,51.248928 
	C306.404602,48.719902 307.888702,46.368385 309.568054,43.895676 
	C309.453461,51.024422 306.060303,56.917572 301.544617,62.304085 
z"/>
<path fill="#1B1911" opacity="1.000000" stroke="none" 
	d="
M164.521698,35.184860 
	C164.164688,34.568516 164.033447,33.543957 164.322784,33.406822 
	C169.252991,31.070108 174.209763,28.782686 179.236359,26.663940 
	C179.916290,26.377344 181.004456,27.059250 181.772644,27.669197 
	C179.301468,29.227072 177.017441,30.541910 174.607117,31.556799 
	C171.437820,32.891254 168.169113,33.989685 164.521698,35.184860 
z"/>
<path fill="#1F1D10" opacity="1.000000" stroke="none" 
	d="
M136.639648,114.589920 
	C138.654404,107.854576 140.900772,100.919556 143.507202,93.905960 
	C141.535263,100.681679 139.203262,107.535957 136.639648,114.589920 
z"/>
<path fill="#212120" opacity="1.000000" stroke="none" 
	d="
M152.984482,110.412674 
	C154.044495,108.584877 155.468079,107.135918 156.238892,105.397514 
	C157.886078,101.682549 160.562271,100.393539 164.586823,100.659302 
	C164.760284,100.199661 164.847183,100.153755 164.847183,100.153755 
	C164.847183,100.153755 164.703888,100.098045 164.630341,100.128876 
	C164.369125,100.749710 164.358963,101.525574 163.966125,101.900711 
	C160.342346,105.361115 156.652451,108.752274 152.986954,112.158752 
	C153.170288,112.365463 152.978668,112.249092 152.977127,112.130241 
	C152.970749,111.640671 153.022079,111.150360 152.984482,110.412674 
z"/>
<path fill="#1D1C14" opacity="1.000000" stroke="none" 
	d="
M187.295410,91.874245 
	C187.953842,91.891937 188.247513,91.939514 188.978073,92.078171 
	C184.248810,94.132858 179.082642,96.096489 173.512024,98.047852 
	C175.555786,96.716515 177.942917,95.262192 180.471298,94.120682 
	C182.536942,93.188080 184.771164,92.628883 187.295410,91.874245 
z"/>
<path fill="#1D1C16" opacity="1.000000" stroke="none" 
	d="
M313.919495,91.540344 
	C317.694153,90.441986 321.527191,89.732063 325.976868,89.336624 
	C327.693481,89.882591 328.793457,90.114059 329.821777,90.447464 
	C329.750183,90.549400 329.854431,90.775703 329.854431,90.775703 
	C325.530731,91.385384 321.214081,92.056000 316.877777,92.556213 
	C315.947632,92.663506 314.946350,92.154099 313.919495,91.540344 
z"/>
<path fill="#868686" opacity="1.000000" stroke="none" 
	d="
M330.261047,90.827354 
	C329.854431,90.775703 329.750183,90.549400 329.850952,90.088516 
	C329.961365,89.388367 329.971008,89.149086 330.007690,88.715637 
	C330.034790,88.521469 330.098755,88.134628 330.475067,88.102142 
	C331.852295,88.007767 332.853241,87.945862 334.141235,87.921158 
	C334.620758,87.944595 334.813263,87.930832 335.005737,87.917068 
	C338.220032,87.657333 341.434357,87.397598 345.028076,87.162025 
	C341.766144,88.175133 338.131073,89.188202 334.479919,90.139709 
	C333.229858,90.465492 331.939606,90.637016 330.261047,90.827354 
z"/>
<path fill="#000000" opacity="1.000000" stroke="none" 
	d="
M122.550011,73.731903 
	C122.849976,69.402306 127.761902,66.639435 132.479279,68.019409 
	C129.539139,69.974480 126.236748,71.916992 122.550011,73.731903 
z"/>
<path fill="#E3D06B" opacity="1.000000" stroke="none" 
	d="
M316.968201,5.859208 
	C317.005280,5.164568 317.042358,4.469926 317.065857,3.427796 
	C318.181976,5.062761 319.311615,7.045215 320.245300,9.493176 
	C320.049316,9.958683 319.766632,10.324326 319.544067,10.387550 
	C318.856842,10.850851 318.392181,11.250929 317.927521,11.651007 
	C317.927521,11.651008 317.455048,11.764923 317.248779,11.892953 
	C316.683563,11.573013 316.324615,11.125044 316.002869,10.070917 
	C316.352264,8.634722 316.664520,7.804685 316.976776,6.974650 
	C316.976776,6.974652 317.000000,6.999729 317.300293,7.119253 
	C317.389801,6.778921 317.179016,6.319064 316.968201,5.859208 
z"/>
<path fill="#F9F5E4" opacity="1.000000" stroke="none" 
	d="
M344.902222,77.817558 
	C343.907715,78.364059 342.790436,78.621239 340.942993,78.945114 
	C339.470886,78.970291 338.728973,78.928764 337.987030,78.887238 
	C339.228882,73.324905 342.289520,76.852936 344.902222,77.817558 
z"/>
<path fill="#14130F" opacity="1.000000" stroke="none" 
	d="
M92.506042,84.335861 
	C93.605560,81.663879 95.026024,79.207077 96.816299,76.866463 
	C95.733078,79.505447 94.280029,82.028244 92.506042,84.335861 
z"/>
<path fill="#000000" opacity="1.000000" stroke="none" 
	d="
M98.384171,104.572861 
	C99.882248,102.251717 101.326218,100.411507 103.226837,98.508850 
	C103.856102,98.787109 104.028709,99.127800 104.201324,99.468498 
	C102.378448,101.471344 102.364899,105.376152 98.384171,104.572861 
z"/>
<path fill="#000000" opacity="1.000000" stroke="none" 
	d="
M108.822433,91.511169 
	C110.024040,88.787376 111.518547,86.401672 113.127426,83.616943 
	C113.643730,83.106277 114.045654,82.994637 114.423828,83.699928 
	C114.332535,84.835815 114.264999,85.154770 114.197464,85.473717 
	C112.503418,87.598892 110.809372,89.724068 108.822433,91.511169 
z"/>
<path fill="#DAC876" opacity="1.000000" stroke="none" 
	d="
M338.103638,80.216370 
	C336.704987,80.463852 335.306335,80.711334 333.472229,80.695763 
	C332.992065,80.269730 332.947327,80.106750 332.902588,79.943771 
	C334.071075,79.593658 335.239563,79.243546 336.809082,79.245651 
	C337.507935,79.804031 337.805786,80.010201 338.103638,80.216370 
z"/>
<path fill="#000000" opacity="1.000000" stroke="none" 
	d="
M114.967056,83.451820 
	C115.588921,81.407127 116.551628,79.652885 117.820511,77.657349 
	C118.490219,77.937927 119.275520,78.762222 119.151825,78.934723 
	C117.957840,80.599854 116.611031,82.155396 114.967056,83.451820 
z"/>
<path fill="#FAF9F6" opacity="1.000000" stroke="none" 
	d="
M5.188736,127.463135 
	C6.956137,127.012054 9.088131,126.541740 8.384231,129.979950 
	C7.206028,129.392197 6.277983,128.562256 5.188736,127.463135 
z"/>
<path fill="#E3D06B" opacity="1.000000" stroke="none" 
	d="
M320.193085,9.777781 
	C320.743439,10.783964 321.150055,11.971049 321.556641,13.158133 
	C321.105133,12.967238 320.653595,12.776345 320.132507,12.007524 
	C319.964172,11.061173 319.865387,10.692752 319.766602,10.324327 
	C319.766632,10.324326 320.049316,9.958683 320.193085,9.777781 
z"/>
<path fill="#12110B" opacity="1.000000" stroke="none" 
	d="
M104.481827,99.318001 
	C104.028709,99.127800 103.856102,98.787109 103.464996,98.260185 
	C103.918709,97.021866 104.590912,95.969772 105.594933,95.166763 
	C105.953331,95.952057 105.979904,96.488251 106.006470,97.024452 
	C105.591751,97.738800 105.177040,98.453156 104.481827,99.318001 
z"/>
<path fill="#000000" opacity="1.000000" stroke="none" 
	d="
M106.336044,96.769714 
	C105.979904,96.488251 105.953331,95.952057 105.874268,95.016068 
	C106.405243,93.679871 106.988716,92.743477 107.854729,91.622711 
	C107.646721,93.130554 107.156174,94.822769 106.336044,96.769714 
z"/>
<path fill="#000000" opacity="1.000000" stroke="none" 
	d="
M96.515282,109.913124 
	C96.539970,108.664223 96.970642,107.282570 97.772964,105.673233 
	C97.736832,106.890495 97.329048,108.335434 96.515282,109.913124 
z"/>
<path fill="#ECD033" opacity="1.000000" stroke="none" 
	d="
M332.518799,79.963287 
	C332.947327,80.106750 332.992065,80.269730 333.098267,80.678276 
	C331.847961,80.730797 330.536255,80.537750 329.143066,80.035240 
	C330.086060,79.811455 331.110535,79.897125 332.518799,79.963287 
z"/>
<path fill="#12110B" opacity="1.000000" stroke="none" 
	d="
M95.789360,110.985016 
	C95.181244,111.640266 94.573128,112.295509 93.965012,112.950752 
	C93.674156,112.493431 93.383301,112.036102 92.940926,111.261642 
	C92.789406,110.944504 93.022629,111.026634 93.453064,110.983368 
	C94.518784,110.955070 95.154068,110.970039 95.789360,110.985016 
z"/>
<path fill="#BBA30F" opacity="1.000000" stroke="none" 
	d="
M338.414551,80.119148 
	C337.805786,80.010201 337.507935,79.804031 337.133850,79.335861 
	C337.057587,79.073868 337.525208,78.995132 337.756104,78.941193 
	C338.728973,78.928764 339.470886,78.970291 340.585388,79.040741 
	C340.213776,79.387077 339.469604,79.704498 338.414551,80.119148 
z"/>
<path fill="#000000" opacity="1.000000" stroke="none" 
	d="
M95.985481,110.804611 
	C95.154068,110.970039 94.518784,110.955070 93.564697,110.930244 
	C94.060249,110.395065 94.874596,109.869743 95.870483,109.725830 
	C96.095215,110.279564 96.138412,110.451881 95.985481,110.804611 
z"/>
<path fill="#998C41" opacity="1.000000" stroke="none" 
	d="
M319.544067,10.387552 
	C319.865387,10.692752 319.964172,11.061173 320.066406,11.717960 
	C319.577881,11.997964 319.085846,11.989601 318.260681,11.816122 
	C318.392181,11.250929 318.856842,10.850851 319.544067,10.387552 
z"/>
<path fill="#FAE266" opacity="1.000000" stroke="none" 
	d="
M222.621231,102.863373 
	C222.150757,103.171089 221.680298,103.478798 221.209824,103.786507 
	C221.502502,103.256111 221.795181,102.725716 222.393341,102.366501 
	C222.698822,102.537674 222.621231,102.863373 222.621231,102.863373 
z"/>
<path fill="#F7DA3F" opacity="1.000000" stroke="none" 
	d="
M220.697754,106.350754 
	C220.429352,106.134857 220.381317,105.724258 220.333282,105.313667 
	C220.528229,105.594460 220.723175,105.875259 220.697754,106.350754 
z"/>
<path fill="#B3B2AB" opacity="1.000000" stroke="none" 
	d="
M222.719009,103.331512 
	C222.621231,102.863373 222.698822,102.537674 222.694946,102.373932 
	C223.224152,102.476677 223.757233,102.743164 224.290314,103.009659 
	C223.799133,103.272987 223.307953,103.536324 222.719009,103.331512 
z"/>
<path fill="#1B1910" opacity="1.000000" stroke="none" 
	d="
M232.083099,28.929213 
	C232.221939,29.061190 232.426254,28.945803 232.661163,28.531746 
	C232.654953,28.606827 232.473877,28.756416 232.083099,28.929213 
z"/>
<path fill="#12110B" opacity="1.000000" stroke="none" 
	d="
M114.440483,85.367416 
	C114.264999,85.154770 114.332535,84.835815 114.785522,84.210510 
	C115.008476,84.356483 114.845985,84.808807 114.440483,85.367416 
z"/>
<path fill="#FCFCFB" opacity="1.000000" stroke="none" 
	d="
M78.196815,68.842049 
	C81.291367,69.945084 81.877045,71.947502 80.151031,74.627144 
	C78.726830,76.838234 77.544075,79.396072 75.615761,81.060402 
	C62.417767,92.451569 47.570412,101.280540 31.732450,108.467155 
	C29.779037,109.353531 27.568571,109.673416 24.401035,110.555504 
	C26.172300,106.572563 27.365118,103.890350 28.932800,100.734344 
	C31.898638,95.515320 34.881569,90.936554 36.985023,85.984238 
	C39.852463,79.233200 43.377682,73.848907 51.693233,73.886528 
	C52.782730,73.891464 53.875576,73.155525 55.327599,72.711937 
	C62.986229,70.180321 70.048584,66.311287 78.196815,68.842049 
z"/>
<path fill="#FCFCFB" opacity="1.000000" stroke="none" 
	d="
M89.989967,20.719938 
	C90.123856,20.818714 90.252831,20.925104 90.392365,21.015125 
	C92.654633,22.474621 94.918221,23.932045 97.181519,25.389936 
	C95.604996,27.677128 94.166122,30.075285 92.427582,32.231857 
	C85.718796,40.553768 78.426094,48.150597 67.999939,51.926155 
	C62.572498,53.891556 57.257191,56.166599 50.843887,58.718529 
	C51.753288,55.480629 52.394520,53.197544 53.356636,50.393826 
	C54.825634,46.949558 55.973751,44.025921 57.121864,41.102283 
	C57.121864,41.102283 57.080727,41.045010 57.483131,41.048931 
	C58.965256,38.068199 60.044979,35.083546 61.124702,32.098892 
	C61.124699,32.098892 61.073463,32.039730 61.481300,32.042923 
	C62.983932,28.711000 64.078728,25.375889 65.173523,22.040775 
	C65.173523,22.040775 65.066750,22.049328 65.424248,22.358433 
	C69.085724,19.709930 72.914055,20.613075 76.807945,20.876953 
	C81.178329,21.173122 85.594002,20.801195 89.989967,20.719938 
z"/>
<path fill="#15140D" opacity="1.000000" stroke="none" 
	d="
M54.966873,72.762741 
	C53.875576,73.155525 52.782730,73.891464 51.693233,73.886528 
	C43.377682,73.848907 39.852463,79.233200 36.985023,85.984238 
	C34.881569,90.936554 31.898638,95.515320 29.042454,100.387146 
	C29.052588,99.211166 29.087662,97.793839 29.645346,96.626114 
	C31.919651,91.864037 35.054852,87.391548 36.568298,82.415573 
	C38.963097,74.541855 44.700916,72.448875 52.438999,71.827469 
	C53.754799,72.245445 54.360836,72.504097 54.966873,72.762741 
z"/>
<path fill="#14120A" opacity="1.000000" stroke="none" 
	d="
M89.967194,20.339432 
	C85.594002,20.801195 81.178329,21.173122 76.807945,20.876953 
	C72.914055,20.613075 69.085724,19.709930 65.441025,22.409294 
	C64.813278,17.854231 68.647659,18.670723 70.670143,18.338350 
	C74.600494,17.692440 78.711586,17.800100 82.715080,18.073938 
	C85.156425,18.240925 87.536713,19.300346 89.967194,20.339432 
z"/>
<path fill="#201D11" opacity="1.000000" stroke="none" 
	d="
M55.327599,72.711937 
	C54.360836,72.504097 53.754799,72.245445 52.811058,71.956085 
	C60.059818,68.610420 67.412910,64.174141 76.262939,66.849304 
	C76.949303,67.056778 77.521057,67.643425 78.171448,68.447945 
	C70.048584,66.311287 62.986229,70.180321 55.327599,72.711937 
z"/>
<path fill="#1C1A10" opacity="1.000000" stroke="none" 
	d="
M138.442200,54.920460 
	C137.809219,55.006912 137.176239,55.093361 135.216248,55.361050 
	C139.244095,49.892559 142.661301,45.253117 146.078506,40.613674 
	C146.395203,40.775417 146.711899,40.937164 147.028595,41.098911 
	C146.745865,42.086166 146.463135,43.073425 145.786987,44.571960 
	C143.076462,48.362312 140.759338,51.641384 138.442200,54.920460 
z"/>
<path fill="#F8F7F2" opacity="1.000000" stroke="none" 
	d="
M138.685852,55.167435 
	C140.759338,51.641384 143.076462,48.362312 145.703003,44.916756 
	C145.912796,49.806931 144.794907,54.187271 138.685852,55.167435 
z"/>
<path fill="#14120A" opacity="1.000000" stroke="none" 
	d="
M56.779976,40.903183 
	C55.973751,44.025921 54.825634,46.949558 53.341167,50.024025 
	C54.149239,47.017933 55.293663,43.861008 56.779976,40.903183 
z"/>
<path fill="#14120A" opacity="1.000000" stroke="none" 
	d="
M64.798782,22.073853 
	C64.078728,25.375889 62.983932,28.711000 61.520069,32.048222 
	C62.242020,28.735865 63.333035,25.421398 64.798782,22.073853 
z"/>
<path fill="#14120A" opacity="1.000000" stroke="none" 
	d="
M60.768524,31.903801 
	C60.044979,35.083546 58.965256,38.068199 57.518265,41.051846 
	C58.238113,37.936794 59.325226,34.822750 60.768524,31.903801 
z"/>
<path fill="#FDFCFB" opacity="1.000000" stroke="none" 
	d="
M292.802917,57.063324 
	C292.487366,58.945000 292.171844,60.826679 291.596436,63.261879 
	C291.221863,64.211166 291.107208,64.606941 290.992554,65.002716 
	C290.992554,65.002716 290.837830,65.290283 290.601196,65.684319 
	C290.224274,66.724220 290.083954,67.370087 289.943665,68.015961 
	C288.622070,71.196823 286.864197,74.274307 286.080200,77.582581 
	C284.880280,82.645859 280.920013,85.731941 276.183136,83.235588 
	C268.672424,79.277428 261.508331,80.202705 253.712967,81.725395 
	C247.993134,82.842659 241.902725,82.032822 235.978683,82.145103 
	C232.077850,82.219025 232.985687,80.250000 234.448532,77.570236 
	C237.165634,71.637070 239.469452,66.169991 242.132065,60.883621 
	C242.911713,59.335739 244.549469,57.465645 246.070511,57.170994 
	C254.440872,55.549496 262.899658,54.387062 271.322540,53.032776 
	C275.162720,52.415329 278.990204,51.719021 283.534973,50.935863 
	C282.041595,49.924343 281.531494,49.578838 281.021393,49.233334 
	C281.395233,47.646942 281.769104,46.060551 282.282288,43.882908 
	C280.817261,40.526497 277.323151,40.935036 273.852142,41.248379 
	C267.273621,41.842255 260.699799,42.507256 254.111908,42.970917 
	C250.491928,43.225700 248.949265,41.874077 251.218201,38.282803 
	C253.430573,34.781063 255.585205,31.242823 258.314819,27.416485 
	C261.831665,22.696180 266.208160,20.695599 271.257263,19.732595 
	C273.213745,19.359438 275.108643,18.663147 277.031586,18.114059 
	C278.388672,17.798758 279.745758,17.483459 281.905701,17.075951 
	C283.303192,16.899782 283.897858,16.815823 284.531555,16.754826 
	C284.570618,16.777790 284.611755,16.858513 284.772522,17.178789 
	C285.445801,17.376047 285.958282,17.253029 286.754089,17.267433 
	C287.410980,17.005932 287.784576,16.607004 288.250671,15.980935 
	C288.343201,15.753792 288.382019,15.264811 288.655731,15.226765 
	C289.289917,15.118757 289.650360,15.048796 290.010834,14.978834 
	C290.010834,14.978835 289.885010,15.036923 290.128204,15.302984 
	C290.953369,15.681623 291.535309,15.794202 292.117279,15.906782 
	C294.353973,14.973597 296.580292,14.014477 298.830414,13.114843 
	C300.896240,12.288886 302.996002,11.547976 305.065125,10.729941 
	C306.555298,10.140783 308.019745,9.486500 309.947754,9.345793 
	C307.990570,16.644581 307.596283,23.777525 303.535492,30.433168 
	C299.174652,37.580605 297.044464,46.089043 293.666962,54.587044 
	C293.196350,55.801453 292.999634,56.432392 292.802917,57.063324 
z"/>
<path fill="#15140D" opacity="1.000000" stroke="none" 
	d="
M280.623749,49.221405 
	C281.531494,49.578838 282.041595,49.924343 283.534973,50.935863 
	C278.990204,51.719021 275.162720,52.415329 271.322540,53.032776 
	C262.899658,54.387062 254.440872,55.549496 246.070511,57.170994 
	C244.549469,57.465645 242.911713,59.335739 242.132065,60.883621 
	C239.469452,66.169991 237.165634,71.637070 234.397461,77.200592 
	C234.043106,76.407707 233.705902,75.320877 234.040817,74.512527 
	C235.876846,70.081085 238.225449,65.833359 239.729935,61.300785 
	C241.440659,56.146873 244.720810,54.555584 249.911499,53.981403 
	C260.068054,52.857914 270.126831,50.850815 280.623749,49.221405 
z"/>
<path fill="#2B291E" opacity="1.000000" stroke="none" 
	d="
M276.620178,18.063860 
	C275.108643,18.663147 273.213745,19.359438 271.257263,19.732595 
	C266.208160,20.695599 261.831665,22.696180 258.505127,27.116587 
	C260.327454,19.527901 266.225586,16.554138 276.620178,18.063860 
z"/>
<path fill="#DCC436" opacity="1.000000" stroke="none" 
	d="
M284.611755,16.858513 
	C284.611755,16.858513 284.570618,16.777790 284.405914,16.517937 
	C284.138062,16.113935 284.034943,15.969789 283.943604,15.522000 
	C283.969818,14.813639 283.984283,14.408918 283.998779,14.004198 
	C283.998779,14.004198 284.000000,13.999571 284.315247,13.973307 
	C285.046844,13.958320 285.463165,13.969596 285.879517,13.980873 
	C287.097015,14.117300 288.314514,14.253728 289.771423,14.684495 
	C289.650360,15.048796 289.289917,15.118757 288.372223,15.182833 
	C287.523987,15.235389 287.232941,15.293833 286.941925,15.352280 
	C287.347351,15.637547 287.752747,15.922812 288.158173,16.208078 
	C287.784576,16.607004 287.410980,17.005932 286.306213,17.083725 
	C285.253967,16.794565 284.932861,16.826540 284.611755,16.858513 
z"/>
<path fill="#998726" opacity="1.000000" stroke="none" 
	d="
M335.000519,87.520401 
	C334.813263,87.930832 334.620758,87.944595 333.908081,87.650063 
	C331.925171,87.235641 330.462463,87.129517 328.998505,86.782928 
	C328.997253,86.542458 329.054626,86.064957 329.054626,86.064957 
	C331.034851,86.417877 333.015076,86.770805 335.000519,87.520401 
z"/>
<path fill="#2D280E" opacity="1.000000" stroke="none" 
	d="
M316.696747,6.752140 
	C316.664520,7.804685 316.352264,8.634722 315.852417,9.822306 
	C315.664764,10.179852 315.512451,10.102079 315.305054,9.852503 
	C314.909393,9.344987 314.679199,9.132451 314.407074,8.965318 
	C315.076965,8.153422 315.746826,7.341527 316.696747,6.752140 
z"/>
<path fill="#C9B33B" opacity="1.000000" stroke="none" 
	d="
M328.775940,86.058792 
	C329.054626,86.064957 328.997253,86.542458 329.125488,87.016663 
	C329.535400,87.705452 329.817078,87.920044 330.098755,88.134628 
	C330.098755,88.134628 330.034790,88.521469 329.667114,88.723495 
	C328.847687,88.885918 328.395935,88.846298 327.944214,88.806686 
	C328.128571,87.888664 328.312927,86.970642 328.775940,86.058792 
z"/>
<path fill="#AC982B" opacity="1.000000" stroke="none" 
	d="
M283.689575,14.008528 
	C283.984283,14.408918 283.969818,14.813639 283.789368,15.558869 
	C283.623383,15.899380 283.305267,15.867445 283.305267,15.867445 
	C282.737549,15.387904 282.169800,14.908363 281.343933,14.210756 
	C282.223175,14.125310 282.801758,14.069083 283.689575,14.008528 
z"/>
<path fill="#888B96" opacity="1.000000" stroke="none" 
	d="
M327.653564,88.869446 
	C328.395935,88.846298 328.847687,88.885918 329.640015,88.917664 
	C329.971008,89.149086 329.961365,89.388367 329.922577,89.986588 
	C328.793457,90.114059 327.693481,89.882591 326.394287,89.387558 
	C326.584351,89.060074 326.973633,88.996140 327.653564,88.869446 
z"/>
<path fill="#292C37" opacity="1.000000" stroke="none" 
	d="
M314.334259,9.330903 
	C314.679199,9.132451 314.909393,9.344987 315.250732,9.786479 
	C315.134003,10.843871 314.864227,11.717710 314.594452,12.591548 
	C314.429535,12.557286 314.264618,12.523025 314.099670,12.488763 
	C314.153595,11.558004 314.207520,10.627247 314.334259,9.330903 
z"/>
<path fill="#F9DD44" opacity="1.000000" stroke="none" 
	d="
M293.095825,56.874737 
	C292.999634,56.432392 293.196350,55.801453 293.644745,54.952095 
	C293.727203,55.384495 293.557983,56.035320 293.095825,56.874737 
z"/>
<path fill="#919193" opacity="1.000000" stroke="none" 
	d="
M282.993042,15.975160 
	C283.305267,15.867445 283.623383,15.899380 283.777618,15.862511 
	C284.034943,15.969789 284.138062,16.113935 284.366882,16.494972 
	C283.897858,16.815823 283.303192,16.899782 282.258667,17.012922 
	C282.099487,16.722359 282.390167,16.402617 282.993042,15.975160 
z"/>
<path fill="#F9DD44" opacity="1.000000" stroke="none" 
	d="
M290.216858,67.807724 
	C290.083954,67.370087 290.224274,66.724220 290.611694,65.847244 
	C290.735901,66.277260 290.612976,66.938385 290.216858,67.807724 
z"/>
<path fill="#AC982B" opacity="1.000000" stroke="none" 
	d="
M285.797211,13.729976 
	C285.463165,13.969596 285.046844,13.958320 284.317657,13.972933 
	C284.574860,13.825574 285.144867,13.652326 285.797211,13.729976 
z"/>
<path fill="#BBB9B0" opacity="1.000000" stroke="none" 
	d="
M291.930542,15.650377 
	C291.535309,15.794202 290.953369,15.681623 290.144531,15.370317 
	C290.526367,15.245718 291.135071,15.319846 291.930542,15.650377 
z"/>
<path fill="#F9DD44" opacity="1.000000" stroke="none" 
	d="
M291.240387,64.812912 
	C291.107208,64.606941 291.221863,64.211166 291.594482,63.629951 
	C291.731049,63.837376 291.609650,64.230247 291.240387,64.812912 
z"/>
<path fill="#998726" opacity="1.000000" stroke="none" 
	d="
M336.359253,86.419319 
	C336.450958,86.362625 336.505646,86.576996 336.505646,86.576996 
	C336.505646,86.576996 336.267517,86.476013 336.359253,86.419319 
z"/>
<path fill="#2D280E" opacity="1.000000" stroke="none" 
	d="
M316.750336,6.140539 
	C317.179016,6.319064 317.389801,6.778921 317.285828,7.110563 
	C316.824829,6.795523 316.678650,6.608697 316.750336,6.140539 
z"/>
<path fill="#FDFCFB" opacity="1.000000" stroke="none" 
	d="
M208.570389,59.788799 
	C207.484390,62.402164 207.102524,65.811783 205.196259,67.497581 
	C194.165314,77.252533 181.701584,84.808388 167.596329,89.725937 
	C169.724792,84.560562 172.431732,79.826889 174.485718,74.825073 
	C177.122910,68.403084 180.283371,62.892609 188.505463,62.208721 
	C195.358337,60.563446 201.536316,56.633064 208.570389,59.788799 
z"/>
<path fill="#FAF9F8" opacity="1.000000" stroke="none" 
	d="
M216.014999,22.540625 
	C221.816681,24.178326 221.571014,24.631905 218.846573,29.025383 
	C211.427048,40.990185 199.752731,46.210632 185.689560,50.836243 
	C189.576889,41.638081 193.059082,33.398575 196.943085,24.683182 
	C203.353897,21.250340 209.716614,22.255762 216.014999,22.540625 
z"/>
<path fill="#161511" opacity="1.000000" stroke="none" 
	d="
M188.111862,62.252045 
	C180.283371,62.892609 177.122910,68.403084 174.485718,74.825073 
	C172.431732,79.826889 169.724792,84.560562 167.229065,89.765793 
	C166.583939,90.346245 166.017792,90.574303 164.254486,91.284592 
	C169.145737,81.437538 173.158417,72.367218 178.199646,63.909996 
	C179.454834,61.804279 184.032074,61.678783 187.543533,61.050117 
	C188.040405,61.722103 188.076141,61.987072 188.111862,62.252045 
z"/>
<path fill="#25241E" opacity="1.000000" stroke="none" 
	d="
M188.505463,62.208721 
	C188.076141,61.987072 188.040405,61.722103 187.951263,61.059425 
	C192.918198,59.328648 197.888016,57.696224 202.988037,56.835121 
	C204.632904,56.557396 206.620346,58.308640 208.510727,59.460255 
	C201.536316,56.633064 195.358337,60.563446 188.505463,62.208721 
z"/>
<path fill="#14130B" opacity="1.000000" stroke="none" 
	d="
M216.033890,22.106583 
	C209.716614,22.255762 203.353897,21.250340 197.075363,24.334793 
	C197.713898,23.160055 198.523239,20.829344 199.546875,20.731087 
	C204.342239,20.270782 209.197083,20.372902 214.029266,20.419373 
	C214.707733,20.425896 215.378464,21.234961 216.033890,22.106583 
z"/>
<path fill="#ECD033" opacity="1.000000" stroke="none" 
	d="
M164.865631,99.809868 
	C164.847183,100.153755 164.760284,100.199661 164.718689,100.223343 
	C163.090439,99.674713 161.503769,99.102402 159.917084,98.530090 
	C160.141434,97.998810 160.365768,97.467529 160.590118,96.936249 
	C161.650620,98.632858 165.388794,94.167145 164.865631,99.809868 
z"/>
<path fill="#E2C838" opacity="1.000000" stroke="none" 
	d="
M330.475067,88.102142 
	C329.817078,87.920044 329.535400,87.705452 329.126740,87.257126 
	C330.462463,87.129517 331.925171,87.235641 333.621033,87.612869 
	C332.853241,87.945862 331.852295,88.007767 330.475067,88.102142 
z"/>
<path fill="#BBB9B0" opacity="1.000000" stroke="none" 
	d="
M288.250671,15.980935 
	C287.752747,15.922812 287.347351,15.637547 286.941925,15.352280 
	C287.232941,15.293833 287.523987,15.235389 288.098511,15.220879 
	C288.382019,15.264811 288.343201,15.753792 288.250671,15.980935 
z"/>
<path fill="#919193" opacity="1.000000" stroke="none" 
	d="
M284.772522,17.178789 
	C284.932861,16.826540 285.253967,16.794565 286.022949,16.946301 
	C285.958282,17.253029 285.445801,17.376047 284.772522,17.178789 
z"/>
</svg>