<svg version="1.1" id="Layer_1" xmlns="http://www.w3.org/2000/svg" xmlns:xlink="http://www.w3.org/1999/xlink" x="0px" y="0px"
	 width="100%" viewBox="0 0 225 225" enable-background="new 0 0 225 225" xml:space="preserve">
<path fill="#FFFEFD" opacity="1.000000" stroke="none" 
	d="
M0.999999,105.000000 
	C1.000000,70.405006 1.000000,35.810017 1.000000,1.000000 
	C36.687275,1.000000 72.374977,1.000000 108.291611,1.308965 
	C94.925278,3.449010 83.530861,9.002712 75.594376,20.970579 
	C74.899330,21.111065 74.501656,21.189318 73.740036,21.069603 
	C69.786682,20.863630 66.166077,20.543453 62.612965,20.898560 
	C40.474274,23.111137 25.845613,38.357632 21.339256,57.995361 
	C20.167923,63.099773 21.200670,68.709969 21.167759,74.387306 
	C21.040791,75.085457 20.967121,75.484154 20.561731,75.960419 
	C15.595842,81.508575 10.568753,86.703819 6.471508,92.550674 
	C3.920569,96.190926 2.775833,100.816589 0.999999,105.000000 
z"/>
<path fill="#FFFEFD" opacity="1.000000" stroke="none" 
	d="
M105.000000,226.000000 
	C70.405693,226.000000 35.811386,226.000000 1.000000,226.000000 
	C1.000000,190.979401 1.000000,155.958359 1.351726,120.624084 
	C2.786745,123.280586 4.322769,126.169510 4.870061,129.234940 
	C6.647583,139.191025 12.857306,145.779114 20.793388,151.441742 
	C20.858381,151.630875 21.028902,151.993439 20.972298,152.410217 
	C20.933325,157.585556 20.706064,162.359940 21.012646,167.099808 
	C22.110483,184.072891 39.993702,203.071167 57.185493,205.619751 
	C62.662922,205.939392 67.833191,206.046127 73.346268,206.126221 
	C74.369484,206.165817 75.049896,206.232040 75.824051,206.624435 
	C78.248268,209.493942 80.154106,212.750793 82.992790,214.440186 
	C90.103287,218.671921 97.636406,222.193542 105.000000,226.000000 
z"/>
<path fill="#FFFEFD" opacity="1.000000" stroke="none" 
	d="
M120.000000,1.000000 
	C155.259933,1.000000 190.519852,1.000000 226.000000,1.000000 
	C226.000000,35.687252 226.000000,70.374969 225.688370,105.316269 
	C222.759659,93.236122 217.365906,82.673515 206.285309,75.521614 
	C206.240479,75.333496 206.087219,74.976807 206.131653,74.673599 
	C206.203918,73.962654 206.231781,73.554924 206.504745,72.808548 
	C206.233627,66.940086 205.717407,61.410267 205.188904,55.487694 
	C203.217911,45.827763 197.910995,38.579231 191.060074,32.420326 
	C179.924316,22.409407 166.758423,18.894749 151.782227,20.667681 
	C145.976669,12.700286 138.709671,7.185660 129.720322,4.007763 
	C126.525108,2.878196 123.242638,1.995427 120.000000,1.000000 
z"/>
<path fill="#FFFEFE" opacity="1.000000" stroke="none" 
	d="
M226.000000,121.000000 
	C226.000000,155.927292 226.000000,190.854584 226.000000,226.000000 
	C190.979401,226.000000 155.958359,226.000000 120.718842,225.706818 
	C127.973083,224.173615 135.236786,222.422501 141.328400,216.979858 
	C142.114441,216.298737 142.581833,215.663956 143.024551,215.015198 
	C142.999863,215.001221 143.028992,215.049973 143.346130,215.020569 
	C144.416702,214.318817 145.170166,213.646454 146.160507,212.873932 
	C146.596619,212.501404 146.795853,212.229050 147.223083,211.875336 
	C147.739227,211.603561 147.906769,211.337250 148.184998,210.880066 
	C148.601089,210.481216 148.785843,210.197357 149.266876,209.790268 
	C149.975815,208.740738 150.388489,207.814468 151.081696,206.802002 
	C151.528397,206.612488 151.694565,206.509201 152.314911,206.554642 
	C169.661789,208.741013 184.059906,203.460938 195.311554,190.908264 
	C205.424805,179.625641 208.354584,165.831818 206.912231,150.748215 
	C207.034882,150.531235 207.193420,150.059708 207.534210,150.034882 
	C214.575562,144.305954 220.896317,138.332642 223.333710,129.409698 
	C224.107986,126.575188 225.104950,123.801514 226.000000,121.000000 
z"/>
<path fill="#FEDD6B" opacity="1.000000" stroke="none" 
	d="
M119.541931,1.000000 
	C123.242638,1.995427 126.525108,2.878196 129.720322,4.007763 
	C138.709671,7.185660 145.976669,12.700286 151.781677,20.910595 
	C152.019333,21.374844 152.032837,21.859167 151.654282,21.898106 
	C150.516953,21.963577 149.758163,21.990112 148.639008,22.047596 
	C145.185669,23.404346 142.092697,24.730150 138.676483,26.189234 
	C133.902466,28.212404 129.451706,30.102295 124.572311,31.992987 
	C118.428581,32.338085 112.713493,32.682384 106.591278,33.008068 
	C102.451736,31.705864 98.719299,30.422277 94.666138,29.084970 
	C93.914467,28.984554 93.483521,28.937857 92.875702,28.657097 
	C92.151855,28.246159 91.604874,28.069284 90.753784,27.719910 
	C87.989273,26.318344 85.528885,25.089281 82.832321,23.605976 
	C80.361351,22.537273 78.126556,21.722811 75.891754,20.908348 
	C83.530861,9.002712 94.925278,3.449010 108.760269,1.308965 
	C112.361290,1.000000 115.722572,1.000000 119.541931,1.000000 
z"/>
<path fill="#FEEA6B" opacity="1.000000" stroke="none" 
	d="
M20.728397,151.252594 
	C12.857306,145.779114 6.647583,139.191025 4.870061,129.234940 
	C4.322769,126.169510 2.786745,123.280586 1.351726,120.155426 
	C1.000000,115.310745 1.000000,110.621490 0.999999,105.466118 
	C2.775833,100.816589 3.920569,96.190926 6.471508,92.550674 
	C10.568753,86.703819 15.595842,81.508575 20.636494,76.322945 
	C21.987465,78.767746 22.931955,80.927582 23.944403,83.452698 
	C25.306711,86.568687 26.601059,89.319397 27.970636,92.427322 
	C29.364983,96.190399 30.684101,99.596268 32.040909,103.419205 
	C32.382565,109.547012 32.686535,115.257759 32.779442,121.078011 
	C32.294178,121.382561 32.134827,121.646843 32.067238,122.315994 
	C32.039806,123.100006 32.035458,123.548386 31.872173,124.337303 
	C30.453419,128.746643 29.193602,132.815445 27.630482,137.065369 
	C25.127584,141.915192 22.927992,146.583893 20.728397,151.252594 
z"/>
<path fill="#FECC8A" opacity="1.000000" stroke="none" 
	d="
M148.970612,209.913513 
	C148.785843,210.197357 148.601089,210.481216 147.977768,210.987640 
	C147.280472,211.402634 147.099091,211.651459 146.995087,211.956696 
	C146.795853,212.229050 146.596619,212.501404 145.812073,212.888092 
	C144.494171,213.684937 143.761581,214.367447 143.028992,215.049973 
	C143.028992,215.049973 142.999863,215.001221 142.695618,215.044281 
	C141.930847,215.733627 141.470306,216.379913 141.009766,217.026199 
	C135.236786,222.422501 127.973083,224.173615 120.250183,225.706818 
	C115.310745,226.000000 110.621490,226.000000 105.466118,226.000000 
	C97.636406,222.193542 90.103287,218.671921 82.992790,214.440186 
	C80.154106,212.750793 78.248268,209.493942 76.210281,206.496368 
	C86.669510,202.042618 96.836250,198.043106 107.345734,194.181152 
	C114.788658,194.895813 121.888855,195.472916 129.190094,196.324310 
	C133.080902,198.402527 136.808655,200.133713 140.448410,202.033493 
	C143.365250,203.555923 146.175247,205.283066 149.021133,207.295197 
	C148.996613,208.418518 148.983612,209.166016 148.970612,209.913513 
z"/>
<path fill="#FECC8A" opacity="1.000000" stroke="none" 
	d="
M226.000000,120.533882 
	C225.104950,123.801514 224.107986,126.575188 223.333710,129.409698 
	C220.896317,138.332642 214.575562,144.305954 207.213409,149.891998 
	C205.398651,148.173492 204.245453,146.573074 203.086121,144.731812 
	C203.079971,144.490967 203.042862,144.010559 203.039185,143.634140 
	C202.368439,142.148743 201.701355,141.039780 201.022095,139.552979 
	C199.357346,135.779907 197.704788,132.384705 196.040741,128.550537 
	C195.816635,126.306854 195.576782,124.504837 195.395950,122.696915 
	C194.412598,112.866302 194.347748,103.161064 198.570038,93.871994 
	C201.293594,87.880119 203.752594,81.767982 206.330139,75.709732 
	C217.365906,82.673515 222.759659,93.236122 225.688370,105.784927 
	C226.000000,110.689255 226.000000,115.378510 226.000000,120.533882 
z"/>
<path fill="#FEE460" opacity="1.000000" stroke="none" 
	d="
M21.221060,74.087852 
	C21.200670,68.709969 20.167923,63.099773 21.339256,57.995361 
	C25.845613,38.357632 40.474274,23.111137 62.612965,20.898560 
	C66.166077,20.543453 69.786682,20.863630 73.731506,21.441551 
	C70.483742,30.823017 66.979912,39.677402 63.211590,48.417759 
	C62.195236,50.775127 60.376331,52.786488 58.631393,55.116867 
	C52.282169,60.826492 46.028149,65.914795 37.802666,68.169365 
	C32.158737,69.716339 26.740295,72.085960 21.221060,74.087852 
z"/>
<path fill="#FED819" opacity="1.000000" stroke="none" 
	d="
M21.167759,74.387306 
	C26.740295,72.085960 32.158737,69.716339 37.802666,68.169365 
	C46.028149,65.914795 52.282169,60.826492 58.942421,55.268410 
	C60.960011,55.436420 62.999966,56.286541 63.667374,55.664356 
	C65.726448,53.744785 67.261635,51.263245 69.282578,49.263618 
	C70.246422,52.692966 70.210159,55.096767 67.228180,57.801624 
	C64.127228,60.614399 62.791580,65.337357 57.740337,66.102852 
	C57.378803,66.157646 57.127483,67.538841 56.984264,68.332077 
	C56.340096,71.899956 54.304798,73.228455 50.659454,73.075256 
	C46.732109,72.910217 42.205410,71.677589 40.116913,77.027077 
	C39.865940,77.669907 38.040062,77.639832 36.988285,78.038177 
	C32.608479,79.696999 28.245560,81.400391 23.876444,83.087425 
	C22.931955,80.927582 21.987465,78.767746 20.968212,76.245377 
	C20.967121,75.484154 21.040791,75.085457 21.167759,74.387306 
z"/>
<path fill="#FED919" opacity="1.000000" stroke="none" 
	d="
M69.000305,48.999985 
	C67.261635,51.263245 65.726448,53.744785 63.667374,55.664356 
	C62.999966,56.286541 60.960011,55.436420 59.236843,55.108212 
	C60.376331,52.786488 62.195236,50.775127 63.211590,48.417759 
	C66.979912,39.677402 70.483742,30.823017 74.095459,21.639519 
	C74.501656,21.189318 74.899330,21.111065 75.594376,20.970579 
	C78.126556,21.722811 80.361351,22.537273 82.808563,24.007545 
	C82.948792,25.483202 83.065536,26.378565 82.773033,27.110344 
	C81.163918,31.136053 79.474304,35.130199 77.757996,39.111763 
	C77.510597,39.685699 76.947014,40.116795 76.568359,40.641830 
	C74.943321,42.895027 73.332710,45.158627 71.556137,47.643177 
	C71.119194,47.875137 70.059753,48.437561 69.000305,48.999985 
z"/>
<path fill="#FED47B" opacity="1.000000" stroke="none" 
	d="
M56.878338,205.406830 
	C39.993702,203.071167 22.110483,184.072891 21.012646,167.099808 
	C20.706064,162.359940 20.933325,157.585556 21.294420,152.571289 
	C28.097853,154.587692 34.522556,156.859802 41.017296,159.468582 
	C44.389027,161.546036 47.690720,163.286835 51.141674,165.332581 
	C54.528534,168.752853 57.766129,171.868164 61.044624,175.312012 
	C62.358448,177.106308 63.631374,178.572067 64.922585,180.441620 
	C66.625954,185.229782 68.311043,189.614120 69.995804,194.380569 
	C71.007797,198.176758 72.020111,201.590851 72.617096,205.002945 
	C69.173317,203.943649 66.144875,202.886368 62.922512,201.761383 
	C62.359318,201.962021 60.984379,202.977173 60.218952,202.633774 
	C56.870590,201.131531 57.113693,203.453598 56.878338,205.406830 
z"/>
<path fill="#FFB752" opacity="1.000000" stroke="none" 
	d="
M73.032425,205.004944 
	C72.020111,201.590851 71.007797,198.176758 70.380371,194.371490 
	C72.614159,192.659271 74.379005,190.365250 76.327469,190.196945 
	C82.537117,189.660553 88.774284,190.620178 94.233856,185.966080 
	C97.149757,183.480347 101.313965,182.503036 104.797348,180.626877 
	C108.496643,178.634445 112.110008,176.468018 115.664291,174.224518 
	C119.986893,171.496078 124.213089,168.614532 128.461807,165.770554 
	C128.697922,165.612518 128.690643,165.123428 128.912140,164.906143 
	C132.484787,161.400909 138.703217,160.575699 139.586792,154.346802 
	C146.321854,153.921448 146.179428,148.574127 147.362946,143.956009 
	C148.130554,143.986832 148.569412,144.002151 149.093994,144.180573 
	C149.448120,144.239777 149.716568,144.135849 150.333237,143.990982 
	C152.469162,142.626740 154.256851,141.303436 156.067261,140.322784 
	C157.063278,141.434616 158.036575,142.203812 159.115341,143.196075 
	C159.419113,143.695786 159.678635,143.891022 159.999298,144.441528 
	C159.939865,148.757050 161.024200,153.125046 155.449448,154.495468 
	C154.780411,154.659943 154.502701,156.119202 153.879074,156.835007 
	C152.939957,157.912949 151.853134,159.728653 150.833572,159.725616 
	C145.338348,159.709290 143.868240,163.208603 143.528564,167.136032 
	C137.928162,169.971039 130.808533,168.859146 128.140457,176.021210 
	C127.795311,176.947693 125.921394,177.284698 124.783165,177.942413 
	C123.953796,178.421661 122.585640,178.864548 122.456757,179.520096 
	C121.288383,185.462692 117.183929,186.390594 112.053276,186.242722 
	C110.170715,186.188461 108.260284,187.101089 105.865372,187.696228 
	C106.265320,189.927719 106.634155,191.985657 107.002991,194.043594 
	C96.836250,198.043106 86.669510,202.042618 76.116539,206.170197 
	C75.049896,206.232040 74.369484,206.165817 73.366150,205.839020 
	C73.039627,205.387283 73.036026,205.196121 73.032425,205.004944 
z"/>
<path fill="#FFC639" opacity="1.000000" stroke="none" 
	d="
M40.947258,159.131912 
	C34.522556,156.859802 28.097853,154.587692 21.351025,152.154510 
	C21.028902,151.993439 20.858381,151.630875 20.793390,151.441742 
	C22.927992,146.583893 25.127584,141.915192 27.704617,137.432373 
	C32.218826,140.694473 43.898373,141.303528 47.817921,137.846985 
	C53.302101,133.010651 58.610031,134.783203 64.436539,137.161743 
	C66.144798,139.521301 67.605965,141.679825 68.875107,144.119110 
	C67.590805,144.566071 66.498535,144.732269 65.227715,144.925629 
	C65.418221,149.048813 62.915352,150.207336 59.232338,150.010834 
	C57.909702,149.940277 56.563236,150.137222 55.256565,149.976700 
	C48.922569,149.198593 46.319035,155.636002 41.210457,157.238052 
	C40.950336,157.319626 41.027260,158.475983 40.947258,159.131912 
z"/>
<path fill="#FAD875" opacity="1.000000" stroke="none" 
	d="
M72.617096,205.002945 
	C73.036026,205.196121 73.039627,205.387283 73.023346,205.865646 
	C67.833191,206.046127 62.662922,205.939392 57.185493,205.619751 
	C57.113693,203.453598 56.870590,201.131531 60.218952,202.633774 
	C60.984379,202.977173 62.359318,201.962021 62.922512,201.761383 
	C66.144875,202.886368 69.173317,203.943649 72.617096,205.002945 
z"/>
<path fill="#FFB656" opacity="1.000000" stroke="none" 
	d="
M107.345734,194.181152 
	C106.634155,191.985657 106.265320,189.927719 105.865372,187.696228 
	C108.260284,187.101089 110.170715,186.188461 112.053276,186.242722 
	C117.183929,186.390594 121.288383,185.462692 122.456757,179.520096 
	C122.585640,178.864548 123.953796,178.421661 124.783165,177.942413 
	C125.921394,177.284698 127.795311,176.947693 128.140457,176.021210 
	C130.808533,168.859146 137.928162,169.971039 143.528564,167.136032 
	C143.868240,163.208603 145.338348,159.709290 150.833572,159.725616 
	C151.853134,159.728653 152.939957,157.912949 153.879074,156.835007 
	C154.502701,156.119202 154.780411,154.659943 155.449448,154.495468 
	C161.024200,153.125046 159.939865,148.757050 160.317902,144.397675 
	C161.107147,143.290680 161.577682,142.664230 162.330322,141.759766 
	C162.739120,139.322433 162.865799,137.163071 163.328461,135.052322 
	C164.586517,135.565613 165.508591,136.030319 166.430649,136.495010 
	C166.845062,136.155807 167.259460,135.816605 167.673859,135.477417 
	C166.443863,133.478424 165.213852,131.479431 163.949646,129.424850 
	C163.884735,129.466965 164.504318,129.296753 164.638779,128.942444 
	C166.200623,124.826942 168.239151,121.536743 173.257385,120.752853 
	C174.698532,120.527733 175.723969,117.879707 177.020157,116.413445 
	C178.072098,115.223503 179.117783,113.361328 180.386566,113.155518 
	C184.107056,112.551987 185.094833,110.205704 184.809265,107.162682 
	C183.984177,98.370636 183.889893,98.379486 192.746399,96.180367 
	C192.827133,94.811874 192.796387,93.335342 193.018906,91.898033 
	C194.143555,84.633179 189.064987,76.519264 196.310974,70.190285 
	C199.781509,71.878883 202.934372,73.427849 206.087219,74.976807 
	C206.087219,74.976807 206.240479,75.333496 206.285309,75.521614 
	C203.752594,81.767982 201.293594,87.880119 198.570038,93.871994 
	C194.347748,103.161064 194.412598,112.866302 195.395950,122.696915 
	C195.576782,124.504837 195.816635,126.306854 195.591888,128.553772 
	C186.327789,129.055664 186.425339,127.704254 185.014297,138.749527 
	C184.909729,139.568115 185.322128,140.643204 184.928513,141.196930 
	C183.943008,142.583313 182.803757,144.013916 181.393280,144.892044 
	C180.413696,145.501892 178.881607,145.224319 178.024292,145.303635 
	C176.985672,148.066513 176.412521,152.221100 175.171982,152.430969 
	C170.095779,153.289734 168.945679,156.663742 168.396057,160.858505 
	C162.796951,160.557358 160.630219,163.551682 160.688187,168.356812 
	C155.826172,169.460480 156.827515,170.462570 152.421829,174.864990 
	C149.271255,178.013214 145.100769,179.678024 142.999084,184.506516 
	C142.012299,186.773560 137.318420,188.314041 134.177231,188.560318 
	C128.682571,188.991104 128.716888,192.187851 128.989044,196.050034 
	C121.888855,195.472916 114.788658,194.895813 107.345734,194.181152 
z"/>
<path fill="#FED37C" opacity="1.000000" stroke="none" 
	d="
M206.131653,74.673599 
	C202.934372,73.427849 199.781509,71.878883 195.909851,70.169586 
	C193.134613,69.650322 191.078171,69.291382 188.858002,68.633881 
	C187.461517,67.892921 186.228760,67.450531 184.943604,66.663757 
	C183.927887,65.893761 182.964584,65.468155 181.694427,64.877991 
	C178.590424,62.816536 175.793259,60.919632 172.725769,58.811665 
	C169.973953,56.065163 167.492447,53.529720 164.976883,50.638336 
	C162.702484,45.246426 160.556488,40.164818 158.157242,35.205727 
	C157.536926,33.923573 156.122330,33.025700 155.063751,31.553188 
	C154.047546,28.056438 153.040192,24.957804 152.032837,21.859169 
	C152.032837,21.859167 152.019333,21.374844 152.019867,21.131929 
	C166.758423,18.894749 179.924316,22.409407 191.060074,32.420326 
	C197.910995,38.579231 203.217911,45.827763 204.871490,55.739998 
	C204.711578,60.457058 204.759048,64.536110 205.052078,68.597450 
	C205.163025,70.135063 205.840424,71.631813 206.259644,73.147186 
	C206.231781,73.554924 206.203918,73.962654 206.131653,74.673599 
z"/>
<path fill="#FAD977" opacity="1.000000" stroke="none" 
	d="
M206.504730,72.808548 
	C205.840424,71.631813 205.163025,70.135063 205.052078,68.597450 
	C204.759048,64.536110 204.711578,60.457058 204.883774,56.132751 
	C205.717407,61.410267 206.233627,66.940086 206.504730,72.808548 
z"/>
<path fill="#FDCA8F" opacity="1.000000" stroke="none" 
	d="
M206.789597,150.965195 
	C208.354584,165.831818 205.424805,179.625641 195.311554,190.908264 
	C184.059906,203.460938 169.661789,208.741013 152.416977,206.261780 
	C154.099548,201.247208 156.332687,196.750763 158.131821,192.086884 
	C163.564087,178.004822 170.589035,165.385056 186.398178,160.003540 
	C194.018921,158.225006 201.349213,156.686111 206.789597,150.965195 
z"/>
<path fill="#FEB25E" opacity="1.000000" stroke="none" 
	d="
M186.000732,160.006424 
	C170.589035,165.385056 163.564087,178.004822 158.131821,192.086884 
	C156.332687,196.750763 154.099548,201.247208 151.962784,206.113068 
	C151.694565,206.509201 151.528397,206.612488 150.787949,206.804947 
	C149.819992,206.902527 149.426331,206.910950 149.032654,206.919373 
	C146.175247,205.283066 143.365250,203.555923 140.448410,202.033493 
	C136.808655,200.133713 133.080902,198.402527 129.190094,196.324310 
	C128.716888,192.187851 128.682571,188.991104 134.177231,188.560318 
	C137.318420,188.314041 142.012299,186.773560 142.999084,184.506516 
	C145.100769,179.678024 149.271255,178.013214 152.421829,174.864990 
	C156.827515,170.462570 155.826172,169.460480 160.688187,168.356812 
	C160.630219,163.551682 162.796951,160.557358 168.396057,160.858505 
	C168.945679,156.663742 170.095779,153.289734 175.171982,152.430969 
	C176.412521,152.221100 176.985672,148.066513 178.024292,145.303635 
	C178.881607,145.224319 180.413696,145.501892 181.393280,144.892044 
	C182.803757,144.013916 183.943008,142.583313 184.928513,141.196930 
	C185.322128,140.643204 184.909729,139.568115 185.014297,138.749527 
	C186.425339,127.704254 186.327789,129.055664 195.603394,128.992722 
	C197.704788,132.384705 199.357346,135.779907 201.012283,139.911362 
	C201.690735,141.768585 202.366791,142.889572 203.042862,144.010559 
	C203.042862,144.010559 203.079971,144.490967 202.625336,144.741425 
	C194.211273,145.012939 194.419815,145.055298 192.827637,152.894089 
	C192.449158,154.757416 190.221191,156.287796 188.731674,157.865341 
	C187.946350,158.697052 186.918869,159.300110 186.000732,160.006424 
z"/>
<path fill="#FEB063" opacity="1.000000" stroke="none" 
	d="
M186.398178,160.003540 
	C186.918869,159.300110 187.946350,158.697052 188.731674,157.865341 
	C190.221191,156.287796 192.449158,154.757416 192.827637,152.894089 
	C194.419815,145.055298 194.211273,145.012939 202.631485,144.982269 
	C204.245453,146.573074 205.398651,148.173492 206.872635,149.916809 
	C207.193420,150.059708 207.034882,150.531235 206.912231,150.748215 
	C201.349213,156.686111 194.018921,158.225006 186.398178,160.003540 
z"/>
<path fill="#FDCA8F" opacity="1.000000" stroke="none" 
	d="
M143.346130,215.020569 
	C143.761581,214.367447 144.494171,213.684937 145.575195,212.988251 
	C145.170166,213.646454 144.416702,214.318817 143.346130,215.020569 
z"/>
<path fill="#FDCA8F" opacity="1.000000" stroke="none" 
	d="
M149.021133,207.295197 
	C149.426331,206.910950 149.819992,206.902527 150.507416,206.891144 
	C150.388489,207.814468 149.975815,208.740738 149.266876,209.790268 
	C148.983612,209.166016 148.996613,208.418518 149.021133,207.295197 
z"/>
<path fill="#FDCA8F" opacity="1.000000" stroke="none" 
	d="
M141.328400,216.979858 
	C141.470306,216.379913 141.930847,215.733627 142.720306,215.058258 
	C142.581833,215.663956 142.114441,216.298737 141.328400,216.979858 
z"/>
<path fill="#FDCA8F" opacity="1.000000" stroke="none" 
	d="
M147.223083,211.875336 
	C147.099091,211.651459 147.280472,211.402634 147.746460,211.102631 
	C147.906769,211.337250 147.739227,211.603561 147.223083,211.875336 
z"/>
<path fill="#FECA32" opacity="1.000000" stroke="none" 
	d="
M125.000946,31.992184 
	C129.451706,30.102295 133.902466,28.212404 138.727936,26.511238 
	C139.353592,27.945560 139.849564,29.201717 139.796448,30.434217 
	C139.722107,32.159634 139.352234,33.897255 138.910690,35.577606 
	C136.950287,43.038136 140.245377,51.922298 132.854187,57.945957 
	C132.319107,58.382023 132.086304,59.423866 132.050705,60.199566 
	C131.827713,65.056992 131.212189,69.598076 129.617188,74.444313 
	C127.996506,79.368568 126.250633,81.384697 122.381485,81.337341 
	C120.929153,84.127739 119.908997,88.153549 118.596962,88.251030 
	C112.917000,88.673073 112.794289,92.468536 112.675613,96.330017 
	C106.073395,97.628532 106.073395,97.628532 104.582558,103.160301 
	C101.210526,105.180168 98.069092,106.155632 96.443756,108.287155 
	C94.776390,110.473816 94.591537,113.790932 93.810928,116.433571 
	C92.326759,114.672859 90.780785,112.838821 89.117340,110.659309 
	C87.311554,107.607346 85.623230,104.900856 83.954712,101.848373 
	C84.191925,100.201103 84.409332,98.899834 84.636665,97.539207 
	C88.016747,97.342529 91.598412,97.761230 94.761635,96.801208 
	C99.360794,95.405403 95.755165,90.654366 97.498199,87.825218 
	C98.057274,86.917778 97.530991,84.910851 98.160538,84.546700 
	C102.653130,81.948074 104.921402,76.688011 108.964333,74.324120 
	C114.797615,70.913429 115.568443,71.209610 114.270264,64.303879 
	C113.696342,61.250908 113.360703,58.489056 117.892044,57.754562 
	C122.207138,57.055126 123.690926,53.969528 122.790161,49.566364 
	C122.346474,47.397530 122.362457,45.030170 122.692665,42.831059 
	C123.240166,39.184776 124.209381,35.601818 125.000946,31.992184 
z"/>
<path fill="#FEC637" opacity="1.000000" stroke="none" 
	d="
M89.234810,111.004791 
	C90.780785,112.838821 92.326759,114.672859 93.810928,116.433571 
	C94.591537,113.790932 94.776390,110.473816 96.443756,108.287155 
	C98.069092,106.155632 101.210526,105.180168 104.582558,103.160301 
	C106.073395,97.628532 106.073395,97.628532 112.675613,96.330017 
	C112.794289,92.468536 112.917000,88.673073 118.596962,88.251030 
	C119.908997,88.153549 120.929153,84.127739 122.381485,81.337341 
	C126.250633,81.384697 127.996506,79.368568 129.617188,74.444313 
	C131.212189,69.598076 131.827713,65.056992 132.050705,60.199566 
	C132.086304,59.423866 132.319107,58.382023 132.854187,57.945957 
	C140.245377,51.922298 136.950287,43.038136 138.910690,35.577606 
	C139.352234,33.897255 139.722107,32.159634 139.796448,30.434217 
	C139.849564,29.201717 139.353592,27.945560 139.051178,26.377956 
	C142.092697,24.730150 145.185669,23.404346 148.628998,22.468822 
	C147.911865,34.032120 146.844360,45.205135 145.831573,55.805408 
	C144.083664,56.558090 143.655991,56.799873 143.196732,56.931362 
	C136.486526,58.852573 136.648849,58.781002 139.291992,65.124184 
	C140.053116,66.950798 139.951782,69.357681 139.601105,71.387100 
	C138.325882,78.766632 130.220276,81.563828 127.949181,88.342896 
	C120.399498,89.795464 121.661865,96.536118 119.952553,101.533928 
	C119.514351,102.815178 118.614128,103.983940 117.750771,105.064217 
	C116.224228,106.974312 114.559196,108.773476 112.960220,110.626053 
	C112.336792,111.348358 111.784531,112.673676 111.115959,112.730095 
	C105.561325,113.198807 105.750793,117.046539 105.767860,121.007629 
	C105.362953,121.348526 105.190491,121.680267 105.019821,122.309998 
	C105.031830,122.806381 105.042053,123.004776 104.860107,123.224174 
	C104.667938,123.245171 104.291145,123.158569 103.929047,123.139206 
	C103.068573,123.795563 102.570198,124.471283 102.070694,125.362610 
	C102.069580,125.578209 102.004738,126.004532 101.835777,126.089386 
	C101.603180,126.281647 101.460930,126.449867 101.489067,126.486259 
	C101.634109,126.673721 101.822861,126.827362 102.026718,127.215744 
	C102.057098,127.438660 102.056770,127.888626 102.035271,128.274551 
	C102.674194,129.774231 103.334610,130.887970 103.934174,132.352798 
	C97.581818,135.135910 91.290314,137.567947 84.978653,139.628418 
	C82.356316,135.705521 79.754128,132.154205 77.438614,128.428360 
	C85.658485,125.237694 90.204597,119.961502 89.234810,111.004791 
M97.071648,131.346649 
	C97.959869,131.551712 98.848083,131.756775 99.736305,131.961853 
	C99.398048,130.842087 99.059792,129.722305 98.721527,128.602539 
	C98.155037,129.267761 97.588554,129.932983 97.071648,131.346649 
z"/>
<path fill="#FECD2A" opacity="1.000000" stroke="none" 
	d="
M124.572311,31.992985 
	C124.209381,35.601818 123.240166,39.184776 122.692665,42.831059 
	C122.362457,45.030170 122.346474,47.397530 122.790161,49.566364 
	C123.690926,53.969528 122.207138,57.055126 117.892044,57.754562 
	C113.360703,58.489056 113.696342,61.250908 114.270264,64.303879 
	C115.568443,71.209610 114.797615,70.913429 108.964333,74.324120 
	C104.921402,76.688011 102.653130,81.948074 98.160538,84.546700 
	C97.530991,84.910851 98.057274,86.917778 97.498199,87.825218 
	C95.755165,90.654366 99.360794,95.405403 94.761635,96.801208 
	C91.598412,97.761230 88.016747,97.342529 84.636665,97.539207 
	C84.409332,98.899834 84.191925,100.201103 83.602737,101.738602 
	C80.933891,101.107620 78.680923,99.698654 76.328842,99.507179 
	C73.230721,99.254951 70.054718,99.959312 66.944344,99.848434 
	C69.190186,98.295998 71.295593,96.715820 73.649284,96.125328 
	C75.826935,95.579002 78.016258,95.769737 77.917511,92.344505 
	C79.307114,89.683258 80.518425,87.338310 78.239616,84.982979 
	C79.034775,83.719803 79.489632,82.511597 80.058563,81.000366 
	C80.926964,81.000366 81.917488,80.899460 82.881111,81.017731 
	C87.181793,81.545578 89.145500,80.215500 89.231209,75.363655 
	C89.282265,72.473564 91.469803,69.621216 93.244965,65.470207 
	C94.692329,68.795525 95.500229,70.651665 96.308128,72.507812 
	C97.259552,71.726341 98.210976,70.944870 99.162399,70.163406 
	C98.485443,68.833244 97.764748,67.523163 97.142944,66.167694 
	C96.415688,64.582329 94.755676,62.422871 95.270668,61.441174 
	C97.638329,56.927837 99.836197,51.733109 103.639206,48.754391 
	C106.626671,46.414448 107.023521,44.443821 107.003891,41.481495 
	C106.985222,38.663338 106.998932,35.844963 106.998398,33.026684 
	C112.713493,32.682384 118.428581,32.338085 124.572311,31.992985 
z"/>
<path fill="#FFD61E" opacity="1.000000" stroke="none" 
	d="
M69.282578,49.263618 
	C70.059753,48.437561 71.119194,47.875137 71.556137,47.643177 
	C73.332710,45.158627 74.943321,42.895027 76.568359,40.641830 
	C76.947014,40.116795 77.510597,39.685699 77.757996,39.111763 
	C79.474304,35.130199 81.163918,31.136053 82.773033,27.110344 
	C83.065536,26.378565 82.948792,25.483202 83.044724,24.261786 
	C85.528885,25.089281 87.989273,26.318344 90.615143,28.013639 
	C90.286934,29.384424 89.793243,30.288977 89.299545,31.193529 
	C89.519554,31.364029 89.739563,31.534527 89.959572,31.705027 
	C90.990578,30.767071 92.021576,29.829115 93.052574,28.891161 
	C93.483521,28.937857 93.914467,28.984554 94.669754,29.467302 
	C94.995255,30.935034 94.996407,31.966713 94.575760,32.998955 
	C90.336800,32.543533 88.577766,34.122593 88.973267,38.056240 
	C89.137390,39.688637 89.000771,41.351269 88.728622,43.231770 
	C88.304619,44.642277 88.152916,45.821171 87.851707,47.335014 
	C85.856102,51.887478 82.930840,55.758465 81.074394,59.561321 
	C78.697960,64.429367 70.820213,65.028519 72.110519,72.003105 
	C72.136307,72.142509 70.076637,72.554283 69.077232,73.024536 
	C67.724800,73.660919 65.338371,74.509300 65.358566,75.210167 
	C65.424187,77.487381 66.384079,79.738823 66.814789,82.269104 
	C65.757370,83.232895 64.884842,83.927773 63.769356,84.816139 
	C61.910851,80.100426 59.634090,79.953682 56.904480,83.923347 
	C56.385666,84.677864 55.435188,85.292976 54.553356,85.615036 
	C48.613510,87.784355 42.677113,90.092987 36.137192,88.995293 
	C32.783966,88.432472 30.042997,89.437767 27.895409,92.070114 
	C26.601059,89.319397 25.306711,86.568687 23.944403,83.452698 
	C28.245560,81.400391 32.608479,79.696999 36.988285,78.038177 
	C38.040062,77.639832 39.865940,77.669907 40.116913,77.027077 
	C42.205410,71.677589 46.732109,72.910217 50.659454,73.075256 
	C54.304798,73.228455 56.340096,71.899956 56.984264,68.332077 
	C57.127483,67.538841 57.378803,66.157646 57.740337,66.102852 
	C62.791580,65.337357 64.127228,60.614399 67.228180,57.801624 
	C70.210159,55.096767 70.246422,52.692966 69.282578,49.263618 
z"/>
<path fill="#FED224" opacity="1.000000" stroke="none" 
	d="
M94.997559,32.998394 
	C94.996407,31.966713 94.995255,30.935034 94.990486,29.521021 
	C98.719299,30.422277 102.451736,31.705864 106.591278,33.008068 
	C106.998932,35.844963 106.985222,38.663338 107.003891,41.481495 
	C107.023521,44.443821 106.626671,46.414448 103.639206,48.754391 
	C99.836197,51.733109 97.638329,56.927837 95.270668,61.441174 
	C94.755676,62.422871 96.415688,64.582329 97.142944,66.167694 
	C97.764748,67.523163 98.485443,68.833244 99.162399,70.163406 
	C98.210976,70.944870 97.259552,71.726341 96.308128,72.507812 
	C95.500229,70.651665 94.692329,68.795525 93.244965,65.470207 
	C91.469803,69.621216 89.282265,72.473564 89.231209,75.363655 
	C89.145500,80.215500 87.181793,81.545578 82.881111,81.017731 
	C81.917488,80.899460 80.926964,81.000366 80.058563,81.000366 
	C79.489632,82.511597 79.034775,83.719803 77.912933,84.832458 
	C73.593208,85.350311 69.809845,85.587776 66.360474,86.786392 
	C65.194580,87.191521 64.414734,90.022858 64.386299,91.760590 
	C64.374367,92.489937 66.784622,93.908546 68.070503,93.882187 
	C71.338760,93.815193 74.593933,93.109489 77.854340,92.659470 
	C78.016258,95.769737 75.826935,95.579002 73.649284,96.125328 
	C71.295593,96.715820 69.190186,98.295998 66.595718,99.706375 
	C63.788940,98.466484 61.562737,98.215820 59.373199,100.992142 
	C49.952320,101.663841 40.977768,102.332993 32.003220,103.002136 
	C30.684101,99.596268 29.364983,96.190399 27.970636,92.427322 
	C30.042997,89.437767 32.783966,88.432472 36.137192,88.995293 
	C42.677113,90.092987 48.613510,87.784355 54.553356,85.615036 
	C55.435188,85.292976 56.385666,84.677864 56.904480,83.923347 
	C59.634090,79.953682 61.910851,80.100426 63.769356,84.816139 
	C64.884842,83.927773 65.757370,83.232895 67.178017,82.110947 
	C69.635887,81.289787 71.545639,80.895691 73.626465,80.466293 
	C74.337715,77.674858 73.208969,73.964447 78.316666,73.873253 
	C85.791069,73.739799 91.953636,65.404533 90.948425,57.721058 
	C90.606194,55.105148 90.462257,52.451279 89.921288,49.879208 
	C89.700874,48.831238 88.665695,47.954636 88.001221,47.000061 
	C88.152916,45.821171 88.304619,44.642277 89.153656,43.231743 
	C94.374062,42.068104 96.339554,44.512867 96.706863,49.010132 
	C100.040154,45.064880 98.867867,36.528439 94.997559,32.998394 
z"/>
<path fill="#FFC639" opacity="1.000000" stroke="none" 
	d="
M106.000305,120.998474 
	C105.750793,117.046539 105.561325,113.198807 111.115959,112.730095 
	C111.784531,112.673676 112.336792,111.348358 112.960220,110.626053 
	C114.559196,108.773476 116.224228,106.974312 117.750771,105.064217 
	C118.614128,103.983940 119.514351,102.815178 119.952553,101.533928 
	C121.661865,96.536118 120.399498,89.795464 127.949181,88.342896 
	C130.220276,81.563828 138.325882,78.766632 139.601105,71.387100 
	C139.951782,69.357681 140.053116,66.950798 139.291992,65.124184 
	C136.648849,58.781002 136.486526,58.852573 143.196732,56.931362 
	C143.655991,56.799873 144.083664,56.558090 145.831573,55.805408 
	C146.844360,45.205135 147.911865,34.032120 148.989380,22.437874 
	C149.758163,21.990112 150.516953,21.963577 151.654282,21.898106 
	C153.040192,24.957804 154.047546,28.056438 154.769440,31.810398 
	C154.489700,34.239952 153.911453,36.297737 154.609650,37.735744 
	C156.786072,42.218079 155.317093,45.205006 152.123077,48.581997 
	C150.439941,50.361538 150.253357,53.662453 149.660446,56.336174 
	C149.113632,58.801964 149.688385,63.010265 148.452530,63.576260 
	C142.432541,66.333313 143.899612,70.554443 144.697830,75.252365 
	C144.974319,76.879654 143.280182,80.385422 142.394608,80.416405 
	C136.576569,80.619911 137.107559,84.375710 136.891937,88.342621 
	C136.685928,92.132507 135.892776,95.083412 131.258850,97.332298 
	C127.574944,99.120140 125.526917,104.626167 121.231148,107.089424 
	C120.748367,107.366241 121.332344,109.149368 120.891876,109.938148 
	C120.251930,111.084160 119.079208,112.853577 118.221878,112.804878 
	C113.369408,112.529182 112.829590,115.224724 112.880196,119.098587 
	C112.901428,120.723701 111.666756,122.365227 111.129456,124.298828 
	C111.475800,125.213097 111.695740,125.827835 111.587738,126.381760 
	C110.162292,125.611969 109.064804,124.902985 107.974884,123.820160 
	C107.321739,122.630371 106.661018,121.814423 106.000305,120.998474 
z"/>
<path fill="#FED224" opacity="1.000000" stroke="none" 
	d="
M92.875702,28.657097 
	C92.021576,29.829115 90.990578,30.767071 89.959572,31.705027 
	C89.739563,31.534527 89.519554,31.364029 89.299545,31.193529 
	C89.793243,30.288977 90.286934,29.384424 90.919258,28.186142 
	C91.604874,28.069284 92.151855,28.246159 92.875702,28.657097 
z"/>
<path fill="#FDC932" opacity="1.000000" stroke="none" 
	d="
M64.189453,136.960724 
	C58.610031,134.783203 53.302101,133.010651 47.817921,137.846985 
	C43.898373,141.303528 32.218826,140.694473 28.007919,137.251251 
	C29.193602,132.815445 30.453419,128.746643 32.308697,124.338104 
	C36.634121,123.982346 40.486786,124.633713 43.146122,120.776405 
	C43.638985,120.061523 46.056152,119.701645 46.735416,120.243385 
	C51.418682,123.978539 56.303543,120.489265 61.341343,121.096573 
	C64.873901,126.020226 69.382301,128.559738 74.946716,129.282593 
	C73.975883,131.085968 73.169640,132.581390 72.590179,133.656174 
	C71.407814,132.250778 70.352402,130.257919 68.697914,129.302765 
	C67.682587,128.716599 64.601212,129.425079 64.437897,130.062302 
	C63.879772,132.239944 64.202667,134.643417 64.189453,136.960724 
M57.588253,132.517502 
	C57.588253,132.517502 57.476780,132.584366 57.588253,132.517502 
z"/>
<path fill="#FDCD2A" opacity="1.000000" stroke="none" 
	d="
M61.030930,120.951248 
	C56.303543,120.489265 51.418682,123.978539 46.735416,120.243385 
	C46.056152,119.701645 43.638985,120.061523 43.146122,120.776405 
	C40.486786,124.633713 36.634121,123.982346 32.467632,123.997559 
	C32.035458,123.548386 32.039806,123.100006 32.270996,122.202583 
	C32.748653,121.546234 32.912876,121.284561 32.990505,120.968498 
	C32.686535,115.257759 32.382565,109.547012 32.040909,103.419205 
	C40.977768,102.332993 49.952320,101.663841 59.422195,101.425438 
	C60.454700,103.783401 61.403419,105.701599 61.445877,107.639656 
	C61.542973,112.071693 61.196972,116.513443 61.030930,120.951248 
z"/>
<path fill="#FDC932" opacity="1.000000" stroke="none" 
	d="
M32.779442,121.078011 
	C32.912876,121.284561 32.748653,121.546234 32.294083,121.866943 
	C32.134827,121.646843 32.294178,121.382561 32.779442,121.078011 
z"/>
<path fill="#FEB063" opacity="1.000000" stroke="none" 
	d="
M203.039185,143.634140 
	C202.366791,142.889572 201.690735,141.768585 201.024475,140.289215 
	C201.701355,141.039780 202.368439,142.148743 203.039185,143.634140 
z"/>
<path fill="#FFBA4D" opacity="1.000000" stroke="none" 
	d="
M147.034210,143.940491 
	C146.179428,148.574127 146.321854,153.921448 139.586792,154.346802 
	C138.703217,160.575699 132.484787,161.400909 128.912140,164.906143 
	C128.690643,165.123428 128.697922,165.612518 128.461807,165.770554 
	C124.213089,168.614532 119.986893,171.496078 115.664291,174.224518 
	C112.110008,176.468018 108.496643,178.634445 104.797348,180.626877 
	C101.313965,182.503036 97.149757,183.480347 94.233856,185.966080 
	C88.774284,190.620178 82.537117,189.660553 76.327469,190.196945 
	C74.379005,190.365250 72.614159,192.659271 70.380699,193.989380 
	C68.311043,189.614120 66.625954,185.229782 65.329010,180.428192 
	C70.444664,178.933060 75.424461,178.462891 79.838699,176.630356 
	C85.982750,174.079712 91.653656,170.410324 97.620987,167.406326 
	C102.299538,165.051102 107.218185,163.164047 111.847733,160.723007 
	C115.604019,158.742371 118.845284,155.564423 122.760887,154.166489 
	C126.951286,152.670441 129.457535,150.709641 129.632095,146.174484 
	C129.644241,145.859146 130.366211,145.304428 130.751877,145.309753 
	C137.643524,145.405106 137.171967,140.609100 137.196136,135.748657 
	C139.268188,135.662506 141.143387,135.827072 143.324341,136.153549 
	C144.764801,138.857147 145.899506,141.398819 147.034210,143.940491 
z"/>
<path fill="#FFC33F" opacity="1.000000" stroke="none" 
	d="
M84.998810,140.000000 
	C91.290314,137.567947 97.581818,135.135910 104.307053,132.345917 
	C105.238266,131.948624 105.735733,131.909271 106.428108,131.880432 
	C106.623009,131.890945 106.998329,131.998306 107.163994,132.313171 
	C108.631668,133.039581 109.933678,133.451126 111.534073,133.854630 
	C112.228668,133.882019 112.624878,133.917435 112.912331,134.219147 
	C112.536461,134.991104 112.269356,135.496765 111.582443,136.001801 
	C108.313286,135.928635 105.565292,135.626770 104.457298,139.470230 
	C104.133507,140.593430 101.861626,141.217682 100.419312,141.944992 
	C93.833252,145.266098 87.214119,148.521606 80.628113,151.842834 
	C76.731300,153.807953 73.011429,156.207336 68.964256,157.769745 
	C63.918964,159.717484 57.455379,158.897919 55.552059,165.515076 
	C53.675552,165.655716 53.039791,159.842896 50.992413,165.027618 
	C47.690720,163.286835 44.389027,161.546036 41.017296,159.468582 
	C41.027260,158.475983 40.950336,157.319626 41.210457,157.238052 
	C46.319035,155.636002 48.922569,149.198593 55.256565,149.976700 
	C56.563236,150.137222 57.909702,149.940277 59.232338,150.010834 
	C62.915352,150.207336 65.418221,149.048813 65.227715,144.925629 
	C66.498535,144.732269 67.590805,144.566071 69.270714,144.157883 
	C72.108192,142.651230 74.358040,141.386551 76.132957,140.388855 
	C77.485359,141.431747 79.064529,143.560165 80.782578,143.678879 
	C82.096970,143.769699 83.586937,141.319794 84.998810,140.000000 
z"/>
<path fill="#FFBD49" opacity="1.000000" stroke="none" 
	d="
M136.999268,135.999390 
	C137.171967,140.609100 137.643524,145.405106 130.751877,145.309753 
	C130.366211,145.304428 129.644241,145.859146 129.632095,146.174484 
	C129.457535,150.709641 126.951286,152.670441 122.760887,154.166489 
	C118.845284,155.564423 115.604019,158.742371 111.847733,160.723007 
	C107.218185,163.164047 102.299538,165.051102 97.620987,167.406326 
	C91.653656,170.410324 85.982750,174.079712 79.838699,176.630356 
	C75.424461,178.462891 70.444664,178.933060 65.310730,180.024384 
	C63.631374,178.572067 62.358448,177.106308 61.043449,175.065277 
	C61.001385,174.489990 61.005093,173.996170 61.347816,173.963074 
	C62.793491,172.619995 63.896439,171.309998 64.999695,170.000000 
	C65.000000,170.000000 65.000000,169.999390 65.414429,169.946564 
	C66.614532,169.632782 67.473511,169.018280 68.174950,169.163681 
	C79.288734,171.467697 87.366768,163.833847 96.734161,160.479080 
	C99.436249,159.511398 102.072449,158.250320 104.553680,156.805710 
	C107.110558,155.317032 109.441620,153.440506 112.673630,151.170212 
	C112.615227,147.146866 115.176003,144.506088 120.624382,144.847504 
	C121.719688,144.916153 122.856049,144.082245 123.974281,144.080063 
	C126.967789,144.074234 127.743576,142.568268 128.199417,139.789429 
	C128.434326,138.357452 130.496918,136.831802 132.079971,136.132843 
	C133.468658,135.519714 135.340714,136.001328 136.999268,135.999390 
z"/>
<path fill="#FEC143" opacity="1.000000" stroke="none" 
	d="
M61.005089,173.996170 
	C61.005093,173.996170 61.001385,174.489990 61.002556,174.736725 
	C57.766129,171.868164 54.528534,168.752853 51.141674,165.332581 
	C53.039791,159.842896 53.675552,165.655716 55.552059,165.515076 
	C57.455379,158.897919 63.918964,159.717484 68.964256,157.769745 
	C73.011429,156.207336 76.731300,153.807953 80.628113,151.842834 
	C87.214119,148.521606 93.833252,145.266098 100.419312,141.944992 
	C101.861626,141.217682 104.133507,140.593430 104.457298,139.470230 
	C105.565292,135.626770 108.313286,135.928635 111.801514,136.298523 
	C115.287804,141.091965 114.167763,144.270020 109.325981,146.031021 
	C108.113625,146.471985 106.577065,147.415024 106.185623,148.490021 
	C103.899414,154.768570 103.374336,155.028915 96.657967,154.191772 
	C94.160568,153.880508 90.896439,152.677383 89.975784,157.072922 
	C88.907181,162.174759 86.638306,163.605530 81.511467,162.263992 
	C75.087242,160.582993 71.241730,166.631653 65.614281,167.254776 
	C65.311928,167.288269 65.200371,169.044907 65.000000,169.999390 
	C65.000000,169.999390 65.000000,170.000000 64.656616,170.034180 
	C63.210518,171.377640 62.107803,172.686905 61.005089,173.996170 
z"/>
<path fill="#FEA476" opacity="1.000000" stroke="none" 
	d="
M147.362946,143.956009 
	C145.899506,141.398819 144.764801,138.857147 143.317719,135.748962 
	C143.343140,133.129486 143.680939,131.076523 144.416229,129.023605 
	C145.874771,129.009048 146.935867,128.994446 148.429199,128.944733 
	C149.142365,128.841309 149.423279,128.772995 149.724167,128.577057 
	C149.744141,128.449463 150.000656,128.418945 150.000610,128.815506 
	C150.997894,130.468491 151.995255,131.724930 153.042786,133.319778 
	C154.268692,134.716858 155.704132,135.612534 156.512955,136.901443 
	C156.930893,137.567413 156.236420,138.931473 156.044556,139.980133 
	C154.256851,141.303436 152.469162,142.626740 150.089264,143.981476 
	C149.497055,144.012909 149.008286,144.017471 149.008286,144.017471 
	C148.569412,144.002151 148.130554,143.986832 147.362946,143.956009 
z"/>
<path fill="#FEA37A" opacity="1.000000" stroke="none" 
	d="
M156.067261,140.322784 
	C156.236420,138.931473 156.930893,137.567413 156.512955,136.901443 
	C155.704132,135.612534 154.268692,134.716858 153.043457,132.958313 
	C153.368454,131.127533 153.742935,129.996658 154.297745,128.748047 
	C154.478073,128.630310 154.896301,128.540527 154.896301,128.540527 
	C154.896301,128.540527 155.304108,128.669296 155.725983,128.760513 
	C158.720901,129.221954 161.055267,129.752411 161.139847,133.162323 
	C161.155441,133.791061 162.344849,134.390671 162.992477,135.003723 
	C162.865799,137.163071 162.739120,139.322433 162.096375,141.619064 
	C160.723495,142.161911 159.866684,142.567459 159.009872,142.973007 
	C158.036575,142.203812 157.063278,141.434616 156.067261,140.322784 
z"/>
<path fill="#FEA476" opacity="1.000000" stroke="none" 
	d="
M159.115341,143.196075 
	C159.866684,142.567459 160.723495,142.161911 161.814270,141.897064 
	C161.577682,142.664230 161.107147,143.290680 160.317993,143.960999 
	C159.678635,143.891022 159.419113,143.695786 159.115341,143.196075 
z"/>
<path fill="#FFBA4D" opacity="1.000000" stroke="none" 
	d="
M149.093994,144.180573 
	C149.008286,144.017471 149.497055,144.012909 149.741028,144.022430 
	C149.716568,144.135849 149.448120,144.239777 149.093994,144.180573 
z"/>
<path fill="#FEAD85" opacity="1.000000" stroke="none" 
	d="
M84.978653,139.628418 
	C83.586937,141.319794 82.096970,143.769699 80.782578,143.678879 
	C79.064529,143.560165 77.485359,141.431747 76.132957,140.388855 
	C74.358040,141.386551 72.108192,142.651230 69.462738,143.877121 
	C67.605965,141.679825 66.144798,139.521301 64.436539,137.161743 
	C64.202667,134.643417 63.879772,132.239944 64.437897,130.062302 
	C64.601212,129.425079 67.682587,128.716599 68.697914,129.302765 
	C70.352402,130.257919 71.407814,132.250778 72.590179,133.656174 
	C73.169640,132.581390 73.975883,131.085968 75.125481,129.052414 
	C76.029869,128.543808 76.590912,128.573349 77.151947,128.602875 
	C79.754128,132.154205 82.356316,135.705521 84.978653,139.628418 
z"/>
<path fill="#FDB94D" opacity="1.000000" stroke="none" 
	d="
M163.328461,135.052322 
	C162.344849,134.390671 161.155441,133.791061 161.139847,133.162323 
	C161.055267,129.752411 158.720901,129.221954 156.067322,128.568970 
	C165.650894,125.907356 170.029312,117.040283 166.106598,107.475647 
	C166.713181,105.092949 167.297104,103.072273 168.121826,100.911629 
	C168.244522,100.181496 168.126389,99.591324 168.005310,98.668259 
	C167.998337,97.891525 167.994293,97.447693 168.353149,96.962860 
	C174.007858,95.387054 175.795532,91.639183 176.176971,86.391754 
	C176.334702,84.221909 177.975418,81.877403 179.539185,80.154694 
	C182.270523,77.145752 185.528854,74.621017 188.408569,71.735909 
	C188.977829,71.165604 188.835770,69.885315 189.021729,68.932449 
	C191.078171,69.291382 193.134613,69.650322 195.592163,70.029953 
	C189.064987,76.519264 194.143555,84.633179 193.018906,91.898033 
	C192.796387,93.335342 192.827133,94.811874 192.746399,96.180367 
	C183.889893,98.379486 183.984177,98.370636 184.809265,107.162682 
	C185.094833,110.205704 184.107056,112.551987 180.386566,113.155518 
	C179.117783,113.361328 178.072098,115.223503 177.020157,116.413445 
	C175.723969,117.879707 174.698532,120.527733 173.257385,120.752853 
	C168.239151,121.536743 166.200623,124.826942 164.638779,128.942444 
	C164.504318,129.296753 163.884735,129.466965 163.949646,129.424850 
	C165.213852,131.479431 166.443863,133.478424 167.673859,135.477417 
	C167.259460,135.816605 166.845062,136.155807 166.430649,136.495010 
	C165.508591,136.030319 164.586517,135.565613 163.328461,135.052322 
z"/>
<path fill="#FEC33E" opacity="1.000000" stroke="none" 
	d="
M111.003052,123.999290 
	C111.666756,122.365227 112.901428,120.723701 112.880196,119.098587 
	C112.829590,115.224724 113.369408,112.529182 118.221878,112.804878 
	C119.079208,112.853577 120.251930,111.084160 120.891876,109.938148 
	C121.332344,109.149368 120.748367,107.366241 121.231148,107.089424 
	C125.526917,104.626167 127.574944,99.120140 131.258850,97.332298 
	C135.892776,95.083412 136.685928,92.132507 136.891937,88.342621 
	C137.107559,84.375710 136.576569,80.619911 142.394608,80.416405 
	C143.280182,80.385422 144.974319,76.879654 144.697830,75.252365 
	C143.899612,70.554443 142.432541,66.333313 148.452530,63.576260 
	C149.688385,63.010265 149.113632,58.801964 149.660446,56.336174 
	C150.253357,53.662453 150.439941,50.361538 152.123077,48.581997 
	C155.317093,45.205006 156.786072,42.218079 154.609650,37.735744 
	C153.911453,36.297737 154.489700,34.239952 154.778275,32.208511 
	C156.122330,33.025700 157.536926,33.923573 158.157242,35.205727 
	C160.556488,40.164818 162.702484,45.246426 164.659210,50.795341 
	C163.227814,53.376236 161.797409,55.339687 160.986664,57.532269 
	C158.797714,63.451992 158.581589,70.034370 153.842056,75.110809 
	C152.185593,76.885040 151.626984,80.327415 155.049973,82.326714 
	C155.666138,82.686600 155.694626,84.052689 155.618591,84.962631 
	C152.856003,85.330986 150.469269,85.690933 147.823547,86.047821 
	C147.278290,86.183067 146.992050,86.321381 146.705811,86.459686 
	C147.134201,86.640732 147.562576,86.821785 147.993469,87.336601 
	C147.991302,88.115379 147.986618,88.560379 147.755981,89.176872 
	C148.012222,89.902405 148.494400,90.456444 149.301636,91.148407 
	C151.408188,91.894928 153.189713,92.503525 155.001678,93.396042 
	C155.355698,94.121422 155.679230,94.562889 155.922928,95.381668 
	C154.529877,96.170738 152.761215,97.335243 151.982346,96.863953 
	C148.611221,94.824173 145.533569,96.966240 142.349075,96.963982 
	C138.196167,96.961037 136.699722,99.122093 137.026672,102.926682 
	C137.251114,105.538185 138.088486,108.185410 137.799454,110.719437 
	C137.626465,112.236008 135.949158,114.614998 134.706528,114.779243 
	C131.154419,115.248711 130.861740,117.295753 130.690338,120.137833 
	C129.249329,121.332115 128.124100,122.387047 126.998871,123.441978 
	C126.917480,123.117500 126.836098,122.793030 126.754707,122.468559 
	C125.179153,123.006050 123.603600,123.543549 121.811951,124.352234 
	C119.400185,125.460068 117.204506,126.296715 115.101830,126.852402 
	C115.463936,126.048180 115.733032,125.524925 116.140366,124.946968 
	C116.185158,124.927460 116.091728,124.962662 115.629333,124.993393 
	C113.841263,124.659042 112.422157,124.329163 111.003052,123.999290 
z"/>
<path fill="#FEBC4A" opacity="1.000000" stroke="none" 
	d="
M188.858002,68.633881 
	C188.835770,69.885315 188.977829,71.165604 188.408569,71.735909 
	C185.528854,74.621017 182.270523,77.145752 179.539185,80.154694 
	C177.975418,81.877403 176.334702,84.221909 176.176971,86.391754 
	C175.795532,91.639183 174.007858,95.387054 167.988800,96.893234 
	C166.897049,96.375732 166.118439,95.745155 166.229996,95.419159 
	C168.016357,90.198624 166.979202,85.459373 164.386642,80.994034 
	C169.692352,80.129936 168.949249,76.759491 168.682159,73.124687 
	C168.500519,70.652893 169.369247,68.028412 170.130219,65.584938 
	C170.835693,63.319729 172.021698,61.204178 172.996094,59.022728 
	C175.793259,60.919632 178.590424,62.816536 181.725525,65.196640 
	C183.040985,66.122604 184.018509,66.565376 184.996017,67.008141 
	C186.228760,67.450531 187.461517,67.892921 188.858002,68.633881 
z"/>
<path fill="#FEC043" opacity="1.000000" stroke="none" 
	d="
M172.725769,58.811668 
	C172.021698,61.204178 170.835693,63.319729 170.130219,65.584938 
	C169.369247,68.028412 168.500519,70.652893 168.682159,73.124687 
	C168.949249,76.759491 169.692352,80.129936 164.035919,81.032669 
	C162.152771,82.411194 161.007629,83.745117 159.477997,85.077759 
	C158.060486,85.035728 157.027466,84.994972 155.994446,84.954224 
	C155.694626,84.052689 155.666138,82.686600 155.049973,82.326714 
	C151.626984,80.327415 152.185593,76.885040 153.842056,75.110809 
	C158.581589,70.034370 158.797714,63.451992 160.986664,57.532269 
	C161.797409,55.339687 163.227814,53.376236 164.693283,51.151283 
	C167.492447,53.529720 169.973953,56.065163 172.725769,58.811668 
z"/>
<path fill="#FDB94D" opacity="1.000000" stroke="none" 
	d="
M184.943604,66.663757 
	C184.018509,66.565376 183.040985,66.122604 182.032379,65.361191 
	C182.964584,65.468155 183.927887,65.893761 184.943604,66.663757 
z"/>
<path fill="#0E0A09" opacity="1.000000" stroke="none" 
	d="
M77.438614,128.428360 
	C76.590912,128.573349 76.029869,128.543808 75.290070,128.744461 
	C69.382301,128.559738 64.873901,126.020226 61.341339,121.096573 
	C61.196972,116.513443 61.542973,112.071693 61.445877,107.639656 
	C61.403419,105.701599 60.454700,103.783401 59.868526,101.422897 
	C61.562737,98.215820 63.788940,98.466484 66.563568,100.110321 
	C70.054718,99.959312 73.230721,99.254951 76.328842,99.507179 
	C78.680923,99.698654 80.933891,101.107620 83.582932,102.084610 
	C85.623230,104.900856 87.311554,107.607346 89.117340,110.659309 
	C90.204597,119.961502 85.658485,125.237694 77.438614,128.428360 
M80.719330,118.729782 
	C76.437881,123.274910 70.088943,120.877113 66.380371,113.502838 
	C65.425339,115.763054 64.443420,118.279129 64.981110,120.412148 
	C65.884949,123.997704 71.543884,126.745766 75.541847,125.765823 
	C79.670860,124.753754 84.137703,123.692024 84.180435,117.275391 
	C84.254135,115.752205 84.327827,114.229012 84.401527,112.705826 
	C83.198143,112.684303 81.994766,112.662781 80.791382,112.641251 
	C80.852882,114.479652 80.914391,116.318047 80.719330,118.729782 
M77.071350,104.987556 
	C75.361565,101.608345 72.838600,99.912758 69.105011,101.659828 
	C66.247292,102.997040 64.491554,105.691383 66.070786,108.452446 
	C67.220024,110.461708 70.104645,112.685875 72.206184,112.676651 
	C75.903046,112.660423 77.784927,109.720360 77.071350,104.987556 
z"/>
<path fill="#D16034" opacity="1.000000" stroke="none" 
	d="
M115.008827,127.133369 
	C117.204506,126.296715 119.400185,125.460068 122.138931,124.358093 
	C123.701035,125.002106 124.720078,125.911430 125.614899,126.709908 
	C124.134171,128.682129 122.970253,130.232361 121.459785,131.851151 
	C119.366096,132.556229 117.618958,133.192749 115.514679,133.827942 
	C114.445389,133.868698 113.733238,133.910767 113.021095,133.952850 
	C112.624878,133.917435 112.228668,133.882019 111.313187,133.581726 
	C109.528717,132.877335 108.263519,132.437820 106.998329,131.998306 
	C106.998329,131.998306 106.623009,131.890945 106.229126,131.625381 
	C104.575752,130.202759 103.316261,129.045700 102.056770,127.888626 
	C102.056770,127.888626 102.057098,127.438660 102.047676,126.968872 
	C102.038254,126.499092 102.004738,126.004532 102.004738,126.004532 
	C102.004738,126.004532 102.069580,125.578209 102.331558,125.214638 
	C103.159409,124.286903 103.725273,123.722733 104.291145,123.158569 
	C104.291145,123.158569 104.667938,123.245171 105.062721,123.258148 
	C105.457504,123.271118 105.858330,123.370201 106.078537,123.560356 
	C106.854942,123.898338 107.411125,124.046173 107.967316,124.194000 
	C109.064804,124.902985 110.162292,125.611969 111.745453,126.597656 
	C113.157028,126.960701 114.082924,127.047035 115.008827,127.133369 
z"/>
<path fill="#FFC33F" opacity="1.000000" stroke="none" 
	d="
M97.046860,130.972443 
	C97.588554,129.932983 98.155037,129.267761 98.721527,128.602539 
	C99.059792,129.722305 99.398048,130.842087 99.736305,131.961853 
	C98.848083,131.756775 97.959869,131.551712 97.046860,130.972443 
z"/>
<path fill="#FAB743" opacity="1.000000" stroke="none" 
	d="
M102.035271,128.274551 
	C103.316261,129.045700 104.575752,130.202759 106.034225,131.614868 
	C105.735733,131.909271 105.238266,131.948624 104.367912,131.994843 
	C103.334610,130.887970 102.674194,129.774231 102.035271,128.274551 
z"/>
<path fill="#FBC139" opacity="1.000000" stroke="none" 
	d="
M107.974884,123.820160 
	C107.411125,124.046173 106.854942,123.898338 106.046371,123.273926 
	C105.535347,122.535553 105.276688,122.273781 105.018028,122.012009 
	C105.190491,121.680267 105.362953,121.348526 105.767853,121.007629 
	C106.661018,121.814423 107.321739,122.630371 107.974884,123.820160 
z"/>
<path fill="#FAB743" opacity="1.000000" stroke="none" 
	d="
M103.929047,123.139206 
	C103.725273,123.722733 103.159409,124.286903 102.332672,124.999039 
	C102.570198,124.471283 103.068573,123.795563 103.929047,123.139206 
z"/>
<path fill="#FAB743" opacity="1.000000" stroke="none" 
	d="
M101.835777,126.089386 
	C102.004738,126.004532 102.038254,126.499092 102.017303,126.745956 
	C101.822861,126.827362 101.634109,126.673721 101.489067,126.486259 
	C101.460930,126.449867 101.603180,126.281647 101.835777,126.089386 
z"/>
<path fill="#FAB743" opacity="1.000000" stroke="none" 
	d="
M105.019821,122.309998 
	C105.276688,122.273781 105.535347,122.535553 105.826164,123.083771 
	C105.858330,123.370201 105.457504,123.271118 105.254890,123.237152 
	C105.042053,123.004776 105.031830,122.806381 105.019821,122.309998 
z"/>
<path fill="#FEAE84" opacity="1.000000" stroke="none" 
	d="
M77.917511,92.344513 
	C74.593933,93.109489 71.338760,93.815193 68.070503,93.882187 
	C66.784622,93.908546 64.374367,92.489937 64.386299,91.760590 
	C64.414734,90.022858 65.194580,87.191521 66.360474,86.786392 
	C69.809845,85.587776 73.593208,85.350311 77.572617,84.887421 
	C80.518425,87.338310 79.307114,89.683258 77.917511,92.344513 
z"/>
<path fill="#FED223" opacity="1.000000" stroke="none" 
	d="
M87.851715,47.335014 
	C88.665695,47.954636 89.700874,48.831238 89.921288,49.879208 
	C90.462257,52.451279 90.606194,55.105148 90.948425,57.721058 
	C91.953636,65.404533 85.791069,73.739799 78.316666,73.873253 
	C73.208969,73.964447 74.337715,77.674858 73.626465,80.466293 
	C71.545639,80.895691 69.635887,81.289787 67.362915,81.842041 
	C66.384079,79.738823 65.424187,77.487381 65.358566,75.210167 
	C65.338371,74.509300 67.724800,73.660919 69.077232,73.024536 
	C70.076637,72.554283 72.136307,72.142509 72.110519,72.003105 
	C70.820213,65.028519 78.697960,64.429367 81.074394,59.561321 
	C82.930840,55.758465 85.856102,51.887478 87.851715,47.335014 
z"/>
<path fill="#FED223" opacity="1.000000" stroke="none" 
	d="
M94.575752,32.998955 
	C98.867867,36.528439 100.040154,45.064880 96.706863,49.010132 
	C96.339554,44.512867 94.374062,42.068104 89.425949,43.000130 
	C89.000771,41.351269 89.137390,39.688637 88.973267,38.056240 
	C88.577766,34.122593 90.336800,32.543533 94.575752,32.998955 
z"/>
<path fill="#FBC139" opacity="1.000000" stroke="none" 
	d="
M115.101830,126.852402 
	C114.082924,127.047035 113.157028,126.960701 112.073402,126.658470 
	C111.695740,125.827835 111.475800,125.213097 111.129456,124.298828 
	C112.422157,124.329163 113.841263,124.659042 115.630188,124.994461 
	C116.000000,125.000000 116.002136,125.001678 116.002136,125.001678 
	C115.733032,125.524925 115.463936,126.048180 115.101830,126.852402 
z"/>
<path fill="#FFC639" opacity="1.000000" stroke="none" 
	d="
M57.532516,132.550934 
	C57.476780,132.584366 57.588253,132.517502 57.532516,132.550934 
z"/>
<path fill="#FCBD46" opacity="1.000000" stroke="none" 
	d="
M121.806335,131.782608 
	C122.970253,130.232361 124.134171,128.682129 125.614899,126.709908 
	C124.720078,125.911430 123.701035,125.002106 122.355019,124.086914 
	C123.603600,123.543549 125.179153,123.006050 126.754707,122.468559 
	C126.836098,122.793030 126.917480,123.117500 126.998871,123.441978 
	C128.124100,122.387047 129.249329,121.332115 131.077942,120.130875 
	C133.622147,119.652283 135.462982,119.320000 137.892761,118.881409 
	C136.386368,124.733116 137.271835,128.603516 143.690475,128.673553 
	C143.801163,128.674774 143.909378,128.901871 144.018753,129.023560 
	C143.680939,131.076523 143.343140,133.129486 143.011948,135.587036 
	C141.143387,135.827072 139.268188,135.662506 137.196136,135.748657 
	C135.340714,136.001328 133.468658,135.519714 132.079971,136.132843 
	C130.496918,136.831802 128.434326,138.357452 128.199417,139.789429 
	C127.743576,142.568268 126.967789,144.074234 123.974281,144.080063 
	C122.856049,144.082245 121.719688,144.916153 120.624382,144.847504 
	C115.176003,144.506088 112.615227,147.146866 112.673630,151.170212 
	C109.441620,153.440506 107.110558,155.317032 104.553680,156.805710 
	C102.072449,158.250320 99.436249,159.511398 96.734161,160.479080 
	C87.366768,163.833847 79.288734,171.467697 68.174950,169.163681 
	C67.473511,169.018280 66.614532,169.632782 65.414429,169.946564 
	C65.200371,169.044907 65.311928,167.288269 65.614281,167.254776 
	C71.241730,166.631653 75.087242,160.582993 81.511467,162.263992 
	C86.638306,163.605530 88.907181,162.174759 89.975784,157.072922 
	C90.896439,152.677383 94.160568,153.880508 96.657967,154.191772 
	C103.374336,155.028915 103.899414,154.768570 106.185623,148.490021 
	C106.577065,147.415024 108.113625,146.471985 109.325981,146.031021 
	C114.167763,144.270020 115.287804,141.091965 112.221313,136.299179 
	C112.269356,135.496765 112.536461,134.991104 112.912331,134.219147 
	C113.733238,133.910767 114.445389,133.868698 115.549683,133.875336 
	C115.941826,133.924042 116.016510,134.015137 116.082901,134.379761 
	C118.079521,135.388977 120.020889,136.545013 121.936188,136.503326 
	C123.273689,136.474213 124.575508,134.805573 125.893272,133.869263 
	C124.600143,133.252747 123.307007,132.636246 121.961731,131.960678 
	C121.909592,131.901627 121.806335,131.782608 121.806335,131.782608 
z"/>
<path fill="#FAB743" opacity="1.000000" stroke="none" 
	d="
M107.163994,132.313171 
	C108.263519,132.437820 109.528717,132.877335 111.014801,133.589752 
	C109.933678,133.451126 108.631668,133.039581 107.163994,132.313171 
z"/>
<path fill="#FCBD46" opacity="1.000000" stroke="none" 
	d="
M61.347816,173.963074 
	C62.107803,172.686905 63.210518,171.377640 64.656311,170.034180 
	C63.896439,171.309998 62.793491,172.619995 61.347816,173.963074 
z"/>
<path fill="#F5BF44" opacity="1.000000" stroke="none" 
	d="
M144.416229,129.023605 
	C143.909378,128.901871 143.801163,128.674774 143.690475,128.673553 
	C137.271835,128.603516 136.386368,124.733116 137.892761,118.881409 
	C135.462982,119.320000 133.622147,119.652283 131.393707,119.991524 
	C130.861740,117.295753 131.154419,115.248711 134.706528,114.779243 
	C135.949158,114.614998 137.626465,112.236008 137.799454,110.719437 
	C138.088486,108.185410 137.251114,105.538185 137.026672,102.926682 
	C136.699722,99.122093 138.196167,96.961037 142.349075,96.963982 
	C145.533569,96.966240 148.611221,94.824173 151.982346,96.863953 
	C152.761215,97.335243 154.529877,96.170738 156.248230,95.426895 
	C158.100266,96.060654 159.547165,97.026497 161.014038,98.302231 
	C161.050522,98.818474 161.067001,99.024834 161.073929,99.597366 
	C160.160248,100.065773 159.252106,100.280579 158.352737,100.248657 
	C155.874664,100.160713 153.400269,99.969467 150.546997,99.784546 
	C148.805161,100.526909 147.440750,101.303825 145.744049,101.896240 
	C135.136627,108.913673 136.464417,122.383347 147.998322,128.204849 
	C147.998169,128.635406 147.997559,128.807617 147.996948,128.979843 
	C146.935867,128.994446 145.874771,129.009048 144.416229,129.023605 
z"/>
<path fill="#130C0A" opacity="1.000000" stroke="none" 
	d="
M147.997864,127.946533 
	C136.464417,122.383347 135.136627,108.913673 145.733307,101.885300 
	C146.054871,102.058868 146.066681,102.071793 145.950821,102.418495 
	C142.859024,107.383644 143.236221,109.131981 147.785370,113.092102 
	C147.044724,113.460754 146.558304,113.721077 145.704056,114.037849 
	C144.592346,115.941917 143.150452,117.831726 143.259018,119.627823 
	C143.448395,122.761177 149.587463,126.165405 153.555496,125.880447 
	C158.818359,125.502502 162.543930,122.176491 162.941391,117.371918 
	C163.445496,116.405487 163.800735,115.701187 164.474152,114.939346 
	C165.222870,112.533760 165.653412,110.185722 166.083954,107.837685 
	C170.029312,117.040283 165.650894,125.907356 155.645447,128.477753 
	C155.304108,128.669296 154.896301,128.540527 154.896301,128.540527 
	C154.896301,128.540527 154.478073,128.630310 153.891739,128.644287 
	C152.203827,128.578491 151.102234,128.498718 150.000656,128.418945 
	C150.000656,128.418945 149.744141,128.449463 149.524597,128.311157 
	C148.869324,128.097397 148.433594,128.021973 147.997864,127.946533 
z"/>
<path fill="#FCBD46" opacity="1.000000" stroke="none" 
	d="
M150.000610,128.815506 
	C151.102234,128.498718 152.203827,128.578491 153.711411,128.762024 
	C153.742935,129.996658 153.368454,131.127533 152.993286,132.619873 
	C151.995255,131.724930 150.997894,130.468491 150.000610,128.815506 
z"/>
<path fill="#FCBD46" opacity="1.000000" stroke="none" 
	d="
M147.998322,128.204865 
	C148.433594,128.021973 148.869324,128.097397 149.504623,128.438751 
	C149.423279,128.772995 149.142365,128.841309 148.429199,128.944733 
	C147.997559,128.807617 147.998169,128.635406 147.998322,128.204865 
z"/>
<path fill="#0B0707" opacity="1.000000" stroke="none" 
	d="
M166.106598,107.475647 
	C165.653412,110.185722 165.222870,112.533760 164.373047,114.582153 
	C162.408173,113.669594 160.862595,113.056679 159.317001,112.443771 
	C159.273651,114.263718 159.230286,116.083656 158.868698,118.061050 
	C153.681381,122.975395 148.224838,121.122627 146.071899,113.981400 
	C146.558304,113.721077 147.044724,113.460754 148.177094,113.078003 
	C152.496613,113.205963 155.052765,111.499153 155.773712,108.005074 
	C156.531708,104.331528 154.159698,102.204025 150.988068,100.599525 
	C150.957443,100.165604 150.940933,99.992348 150.924408,99.819084 
	C153.400269,99.969467 155.874664,100.160713 158.352737,100.248657 
	C159.252106,100.280579 160.160248,100.065773 161.479126,99.517166 
	C163.544891,99.066780 165.195908,99.062775 166.897446,99.364189 
	C167.259003,100.130272 167.570007,100.590935 167.881012,101.051590 
	C167.297104,103.072273 166.713181,105.092949 166.106598,107.475647 
z"/>
<path fill="#FEBF43" opacity="1.000000" stroke="none" 
	d="
M166.846909,99.058769 
	C165.195908,99.062775 163.544891,99.066780 161.488678,99.150986 
	C161.067001,99.024834 161.050522,98.818474 161.016174,97.905380 
	C161.000595,96.140961 161.002914,95.083275 161.323456,93.868225 
	C162.412216,92.146698 163.182709,90.582542 164.190735,88.848862 
	C163.939728,88.125252 163.451187,87.571167 162.641907,86.989937 
	C161.501587,86.334862 160.682022,85.706947 159.862473,85.079033 
	C161.007629,83.745117 162.152771,82.411194 163.648651,81.038635 
	C166.979202,85.459373 168.016357,90.198624 166.229996,95.419159 
	C166.118439,95.745155 166.897049,96.375732 167.625885,96.934235 
	C167.994293,97.447693 167.998337,97.891525 167.714767,98.679276 
	C167.233749,99.035057 167.040329,99.046913 166.846909,99.058769 
z"/>
<path fill="#FEBC4A" opacity="1.000000" stroke="none" 
	d="
M166.897446,99.364189 
	C167.040329,99.046913 167.233749,99.035057 167.717712,99.012184 
	C168.126389,99.591324 168.244522,100.181496 168.121826,100.911621 
	C167.570007,100.590935 167.259003,100.130272 166.897446,99.364189 
z"/>
<path fill="#FEA479" opacity="1.000000" stroke="none" 
	d="
M159.477997,85.077759 
	C160.682022,85.706947 161.501587,86.334862 162.667465,87.285156 
	C163.326935,88.077812 163.640060,88.548096 163.953201,89.018379 
	C163.182709,90.582542 162.412216,92.146698 160.935074,93.856506 
	C158.476028,93.705482 156.723633,93.408798 154.971222,93.112122 
	C153.189713,92.503525 151.408188,91.894928 149.291260,90.847595 
	C148.631226,89.941032 148.306580,89.473206 147.981934,89.005386 
	C147.986618,88.560379 147.991302,88.115379 148.018158,87.098763 
	C148.040314,86.527153 148.082550,86.050880 148.082550,86.050880 
	C150.469269,85.690933 152.856003,85.330986 155.618591,84.962631 
	C157.027466,84.994972 158.060486,85.035728 159.477997,85.077759 
z"/>
<path fill="#FEBC4A" opacity="1.000000" stroke="none" 
	d="
M155.001678,93.396042 
	C156.723633,93.408798 158.476028,93.705482 160.616821,94.013870 
	C161.002914,95.083275 161.000595,96.140961 160.996170,97.595490 
	C159.547165,97.026497 158.100266,96.060654 156.328079,95.049576 
	C155.679230,94.562889 155.355698,94.121422 155.001678,93.396042 
z"/>
<path fill="#FEBC4A" opacity="1.000000" stroke="none" 
	d="
M147.755981,89.176872 
	C148.306580,89.473206 148.631226,89.941032 148.966217,90.709671 
	C148.494400,90.456444 148.012222,89.902405 147.755981,89.176872 
z"/>
<path fill="#FEBC4A" opacity="1.000000" stroke="none" 
	d="
M147.823547,86.047821 
	C148.082550,86.050880 148.040314,86.527153 148.015640,86.764992 
	C147.562576,86.821785 147.134201,86.640732 146.705811,86.459686 
	C146.992050,86.321381 147.278290,86.183067 147.823547,86.047821 
z"/>
<path fill="#FBC139" opacity="1.000000" stroke="none" 
	d="
M115.999146,124.998932 
	C116.091728,124.962662 116.185158,124.927460 116.140366,124.946968 
	C116.002136,125.001678 116.000000,125.000000 115.999146,124.998932 
z"/>
<path fill="#6E3D17" opacity="1.000000" stroke="none" 
	d="
M83.906120,117.877571 
	C84.137703,123.692024 79.670860,124.753754 75.541847,125.765823 
	C71.543884,126.745766 65.884949,123.997704 64.981110,120.412148 
	C64.443420,118.279129 65.425339,115.763054 66.380371,113.502838 
	C70.088943,120.877113 76.437881,123.274910 81.209457,118.369652 
	C82.435089,117.965538 83.170609,117.921555 83.906120,117.877571 
z"/>
<path fill="#F6F6F6" opacity="1.000000" stroke="none" 
	d="
M77.191193,105.385468 
	C77.784927,109.720360 75.903046,112.660423 72.206184,112.676651 
	C70.104645,112.685875 67.220024,110.461708 66.070786,108.452446 
	C64.491554,105.691383 66.247292,102.997040 69.105011,101.659828 
	C72.838600,99.912758 75.361565,101.608345 77.191193,105.385468 
z"/>
<path fill="#EAE8E6" opacity="1.000000" stroke="none" 
	d="
M84.043274,117.576477 
	C83.170609,117.921555 82.435089,117.965538 81.337738,118.082985 
	C80.914391,116.318047 80.852882,114.479652 80.791382,112.641251 
	C81.994766,112.662781 83.198143,112.684303 84.401527,112.705826 
	C84.327827,114.229012 84.254135,115.752205 84.043274,117.576477 
z"/>
<path fill="#FCBD46" opacity="1.000000" stroke="none" 
	d="
M115.906830,133.876663 
	C117.618958,133.192749 119.366096,132.556229 121.459778,131.851151 
	C121.806335,131.782608 121.909592,131.901627 121.779366,132.281693 
	C119.771599,133.112885 117.894058,133.564011 116.016510,134.015137 
	C116.016510,134.015137 115.941826,133.924042 115.906830,133.876663 
z"/>
<path fill="#FCC041" opacity="1.000000" stroke="none" 
	d="
M116.082901,134.379761 
	C117.894058,133.564011 119.771599,133.112885 121.831512,132.340744 
	C123.307007,132.636246 124.600143,133.252747 125.893272,133.869263 
	C124.575508,134.805573 123.273689,136.474213 121.936188,136.503326 
	C120.020889,136.545013 118.079521,135.388977 116.082901,134.379761 
z"/>
<path fill="#130C0A" opacity="1.000000" stroke="none" 
	d="
M150.546997,99.784546 
	C150.940933,99.992348 150.957443,100.165604 150.624054,100.671890 
	C148.871658,101.360550 147.469162,101.716171 146.066681,102.071793 
	C146.066681,102.071793 146.054871,102.058868 146.065613,102.069809 
	C147.440750,101.303825 148.805161,100.526909 150.546997,99.784546 
z"/>
<path fill="#F3F3F2" opacity="1.000000" stroke="none" 
	d="
M145.950821,102.418495 
	C147.469162,101.716171 148.871658,101.360550 150.638153,100.932564 
	C154.159698,102.204025 156.531708,104.331528 155.773712,108.005074 
	C155.052765,111.499153 152.496613,113.205963 148.431335,112.969681 
	C143.236221,109.131981 142.859024,107.383644 145.950821,102.418495 
z"/>
<path fill="#6F3E16" opacity="1.000000" stroke="none" 
	d="
M145.704056,114.037849 
	C148.224838,121.122627 153.681381,122.975395 159.234772,118.070465 
	C160.876892,117.826302 161.834717,117.730171 162.792526,117.634048 
	C162.543930,122.176491 158.818359,125.502502 153.555496,125.880447 
	C149.587463,126.165405 143.448395,122.761177 143.259018,119.627823 
	C143.150452,117.831726 144.592346,115.941917 145.704056,114.037849 
z"/>
<path fill="#E7E4E0" opacity="1.000000" stroke="none" 
	d="
M162.941391,117.371918 
	C161.834717,117.730171 160.876892,117.826302 159.553009,117.913010 
	C159.230286,116.083656 159.273651,114.263718 159.317001,112.443771 
	C160.862595,113.056679 162.408173,113.669594 164.054871,114.639702 
	C163.800735,115.701187 163.445496,116.405487 162.941391,117.371918 
z"/>
<path fill="#FEBC4A" opacity="1.000000" stroke="none" 
	d="
M164.190735,88.848862 
	C163.640060,88.548096 163.326935,88.077812 162.988220,87.312309 
	C163.451187,87.571167 163.939728,88.125252 164.190735,88.848862 
z"/>
</svg>