<svg version="1.1" id="Layer_1" xmlns="http://www.w3.org/2000/svg" xmlns:xlink="http://www.w3.org/1999/xlink" x="0px" y="0px"
	 width="100%" viewBox="0 0 225 225" enable-background="new 0 0 225 225" xml:space="preserve">
<path fill="#FEFEFE" opacity="1.000000" stroke="none" 
	d="
M1.000000,85.000000 
	C1.000000,56.666672 1.000000,28.833344 1.000000,1.000011 
	C75.999977,1.000007 150.999954,1.000007 225.999954,1.000004 
	C225.999969,75.999969 225.999969,150.999939 225.999985,225.999939 
	C151.000046,225.999954 76.000092,225.999954 1.000068,225.999969 
	C1.000000,179.166672 1.000000,132.333328 1.000000,85.000000 
M79.823120,12.329811 
	C88.245201,36.608688 96.667290,60.887562 105.077942,85.133469 
	C81.113853,98.483643 78.551796,113.106209 96.254623,134.601685 
	C90.403839,143.821640 75.619057,155.756271 65.926781,158.840607 
	C64.743401,159.217194 62.534245,159.071976 61.996891,158.317017 
	C59.451836,154.741318 56.452133,151.119781 55.279778,147.036423 
	C54.010197,142.614441 54.644001,138.482040 60.649963,136.090530 
	C70.599121,132.128906 77.523888,119.128960 75.842903,109.694092 
	C72.282387,89.710014 56.587978,81.718605 38.573048,86.244644 
	C21.730820,90.476036 13.567371,111.864792 23.517080,125.962158 
	C27.027113,130.935379 26.436838,134.092072 23.973051,138.653809 
	C16.623278,152.262070 12.862599,166.735947 14.808557,182.332794 
	C17.369122,202.855713 34.886440,218.378220 55.547222,219.182861 
	C71.613274,219.808563 85.727951,213.842743 99.939423,207.645432 
	C114.216248,201.419662 128.374573,194.742584 143.095856,189.778778 
	C152.886078,186.477661 163.676620,186.281433 173.839264,183.920135 
	C202.059479,177.363220 213.807037,150.522659 203.638931,128.583252 
	C203.027176,127.263329 203.556534,125.102989 204.167786,123.579613 
	C207.509476,115.251091 207.522888,107.240883 203.391449,99.045639 
	C199.632050,91.588371 192.576767,88.580467 185.732117,85.002213 
	C188.000885,78.429146 190.164108,72.160103 192.328522,65.891479 
	C198.877090,46.925392 205.426117,27.959471 212.107681,8.373124 
	C211.737488,8.245348 211.367310,8.117571 210.072556,7.823574 
	C177.341263,7.813106 144.609940,7.783860 111.878662,7.802943 
	C101.251671,7.809139 90.624756,7.941782 79.369614,7.926667 
	C79.550056,9.153767 79.730507,10.380866 79.823120,12.329811 
z"/>
<path fill="#9A4451" opacity="1.000000" stroke="none" 
	d="
M79.997803,8.016588 
	C90.624756,7.941782 101.251671,7.809139 111.878662,7.802943 
	C144.609940,7.783860 177.341263,7.813106 210.633392,8.129307 
	C211.391220,8.709605 211.651459,8.895754 211.974945,8.993484 
	C205.426117,27.959471 198.877090,46.925392 192.328522,65.891479 
	C190.164108,72.160103 188.000885,78.429146 185.732117,85.002213 
	C192.576767,88.580467 199.632050,91.588371 203.391449,99.045639 
	C207.522888,107.240883 207.509476,115.251091 204.167786,123.579613 
	C203.556534,125.102989 203.027176,127.263329 203.638931,128.583252 
	C213.807037,150.522659 202.059479,177.363220 173.839264,183.920135 
	C163.676620,186.281433 152.886078,186.477661 143.095856,189.778778 
	C128.374573,194.742584 114.216248,201.419662 99.939423,207.645432 
	C85.727951,213.842743 71.613274,219.808563 55.547222,219.182861 
	C34.886440,218.378220 17.369122,202.855713 14.808557,182.332794 
	C12.862599,166.735947 16.623278,152.262070 23.973051,138.653809 
	C26.436838,134.092072 27.027113,130.935379 23.517080,125.962158 
	C13.567371,111.864792 21.730820,90.476036 38.573048,86.244644 
	C56.587978,81.718605 72.282387,89.710014 75.842903,109.694092 
	C77.523888,119.128960 70.599121,132.128906 60.649963,136.090530 
	C54.644001,138.482040 54.010197,142.614441 55.279778,147.036423 
	C56.452133,151.119781 59.451836,154.741318 61.996891,158.317017 
	C62.534245,159.071976 64.743401,159.217194 65.926781,158.840607 
	C75.619057,155.756271 90.403839,143.821640 96.254623,134.601685 
	C78.551796,113.106209 81.113853,98.483643 105.077942,85.133469 
	C96.667290,60.887562 88.245201,36.608688 79.885147,11.517736 
	C79.964050,9.809304 79.980927,8.912947 79.997803,8.016588 
M71.582878,205.214951 
	C77.055084,203.295776 82.639626,201.644653 87.978493,199.407318 
	C104.185692,192.615417 120.103416,185.080170 136.533539,178.896255 
	C144.131927,176.036407 152.642075,175.549591 160.767349,174.152649 
	C169.327469,172.680939 177.761459,170.987778 184.816330,165.401077 
	C192.284576,159.487030 197.867096,145.549179 192.259415,136.042999 
	C173.085693,142.865601 161.905884,138.510757 151.625916,120.851761 
	C150.712112,119.282043 146.812195,119.032829 144.281586,118.977821 
	C142.746567,118.944450 140.351501,120.075043 139.752731,121.346634 
	C134.133896,133.278976 125.020645,139.273270 111.735245,139.159195 
	C110.032990,139.144562 107.779846,140.536133 106.687592,141.967422 
	C96.122894,155.811417 82.744995,165.850418 66.451012,171.854156 
	C64.337494,172.632919 61.126087,172.360687 59.150005,171.264786 
	C47.941273,165.048645 41.815334,155.547424 42.233868,142.446793 
	C42.329388,139.456757 41.361080,138.137085 38.165615,138.261536 
	C31.272507,150.875214 25.562075,163.847672 27.144264,178.781845 
	C28.229700,189.027191 32.116108,197.489059 41.828159,202.705734 
	C51.225254,207.753250 60.841232,207.930481 71.582878,205.214951 
M100.757996,19.859808 
	C99.217392,19.966743 97.676788,20.073681 95.769989,20.206034 
	C103.137337,41.319515 110.267105,61.835442 117.516983,82.308838 
	C117.924522,83.459724 119.186813,84.697838 120.312668,85.043213 
	C120.892754,85.221153 122.357063,83.680275 122.896233,82.642891 
	C127.034866,74.679939 131.021072,66.637978 135.101212,58.644329 
	C138.438034,52.106922 141.839066,45.602276 145.428833,38.663231 
	C153.663361,54.857925 161.546234,70.361069 170.066406,87.117561 
	C171.610809,84.701584 172.981079,83.204659 173.624176,81.442368 
	C176.752991,72.868408 179.690536,64.224594 182.689499,55.603321 
	C186.767624,43.879665 190.840073,32.154034 195.112854,19.859808 
	C163.603668,19.859808 132.654251,19.859808 100.757996,19.859808 
M128.954941,109.861237 
	C127.941429,107.432144 127.303177,104.745605 125.845657,102.621117 
	C121.032249,95.605095 109.792648,94.518066 102.775040,100.151062 
	C96.078194,105.526558 95.329796,115.396927 101.128105,121.871872 
	C105.267868,126.494728 112.413521,128.657623 117.471840,126.818924 
	C125.311172,123.969322 128.818741,119.090027 128.954941,109.861237 
M31.620090,108.426056 
	C29.841497,115.240776 32.458328,120.419182 37.824646,124.386559 
	C43.015434,128.224136 50.160408,128.320419 55.545113,124.887444 
	C61.153282,121.311989 63.803097,115.483711 62.703793,109.141876 
	C61.547390,102.470596 55.536987,97.207497 48.040874,96.302048 
	C41.467915,95.508102 34.794849,100.168633 31.620090,108.426056 
M175.936096,126.977852 
	C177.420776,126.999245 178.915009,127.140244 180.388535,127.022293 
	C188.851227,126.344902 195.591324,118.269226 194.400650,110.302681 
	C192.994583,100.894951 184.304443,94.760071 175.411041,96.896782 
	C167.705902,98.748001 163.114395,103.783371 162.769348,110.760529 
	C162.355545,119.128693 166.055176,123.992348 175.936096,126.977852 
M140.375992,75.919212 
	C138.812637,79.040031 137.495895,82.318474 135.626266,85.243515 
	C133.035553,89.296661 132.155655,92.656471 136.268234,96.533363 
	C138.270874,98.421257 139.228012,101.627251 140.131897,104.407738 
	C140.900864,106.773201 141.772278,108.135086 144.523285,107.884895 
	C147.287155,107.633537 149.953735,108.140602 151.372620,104.528313 
	C152.806946,100.876671 155.295044,97.651978 157.007477,94.089302 
	C157.588135,92.881271 157.740082,90.962547 157.186905,89.795761 
	C153.488861,81.995575 149.547272,74.310867 145.495972,66.211311 
	C143.800110,69.455635 142.277573,72.368340 140.375992,75.919212 
z"/>
<path fill="#923141" opacity="1.000000" stroke="none" 
	d="
M79.683716,7.971628 
	C79.980927,8.912947 79.964050,9.809304 79.929062,11.156815 
	C79.730507,10.380866 79.550056,9.153767 79.683716,7.971628 
z"/>
<path fill="#923141" opacity="1.000000" stroke="none" 
	d="
M212.041321,8.683306 
	C211.651459,8.895754 211.391220,8.709605 211.095673,8.212418 
	C211.367310,8.117571 211.737488,8.245348 212.041321,8.683306 
z"/>
<path fill="#FEFEFE" opacity="1.000000" stroke="none" 
	d="
M71.210403,205.407227 
	C60.841232,207.930481 51.225254,207.753250 41.828159,202.705734 
	C32.116108,197.489059 28.229700,189.027191 27.144264,178.781845 
	C25.562075,163.847672 31.272507,150.875214 38.165615,138.261536 
	C41.361080,138.137085 42.329388,139.456757 42.233868,142.446793 
	C41.815334,155.547424 47.941273,165.048645 59.150005,171.264786 
	C61.126087,172.360687 64.337494,172.632919 66.451012,171.854156 
	C82.744995,165.850418 96.122894,155.811417 106.687592,141.967422 
	C107.779846,140.536133 110.032990,139.144562 111.735245,139.159195 
	C125.020645,139.273270 134.133896,133.278976 139.752731,121.346634 
	C140.351501,120.075043 142.746567,118.944450 144.281586,118.977821 
	C146.812195,119.032829 150.712112,119.282043 151.625916,120.851761 
	C161.905884,138.510757 173.085693,142.865601 192.259415,136.042999 
	C197.867096,145.549179 192.284576,159.487030 184.816330,165.401077 
	C177.761459,170.987778 169.327469,172.680939 160.767349,174.152649 
	C152.642075,175.549591 144.131927,176.036407 136.533539,178.896255 
	C120.103416,185.080170 104.185692,192.615417 87.978493,199.407318 
	C82.639626,201.644653 77.055084,203.295776 71.210403,205.407227 
z"/>
<path fill="#FEFDFE" opacity="1.000000" stroke="none" 
	d="
M101.231415,19.859808 
	C132.654251,19.859808 163.603668,19.859808 195.112854,19.859808 
	C190.840073,32.154034 186.767624,43.879665 182.689499,55.603321 
	C179.690536,64.224594 176.752991,72.868408 173.624176,81.442368 
	C172.981079,83.204659 171.610809,84.701584 170.066406,87.117561 
	C161.546234,70.361069 153.663361,54.857925 145.428833,38.663231 
	C141.839066,45.602276 138.438034,52.106922 135.101212,58.644329 
	C131.021072,66.637978 127.034866,74.679939 122.896233,82.642891 
	C122.357063,83.680275 120.892754,85.221153 120.312668,85.043213 
	C119.186813,84.697838 117.924522,83.459724 117.516983,82.308838 
	C110.267105,61.835442 103.137337,41.319515 95.769989,20.206034 
	C97.676788,20.073681 99.217392,19.966743 101.231415,19.859808 
z"/>
<path fill="#FDFCFC" opacity="1.000000" stroke="none" 
	d="
M129.008209,110.279022 
	C128.818741,119.090027 125.311172,123.969322 117.471840,126.818924 
	C112.413521,128.657623 105.267868,126.494728 101.128105,121.871872 
	C95.329796,115.396927 96.078194,105.526558 102.775040,100.151062 
	C109.792648,94.518066 121.032249,95.605095 125.845657,102.621117 
	C127.303177,104.745605 127.941429,107.432144 129.008209,110.279022 
z"/>
<path fill="#FDFCFC" opacity="1.000000" stroke="none" 
	d="
M31.708008,108.036880 
	C34.794849,100.168633 41.467915,95.508102 48.040874,96.302048 
	C55.536987,97.207497 61.547390,102.470596 62.703793,109.141876 
	C63.803097,115.483711 61.153282,121.311989 55.545113,124.887444 
	C50.160408,128.320419 43.015434,128.224136 37.824646,124.386559 
	C32.458328,120.419182 29.841497,115.240776 31.708008,108.036880 
z"/>
<path fill="#FEFDFD" opacity="1.000000" stroke="none" 
	d="
M175.504974,126.957092 
	C166.055176,123.992348 162.355545,119.128693 162.769348,110.760529 
	C163.114395,103.783371 167.705902,98.748001 175.411041,96.896782 
	C184.304443,94.760071 192.994583,100.894951 194.400650,110.302681 
	C195.591324,118.269226 188.851227,126.344902 180.388535,127.022293 
	C178.915009,127.140244 177.420776,126.999245 175.504974,126.957092 
z"/>
<path fill="#FCFAFA" opacity="1.000000" stroke="none" 
	d="
M140.565521,75.600128 
	C142.277573,72.368340 143.800110,69.455635 145.495972,66.211311 
	C149.547272,74.310867 153.488861,81.995575 157.186905,89.795761 
	C157.740082,90.962547 157.588135,92.881271 157.007477,94.089302 
	C155.295044,97.651978 152.806946,100.876671 151.372620,104.528313 
	C149.953735,108.140602 147.287155,107.633537 144.523285,107.884895 
	C141.772278,108.135086 140.900864,106.773201 140.131897,104.407738 
	C139.228012,101.627251 138.270874,98.421257 136.268234,96.533363 
	C132.155655,92.656471 133.035553,89.296661 135.626266,85.243515 
	C137.495895,82.318474 138.812637,79.040031 140.565521,75.600128 
z"/>
</svg>