<svg version="1.1" id="Layer_1" xmlns="http://www.w3.org/2000/svg" xmlns:xlink="http://www.w3.org/1999/xlink" x="0px" y="0px"
	 width="100%" viewBox="0 0 226 223" enable-background="new 0 0 226 223" xml:space="preserve">
<path fill="#FEFEFE" opacity="1.000000" stroke="none" 
	d="
M119.000000,224.000000 
	C79.700493,224.000000 40.400982,224.000000 1.050735,224.000000 
	C1.050735,149.764435 1.050735,75.528839 1.050735,1.000000 
	C56.687218,1.000000 112.374954,1.000000 168.531342,1.464996 
	C169.000000,9.276145 169.000000,16.622297 169.000000,23.918652 
	C159.991196,25.279026 159.557251,27.719162 162.855148,34.070366 
	C162.998123,34.345684 162.957199,34.716488 162.664642,35.208870 
	C160.582230,35.632404 158.837082,35.889885 157.076187,35.804741 
	C157.090820,34.781055 157.121216,34.099991 157.410278,33.196529 
	C157.768219,32.318676 157.867523,31.663225 158.074371,30.766445 
	C158.185532,30.349016 158.189133,30.172915 158.407608,29.707241 
	C160.415314,22.944971 162.208145,16.472269 164.195374,9.789240 
	C164.458389,9.029824 164.527023,8.480735 164.732300,7.631019 
	C164.876587,6.894365 164.884262,6.458337 164.948608,5.605197 
	C163.968353,4.153682 162.876541,2.192878 161.904297,2.250469 
	C158.317657,2.462925 154.753235,3.259008 151.211807,3.987908 
	C139.821701,6.332236 128.445557,8.744454 116.655441,11.123412 
	C108.181839,12.635515 100.085785,14.008833 92.060982,15.716954 
	C84.768593,17.269178 84.802757,17.429689 84.982346,25.433880 
	C84.734200,29.202192 84.561226,32.544918 84.397034,36.103447 
	C84.405830,36.319248 84.829086,36.405540 84.586662,36.596237 
	C84.332764,37.189545 84.321289,37.592152 84.185165,38.075111 
	C84.060532,38.155460 83.814499,38.321098 83.399780,38.251785 
	C79.662582,37.755646 76.340111,37.328827 72.711617,36.668434 
	C67.261795,35.624886 62.117981,34.814915 56.678104,33.752201 
	C50.593384,32.599068 44.804733,31.698675 38.675144,30.632887 
	C33.876839,29.687057 29.419470,28.906626 24.577768,28.007711 
	C20.116749,27.208023 16.061192,26.193354 11.957816,25.933344 
	C7.245173,25.634724 4.934350,29.102007 6.819882,33.445415 
	C7.772133,35.638969 9.478373,37.505215 10.813452,39.867058 
	C12.466592,43.161411 14.149975,46.108158 15.921515,49.403744 
	C18.205276,53.547394 20.400883,57.342201 22.711161,61.475803 
	C24.488411,64.560135 26.150990,67.305672 27.874130,70.345657 
	C28.284187,71.108376 28.633680,71.576645 29.005032,72.265327 
	C29.113289,72.787598 29.295141,73.012161 29.683588,73.504341 
	C31.776695,77.266083 33.758667,80.682907 35.832138,84.348557 
	C36.156700,84.858353 36.389759,85.119339 36.696434,85.724312 
	C38.854137,89.676369 40.938217,93.284431 43.095596,97.195358 
	C43.730362,98.343430 44.291817,99.188637 44.904560,100.327377 
	C45.295937,101.088318 45.636024,101.555733 45.986774,102.011871 
	C45.997437,102.000610 45.971653,102.024467 45.989807,102.380829 
	C48.310143,106.540459 50.612320,110.343735 52.973091,114.457596 
	C53.701706,115.845779 54.371723,116.923386 55.113766,118.326950 
	C56.347340,120.470062 57.508884,122.287193 58.760574,124.455276 
	C60.867908,128.259308 62.885101,131.712402 64.933128,135.509735 
	C66.611717,138.293976 68.259483,140.733963 70.038345,143.498550 
	C72.044647,147.335938 73.919838,150.848740 75.878082,154.692032 
	C77.608101,157.743759 79.255074,160.464966 81.051041,163.490967 
	C81.826614,165.198624 82.453186,166.601486 83.073380,168.256882 
	C83.330101,168.699539 83.593208,168.889679 84.012878,169.356522 
	C84.727936,170.275070 85.286423,170.916946 85.858597,171.898438 
	C87.801376,175.589340 89.730476,178.940582 91.737595,182.590149 
	C92.363228,183.739655 92.910835,184.590866 93.565826,185.739441 
	C94.054886,186.541504 94.436562,187.046158 94.841080,187.881287 
	C96.153358,190.318893 97.442802,192.426056 98.796127,194.853485 
	C99.874290,196.845810 100.888557,198.517868 101.918976,200.397888 
	C102.026131,200.887848 102.204704,201.093994 102.568359,201.511780 
	C102.970001,202.316528 103.274147,202.833786 103.677521,203.636261 
	C104.143791,204.393982 104.510841,204.866455 104.927193,205.679657 
	C106.954308,209.482086 108.915199,212.953583 110.915924,216.401978 
	C112.228867,218.664902 113.647461,219.296204 116.534195,218.258331 
	C120.399170,216.868759 120.770668,213.316605 122.412300,210.684845 
	C127.118919,203.139465 131.364182,195.306335 135.967255,187.994324 
	C136.429062,190.993286 136.668213,193.590393 137.011047,196.173737 
	C137.480408,199.710526 136.314621,201.556931 132.436935,201.024292 
	C129.891281,200.674622 128.804352,201.916916 128.983231,204.471832 
	C129.098328,206.115417 129.000854,207.773804 129.000702,209.425552 
	C129.000061,216.521805 128.999756,216.516235 122.252701,217.216888 
	C121.967125,217.246552 121.710953,217.559448 121.779930,217.513199 
	C120.755898,219.902725 119.877953,221.951370 119.000000,224.000000 
z"/>
<path fill="#FFFFFF" opacity="1.000000" stroke="none" 
	d="
M119.468658,224.000000 
	C119.877953,221.951370 120.755898,219.902725 121.779930,217.513199 
	C121.710953,217.559448 121.967125,217.246552 122.252701,217.216888 
	C128.999756,216.516235 129.000061,216.521805 129.000702,209.425552 
	C129.000854,207.773804 129.098328,206.115417 128.983231,204.471832 
	C128.804352,201.916916 129.891281,200.674622 132.436935,201.024292 
	C136.314621,201.556931 137.480408,199.710526 137.011047,196.173737 
	C136.668213,193.590393 136.429062,190.993286 135.960358,187.693466 
	C136.219574,186.323563 136.662125,185.662491 137.544342,185.001007 
	C140.223846,184.901596 142.463699,184.802582 144.637985,184.706482 
	C144.954483,176.850220 147.029373,176.030624 152.374527,176.355789 
	C152.374527,171.819397 152.270233,167.276001 152.496643,162.749176 
	C152.527542,162.131439 154.312637,160.984573 155.109833,161.119659 
	C161.466827,162.196747 161.350555,158.232117 161.018311,153.924133 
	C160.903412,152.434174 161.115524,150.917099 160.976624,149.431274 
	C160.692780,146.395294 161.522720,144.509674 165.028397,144.999878 
	C168.605011,145.500000 169.166550,143.481781 169.040436,140.513016 
	C168.878021,136.689804 169.011093,132.854065 169.464508,129.015259 
	C172.257645,128.279663 176.450546,127.832870 176.611206,126.774200 
	C177.148438,123.233711 176.243393,119.474358 175.927475,115.513016 
	C176.483566,114.434067 177.002930,113.640953 177.999542,112.890335 
	C180.422592,112.932831 182.368408,112.932831 184.683273,112.932831 
	C185.120483,108.650520 185.185242,104.340553 191.001999,104.607063 
	C191.605911,104.634735 192.802734,102.097282 192.904938,100.690491 
	C193.175613,96.964737 192.996704,93.206314 192.996704,89.599037 
	C200.996674,88.344238 200.996674,88.344238 201.000443,80.565285 
	C201.000931,79.570671 201.061111,78.571854 200.991165,77.582230 
	C200.776627,74.546516 201.858276,72.805298 205.201309,72.970833 
	C206.294205,73.024940 207.405228,72.713409 209.451172,72.445656 
	C208.889191,67.673431 208.358978,63.170872 207.894745,58.330318 
	C209.034576,55.448002 210.108429,52.903683 211.478180,50.170235 
	C214.589371,45.030178 217.404694,40.079247 220.488419,34.887508 
	C223.119064,28.761257 220.876312,25.376896 214.726593,26.004454 
	C210.454254,26.440432 206.240067,27.446407 201.602066,28.188866 
	C195.136780,29.454096 189.069351,30.728188 182.578369,31.976221 
	C177.760117,32.602993 173.365417,33.255821 168.749252,33.664574 
	C167.353622,33.866131 166.179474,34.311768 164.682129,34.866753 
	C163.906616,34.998337 163.454269,35.020576 163.001923,35.042816 
	C162.957199,34.716488 162.998123,34.345684 162.855148,34.070366 
	C159.557251,27.719162 159.991196,25.279026 169.000000,23.918652 
	C169.000000,16.622297 169.000000,9.276145 169.000000,1.464996 
	C188.311569,1.000000 207.623138,1.000000 226.967346,1.000000 
	C226.967346,75.227867 226.967346,149.455750 226.967346,224.000000 
	C191.313065,224.000000 155.625183,224.000000 119.468658,224.000000 
z"/>
<path fill="#FED42E" opacity="1.000000" stroke="none" 
	d="
M84.829086,36.405540 
	C84.829086,36.405540 84.405830,36.319248 84.801506,36.140049 
	C87.144051,35.917213 89.091652,35.894440 91.037659,35.826180 
	C97.961433,35.583313 104.915077,35.636909 111.797714,34.965897 
	C116.612007,34.496540 121.703003,31.391052 126.005547,32.373791 
	C133.251251,34.028770 138.857437,30.704084 144.965973,28.880068 
	C149.208496,27.613245 152.434067,27.323753 153.939087,31.627760 
	C155.508759,31.025911 156.850754,30.511360 158.192749,29.996811 
	C158.189133,30.172915 158.185532,30.349016 157.814972,30.983955 
	C157.349243,32.101505 157.250443,32.760216 157.151627,33.418930 
	C157.121216,34.099991 157.090820,34.781055 156.913788,36.093102 
	C156.161835,38.152874 155.556503,39.581661 154.592468,41.082077 
	C151.985428,44.564659 151.483810,49.601189 145.771698,49.707314 
	C140.800491,48.275700 136.006638,46.022190 131.325439,46.235878 
	C122.037994,46.659836 112.817314,48.481323 103.559158,49.646801 
	C100.266754,50.061272 97.020500,50.003925 95.781898,54.286713 
	C95.505882,55.241104 92.488701,55.949913 90.846909,55.765102 
	C89.794884,55.646675 88.468590,53.806736 88.138130,52.515182 
	C87.747238,50.987400 88.296242,49.219139 88.457344,47.325779 
	C86.990852,48.037327 85.993752,48.521122 84.707970,48.973068 
	C84.229034,48.905289 84.038780,48.869362 83.796799,48.528297 
	C83.818108,47.821419 83.891151,47.419682 83.967316,46.780846 
	C83.970436,46.543755 83.986542,46.069794 83.910522,45.647919 
	C83.945244,43.809708 84.055992,42.393375 84.308350,40.896584 
	C84.671700,40.507404 84.607765,40.249001 84.148277,39.763233 
	C83.963760,39.097401 83.889130,38.709248 83.814499,38.321098 
	C83.814499,38.321098 84.060532,38.155460 84.361969,37.847717 
	C84.718643,37.161831 84.773865,36.783688 84.829086,36.405540 
M87.820915,42.968960 
	C87.726051,42.564133 87.631187,42.159309 87.536316,41.754478 
	C87.415947,41.843151 87.183876,41.947224 87.193634,42.017956 
	C87.250282,42.428917 87.363808,42.832031 87.820915,42.968960 
z"/>
<path fill="#FEDA33" opacity="1.000000" stroke="none" 
	d="
M158.407608,29.707241 
	C156.850754,30.511360 155.508759,31.025911 153.939087,31.627760 
	C152.434067,27.323753 149.208496,27.613245 144.965973,28.880068 
	C138.857437,30.704084 133.251251,34.028770 126.005547,32.373791 
	C121.703003,31.391052 116.612007,34.496540 111.797714,34.965897 
	C104.915077,35.636909 97.961433,35.583313 91.037659,35.826180 
	C89.091652,35.894440 87.144051,35.917213 84.792709,35.924248 
	C84.561226,32.544918 84.734200,29.202192 85.303596,25.378113 
	C86.453987,23.911400 87.207970,22.926039 88.236053,22.240116 
	C92.470192,22.027145 96.436012,21.555511 100.389214,20.994846 
	C113.357468,19.155619 127.023880,22.863749 139.374298,16.098242 
	C139.508789,16.024574 139.700928,16.060827 139.864365,16.034651 
	C146.291351,15.005329 152.727051,14.024477 159.132339,12.874280 
	C159.843964,12.746494 160.382156,11.652900 161.221252,10.895908 
	C161.716476,10.580484 161.902374,10.314308 162.333023,9.988890 
	C163.111420,9.994328 163.556198,9.996946 164.000992,9.999565 
	C162.208145,16.472269 160.415314,22.944971 158.407608,29.707241 
M156.482819,27.588627 
	C156.482819,27.588627 156.416504,27.477804 156.482819,27.588627 
z"/>
<path fill="#5FACFE" opacity="1.000000" stroke="none" 
	d="
M29.572451,73.159424 
	C29.295141,73.012161 29.113289,72.787598 28.987343,71.948715 
	C28.569719,70.958191 28.191645,70.504700 27.813568,70.051208 
	C26.150990,67.305672 24.488411,64.560135 23.097618,61.416847 
	C24.817257,60.267685 26.436693,59.729923 27.683723,58.728447 
	C33.565880,54.004566 39.381676,49.195953 45.150345,44.333576 
	C49.151150,40.961323 53.036976,37.452660 56.974174,34.004944 
	C62.117981,34.814915 67.261795,35.624886 72.873749,36.954544 
	C76.237206,40.623070 72.664978,40.202057 71.379318,40.924431 
	C69.510628,41.974392 67.384590,42.637272 65.673851,43.884369 
	C60.084949,47.958561 54.695675,52.306431 49.110329,56.385696 
	C45.023884,59.370239 40.522652,61.822887 36.636547,65.033394 
	C33.907032,67.288383 31.901356,70.419525 29.572451,73.159424 
z"/>
<path fill="#8A77FC" opacity="1.000000" stroke="none" 
	d="
M64.902298,135.165482 
	C62.885101,131.712402 60.867908,128.259308 59.171474,124.421570 
	C70.574867,120.508743 78.191826,112.048256 87.458412,106.171402 
	C84.536392,104.286598 82.770897,103.147789 81.434738,102.007416 
	C84.059708,101.855026 86.255356,101.704193 88.451004,101.553368 
	C88.388145,101.208710 88.325287,100.864059 88.262421,100.519402 
	C86.842636,100.678375 85.422844,100.837349 84.006973,100.726974 
	C84.016693,100.278091 84.022491,100.098572 84.371468,99.904526 
	C88.475937,98.922256 92.237236,97.954514 96.422974,97.021339 
	C98.910667,96.627426 100.986107,96.249847 103.034485,95.759262 
	C106.651558,94.892960 108.458389,96.121635 107.995819,100.344223 
	C107.298218,102.900574 106.720558,105.093117 105.998795,106.970840 
	C103.836731,103.763489 102.596245,106.145432 101.159363,107.335625 
	C95.083420,112.368393 89.129868,117.561089 82.879753,122.367889 
	C77.052925,126.849152 70.907486,130.916138 64.902298,135.165482 
z"/>
<path fill="#9D5EFB" opacity="1.000000" stroke="none" 
	d="
M80.902039,163.186188 
	C79.255074,160.464966 77.608101,157.743759 76.064041,154.392319 
	C77.400345,152.513931 78.487022,151.060730 79.893417,150.054291 
	C85.051346,146.363159 90.354042,142.874130 95.506340,139.175446 
	C96.500938,138.461456 97.193619,137.215912 97.799377,136.093491 
	C99.231705,133.439514 100.527954,130.712097 101.928833,128.405243 
	C102.278267,132.522781 104.485687,132.154633 107.251701,131.564529 
	C112.047783,130.541321 116.924461,129.895874 121.803528,129.489716 
	C121.302979,132.731644 120.766235,135.575836 120.075325,138.089691 
	C117.277275,134.657257 115.838737,137.142456 114.128029,138.929733 
	C111.587753,141.583725 109.197037,144.486160 106.270615,146.642090 
	C101.095123,150.454941 95.575722,153.803070 90.177643,157.310883 
	C87.108955,159.304993 83.995392,161.230042 80.902039,163.186188 
z"/>
<path fill="#67A4FD" opacity="1.000000" stroke="none" 
	d="
M29.683588,73.504341 
	C31.901356,70.419525 33.907032,67.288383 36.636547,65.033394 
	C40.522652,61.822887 45.023884,59.370239 49.110329,56.385696 
	C54.695675,52.306431 60.084949,47.958561 65.673851,43.884369 
	C67.384590,42.637272 69.510628,41.974392 71.379318,40.924431 
	C72.664978,40.202057 76.237206,40.623070 73.179764,37.188118 
	C76.340111,37.328827 79.662582,37.755646 83.399780,38.251785 
	C83.889130,38.709248 83.963760,39.097401 84.066711,39.991512 
	C84.095024,40.497475 84.166740,40.977043 84.166740,40.977043 
	C84.055992,42.393375 83.945244,43.809708 83.784073,45.679581 
	C83.733643,46.133121 83.480644,46.199059 83.155426,46.028610 
	C81.587120,45.428429 79.849945,44.245861 79.178246,44.686714 
	C73.191154,48.616180 67.300957,52.710052 61.560886,56.994854 
	C54.344643,62.381584 47.192623,67.868950 40.280048,73.633263 
	C39.148773,74.576622 39.392685,77.169106 38.866310,79.309799 
	C38.154526,81.077011 37.577438,82.533821 36.684753,84.010223 
	C36.159653,84.053123 35.950142,84.076431 35.740635,84.099731 
	C33.758667,80.682907 31.776695,77.266083 29.683588,73.504341 
z"/>
<path fill="#B63EFC" opacity="1.000000" stroke="none" 
	d="
M101.902824,200.189926 
	C100.888557,198.517868 99.874290,196.845810 98.968872,194.526245 
	C99.717972,193.586365 100.358223,193.293991 101.015945,193.256668 
	C101.341759,193.774033 101.650108,194.036346 101.958466,194.298645 
	C102.090919,194.018661 102.223373,193.738678 102.355827,193.458694 
	C101.904388,193.305359 101.452957,193.152023 101.007591,192.613434 
	C102.180595,191.132523 103.170929,189.623306 104.553619,189.032837 
	C106.953705,188.007904 109.325554,187.304886 109.246483,183.837265 
	C109.663010,183.113449 109.834213,182.557648 110.434021,181.984009 
	C111.430855,181.902969 111.999077,181.839752 112.833862,181.918884 
	C114.754524,181.228546 117.018440,180.817368 117.942680,179.480225 
	C120.254227,176.135971 121.958076,172.371674 123.931976,169.178040 
	C124.343201,170.725281 124.728203,171.870361 125.255722,173.439362 
	C126.979340,171.507980 127.875595,170.137115 129.102142,169.197266 
	C132.962357,166.239365 136.922134,163.408829 140.890060,160.594818 
	C144.569870,157.985153 148.282074,155.417755 152.060425,152.955154 
	C152.498215,152.669830 153.449722,153.172699 154.101746,153.652649 
	C149.391113,162.063293 144.741760,170.131439 140.069244,177.832825 
	C139.363235,176.643936 138.680405,175.821838 137.675385,174.859512 
	C135.874817,175.203247 134.034348,175.288696 132.983612,176.243347 
	C129.344925,179.549286 126.253593,183.496246 122.442711,186.564209 
	C117.782509,190.315979 112.639755,193.477554 107.626595,196.774109 
	C106.595024,197.452438 105.214890,197.600693 103.996277,197.662109 
	C103.997383,196.889313 103.997650,196.447678 104.136650,195.950836 
	C104.181602,195.931061 104.087822,195.966476 103.701813,196.032394 
	C103.273979,196.710403 103.138374,197.357925 102.881256,198.286163 
	C102.474113,199.107910 102.188469,199.648926 101.902824,200.189926 
z"/>
<path fill="#8F6FFD" opacity="1.000000" stroke="none" 
	d="
M64.933121,135.509735 
	C70.907486,130.916138 77.052925,126.849152 82.879753,122.367889 
	C89.129868,117.561089 95.083420,112.368393 101.159363,107.335625 
	C102.596245,106.145432 103.836731,103.763489 106.005798,107.341370 
	C106.071365,109.009460 105.985817,109.992195 105.703918,111.263443 
	C105.369316,112.702179 105.231079,113.852394 104.980141,115.198120 
	C104.818466,115.709808 104.662544,115.959106 104.014435,116.238564 
	C102.802422,118.709114 101.975655,121.082603 101.173111,123.386528 
	C98.421959,124.205406 94.627785,124.184517 92.854591,126.067139 
	C86.164688,133.169876 78.800781,139.134827 69.907249,143.173950 
	C68.259483,140.733963 66.611717,138.293976 64.933121,135.509735 
z"/>
<path fill="#7197FD" opacity="1.000000" stroke="none" 
	d="
M43.022293,96.892494 
	C40.938217,93.284431 38.854137,89.676369 36.796070,85.624275 
	C36.822083,85.180244 37.019321,84.985817 37.324188,85.122818 
	C39.258530,84.835320 41.151829,84.804085 42.471962,83.918472 
	C48.298824,80.009529 53.998142,75.905983 59.669239,71.770866 
	C63.557785,68.935509 67.215248,65.774254 71.176430,63.050102 
	C74.884659,60.499916 78.856720,58.333370 82.827133,56.252346 
	C83.005058,56.681496 83.068520,56.856285 83.033173,57.457970 
	C82.619446,61.257458 82.304520,64.630058 81.620804,68.006462 
	C80.761032,68.074387 80.156876,67.975533 79.795570,68.226418 
	C70.343025,74.790184 60.803432,81.238731 51.560410,88.087166 
	C49.155315,89.869164 47.689262,92.918556 45.493099,95.774399 
	C45.247414,95.885582 44.134853,96.389038 43.022293,96.892494 
z"/>
<path fill="#59B5FE" opacity="1.000000" stroke="none" 
	d="
M56.678108,33.752205 
	C53.036976,37.452660 49.151150,40.961323 45.150345,44.333576 
	C39.381676,49.195953 33.565880,54.004566 27.683723,58.728447 
	C26.436693,59.729923 24.817257,60.267685 22.982946,61.078053 
	C20.400883,57.342201 18.205276,53.547394 16.276852,49.428596 
	C17.757515,49.993248 18.970999,50.881886 19.241381,51.079887 
	C21.526064,48.541451 23.279070,46.431355 25.202076,44.489613 
	C29.763870,39.883377 34.406261,35.356960 39.016079,30.798285 
	C44.804733,31.698675 50.593384,32.599068 56.678108,33.752205 
z"/>
<path fill="#BE36FB" opacity="1.000000" stroke="none" 
	d="
M137.997559,174.999741 
	C138.680405,175.821838 139.363235,176.643936 140.025208,178.170929 
	C139.037796,180.917679 138.071243,182.959549 137.104691,185.001434 
	C136.662125,185.662491 136.219574,186.323563 135.783905,187.285461 
	C131.364182,195.306335 127.118919,203.139465 122.412300,210.684845 
	C120.770668,213.316605 120.399170,216.868759 116.534195,218.258331 
	C113.647461,219.296204 112.228867,218.664902 110.915924,216.401978 
	C108.915199,212.953583 106.954308,209.482086 104.966034,205.289154 
	C104.968826,204.037582 104.982086,203.517273 104.996994,202.748718 
	C104.998650,202.500488 104.997665,202.004044 105.001152,201.753708 
	C105.008232,201.336502 105.011833,201.169632 105.391220,201.008011 
	C107.389465,201.945419 109.011909,202.877579 109.886452,203.380035 
	C116.551437,198.644394 122.926643,194.114639 129.475281,189.461655 
	C129.389099,188.594177 129.248367,187.177628 129.218292,186.875031 
	C131.842255,185.231964 134.357147,184.461105 135.454956,182.770203 
	C136.889252,180.561005 137.202194,177.623764 137.997559,174.999741 
z"/>
<path fill="#7590FE" opacity="1.000000" stroke="none" 
	d="
M43.095600,97.195358 
	C44.134853,96.389038 45.247414,95.885582 45.493099,95.774399 
	C47.689262,92.918556 49.155315,89.869164 51.560410,88.087166 
	C60.803432,81.238731 70.343025,74.790184 79.795570,68.226418 
	C80.156876,67.975533 80.761032,68.074387 81.675659,68.464615 
	C81.917290,72.309090 81.735283,75.699226 81.403862,79.315475 
	C81.226997,79.900993 81.199547,80.260399 81.248718,80.707199 
	C81.325333,80.794594 81.329231,81.027000 80.931549,81.048225 
	C78.058578,81.892563 75.247101,82.225044 73.178894,83.642242 
	C69.037254,86.480232 65.507217,90.215874 61.346222,93.019157 
	C56.430294,96.331047 51.114246,99.049026 45.971653,102.024467 
	C45.971653,102.024467 45.997437,102.000610 45.970581,101.701004 
	C45.580238,100.945549 45.216755,100.489700 44.853275,100.033844 
	C44.291817,99.188637 43.730362,98.343430 43.095600,97.195358 
z"/>
<path fill="#A356FC" opacity="1.000000" stroke="none" 
	d="
M81.051041,163.490967 
	C83.995392,161.230042 87.108955,159.304993 90.177643,157.310883 
	C95.575722,153.803070 101.095123,150.454941 106.270615,146.642090 
	C109.197037,144.486160 111.587753,141.583725 114.128029,138.929733 
	C115.838737,137.142456 117.277275,134.657257 120.069885,138.468018 
	C119.560081,142.137802 118.901558,145.098953 117.932602,148.220184 
	C117.424507,149.267303 117.226845,150.154343 117.017273,151.028107 
	C117.005363,151.014847 117.040230,151.027115 116.783058,151.172119 
	C107.358345,157.372009 98.190804,163.426895 89.023262,169.481766 
	C89.023476,169.063995 89.023697,168.646225 89.023911,168.228470 
	C87.042526,168.153763 85.061134,168.079071 83.079758,168.004364 
	C82.453186,166.601486 81.826614,165.198624 81.051041,163.490967 
z"/>
<path fill="#7B8AFC" opacity="1.000000" stroke="none" 
	d="
M45.989807,102.380829 
	C51.114246,99.049026 56.430294,96.331047 61.346222,93.019157 
	C65.507217,90.215874 69.037254,86.480232 73.178894,83.642242 
	C75.247101,82.225044 78.058578,81.892563 80.986694,81.484665 
	C81.337303,85.113373 81.235085,88.326866 81.053848,91.646881 
	C80.974846,91.753403 80.803596,91.955956 80.448273,92.020569 
	C78.650963,93.438278 77.208977,94.791374 75.766991,96.144478 
	C67.169609,100.791695 58.485874,105.400871 52.914497,114.147011 
	C50.612320,110.343735 48.310143,106.540459 45.989807,102.380829 
z"/>
<path fill="#9766FD" opacity="1.000000" stroke="none" 
	d="
M70.038345,143.498550 
	C78.800781,139.134827 86.164688,133.169876 92.854591,126.067139 
	C94.627785,124.184517 98.421959,124.205406 101.173111,123.386528 
	C101.975655,121.082603 102.802422,118.709114 103.979996,116.650063 
	C103.513611,120.647789 102.696419,124.331078 101.879227,128.014359 
	C100.527954,130.712097 99.231705,133.439514 97.799377,136.093491 
	C97.193619,137.215912 96.500938,138.461456 95.506340,139.175446 
	C90.354042,142.874130 85.051346,146.363159 79.893417,150.054291 
	C78.487022,151.060730 77.400345,152.513931 75.980988,154.061813 
	C73.919838,150.848740 72.044647,147.335938 70.038345,143.498550 
z"/>
<path fill="#867EFA" opacity="1.000000" stroke="none" 
	d="
M154.951187,41.010452 
	C155.556503,39.581661 156.161835,38.152874 156.929565,36.435730 
	C158.837082,35.889885 160.582230,35.632404 162.664642,35.208866 
	C163.454269,35.020576 163.906616,34.998337 165.021759,34.891861 
	C166.779938,34.507965 167.875336,34.208305 168.970718,33.908649 
	C173.365417,33.255821 177.760117,32.602993 182.437500,32.297554 
	C179.348801,36.723282 175.755722,40.642460 172.677002,44.930912 
	C170.266312,48.288837 167.468719,50.143730 163.291809,50.116207 
	C162.533890,50.111214 161.767807,51.347279 161.004395,52.256992 
	C161.003296,52.503578 160.996719,52.996708 160.649338,53.038574 
	C159.531631,54.334484 158.761307,55.588524 157.667450,56.955452 
	C156.486969,57.337650 155.630035,57.606956 154.459961,57.778488 
	C150.840729,56.756828 151.539444,54.368988 152.118637,52.058781 
	C153.043198,48.371086 154.005081,44.692749 154.951187,41.010452 
z"/>
<path fill="#51BFFD" opacity="1.000000" stroke="none" 
	d="
M38.675144,30.632887 
	C34.406261,35.356960 29.763870,39.883377 25.202076,44.489613 
	C23.279070,46.431355 21.526064,48.541451 19.241381,51.079887 
	C18.970999,50.881886 17.757515,49.993248 16.188696,49.079758 
	C14.149975,46.108158 12.466592,43.161411 10.873464,39.464348 
	C15.629846,35.184750 20.295973,31.655470 24.962101,28.126194 
	C29.419470,28.906626 33.876839,29.687057 38.675144,30.632887 
z"/>
<path fill="#A850FC" opacity="1.000000" stroke="none" 
	d="
M83.073372,168.256882 
	C85.061134,168.079071 87.042526,168.153763 89.023911,168.228470 
	C89.023697,168.646225 89.023476,169.063995 89.023262,169.481766 
	C98.190804,163.426895 107.358345,157.372009 116.797134,151.450745 
	C117.159660,151.746399 117.250938,151.908463 117.312088,152.477417 
	C116.792526,155.257690 116.303101,157.631088 115.470856,160.086273 
	C111.405869,163.759720 107.763451,167.439407 103.931641,170.909973 
	C101.629295,172.995255 99.288033,175.559357 96.499008,176.447952 
	C93.312210,177.463257 92.432785,179.266418 91.933578,182.061707 
	C91.842667,182.138931 91.659569,182.291840 91.659569,182.291840 
	C89.730476,178.940582 87.801376,175.589340 85.872345,171.510498 
	C85.200371,170.215225 84.528343,169.647537 83.856316,169.079834 
	C83.593208,168.889679 83.330101,168.699539 83.073372,168.256882 
z"/>
<path fill="#8082FD" opacity="1.000000" stroke="none" 
	d="
M52.973091,114.457596 
	C58.485874,105.400871 67.169609,100.791695 75.766991,96.144478 
	C77.208977,94.791374 78.650963,93.438278 80.502045,92.430847 
	C81.297165,94.839699 81.683189,96.902885 81.823898,99.155327 
	C82.386734,99.895164 83.194893,100.445747 84.003052,100.996330 
	C85.422844,100.837349 86.842636,100.678375 88.262421,100.519402 
	C88.325287,100.864059 88.388145,101.208710 88.451004,101.553368 
	C86.255356,101.704193 84.059708,101.855026 81.095047,102.054733 
	C75.905769,105.506966 71.863197,109.691727 66.946571,112.068115 
	C62.964832,113.992653 60.685593,119.563911 55.041737,118.000984 
	C54.371723,116.923386 53.701706,115.845779 52.973091,114.457596 
z"/>
<path fill="#BA39FD" opacity="1.000000" stroke="none" 
	d="
M137.675385,174.859512 
	C137.202194,177.623764 136.889252,180.561005 135.454956,182.770203 
	C134.357147,184.461105 131.842255,185.231964 129.218292,186.875031 
	C129.248367,187.177628 129.389099,188.594177 129.475281,189.461655 
	C122.926643,194.114639 116.551437,198.644394 109.886452,203.380035 
	C109.011909,202.877579 107.389465,201.945419 105.194443,200.811157 
	C103.904869,200.814117 103.187866,201.019196 102.470856,201.224274 
	C102.204704,201.093994 102.026131,200.887848 101.918976,200.397888 
	C102.188469,199.648926 102.474113,199.107910 103.129410,198.283356 
	C103.499062,197.999817 103.995422,197.993286 103.995422,197.993286 
	C105.214890,197.600693 106.595024,197.452438 107.626595,196.774109 
	C112.639755,193.477554 117.782509,190.315979 122.442711,186.564209 
	C126.253593,183.496246 129.344925,179.549286 132.983612,176.243347 
	C134.034348,175.288696 135.874817,175.203247 137.675385,174.859512 
z"/>
<path fill="#857CFD" opacity="1.000000" stroke="none" 
	d="
M55.113766,118.326950 
	C60.685593,119.563911 62.964832,113.992653 66.946571,112.068115 
	C71.863197,109.691727 75.905769,105.506966 80.665718,102.056297 
	C82.770897,103.147789 84.536392,104.286598 87.458412,106.171402 
	C78.191826,112.048256 70.574867,120.508743 59.081333,124.070625 
	C57.508884,122.287193 56.347340,120.470062 55.113766,118.326950 
z"/>
<path fill="#FDE45F" opacity="1.000000" stroke="none" 
	d="
M117.064026,11.130486 
	C128.445557,8.744454 139.821701,6.332236 151.211807,3.987908 
	C154.753235,3.259008 158.317657,2.462925 161.904297,2.250469 
	C162.876541,2.192878 163.968353,4.153682 164.627899,5.625395 
	C155.029068,7.923267 145.810226,9.797031 136.584412,11.635737 
	C134.065613,12.137735 131.525787,12.534369 128.595306,13.032247 
	C125.464600,13.390880 122.734200,13.696625 119.753059,13.838101 
	C118.689560,12.826049 117.876793,11.978266 117.064026,11.130486 
z"/>
<path fill="#FDE252" opacity="1.000000" stroke="none" 
	d="
M116.655441,11.123409 
	C117.876793,11.978266 118.689560,12.826049 119.851227,14.153370 
	C119.746773,15.086670 119.305367,15.919723 118.838181,15.934440 
	C114.955872,16.056740 110.988258,15.536287 107.201477,16.156601 
	C101.048828,17.164473 95.006935,18.862404 88.943008,20.368608 
	C88.512398,20.475569 88.284241,21.397623 87.961945,21.940678 
	C87.207970,22.926039 86.453987,23.911400 85.378754,24.952526 
	C84.802757,17.429689 84.768593,17.269178 92.060982,15.716954 
	C100.085785,14.008833 108.181839,12.635515 116.655441,11.123409 
z"/>
<path fill="#B244FB" opacity="1.000000" stroke="none" 
	d="
M112.567307,181.776535 
	C111.999077,181.839752 111.430855,181.902969 110.266098,181.739243 
	C109.115440,181.339066 108.561317,181.165848 107.992035,180.753387 
	C107.857994,180.240555 107.739113,179.966934 107.620232,179.693329 
	C107.497299,179.780670 107.263161,179.938614 107.267372,179.945251 
	C107.496658,180.306442 107.745949,180.654922 108.019852,181.323792 
	C108.364723,182.430344 108.682945,183.217804 109.001160,184.005264 
	C109.325554,187.304886 106.953705,188.007904 104.553619,189.032837 
	C103.170929,189.623306 102.180595,191.132523 101.006828,192.614105 
	C101.000000,193.000000 100.998474,193.001617 100.998474,193.001617 
	C100.358223,193.293991 99.717972,193.586365 98.904976,194.205963 
	C97.442802,192.426056 96.153358,190.318893 94.891479,187.455994 
	C94.945541,186.134567 94.972046,185.568848 95.320648,184.862686 
	C101.261169,182.297211 105.243446,176.300552 112.275238,177.476196 
	C112.336716,179.174835 112.452011,180.475677 112.567307,181.776535 
z"/>
<path fill="#49CAFA" opacity="1.000000" stroke="none" 
	d="
M24.577768,28.007710 
	C20.295973,31.655470 15.629846,35.184750 10.903708,39.116737 
	C9.478373,37.505215 7.772133,35.638969 6.819882,33.445415 
	C4.934350,29.102007 7.245173,25.634724 11.957816,25.933344 
	C16.061192,26.193354 20.116749,27.208023 24.577768,28.007710 
z"/>
<path fill="#FEE044" opacity="1.000000" stroke="none" 
	d="
M128.995621,12.979359 
	C131.525787,12.534369 134.065613,12.137735 136.584412,11.635737 
	C145.810226,9.797031 155.029068,7.923267 164.571228,6.042507 
	C164.884262,6.458337 164.876587,6.894365 164.435364,7.647366 
	C163.334335,8.638248 162.666885,9.312158 161.999420,9.986069 
	C161.902374,10.314308 161.716476,10.580484 160.771942,10.892806 
	C151.677750,12.284637 143.271957,13.725217 134.814301,14.728608 
	C132.969879,14.947426 130.940063,13.603536 128.995621,12.979359 
z"/>
<path fill="#FDE45F" opacity="1.000000" stroke="none" 
	d="
M162.333023,9.988888 
	C162.666885,9.312158 163.334335,8.638248 164.298737,7.947992 
	C164.527023,8.480735 164.458389,9.029824 164.195374,9.789240 
	C163.556198,9.996946 163.111420,9.994328 162.333023,9.988888 
z"/>
<path fill="#B63EFC" opacity="1.000000" stroke="none" 
	d="
M102.568359,201.511780 
	C103.187866,201.019196 103.904869,200.814117 104.818649,200.805908 
	C105.011833,201.169632 105.008232,201.336502 104.789688,201.854980 
	C104.306656,202.393814 104.131905,202.645782 103.932724,203.059937 
	C103.814941,203.157410 103.578293,203.351028 103.578293,203.351028 
	C103.274147,202.833786 102.970001,202.316528 102.568359,201.511780 
z"/>
<path fill="#A850FC" opacity="1.000000" stroke="none" 
	d="
M93.458450,185.442062 
	C92.910835,184.590866 92.363228,183.739655 91.737595,182.590149 
	C91.659569,182.291840 91.842667,182.138931 92.180420,182.237717 
	C93.013084,183.223053 93.508003,184.109604 93.866653,185.107452 
	C93.730377,185.218750 93.458450,185.442062 93.458450,185.442062 
z"/>
<path fill="#A356FC" opacity="1.000000" stroke="none" 
	d="
M84.012878,169.356522 
	C84.528343,169.647537 85.200371,170.215225 85.858658,171.170868 
	C85.286423,170.916946 84.727936,170.275070 84.012878,169.356522 
z"/>
<path fill="#A850FC" opacity="1.000000" stroke="none" 
	d="
M94.998543,185.003143 
	C94.972046,185.568848 94.945541,186.134567 94.868637,187.125549 
	C94.436562,187.046158 94.054886,186.541504 93.565826,185.739441 
	C93.458450,185.442062 93.730377,185.218750 94.115540,185.109375 
	C94.500702,184.999985 94.998543,185.003143 94.998543,185.003143 
z"/>
<path fill="#B63EFC" opacity="1.000000" stroke="none" 
	d="
M104.995346,202.996948 
	C104.982086,203.517273 104.968826,204.037582 104.916725,204.948425 
	C104.510841,204.866455 104.143791,204.393982 103.677521,203.636261 
	C103.578293,203.351028 103.814941,203.157410 104.168503,203.072815 
	C104.522057,202.988220 104.995346,202.996948 104.995346,202.996948 
z"/>
<path fill="#FEDA33" opacity="1.000000" stroke="none" 
	d="
M157.410278,33.196529 
	C157.250443,32.760216 157.349243,32.101505 157.707428,31.225281 
	C157.867523,31.663225 157.768219,32.318676 157.410278,33.196529 
z"/>
<path fill="#7B8AFC" opacity="1.000000" stroke="none" 
	d="
M44.904560,100.327377 
	C45.216755,100.489700 45.580238,100.945549 45.959915,101.712273 
	C45.636024,101.555733 45.295937,101.088318 44.904560,100.327377 
z"/>
<path fill="#67A4FD" opacity="1.000000" stroke="none" 
	d="
M27.874130,70.345657 
	C28.191645,70.504700 28.569719,70.958191 28.965485,71.728302 
	C28.633680,71.576645 28.284187,71.108376 27.874130,70.345657 
z"/>
<path fill="#FEDA33" opacity="1.000000" stroke="none" 
	d="
M84.586662,36.596237 
	C84.773865,36.783688 84.718643,37.161831 84.486610,37.767368 
	C84.321289,37.592152 84.332764,37.189545 84.586662,36.596237 
z"/>
<path fill="#7197FD" opacity="1.000000" stroke="none" 
	d="
M35.832138,84.348557 
	C35.950142,84.076431 36.159653,84.053123 36.687500,84.259109 
	C37.005844,84.488419 37.019321,84.985817 37.019321,84.985817 
	C37.019321,84.985817 36.822083,85.180244 36.722450,85.280281 
	C36.389759,85.119339 36.156700,84.858353 35.832138,84.348557 
z"/>
<path fill="#9866FB" opacity="1.000000" stroke="none" 
	d="
M211.182281,50.359360 
	C210.108429,52.903683 209.034576,55.448002 207.630585,58.550621 
	C205.935089,61.211910 204.569748,63.314896 203.144562,65.033829 
	C202.329361,64.067581 201.113754,62.836014 200.885666,62.997688 
	C194.223618,67.719673 187.569977,72.464882 181.127747,77.479698 
	C178.754959,79.326736 176.920380,81.952103 175.283066,77.905617 
	C172.898193,81.195114 170.559692,84.420654 167.996918,87.955544 
	C167.081573,86.168488 166.518768,85.069702 166.000488,83.650276 
	C166.322159,82.549461 166.599319,81.769287 166.962708,80.615685 
	C167.403564,79.023941 167.557556,77.696915 168.148285,76.606499 
	C170.448044,72.361526 172.886337,68.191605 175.562805,63.950249 
	C176.568298,63.280769 177.284058,62.654800 178.052155,62.362896 
	C181.061172,65.943710 181.425507,61.732712 183.298523,61.151535 
	C184.393860,62.465004 185.188217,63.623043 186.477631,65.502792 
	C191.576736,60.757366 196.438721,56.318432 201.199554,51.773544 
	C204.704727,48.427387 208.668427,47.788910 211.182281,50.359360 
z"/>
<path fill="#A555FC" opacity="1.000000" stroke="none" 
	d="
M177.522308,112.847832 
	C177.002930,113.640953 176.483566,114.434067 175.696136,115.698936 
	C174.953629,116.783600 174.479187,117.396515 173.952042,117.674973 
	C172.931702,117.559258 171.964050,117.777985 170.665771,117.948669 
	C170.090775,116.378838 169.846405,114.857040 169.481750,112.586304 
	C163.216232,117.698807 157.200287,122.607689 151.184326,127.516563 
	C151.477036,127.851303 151.769745,128.186035 152.062454,128.520782 
	C148.939438,129.316757 145.816406,130.112732 142.784119,130.553604 
	C145.582336,124.799255 148.289825,119.400009 151.064285,114.355156 
	C152.095657,115.048943 153.891800,115.718399 153.906647,115.681007 
	C155.952194,110.525909 160.729309,109.446381 165.023941,106.975807 
	C172.413055,102.725090 178.630386,96.458092 185.463959,91.199028 
	C186.494781,90.405731 188.197739,90.485809 189.450455,90.500099 
	C185.381516,98.174820 181.451920,105.511330 177.522308,112.847832 
M151.648468,118.332985 
	C151.529968,118.579521 151.411469,118.826050 151.292969,119.072594 
	C151.529358,119.144211 151.765747,119.215836 152.002136,119.287445 
	C152.027939,118.947975 152.053726,118.608513 151.648468,118.332985 
z"/>
<path fill="#8F6FFC" opacity="1.000000" stroke="none" 
	d="
M182.997559,60.996105 
	C181.425507,61.732712 181.061172,65.943710 178.086777,62.015934 
	C178.377487,60.230888 178.685913,59.126869 179.073700,57.762253 
	C179.239380,57.341862 179.325684,57.182064 179.766968,57.001099 
	C184.410019,54.568256 181.019241,52.291470 180.201584,49.696922 
	C184.061752,46.751331 187.366089,43.080677 191.456284,41.638081 
	C198.239777,39.245560 201.025162,34.665688 201.999908,28.197729 
	C206.240067,27.446407 210.454254,26.440432 214.726593,26.004454 
	C220.876312,25.376896 223.119064,28.761257 220.189209,34.676327 
	C218.392563,33.313343 218.531921,29.132582 215.079880,32.102703 
	C209.371613,37.014084 203.928268,42.232510 198.250595,47.180771 
	C196.317398,48.865620 193.774216,49.875225 191.933975,51.636593 
	C188.823288,54.613987 182.893616,54.966202 182.997559,60.996105 
z"/>
<path fill="#8A76FE" opacity="1.000000" stroke="none" 
	d="
M201.602066,28.188866 
	C201.025162,34.665688 198.239777,39.245560 191.456284,41.638081 
	C187.366089,43.080677 184.061752,46.751331 179.826401,49.704514 
	C178.497986,49.990646 177.747482,49.993069 176.852448,49.769402 
	C176.140594,49.696861 175.573288,49.850410 174.644958,50.012985 
	C172.521561,51.014679 170.759186,52.007347 168.568130,53.000210 
	C166.421188,52.997299 164.702911,52.994194 162.820251,52.747536 
	C162.105728,52.339462 161.555618,52.174934 161.005493,52.010406 
	C161.767807,51.347279 162.533890,50.111214 163.291809,50.116207 
	C167.468719,50.143730 170.266312,48.288837 172.677002,44.930912 
	C175.755722,40.642460 179.348801,36.723282 182.861053,32.323612 
	C189.069351,30.728188 195.136780,29.454096 201.602066,28.188866 
z"/>
<path fill="#FEFEFE" opacity="1.000000" stroke="none" 
	d="
M177.999542,112.890335 
	C181.451920,105.511330 185.381516,98.174820 189.670197,90.273254 
	C191.400131,86.945656 192.770996,84.183136 194.437836,81.221169 
	C197.557327,75.820450 200.380875,70.619171 203.204437,65.417892 
	C204.569748,63.314896 205.935089,61.211910 207.564575,58.888618 
	C208.358978,63.170872 208.889191,67.673431 209.451172,72.445656 
	C207.405228,72.713409 206.294205,73.024940 205.201309,72.970833 
	C201.858276,72.805298 200.776627,74.546516 200.991165,77.582230 
	C201.061111,78.571854 201.000931,79.570671 201.000443,80.565285 
	C200.996674,88.344238 200.996674,88.344238 192.996704,89.599037 
	C192.996704,93.206314 193.175613,96.964737 192.904938,100.690491 
	C192.802734,102.097282 191.605911,104.634735 191.001999,104.607063 
	C185.185242,104.340553 185.120483,108.650520 184.683273,112.932831 
	C182.368408,112.932831 180.422592,112.932831 177.999542,112.890335 
z"/>
<path fill="#936AFD" opacity="1.000000" stroke="none" 
	d="
M183.298523,61.151535 
	C182.893616,54.966202 188.823288,54.613987 191.933975,51.636593 
	C193.774216,49.875225 196.317398,48.865620 198.250595,47.180771 
	C203.928268,42.232510 209.371613,37.014084 215.079880,32.102703 
	C218.531921,29.132582 218.392563,33.313343 219.920807,34.917130 
	C217.404694,40.079247 214.589371,45.030178 211.478180,50.170235 
	C208.668427,47.788910 204.704727,48.427387 201.199554,51.773544 
	C196.438721,56.318432 191.576736,60.757366 186.477631,65.502792 
	C185.188217,63.623043 184.393860,62.465004 183.298523,61.151535 
z"/>
<path fill="#FEFEFE" opacity="1.000000" stroke="none" 
	d="
M137.544342,185.001007 
	C138.071243,182.959549 139.037796,180.917679 140.048386,178.537689 
	C144.741760,170.131439 149.391113,162.063293 154.382904,153.443420 
	C157.564255,147.616226 160.403168,142.340759 163.508224,136.875565 
	C165.409714,134.037262 167.045029,131.388657 168.765045,128.810333 
	C168.849731,128.880585 169.016907,129.023712 169.016907,129.023712 
	C169.011093,132.854065 168.878021,136.689804 169.040436,140.513016 
	C169.166550,143.481781 168.605011,145.500000 165.028397,144.999878 
	C161.522720,144.509674 160.692780,146.395294 160.976624,149.431274 
	C161.115524,150.917099 160.903412,152.434174 161.018311,153.924133 
	C161.350555,158.232117 161.466827,162.196747 155.109833,161.119659 
	C154.312637,160.984573 152.527542,162.131439 152.496643,162.749176 
	C152.270233,167.276001 152.374527,171.819397 152.374527,176.355789 
	C147.029373,176.030624 144.954483,176.850220 144.637985,184.706482 
	C142.463699,184.802582 140.223846,184.901596 137.544342,185.001007 
z"/>
<path fill="#FEFEFE" opacity="1.000000" stroke="none" 
	d="
M174.004745,118.009430 
	C174.479187,117.396515 174.953629,116.783600 175.659424,115.984756 
	C176.243393,119.474358 177.148438,123.233711 176.611206,126.774200 
	C176.450546,127.832870 172.257645,128.279663 169.464523,129.015259 
	C169.016907,129.023712 168.849731,128.880585 168.839111,128.456528 
	C169.923096,125.780922 171.017685,123.529373 172.376343,121.084679 
	C173.096420,119.928238 173.552429,118.964951 174.004181,118.000740 
	C173.999908,117.999817 174.004745,118.009430 174.004745,118.009430 
z"/>
<path fill="#FEFEFE" opacity="1.000000" stroke="none" 
	d="
M168.749252,33.664570 
	C167.875336,34.208305 166.779938,34.507965 165.344940,34.782513 
	C166.179474,34.311768 167.353622,33.866131 168.749252,33.664570 
z"/>
<path fill="#FECC26" opacity="1.000000" stroke="none" 
	d="
M154.592468,41.082077 
	C154.005081,44.692749 153.043198,48.371086 152.118637,52.058781 
	C151.539444,54.368988 150.840729,56.756828 154.809586,57.936264 
	C156.267395,59.298077 157.062424,60.404331 157.857452,61.510590 
	C156.765320,62.028320 155.708527,62.896107 154.575653,63.010506 
	C140.770248,64.404579 126.951492,65.665840 113.142487,67.025467 
	C111.224205,67.214348 109.285858,67.577507 107.452644,68.161057 
	C104.901382,68.973167 102.509727,70.364738 99.923790,70.970444 
	C96.578140,71.754089 93.108315,72.007599 90.073822,72.435516 
	C88.963623,74.444870 87.981285,76.222809 86.723602,77.753830 
	C85.560463,75.806725 86.772926,72.507240 83.010834,72.586205 
	C83.672134,68.786072 84.334908,65.394417 85.147446,61.704872 
	C86.672783,61.497002 88.053864,61.537186 89.422546,61.689133 
	C91.303040,61.897892 93.627434,63.033981 94.974449,62.309376 
	C102.743019,58.130405 111.037140,57.808609 119.521561,57.935989 
	C122.285316,57.977482 125.074280,57.350098 127.826569,56.881062 
	C131.006805,56.339096 134.137863,55.467854 137.331085,55.056423 
	C139.592056,54.765110 141.920807,55.000000 144.198059,55.000000 
	C144.894699,53.067364 145.447357,51.534203 146.000000,50.001045 
	C151.483810,49.601189 151.985428,44.564659 154.592468,41.082077 
z"/>
<path fill="#FED128" opacity="1.000000" stroke="none" 
	d="
M145.771698,49.707314 
	C145.447357,51.534203 144.894699,53.067364 144.198059,55.000000 
	C141.920807,55.000000 139.592056,54.765110 137.331085,55.056423 
	C134.137863,55.467854 131.006805,56.339096 127.826569,56.881062 
	C125.074280,57.350098 122.285316,57.977482 119.521561,57.935989 
	C111.037140,57.808609 102.743019,58.130405 94.974449,62.309376 
	C93.627434,63.033981 91.303040,61.897892 89.422546,61.689133 
	C88.053864,61.537186 86.672783,61.497002 84.881836,61.479591 
	C84.021622,60.045155 83.576805,58.538116 83.131981,57.031078 
	C83.068520,56.856285 83.005058,56.681496 82.944733,55.877052 
	C83.075714,54.473045 83.203552,53.698696 83.491211,52.802933 
	C83.832962,52.478062 83.964592,52.246052 84.300018,51.776554 
	C84.701630,50.713379 84.849136,49.859150 84.996643,49.004921 
	C85.993752,48.521122 86.990852,48.037327 88.457344,47.325779 
	C88.296242,49.219139 87.747238,50.987400 88.138130,52.515182 
	C88.468590,53.806736 89.794884,55.646675 90.846909,55.765102 
	C92.488701,55.949913 95.505882,55.241104 95.781898,54.286713 
	C97.020500,50.003925 100.266754,50.061272 103.559158,49.646801 
	C112.817314,48.481323 122.037994,46.659836 131.325439,46.235878 
	C136.006638,46.022190 140.800491,48.275700 145.771698,49.707314 
z"/>
<path fill="#699EFE" opacity="1.000000" stroke="none" 
	d="
M39.001003,78.999390 
	C39.392685,77.169106 39.148773,74.576622 40.280048,73.633263 
	C47.192623,67.868950 54.344643,62.381584 61.560886,56.994854 
	C67.300957,52.710052 73.191154,48.616180 79.178246,44.686714 
	C79.849945,44.245861 81.587120,45.428429 83.240959,46.166271 
	C83.666794,46.706814 83.770950,46.888000 83.964195,47.017941 
	C83.891151,47.419682 83.818108,47.821419 83.815292,48.536232 
	C83.885521,48.849304 83.869347,48.850014 83.672966,48.886093 
	C83.476585,48.922169 83.092857,49.036636 82.856621,49.127350 
	C82.414154,49.478420 82.207924,49.738770 81.635117,50.003517 
	C74.756882,53.988121 67.934814,57.548084 61.819675,62.065083 
	C55.528511,66.712112 50.002625,72.384064 43.961182,77.389427 
	C42.717113,78.420143 40.675182,78.487823 39.001003,78.999390 
z"/>
<path fill="#FED128" opacity="1.000000" stroke="none" 
	d="
M87.639511,43.103378 
	C87.363808,42.832031 87.250282,42.428917 87.193634,42.017956 
	C87.183876,41.947224 87.415947,41.843151 87.536316,41.754478 
	C87.631187,42.159309 87.726051,42.564133 87.639511,43.103378 
z"/>
<path fill="#FECC26" opacity="1.000000" stroke="none" 
	d="
M84.707970,48.973068 
	C84.849136,49.859150 84.701630,50.713379 84.279953,51.385117 
	C83.960320,50.418423 83.914833,49.634216 83.869347,48.850014 
	C83.869347,48.850014 83.885521,48.849304 83.867027,48.841370 
	C84.038780,48.869362 84.229034,48.905289 84.707970,48.973068 
z"/>
<path fill="#FEDA33" opacity="1.000000" stroke="none" 
	d="
M84.308350,40.896584 
	C84.166740,40.977043 84.095024,40.497475 84.176590,40.269196 
	C84.607765,40.249001 84.671700,40.507404 84.308350,40.896584 
z"/>
<path fill="#F8C521" opacity="1.000000" stroke="none" 
	d="
M83.967316,46.780846 
	C83.770950,46.888000 83.666794,46.706814 83.566177,46.336720 
	C83.480644,46.199059 83.733643,46.133121 83.860092,46.101456 
	C83.986542,46.069794 83.970436,46.543755 83.967316,46.780846 
z"/>
<path fill="#FEDE38" opacity="1.000000" stroke="none" 
	d="
M128.595306,13.032248 
	C130.940063,13.603536 132.969879,14.947426 134.814301,14.728608 
	C143.271957,13.725217 151.677750,12.284637 160.551468,11.004116 
	C160.382156,11.652900 159.843964,12.746494 159.132339,12.874280 
	C152.727051,14.024477 146.291351,15.005329 139.864365,16.034651 
	C139.700928,16.060827 139.508789,16.024574 139.374298,16.098242 
	C127.023880,22.863749 113.357468,19.155619 100.389214,20.994846 
	C96.436012,21.555511 92.470192,22.027145 88.236038,22.240114 
	C88.284241,21.397623 88.512398,20.475569 88.943008,20.368608 
	C95.006935,18.862404 101.048828,17.164473 107.201477,16.156601 
	C110.988258,15.536287 114.955872,16.056740 118.838181,15.934440 
	C119.305367,15.919723 119.746773,15.086670 120.101959,14.317638 
	C122.734200,13.696625 125.464600,13.390880 128.595306,13.032248 
z"/>
<path fill="#FED42E" opacity="1.000000" stroke="none" 
	d="
M156.449661,27.533215 
	C156.416504,27.477804 156.482819,27.588627 156.449661,27.533215 
z"/>
<path fill="#FEC31B" opacity="1.000000" stroke="none" 
	d="
M166.876480,80.989105 
	C166.599319,81.769287 166.322159,82.549461 165.757980,83.738220 
	C165.288223,84.433372 165.105499,84.719933 164.557434,85.004089 
	C163.461395,85.001213 162.730698,85.000763 161.986877,84.760872 
	C161.857285,84.246971 161.740784,83.972504 161.624283,83.698036 
	C161.501007,83.784439 161.377716,83.870850 161.254440,83.957260 
	C161.502960,84.304810 161.751480,84.652367 162.000275,85.436554 
	C162.031906,87.330101 162.063248,88.787003 162.090820,90.441833 
	C162.087036,90.639771 161.927170,91.002007 161.537964,91.000999 
	C159.323257,91.394516 157.497787,91.789047 156.962723,91.904686 
	C154.981308,90.584671 153.798950,89.158684 152.604584,89.148544 
	C150.739975,89.132736 148.871002,90.090027 146.997009,90.610237 
	C144.684784,91.252098 142.251068,92.649796 140.073456,92.330849 
	C135.744995,91.696892 131.422134,89.317192 128.329971,94.632950 
	C128.161926,94.921829 127.391739,95.006279 126.927467,94.954811 
	C121.286423,94.329391 115.650192,93.660583 110.006378,92.605331 
	C110.115303,89.556198 109.127769,88.584129 106.364532,89.386452 
	C103.510406,90.215157 100.544846,90.660065 97.307297,91.340256 
	C96.961838,92.830681 96.480186,94.908730 95.998535,96.986778 
	C92.237236,97.954514 88.475937,98.922256 84.251831,99.629471 
	C83.215752,99.234650 82.642487,99.100365 82.069214,98.966080 
	C81.683189,96.902885 81.297165,94.839699 80.857368,92.366226 
	C80.803596,91.955956 80.974846,91.753403 81.476952,91.762871 
	C83.984894,90.181175 85.990723,88.590012 88.412392,86.946213 
	C90.607819,86.595749 92.379417,86.108894 94.168411,86.033134 
	C101.549164,85.720566 108.703171,85.392273 116.137802,83.546471 
	C128.925720,80.371597 142.334091,79.678589 155.492523,78.027565 
	C158.171814,77.691391 161.047546,77.931816 161.344086,73.851501 
	C164.550598,72.260963 164.808609,73.915482 165.080811,76.235550 
	C165.272308,77.867821 166.249893,79.407875 166.876480,80.989105 
z"/>
<path fill="#FDBF17" opacity="1.000000" stroke="none" 
	d="
M110.012711,93.003052 
	C115.650192,93.660583 121.286423,94.329391 126.927467,94.954811 
	C127.391739,95.006279 128.161926,94.921829 128.329971,94.632950 
	C131.422134,89.317192 135.744995,91.696892 140.073456,92.330849 
	C142.251068,92.649796 144.684784,91.252098 146.997009,90.610237 
	C148.871002,90.090027 150.739975,89.132736 152.604584,89.148544 
	C153.798950,89.158684 154.981308,90.584671 156.962723,91.904686 
	C157.497787,91.789047 159.323257,91.394516 161.519897,91.326233 
	C160.640793,94.443748 159.390564,97.235016 157.914673,100.311989 
	C156.689850,103.065651 155.690689,105.533623 154.372772,107.956192 
	C152.369354,108.274010 150.684677,108.637207 148.997437,108.578178 
	C149.292969,104.837578 147.045486,104.983238 144.788254,104.988281 
	C133.269852,105.014008 121.751366,105.000153 109.209892,105.000153 
	C110.776100,108.231850 111.739182,110.219055 113.464943,113.779976 
	C110.056984,112.516273 107.978630,111.745598 105.900276,110.974922 
	C105.985817,109.992195 106.071365,109.009460 106.149902,107.656204 
	C106.720558,105.093117 107.298218,102.900574 108.228645,100.141724 
	C109.058510,97.384628 109.535614,95.193840 110.012711,93.003052 
z"/>
<path fill="#F9BF27" opacity="1.000000" stroke="none" 
	d="
M110.006378,92.605331 
	C109.535614,95.193840 109.058510,97.384628 108.348587,99.777924 
	C108.458389,96.121635 106.651558,94.892960 103.034485,95.759262 
	C100.986107,96.249847 98.910667,96.627426 96.422974,97.021339 
	C96.480186,94.908730 96.961838,92.830681 97.307297,91.340256 
	C100.544846,90.660065 103.510406,90.215157 106.364532,89.386452 
	C109.127769,88.584129 110.115303,89.556198 110.006378,92.605331 
z"/>
<path fill="#857CFD" opacity="1.000000" stroke="none" 
	d="
M81.823898,99.155327 
	C82.642487,99.100365 83.215752,99.234650 83.908661,99.643990 
	C84.022491,100.098572 84.016693,100.278091 84.006973,100.726974 
	C83.194893,100.445747 82.386734,99.895164 81.823898,99.155327 
z"/>
<path fill="#FCB711" opacity="1.000000" stroke="none" 
	d="
M149.000000,109.000412 
	C150.684677,108.637207 152.369354,108.274010 154.300995,108.269852 
	C153.364410,110.419533 152.180862,112.210152 150.997314,114.000771 
	C148.289825,119.400009 145.582336,124.799255 142.559845,130.725662 
	C141.701477,132.243576 141.158142,133.234329 140.270157,134.039078 
	C140.358185,132.254105 140.853485,130.668671 141.202484,129.051651 
	C141.454346,127.884613 141.511566,126.675575 141.655609,125.485268 
	C141.290070,125.403168 140.924515,125.321075 140.558975,125.238983 
	C139.832626,126.159744 139.106262,127.080513 138.313339,128.085663 
	C138.124832,127.404518 137.955231,126.791656 137.961777,126.815308 
	C132.544586,127.692101 127.532822,130.464020 121.767342,129.091995 
	C116.924461,129.895874 112.047783,130.541321 107.251701,131.564529 
	C104.485687,132.154633 102.278267,132.522781 101.928833,128.405243 
	C102.696419,124.331078 103.513611,120.647789 104.365242,116.553009 
	C104.662544,115.959106 104.818466,115.709808 105.361145,115.197800 
	C110.499588,115.588440 113.411034,118.271141 115.253952,124.242264 
	C119.194702,115.561150 126.175575,117.548576 132.506851,116.706528 
	C136.663849,116.153656 140.555359,113.604622 144.793198,111.855675 
	C144.912567,110.755081 145.060760,109.388611 145.121994,108.824127 
	C146.766632,108.898888 147.883316,108.949654 149.000000,109.000412 
z"/>
<path fill="#FCB00D" opacity="1.000000" stroke="none" 
	d="
M121.803528,129.489716 
	C127.532822,130.464020 132.544586,127.692101 137.961777,126.815308 
	C137.955231,126.791656 138.124832,127.404518 138.313339,128.085663 
	C139.106262,127.080513 139.832626,126.159744 140.558975,125.238983 
	C140.924515,125.321075 141.290070,125.403168 141.655609,125.485268 
	C141.511566,126.675575 141.454346,127.884613 141.202484,129.051651 
	C140.853485,130.668671 140.358185,132.254105 140.155792,134.405685 
	C138.974609,137.970840 137.563141,140.983398 135.954727,144.280060 
	C134.751007,146.376282 133.744217,148.188370 132.526703,149.736755 
	C132.315964,148.098373 132.315964,146.723694 132.315964,145.336319 
	C129.689178,145.570190 127.259796,146.006790 124.842567,145.947556 
	C121.613800,145.868439 119.778709,146.798248 119.871666,150.412811 
	C119.885307,150.943359 118.226959,151.516891 117.342224,152.070541 
	C117.250938,151.908463 117.159660,151.746399 117.054306,151.305725 
	C117.040230,151.027115 117.005363,151.014847 117.311104,150.852417 
	C117.825577,149.813370 118.034302,148.936722 118.243034,148.060089 
	C118.901558,145.098953 119.560081,142.137802 120.224045,138.798340 
	C120.766235,135.575836 121.302979,132.731644 121.803528,129.489716 
z"/>
<path fill="#6B9DFE" opacity="1.000000" stroke="none" 
	d="
M38.866310,79.309792 
	C40.675182,78.487823 42.717113,78.420143 43.961182,77.389427 
	C50.002625,72.384064 55.528511,66.712112 61.819675,62.065083 
	C67.934814,57.548084 74.756882,53.988121 81.874863,50.003551 
	C82.481201,49.999191 82.960747,49.998375 83.046326,50.359207 
	C83.198402,51.454811 83.264900,52.189575 83.331398,52.924343 
	C83.203552,53.698696 83.075714,54.473045 82.830269,55.622692 
	C78.856720,58.333370 74.884659,60.499916 71.176430,63.050102 
	C67.215248,65.774254 63.557785,68.935509 59.669239,71.770866 
	C53.998142,75.905983 48.298824,80.009529 42.471962,83.918472 
	C41.151829,84.804085 39.258530,84.835320 37.324188,85.122818 
	C37.019321,84.985817 37.005844,84.488419 37.003098,84.239525 
	C37.577438,82.533821 38.154526,81.077011 38.866310,79.309792 
z"/>
<path fill="#B145FB" opacity="1.000000" stroke="none" 
	d="
M163.242065,137.065277 
	C160.403168,142.340759 157.564255,147.616226 154.444183,153.100922 
	C153.449722,153.172699 152.498215,152.669830 152.060425,152.955154 
	C148.282074,155.417755 144.569870,157.985153 140.890060,160.594818 
	C136.922134,163.408829 132.962357,166.239365 129.102142,169.197266 
	C127.875595,170.137115 126.979340,171.507980 125.255722,173.439362 
	C124.728203,171.870361 124.343201,170.725281 123.976273,168.830353 
	C126.957199,162.307693 129.920059,156.534866 132.915344,151.138443 
	C133.175903,152.519592 133.404037,153.524323 133.612442,154.442139 
	C135.366180,153.482590 136.805969,152.811401 138.124146,151.953369 
	C143.762970,148.282852 149.908661,145.141464 154.770798,140.624435 
	C157.523224,138.067368 159.752396,136.721207 163.242065,137.065277 
z"/>
<path fill="#FBA80E" opacity="1.000000" stroke="none" 
	d="
M132.882935,150.762039 
	C129.920059,156.534866 126.957199,162.307693 123.950043,168.428223 
	C121.958076,172.371674 120.254227,176.135971 117.942680,179.480225 
	C117.018440,180.817368 114.754524,181.228546 112.833862,181.918884 
	C112.452011,180.475677 112.336716,179.174835 112.520645,177.182480 
	C113.817810,170.995483 114.815742,165.499969 115.813675,160.004471 
	C116.303101,157.631088 116.792526,155.257690 117.312088,152.477417 
	C118.226959,151.516891 119.885307,150.943359 119.871666,150.412811 
	C119.778709,146.798248 121.613800,145.868439 124.842567,145.947556 
	C127.259796,146.006790 129.689178,145.570190 132.315964,145.336319 
	C132.315964,146.723694 132.315964,148.098373 132.562134,149.927277 
	C132.808304,150.381516 132.882935,150.762039 132.882935,150.762039 
z"/>
<path fill="#AF4AFA" opacity="1.000000" stroke="none" 
	d="
M109.246483,183.837265 
	C108.682945,183.217804 108.364723,182.430344 108.023354,181.321350 
	C108.000206,180.999817 108.007195,180.992630 108.007195,180.992630 
	C108.561317,181.165848 109.115440,181.339066 109.837494,181.757065 
	C109.834213,182.557648 109.663010,183.113449 109.246483,183.837265 
z"/>
<path fill="#B244FB" opacity="1.000000" stroke="none" 
	d="
M103.996277,197.662109 
	C103.995422,197.993286 103.499062,197.999817 103.250916,198.002625 
	C103.138374,197.357925 103.273979,196.710403 103.704788,196.031448 
	C104.000000,196.000000 103.997910,196.006042 103.997910,196.006042 
	C103.997650,196.447678 103.997383,196.889313 103.996277,197.662109 
z"/>
<path fill="#B244FB" opacity="1.000000" stroke="none" 
	d="
M101.000763,192.999329 
	C101.452957,193.152023 101.904388,193.305359 102.355827,193.458694 
	C102.223373,193.738678 102.090919,194.018661 101.958466,194.298645 
	C101.650108,194.036346 101.341759,193.774033 101.015945,193.256668 
	C100.998474,193.001617 101.000000,193.000000 101.000763,192.999329 
z"/>
<path fill="#BA39FD" opacity="1.000000" stroke="none" 
	d="
M103.997025,196.000946 
	C104.087822,195.966476 104.181602,195.931061 104.136642,195.950836 
	C103.997910,196.006042 104.000000,196.000000 103.997025,196.000946 
z"/>
<path fill="#FEBA14" opacity="1.000000" stroke="none" 
	d="
M148.997437,108.578178 
	C147.883316,108.949654 146.766632,108.898888 145.121994,108.824127 
	C145.060760,109.388611 144.912567,110.755081 144.793198,111.855675 
	C140.555359,113.604622 136.663849,116.153656 132.506851,116.706528 
	C126.175575,117.548576 119.194702,115.561150 115.253952,124.242264 
	C113.411034,118.271141 110.499588,115.588440 105.473846,115.002296 
	C105.231079,113.852394 105.369316,112.702179 105.703918,111.263443 
	C107.978630,111.745598 110.056984,112.516273 113.464943,113.779976 
	C111.739182,110.219055 110.776100,108.231850 109.209892,105.000153 
	C121.751366,105.000153 133.269852,105.014008 144.788254,104.988281 
	C147.045486,104.983238 149.292969,104.837578 148.997437,108.578178 
z"/>
<path fill="#F8C521" opacity="1.000000" stroke="none" 
	d="
M87.996559,86.998856 
	C85.990723,88.590012 83.984894,90.181175 81.555954,91.656357 
	C81.235085,88.326866 81.337303,85.113373 81.384384,81.463440 
	C81.329231,81.027000 81.325333,80.794594 81.459808,80.507950 
	C81.580612,79.843994 81.566948,79.466682 81.553284,79.089363 
	C81.735283,75.699226 81.917290,72.309090 82.044449,68.460800 
	C82.304520,64.630058 82.619446,61.257458 83.033173,57.457970 
	C83.576805,58.538116 84.021622,60.045155 84.732056,61.777473 
	C84.334908,65.394417 83.672134,68.786072 83.005775,72.988304 
	C83.005684,74.870712 83.009178,75.942543 83.009445,77.388763 
	C83.670235,78.841835 84.334251,79.920525 85.262192,81.218170 
	C86.349602,83.291039 87.173080,85.144951 87.996559,86.998856 
z"/>
<path fill="#BA39FD" opacity="1.000000" stroke="none" 
	d="
M104.996994,202.748718 
	C104.995346,202.996948 104.522057,202.988220 104.286278,202.975342 
	C104.131905,202.645782 104.306656,202.393814 104.786209,202.105316 
	C104.997665,202.004044 104.998650,202.500488 104.996994,202.748718 
z"/>
<path fill="#7B8AFC" opacity="1.000000" stroke="none" 
	d="
M81.403870,79.315475 
	C81.566948,79.466682 81.580612,79.843994 81.383194,80.420563 
	C81.199547,80.260399 81.226997,79.900993 81.403870,79.315475 
z"/>
<path fill="#A850FC" opacity="1.000000" stroke="none" 
	d="
M117.932602,148.220184 
	C118.034302,148.936722 117.825577,149.813370 117.323013,150.865692 
	C117.226845,150.154343 117.424507,149.267303 117.932602,148.220184 
z"/>
<path fill="#FEC824" opacity="1.000000" stroke="none" 
	d="
M166.962708,80.615685 
	C166.249893,79.407875 165.272308,77.867821 165.080811,76.235550 
	C164.808609,73.915482 164.550598,72.260963 161.049866,73.554657 
	C148.457092,73.276337 136.501831,73.052635 124.549416,73.156738 
	C123.350418,73.167183 121.525238,74.964729 121.114426,76.283073 
	C120.286957,78.938545 119.038208,80.029831 116.208206,80.084267 
	C107.598778,80.249870 98.995277,80.787140 90.386787,80.858955 
	C89.265526,80.868301 88.128609,78.999573 86.998940,78.000755 
	C87.981285,76.222809 88.963623,74.444870 90.073822,72.435516 
	C93.108315,72.007599 96.578140,71.754089 99.923790,70.970444 
	C102.509727,70.364738 104.901382,68.973167 107.452644,68.161057 
	C109.285858,67.577507 111.224205,67.214348 113.142487,67.025467 
	C126.951492,65.665840 140.770248,64.404579 154.575653,63.010506 
	C155.708527,62.896107 156.765320,62.028320 157.857452,61.510590 
	C157.062424,60.404331 156.267395,59.298077 155.122726,58.034042 
	C155.630035,57.606956 156.486969,57.337650 158.060577,56.989670 
	C163.141617,56.008865 167.520477,55.170567 171.865555,54.183434 
	C175.066833,53.456150 177.765869,53.760441 179.411987,57.022270 
	C179.325684,57.182064 179.239380,57.341862 178.753708,57.878395 
	C177.327255,60.168011 176.300171,62.080883 175.273087,63.993755 
	C172.886337,68.191605 170.448044,72.361526 168.148285,76.606499 
	C167.557556,77.696915 167.403564,79.023941 166.962708,80.615685 
z"/>
<path fill="#9479EE" opacity="1.000000" stroke="none" 
	d="
M179.766968,57.001099 
	C177.765869,53.760441 175.066833,53.456150 171.865555,54.183434 
	C167.520477,55.170567 163.141617,56.008865 158.384109,56.876778 
	C158.761307,55.588524 159.531631,54.334484 160.650970,53.040283 
	C161.000000,53.000126 161.003525,53.003304 161.060989,53.359219 
	C163.744568,53.476761 166.370682,53.238388 168.996796,53.000015 
	C170.759186,52.007347 172.521561,51.014679 174.976730,50.012646 
	C176.112000,50.000683 176.554489,49.998085 176.996964,49.995491 
	C177.747482,49.993069 178.497986,49.990646 179.623688,49.980629 
	C181.019241,52.291470 184.410019,54.568256 179.766968,57.001099 
z"/>
<path fill="#9479EE" opacity="1.000000" stroke="none" 
	d="
M161.004395,52.256996 
	C161.555618,52.174934 162.105728,52.339462 162.490250,52.748795 
	C161.884277,52.996838 161.443893,53.000069 161.003525,53.003304 
	C161.003525,53.003304 161.000000,53.000126 160.998352,52.998417 
	C160.996719,52.996708 161.003296,52.503578 161.004395,52.256996 
z"/>
<path fill="#AF4AFA" opacity="1.000000" stroke="none" 
	d="
M115.470856,160.086273 
	C114.815742,165.499969 113.817810,170.995483 112.574463,176.784698 
	C105.243446,176.300552 101.261169,182.297211 95.320648,184.862686 
	C94.998543,185.003143 94.500702,184.999985 94.251816,184.998077 
	C93.508003,184.109604 93.013084,183.223053 92.271324,182.160492 
	C92.432785,179.266418 93.312210,177.463257 96.499008,176.447952 
	C99.288033,175.559357 101.629295,172.995255 103.931641,170.909973 
	C107.763451,167.439407 111.405869,163.759720 115.470856,160.086273 
z"/>
<path fill="#AF4AFA" opacity="1.000000" stroke="none" 
	d="
M107.996704,181.002258 
	C107.745949,180.654922 107.496658,180.306442 107.267372,179.945251 
	C107.263161,179.938614 107.497299,179.780670 107.620232,179.693329 
	C107.739113,179.966934 107.857994,180.240555 107.992035,180.753387 
	C108.007195,180.992630 108.000206,180.999817 107.996704,181.002258 
z"/>
<path fill="#9C5FFB" opacity="1.000000" stroke="none" 
	d="
M158.140320,100.026291 
	C159.390564,97.235016 160.640793,94.443748 161.909103,91.327240 
	C161.927170,91.002007 162.087036,90.639771 162.396210,90.281830 
	C163.444519,88.284760 164.183655,86.645630 164.922760,85.006500 
	C165.105499,84.719933 165.288223,84.433372 165.713470,84.058861 
	C166.518768,85.069702 167.081573,86.168488 167.996918,87.955544 
	C170.559692,84.420654 172.898193,81.195114 175.283066,77.905617 
	C176.920380,81.952103 178.754959,79.326736 181.127747,77.479698 
	C187.569977,72.464882 194.223618,67.719673 200.885666,62.997688 
	C201.113754,62.836014 202.329361,64.067581 203.144562,65.033829 
	C200.380875,70.619171 197.557327,75.820450 194.396027,80.831055 
	C193.760666,79.931000 193.463058,79.221611 193.165436,78.512222 
	C192.124710,79.751579 191.084000,80.990944 189.787491,82.534904 
	C189.060776,82.534904 187.453308,82.030731 186.590332,82.618904 
	C181.925095,85.798592 177.524323,89.366760 172.853851,92.538063 
	C171.339447,93.566360 169.285172,93.799538 166.875168,94.595444 
	C164.951004,97.098763 162.461761,100.337234 159.725204,103.897461 
	C158.981323,102.080490 158.560822,101.053391 158.140320,100.026291 
z"/>
<path fill="#9479EE" opacity="1.000000" stroke="none" 
	d="
M175.562805,63.950249 
	C176.300171,62.080883 177.327255,60.168011 178.674332,58.138992 
	C178.685913,59.126869 178.377487,60.230888 178.034454,61.681870 
	C177.284058,62.654800 176.568298,63.280769 175.562805,63.950249 
z"/>
<path fill="#A059FB" opacity="1.000000" stroke="none" 
	d="
M157.914673,100.311989 
	C158.560822,101.053391 158.981323,102.080490 159.725204,103.897461 
	C162.461761,100.337234 164.951004,97.098763 166.875168,94.595444 
	C169.285172,93.799538 171.339447,93.566360 172.853851,92.538063 
	C177.524323,89.366760 181.925095,85.798592 186.590332,82.618904 
	C187.453308,82.030731 189.060776,82.534904 189.787491,82.534904 
	C191.084000,80.990944 192.124710,79.751579 193.165436,78.512222 
	C193.463058,79.221611 193.760666,79.931000 194.100067,81.030502 
	C192.770996,84.183136 191.400131,86.945656 189.809509,89.935028 
	C188.197739,90.485809 186.494781,90.405731 185.463959,91.199028 
	C178.630386,96.458092 172.413055,102.725090 165.023941,106.975807 
	C160.729309,109.446381 155.952194,110.525909 153.906647,115.681007 
	C153.891800,115.718399 152.095657,115.048943 151.064285,114.355156 
	C152.180862,112.210152 153.364410,110.419533 154.619751,108.315247 
	C155.690689,105.533623 156.689850,103.065651 157.914673,100.311989 
z"/>
<path fill="#AD4BFC" opacity="1.000000" stroke="none" 
	d="
M132.915344,151.138443 
	C132.882935,150.762039 132.808304,150.381516 132.772858,150.190979 
	C133.744217,148.188370 134.751007,146.376282 136.347290,144.281174 
	C138.178223,143.729340 139.739182,143.848389 140.610626,143.130447 
	C147.688965,137.298889 154.629517,131.300339 161.641785,125.387917 
	C162.256577,124.869553 163.126816,124.208435 163.805099,124.282745 
	C168.564774,124.804199 169.620697,121.247505 170.996414,117.996719 
	C171.964050,117.777985 172.931702,117.559258 173.952042,117.674973 
	C174.004745,118.009430 173.999908,117.999817 173.697784,118.151947 
	C172.967880,119.295326 172.540085,120.286583 172.112274,121.277832 
	C171.017685,123.529373 169.923096,125.780922 168.754425,128.386261 
	C167.045029,131.388657 165.409714,134.037262 163.508224,136.875565 
	C159.752396,136.721207 157.523224,138.067368 154.770798,140.624435 
	C149.908661,145.141464 143.762970,148.282852 138.124146,151.953369 
	C136.805969,152.811401 135.366180,153.482590 133.612442,154.442139 
	C133.404037,153.524323 133.175903,152.519592 132.915344,151.138443 
z"/>
<path fill="#A950FC" opacity="1.000000" stroke="none" 
	d="
M170.665771,117.948669 
	C169.620697,121.247505 168.564774,124.804199 163.805099,124.282745 
	C163.126816,124.208435 162.256577,124.869553 161.641785,125.387917 
	C154.629517,131.300339 147.688965,137.298889 140.610626,143.130447 
	C139.739182,143.848389 138.178223,143.729340 136.544220,143.997040 
	C137.563141,140.983398 138.974609,137.970840 140.500427,134.591690 
	C141.158142,133.234329 141.701477,132.243576 142.469116,131.080765 
	C145.816406,130.112732 148.939438,129.316757 152.062454,128.520782 
	C151.769745,128.186035 151.477036,127.851303 151.184326,127.516563 
	C157.200287,122.607689 163.216232,117.698807 169.481750,112.586304 
	C169.846405,114.857040 170.090775,116.378838 170.665771,117.948669 
z"/>
<path fill="#A059FB" opacity="1.000000" stroke="none" 
	d="
M151.863998,118.301010 
	C152.053726,118.608513 152.027939,118.947975 152.002136,119.287445 
	C151.765747,119.215836 151.529358,119.144211 151.292969,119.072586 
	C151.411469,118.826050 151.529968,118.579521 151.863998,118.301010 
z"/>
<path fill="#867EFA" opacity="1.000000" stroke="none" 
	d="
M161.060989,53.359215 
	C161.443893,53.000069 161.884277,52.996838 162.654633,52.992348 
	C164.702911,52.994194 166.421188,52.997299 168.568130,53.000210 
	C166.370682,53.238388 163.744568,53.476761 161.060989,53.359215 
z"/>
<path fill="#867EFA" opacity="1.000000" stroke="none" 
	d="
M176.852448,49.769402 
	C176.554489,49.998085 176.112000,50.000683 175.337738,50.003620 
	C175.573288,49.850410 176.140594,49.696861 176.852448,49.769402 
z"/>
<path fill="#A555FC" opacity="1.000000" stroke="none" 
	d="
M172.376358,121.084686 
	C172.540085,120.286583 172.967880,119.295326 173.702057,118.152870 
	C173.552429,118.964951 173.096420,119.928238 172.376358,121.084686 
z"/>
<path fill="#FEC71E" opacity="1.000000" stroke="none" 
	d="
M86.723602,77.753830 
	C88.128609,78.999573 89.265526,80.868301 90.386787,80.858955 
	C98.995277,80.787140 107.598778,80.249870 116.208206,80.084267 
	C119.038208,80.029831 120.286957,78.938545 121.114426,76.283073 
	C121.525238,74.964729 123.350418,73.167183 124.549416,73.156738 
	C136.501831,73.052635 148.457092,73.276337 160.705780,73.704346 
	C161.047546,77.931816 158.171814,77.691391 155.492523,78.027565 
	C142.334091,79.678589 128.925720,80.371597 116.137802,83.546471 
	C108.703171,85.392273 101.549164,85.720566 94.168411,86.033134 
	C92.379417,86.108894 90.607819,86.595749 88.412392,86.946213 
	C87.173080,85.144951 86.349602,83.291039 85.262344,80.842888 
	C84.336609,79.170555 83.674644,78.092468 83.012680,77.014381 
	C83.009178,75.942543 83.005684,74.870712 83.007248,73.396774 
	C86.772926,72.507240 85.560463,75.806725 86.723602,77.753830 
z"/>
<path fill="#F8C521" opacity="1.000000" stroke="none" 
	d="
M83.491211,52.802933 
	C83.264900,52.189575 83.198402,51.454811 83.128586,50.125542 
	C83.125267,49.531044 83.092857,49.036636 83.092857,49.036636 
	C83.092857,49.036636 83.476585,48.922169 83.672966,48.886093 
	C83.914833,49.634216 83.960320,50.418423 84.025864,51.594063 
	C83.964592,52.246052 83.832962,52.478062 83.491211,52.802933 
z"/>
<path fill="#67A4FD" opacity="1.000000" stroke="none" 
	d="
M82.856621,49.127350 
	C83.092857,49.036636 83.125267,49.531044 83.043007,49.764709 
	C82.960747,49.998375 82.481201,49.999191 82.241447,49.999153 
	C82.207924,49.738770 82.414154,49.478420 82.856621,49.127350 
z"/>
<path fill="#FDBF17" opacity="1.000000" stroke="none" 
	d="
M164.557434,85.004089 
	C164.183655,86.645630 163.444519,88.284760 162.399994,90.083893 
	C162.063248,88.787003 162.031906,87.330101 162.000275,85.436600 
	C162.000000,85.000000 162.000000,85.000305 162.000000,85.000305 
	C162.730698,85.000763 163.461395,85.001213 164.557434,85.004089 
z"/>
<path fill="#FDBF17" opacity="1.000000" stroke="none" 
	d="
M162.000000,84.999954 
	C161.751480,84.652367 161.502960,84.304810 161.254440,83.957260 
	C161.377716,83.870850 161.501007,83.784439 161.624283,83.698036 
	C161.740784,83.972504 161.857285,84.246971 161.986877,84.760872 
	C162.000000,85.000305 162.000000,85.000000 162.000000,84.999954 
z"/>
<path fill="#FECC26" opacity="1.000000" stroke="none" 
	d="
M83.009445,77.388763 
	C83.674644,78.092468 84.336609,79.170555 84.998428,80.623932 
	C84.334251,79.920525 83.670235,78.841835 83.009445,77.388763 
z"/>
</svg>