<svg version="1.1" id="Layer_1" xmlns="http://www.w3.org/2000/svg" xmlns:xlink="http://www.w3.org/1999/xlink" x="0px" y="0px"
	 width="100%" viewBox="0 0 225 225" enable-background="new 0 0 225 225" xml:space="preserve">
<path fill="#FEFEFE" opacity="1.000000" stroke="none" 
	d="
M123.000000,226.000000 
	C82.000000,226.000000 41.500004,226.000000 1.000005,226.000000 
	C1.000004,151.000000 1.000004,76.000015 1.000002,1.000015 
	C75.999992,1.000010 150.999985,1.000010 225.999969,1.000005 
	C225.999985,75.999985 225.999985,150.999969 226.000000,225.999969 
	C191.833328,226.000000 157.666672,226.000000 123.000000,226.000000 
M213.983582,101.182854 
	C213.644089,99.046585 213.345352,96.902924 212.959198,94.775124 
	C202.586182,37.619896 144.295990,0.587468 88.165672,15.484873 
	C34.586098,29.705290 2.983508,82.024277 14.957617,136.682892 
	C26.340698,188.643616 78.531609,222.653351 132.058914,212.990875 
	C175.437286,205.160446 210.816711,167.134491 214.172974,124.207520 
	C214.091919,116.807434 214.010849,109.407356 213.983582,101.182854 
z"/>
<path fill="#14AA53" opacity="1.000000" stroke="none" 
	d="
M213.929504,124.996017 
	C210.816711,167.134491 175.437286,205.160446 132.058914,212.990875 
	C78.531609,222.653351 26.340698,188.643616 14.957617,136.682892 
	C2.983508,82.024277 34.586098,29.705290 88.165672,15.484873 
	C144.295990,0.587468 202.586182,37.619896 212.959198,94.775124 
	C213.345352,96.902924 213.644089,99.046585 213.687943,101.909393 
	C213.571381,110.089302 213.750443,117.542656 213.929504,124.996017 
M119.166885,62.244091 
	C117.444748,59.678875 115.722603,57.113659 114.186424,54.825451 
	C112.258972,56.892162 110.531273,59.037827 108.514000,60.863533 
	C80.423904,86.286087 79.767220,130.804779 107.445175,155.671921 
	C111.297813,159.133301 112.950722,162.743729 113.123863,167.596573 
	C113.203300,169.823029 113.817795,172.030411 114.189651,174.246445 
	C114.831779,174.225510 115.473907,174.204590 116.116035,174.183655 
	C116.402229,172.366974 116.766418,170.558548 116.960136,168.732040 
	C117.566086,163.018692 119.381996,158.407288 123.955376,154.096939 
	C137.328720,141.492752 143.009079,125.516327 141.236267,107.156662 
	C139.554291,89.737602 131.962128,75.081558 119.166885,62.244091 
z"/>
<path fill="#28B162" opacity="1.000000" stroke="none" 
	d="
M214.051239,124.601768 
	C213.750443,117.542656 213.571381,110.089302 213.661041,102.321609 
	C214.010849,109.407356 214.091919,116.807434 214.051239,124.601768 
z"/>
<path fill="#FBFDFC" opacity="1.000000" stroke="none" 
	d="
M119.413406,62.506779 
	C131.962128,75.081558 139.554291,89.737602 141.236267,107.156662 
	C143.009079,125.516327 137.328720,141.492752 123.955376,154.096939 
	C119.381996,158.407288 117.566086,163.018692 116.960136,168.732040 
	C116.766418,170.558548 116.402229,172.366974 116.116035,174.183655 
	C115.473907,174.204590 114.831779,174.225510 114.189651,174.246445 
	C113.817795,172.030411 113.203300,169.823029 113.123863,167.596573 
	C112.950722,162.743729 111.297813,159.133301 107.445175,155.671921 
	C79.767220,130.804779 80.423904,86.286087 108.514000,60.863533 
	C110.531273,59.037827 112.258972,56.892162 114.186424,54.825451 
	C115.722603,57.113659 117.444748,59.678875 119.413406,62.506779 
M117.077194,142.461136 
	C116.735718,133.642700 116.394234,124.824257 116.052757,116.005821 
	C115.322311,116.057503 114.591866,116.109177 113.861427,116.160858 
	C114.593018,128.547943 111.404327,141.175629 117.084076,153.276947 
	C117.084076,149.998657 117.084076,146.720383 117.077194,142.461136 
z"/>
<path fill="#13AC56" opacity="1.000000" stroke="none" 
	d="
M117.080635,142.951614 
	C117.084076,146.720383 117.084076,149.998657 117.084076,153.276947 
	C111.404327,141.175629 114.593018,128.547943 113.861427,116.160858 
	C114.591866,116.109177 115.322311,116.057503 116.052757,116.005821 
	C116.394234,124.824257 116.735718,133.642700 117.080635,142.951614 
z"/>
</svg>