<svg version="1.1" id="Layer_1" xmlns="http://www.w3.org/2000/svg" xmlns:xlink="http://www.w3.org/1999/xlink" x="0px" y="0px"
	 width="100%" viewBox="0 0 288 160" enable-background="new 0 0 288 160" xml:space="preserve">
<path fill="#000000" opacity="1.000000" stroke="none" 
	d="
M171.466873,108.707230 
	C170.728317,114.446312 168.620743,115.686050 164.423920,112.911659 
	C162.791428,111.832458 161.207169,111.434853 159.345703,111.264534 
	C150.084717,110.417175 140.833420,109.464134 131.578430,108.550957 
	C130.916214,108.485603 130.252823,108.413391 129.588425,108.391716 
	C121.547447,108.129379 121.611420,108.106178 118.547569,100.415237 
	C115.408134,92.534569 112.064499,84.735031 108.949486,76.845009 
	C108.173706,74.880020 106.890625,73.553314 105.390251,72.190361 
	C103.414749,70.395798 102.656219,67.676239 105.108238,66.200752 
	C112.352127,61.841770 115.517532,54.288422 120.101219,47.901539 
	C124.413963,41.892185 129.672394,36.426857 131.637482,28.861944 
	C132.236710,26.555046 135.333664,25.757830 137.064346,27.372807 
	C140.542023,30.617981 144.798325,31.004925 148.994324,31.696510 
	C156.446167,32.924721 163.622040,36.012684 171.452652,34.860939 
	C173.458511,34.565914 174.695572,36.112171 175.223938,38.143520 
	C177.861221,48.282539 184.421478,56.481407 188.982071,65.671478 
	C189.444199,66.602730 190.693542,67.150612 191.593628,67.855919 
	C194.919113,70.461807 194.842697,72.845108 191.352066,75.318672 
	C190.548141,75.888351 189.439148,76.306290 189.013718,77.089211 
	C183.306534,87.592529 176.284805,97.358391 171.466873,108.707230 
M141.633514,65.856468 
	C148.802170,71.565483 155.184784,78.276543 163.855881,84.263344 
	C165.606033,70.316017 167.286713,57.711746 168.702347,45.077770 
	C169.049911,41.975960 166.886276,42.069401 164.692413,43.039207 
	C159.523544,45.324127 154.328766,47.552177 149.188354,49.899342 
	C143.949478,52.291470 138.409271,54.088852 133.368576,57.417625 
	C135.251648,61.070244 138.663620,62.772278 141.633514,65.856468 
M141.731308,70.782112 
	C137.856613,68.104271 134.996964,64.062927 130.560822,61.926105 
	C130.079895,62.720169 129.657471,63.113365 129.602753,63.552395 
	C128.190125,74.887009 126.773331,86.221481 125.460159,97.567886 
	C125.054115,101.076256 126.665581,102.092674 129.940063,100.757133 
	C139.760788,96.751595 149.606110,92.806366 159.424164,88.794380 
	C159.796753,88.642128 159.986328,88.042015 160.578110,87.199280 
	C154.465454,81.865616 148.372360,76.549019 141.731308,70.782112 
M182.238297,61.271343 
	C179.352600,56.268372 176.466904,51.265400 173.106522,45.439457 
	C172.088120,53.729935 169.500122,60.987225 172.634903,68.542122 
	C173.506760,70.643303 172.754059,72.738335 170.751373,74.285774 
	C167.889496,76.497078 168.423737,78.977089 170.397034,81.778267 
	C173.473587,79.989357 176.364334,78.403130 179.160355,76.664558 
	C186.886795,71.860245 187.069244,71.127304 183.046188,62.816750 
	C182.901016,62.516842 182.750854,62.219345 182.238297,61.271343 
M114.569412,79.836845 
	C115.731171,81.815605 115.275185,85.489822 118.628448,85.200615 
	C121.646988,84.940277 122.249893,81.788300 123.232086,79.319931 
	C124.571503,75.953812 123.347435,72.388138 124.238792,69.004051 
	C124.617149,67.567604 125.150642,65.965515 123.653801,64.891640 
	C121.955399,63.673141 120.254883,64.284401 118.545631,65.197227 
	C112.182808,68.595284 111.698425,70.102699 114.569412,79.836845 
M151.386505,105.750885 
	C153.162567,105.545441 154.535080,107.142578 156.089355,107.090210 
	C159.094604,106.988953 163.162811,108.817871 164.523560,104.448708 
	C166.051849,99.541595 163.872223,95.414345 159.904785,94.500656 
	C156.440933,93.702965 154.086761,94.931160 154.345505,98.659012 
	C154.651672,103.070061 152.310013,103.282387 149.076370,102.741020 
	C147.203461,102.427460 145.323898,101.204773 143.414139,102.684685 
	C145.547424,106.036568 145.547424,106.036568 151.386505,105.750885 
z"/>
<path fill="#000000" opacity="1.000000" stroke="none" 
	d="
M128.062012,134.264709 
	C128.367691,130.885666 128.678162,127.962769 129.126633,123.740707 
	C136.403351,129.057312 138.549957,137.060608 144.257523,142.788071 
	C146.336014,136.819748 143.223892,130.415634 147.330566,125.149193 
	C149.814880,133.834976 148.999252,142.559021 148.144958,152.614197 
	C141.081680,147.470779 138.846191,139.727798 133.200485,134.195251 
	C131.215210,138.756516 132.440659,142.913300 132.075790,146.913559 
	C131.924393,148.573151 132.764099,151.203094 130.057312,151.169739 
	C127.774048,151.141602 128.382050,148.728958 128.329514,147.181854 
	C128.188492,143.029999 128.147522,138.874756 128.062012,134.264709 
z"/>
<path fill="#000000" opacity="1.000000" stroke="none" 
	d="
M154.846558,130.282501 
	C155.052414,128.080994 154.383377,125.742844 156.687210,125.154922 
	C158.887283,124.593483 159.738022,126.810493 160.742874,128.245117 
	C162.842422,131.242676 164.732819,134.386978 166.840118,137.378708 
	C167.829422,138.783218 168.430359,140.772873 170.973251,140.836365 
	C173.182266,135.758392 170.091736,129.587845 173.076645,124.521339 
	C175.707977,125.482445 175.405807,126.951691 175.406479,128.232712 
	C175.409836,134.727127 175.395477,141.221741 175.336060,147.715805 
	C175.324478,148.980774 175.771820,150.599686 174.177475,151.219620 
	C172.291321,151.952972 171.531235,150.283051 170.708710,149.105286 
	C168.040283,145.284378 165.484268,141.384644 162.795990,137.578079 
	C161.880997,136.282455 161.376587,134.510010 159.099335,134.008759 
	C157.199570,139.651138 159.671814,145.767715 157.509628,151.448044 
	C154.634445,149.298904 154.634445,149.298904 154.846558,130.282501 
z"/>
<path fill="#000000" opacity="1.000000" stroke="none" 
	d="
M122.308014,138.972534 
	C122.314644,150.397858 117.164673,154.592712 107.569252,151.451294 
	C107.252815,151.347687 106.919769,151.285858 106.615402,151.155624 
	C101.979271,149.171722 99.608276,135.627991 102.778435,129.263382 
	C105.076698,124.649254 113.781143,122.926689 118.803452,126.203056 
	C123.469391,129.246948 122.125275,134.115677 122.308014,138.972534 
M118.658089,136.691345 
	C118.657623,136.028168 118.684151,135.363678 118.652382,134.702011 
	C118.417984,129.819443 116.155251,127.340370 111.826065,127.463936 
	C107.232117,127.595047 105.498505,130.471893 105.391769,134.667282 
	C105.328537,137.152695 105.318130,139.642120 105.377953,142.127472 
	C105.494957,146.988846 107.380066,148.972946 111.834358,149.037262 
	C116.670700,149.107117 118.529404,147.207947 118.627014,142.075729 
	C118.655380,140.583939 118.648384,139.091461 118.658089,136.691345 
z"/>
<path fill="#000000" opacity="1.000000" stroke="none" 
	d="
M184.993378,141.933304 
	C187.300156,139.178268 186.764542,136.995956 184.973526,134.487137 
	C183.031509,131.766800 180.314484,129.348480 179.992722,125.303528 
	C184.178207,124.870201 184.842651,128.416336 186.393860,130.528732 
	C189.418900,134.648148 190.062042,134.708099 193.062759,130.476608 
	C194.593460,128.318054 195.487152,125.343666 199.065872,125.035156 
	C200.063370,128.547546 197.588928,130.606537 195.920517,132.474930 
	C192.291580,136.538773 192.220535,139.973175 195.834991,144.090729 
	C197.493210,145.979782 200.044266,147.915985 199.283005,151.877121 
	C193.967026,150.342941 193.667130,144.457733 189.634995,142.078140 
	C186.051392,144.589264 185.345703,150.145905 179.900757,152.000092 
	C179.745453,147.310440 183.275330,145.251282 184.993378,141.933304 
z"/>
</svg>