<svg version="1.1" id="Layer_1" xmlns="http://www.w3.org/2000/svg" xmlns:xlink="http://www.w3.org/1999/xlink" x="0px" y="0px"
	 width="100%" viewBox="0 0 225 225" enable-background="new 0 0 225 225" xml:space="preserve">
<path fill="#FFFEFE" opacity="1.000000" stroke="none" 
	d="
M135.000000,226.000000 
	C90.000000,226.000000 45.500004,226.000000 1.000006,226.000000 
	C1.000004,151.000000 1.000004,76.000015 1.000002,1.000016 
	C75.999992,1.000011 150.999985,1.000011 225.999969,1.000005 
	C225.999985,75.999985 225.999985,150.999969 226.000000,225.999969 
	C195.833328,226.000000 165.666672,226.000000 135.000000,226.000000 
M3.303562,142.848328 
	C3.292116,144.179840 3.271763,145.511322 3.270575,146.842850 
	C3.255187,164.094589 3.218965,164.181702 19.350756,171.017151 
	C46.805553,182.650421 74.328102,194.123779 101.786545,205.748505 
	C109.718849,209.106705 117.351761,208.173996 124.943047,204.810181 
	C147.513077,194.809036 170.097610,184.840332 192.639511,174.776154 
	C201.260529,170.927170 209.962952,167.187241 218.237885,162.680801 
	C220.742035,161.317047 223.087646,157.707306 223.484543,154.845947 
	C224.252548,149.309280 223.584656,143.573425 223.738327,137.195282 
	C223.879089,131.429443 219.053452,130.696518 215.529510,128.272232 
	C219.269363,125.990211 223.533905,124.005058 223.675186,118.806679 
	C223.828018,113.183594 223.582809,107.549706 223.744186,101.185257 
	C223.893982,98.435822 223.468063,96.301834 220.276520,95.178238 
	C217.964615,94.364304 216.028610,92.482605 214.626373,90.941872 
	C218.413574,88.545921 223.261688,86.990959 223.350479,81.374092 
	C223.441940,75.588165 223.210815,69.797150 223.439896,63.392387 
	C224.397720,57.755138 219.864563,56.697495 216.279205,55.257572 
	C207.024445,51.540741 197.624359,48.187813 188.326477,44.575874 
	C169.000458,37.068317 149.647202,29.625776 130.417786,21.876936 
	C121.031433,18.094536 111.940910,19.007990 102.862793,22.399115 
	C86.098015,28.661592 69.364471,35.009735 52.665306,41.445175 
	C38.590385,46.869293 24.538567,52.359882 10.576348,58.065338 
	C7.112006,59.480991 2.536578,60.467606 3.059959,66.924324 
	C3.053698,69.089493 3.229836,71.273415 3.009516,73.416573 
	C2.069247,82.563042 2.632439,90.953300 12.191370,95.011040 
	C8.071763,97.244286 1.734060,97.529770 3.304704,105.850517 
	C3.293321,108.473541 3.520163,111.123611 3.225963,113.714516 
	C2.337326,121.540436 3.425033,128.327881 11.000085,131.886276 
	C6.886991,134.026108 1.541086,135.242966 3.303562,142.848328 
z"/>
<path fill="#D82D21" opacity="1.000000" stroke="none" 
	d="
M3.198959,65.991089 
	C2.536578,60.467606 7.112006,59.480991 10.576348,58.065338 
	C24.538567,52.359882 38.590385,46.869293 52.665306,41.445175 
	C69.364471,35.009735 86.098015,28.661592 102.862793,22.399115 
	C111.940910,19.007990 121.031433,18.094536 130.417786,21.876936 
	C149.647202,29.625776 169.000458,37.068317 188.326477,44.575874 
	C197.624359,48.187813 207.024445,51.540741 216.279205,55.257572 
	C219.864563,56.697495 224.397720,57.755138 222.922119,63.740078 
	C218.496597,66.258080 214.726273,68.736870 210.658966,70.549034 
	C182.599533,83.050774 154.465515,95.384941 126.384338,107.838036 
	C117.890862,111.604607 109.675591,112.996407 100.572739,108.954948 
	C81.006493,100.267975 61.052540,92.457878 41.425800,83.902275 
	C28.531195,78.281311 15.930997,71.984978 3.198959,65.991089 
M165.765747,73.071312 
	C175.312469,69.390350 184.859192,65.709389 195.464096,61.620430 
	C184.548920,57.471432 174.806564,53.768230 164.320740,50.096306 
	C153.713181,54.296467 143.105637,58.496624 131.564484,63.066448 
	C141.497360,67.022408 150.058228,70.607994 158.776627,73.757507 
	C160.546722,74.396950 162.910858,73.392014 165.765747,73.071312 
M84.229362,71.935455 
	C86.668083,70.915337 89.271629,70.169380 91.513344,68.821594 
	C97.289772,65.348625 97.207146,61.021320 91.392532,57.555996 
	C89.700485,56.547592 87.832520,55.759842 85.954475,55.150574 
	C76.414978,52.055805 66.635635,52.040478 56.919792,53.762909 
	C52.766239,54.499256 48.567772,56.049911 44.885769,58.115005 
	C40.007095,60.851254 39.670238,63.911869 43.847580,67.545303 
	C49.938267,72.842949 57.953945,73.895447 65.464806,74.550377 
	C71.332420,75.062004 77.426201,72.979950 84.229362,71.935455 
M86.960960,84.094429 
	C96.226341,88.053085 105.461189,92.087029 114.796700,95.872726 
	C115.931854,96.333046 118.305786,95.966515 118.924156,95.120079 
	C123.781502,88.471191 128.350891,81.611931 133.440735,74.187798 
	C116.222672,76.815453 99.903610,79.305908 82.493530,81.962875 
	C84.488319,83.033348 85.419388,83.532997 86.960960,84.094429 
M118.258011,36.148067 
	C112.973099,34.582226 107.688194,33.016384 102.005646,31.332729 
	C103.354668,34.116707 104.607796,36.702797 106.107552,39.797848 
	C101.109634,41.713348 96.351257,43.537041 91.592888,45.360733 
	C95.378510,46.484730 99.039093,46.739632 102.699600,46.995529 
	C108.344566,47.390156 113.691025,48.164280 115.879417,54.672211 
	C116.346916,56.062447 117.774406,57.129864 119.374397,59.104828 
	C120.837570,53.094837 123.340752,48.758736 129.579407,48.365627 
	C133.429214,48.123051 137.267838,47.703163 141.111481,47.362877 
	C141.083633,47.048195 141.055771,46.733517 141.027924,46.418835 
	C136.640915,44.725613 132.253906,43.032391 127.873032,41.341534 
	C129.038406,38.053310 130.031723,35.250557 131.207794,31.932135 
	C126.596886,33.467766 122.835342,34.720520 118.258011,36.148067 
z"/>
<path fill="#A41E11" opacity="1.000000" stroke="none" 
	d="
M11.702583,131.809769 
	C3.425033,128.327881 2.337326,121.540436 3.225963,113.714516 
	C3.520163,111.123611 3.293321,108.473541 3.733949,105.441910 
	C13.810497,109.408287 23.384424,113.954628 33.119995,118.123489 
	C55.083565,127.528519 77.160561,136.668716 99.121506,146.079758 
	C107.857567,149.823456 116.392616,150.327438 125.037193,146.025146 
	C127.399040,144.849701 129.849731,143.851654 132.266861,142.788589 
	C154.750763,132.900116 177.260117,123.068977 199.708466,113.100525 
	C207.718140,109.543724 215.581223,105.656784 223.511200,101.920532 
	C223.582809,107.549706 223.828018,113.183594 223.675186,118.806679 
	C223.533905,124.005058 219.269363,125.990211 215.035950,128.636398 
	C185.216980,141.914398 155.837128,154.706818 126.598770,167.814880 
	C117.643059,171.829865 109.189041,172.855759 99.907570,168.634308 
	C85.409325,162.040115 70.609848,156.103882 55.898617,149.983551 
	C41.191792,143.865082 26.436583,137.862915 11.702583,131.809769 
z"/>
<path fill="#A41E11" opacity="1.000000" stroke="none" 
	d="
M3.129458,66.457703 
	C15.930997,71.984978 28.531195,78.281311 41.425800,83.902275 
	C61.052540,92.457878 81.006493,100.267975 100.572739,108.954948 
	C109.675591,112.996407 117.890862,111.604607 126.384338,107.838036 
	C154.465515,95.384941 182.599533,83.050774 210.658966,70.549034 
	C214.726273,68.736870 218.496597,66.258080 222.762589,64.048065 
	C223.210815,69.797150 223.441940,75.588165 223.350479,81.374092 
	C223.261688,86.990959 218.413574,88.545921 213.958237,91.118713 
	C213.003769,91.464989 212.731201,91.665428 212.429153,91.799454 
	C182.402802,105.123032 152.412247,118.528625 122.311127,131.681137 
	C116.819214,134.080795 110.836113,135.304947 104.871651,132.823044 
	C82.200493,123.389175 59.562466,113.875549 36.881256,104.465965 
	C28.935930,101.169746 20.901823,98.087517 12.908257,94.907578 
	C2.632439,90.953300 2.069247,82.563042 3.009516,73.416573 
	C3.229836,71.273415 3.053698,69.089493 3.129458,66.457703 
z"/>
<path fill="#A41E12" opacity="1.000000" stroke="none" 
	d="
M223.511902,137.920135 
	C223.584656,143.573425 224.252548,149.309280 223.484543,154.845947 
	C223.087646,157.707306 220.742035,161.317047 218.237885,162.680801 
	C209.962952,167.187241 201.260529,170.927170 192.639511,174.776154 
	C170.097610,184.840332 147.513077,194.809036 124.943047,204.810181 
	C117.351761,208.173996 109.718849,209.106705 101.786545,205.748505 
	C74.328102,194.123779 46.805553,182.650421 19.350756,171.017151 
	C3.218965,164.181702 3.255187,164.094589 3.270575,146.842850 
	C3.271763,145.511322 3.292116,144.179840 3.752011,142.417862 
	C8.078456,143.781433 11.909409,145.686584 15.841993,147.351685 
	C43.670525,159.134689 71.574310,170.741989 99.332825,182.687149 
	C108.904037,186.805878 117.911568,186.554611 126.959801,181.579880 
	C129.430023,180.221771 132.040131,179.106827 134.627213,177.974350 
	C156.993179,168.183945 179.404999,158.497177 201.720520,148.593323 
	C209.108154,145.314621 216.254974,141.493347 223.511902,137.920135 
z"/>
<path fill="#D72D21" opacity="1.000000" stroke="none" 
	d="
M12.549813,94.959305 
	C20.901823,98.087517 28.935930,101.169746 36.881256,104.465965 
	C59.562466,113.875549 82.200493,123.389175 104.871651,132.823044 
	C110.836113,135.304947 116.819214,134.080795 122.311127,131.681137 
	C152.412247,118.528625 182.402802,105.123032 212.429153,91.799454 
	C212.731201,91.665428 213.003769,91.464989 213.607544,91.186302 
	C216.028610,92.482605 217.964615,94.364304 220.276520,95.178238 
	C223.468063,96.301834 223.893982,98.435822 223.627686,101.552895 
	C215.581223,105.656784 207.718140,109.543724 199.708466,113.100525 
	C177.260117,123.068977 154.750763,132.900116 132.266861,142.788589 
	C129.849731,143.851654 127.399040,144.849701 125.037193,146.025146 
	C116.392616,150.327438 107.857567,149.823456 99.121506,146.079758 
	C77.160561,136.668716 55.083565,127.528519 33.119995,118.123489 
	C23.384424,113.954628 13.810497,109.408287 3.826000,104.977364 
	C1.734060,97.529770 8.071763,97.244286 12.549813,94.959305 
z"/>
<path fill="#D72D21" opacity="1.000000" stroke="none" 
	d="
M223.625122,137.557709 
	C216.254974,141.493347 209.108154,145.314621 201.720520,148.593323 
	C179.404999,158.497177 156.993179,168.183945 134.627213,177.974350 
	C132.040131,179.106827 129.430023,180.221771 126.959801,181.579880 
	C117.911568,186.554611 108.904037,186.805878 99.332825,182.687149 
	C71.574310,170.741989 43.670525,159.134689 15.841993,147.351685 
	C11.909409,145.686584 8.078456,143.781433 3.844296,141.953644 
	C1.541086,135.242966 6.886991,134.026108 11.351334,131.848022 
	C26.436583,137.862915 41.191792,143.865082 55.898617,149.983551 
	C70.609848,156.103882 85.409325,162.040115 99.907570,168.634308 
	C109.189041,172.855759 117.643059,171.829865 126.598770,167.814880 
	C155.837128,154.706818 185.216980,141.914398 214.923340,128.936630 
	C219.053452,130.696518 223.879089,131.429443 223.625122,137.557709 
z"/>
<path fill="#FEFBFB" opacity="1.000000" stroke="none" 
	d="
M83.824417,71.992920 
	C77.426201,72.979950 71.332420,75.062004 65.464806,74.550377 
	C57.953945,73.895447 49.938267,72.842949 43.847580,67.545303 
	C39.670238,63.911869 40.007095,60.851254 44.885769,58.115005 
	C48.567772,56.049911 52.766239,54.499256 56.919792,53.762909 
	C66.635635,52.040478 76.414978,52.055805 85.954475,55.150574 
	C87.832520,55.759842 89.700485,56.547592 91.392532,57.555996 
	C97.207146,61.021320 97.289772,65.348625 91.513344,68.821594 
	C89.271629,70.169380 86.668083,70.915337 83.824417,71.992920 
z"/>
<path fill="#FEF9F8" opacity="1.000000" stroke="none" 
	d="
M86.655708,84.063538 
	C85.419388,83.532997 84.488319,83.033348 82.493530,81.962875 
	C99.903610,79.305908 116.222672,76.815453 133.440735,74.187798 
	C128.350891,81.611931 123.781502,88.471191 118.924156,95.120079 
	C118.305786,95.966515 115.931854,96.333046 114.796700,95.872726 
	C105.461189,92.087029 96.226341,88.053085 86.655708,84.063538 
z"/>
<path fill="#FDF6F6" opacity="1.000000" stroke="none" 
	d="
M118.665909,36.060673 
	C122.835342,34.720520 126.596886,33.467766 131.207794,31.932135 
	C130.031723,35.250557 129.038406,38.053310 127.873032,41.341534 
	C132.253906,43.032391 136.640915,44.725613 141.027924,46.418835 
	C141.055771,46.733517 141.083633,47.048195 141.111481,47.362877 
	C137.267838,47.703163 133.429214,48.123051 129.579407,48.365627 
	C123.340752,48.758736 120.837570,53.094837 119.374397,59.104828 
	C117.774406,57.129864 116.346916,56.062447 115.879417,54.672211 
	C113.691025,48.164280 108.344566,47.390156 102.699600,46.995529 
	C99.039093,46.739632 95.378510,46.484730 91.592888,45.360733 
	C96.351257,43.537041 101.109634,41.713348 106.107552,39.797848 
	C104.607796,36.702797 103.354668,34.116707 102.005646,31.332729 
	C107.688194,33.016384 112.973099,34.582226 118.665909,36.060673 
z"/>
<path fill="#AE2115" opacity="1.000000" stroke="none" 
	d="
M165.001129,73.145142 
	C162.910858,73.392014 160.546722,74.396950 158.776627,73.757507 
	C150.058228,70.607994 141.497360,67.022408 131.564484,63.066448 
	C143.105637,58.496624 153.713181,54.296467 164.667465,50.542221 
	C165.009842,58.373806 165.005478,65.759476 165.001129,73.145142 
z"/>
<path fill="#7B0C01" opacity="1.000000" stroke="none" 
	d="
M165.383438,73.108231 
	C165.005478,65.759476 165.009842,58.373806 165.039185,50.526581 
	C174.806564,53.768230 184.548920,57.471432 195.464096,61.620430 
	C184.859192,65.709389 175.312469,69.390350 165.383438,73.108231 
z"/>
</svg>