<svg version="1.1" id="Layer_1" xmlns="http://www.w3.org/2000/svg" xmlns:xlink="http://www.w3.org/1999/xlink" x="0px" y="0px"
	 width="100%" viewBox="0 0 224 224" enable-background="new 0 0 224 224" xml:space="preserve">
<path fill="#F8F8F7" opacity="1.000000" stroke="none" 
	d="
M225.000000,51.000000 
	C225.000000,108.971252 225.000000,166.942505 225.000000,224.956879 
	C150.399109,224.956879 75.798180,224.956879 1.098627,224.956879 
	C1.098627,150.436203 1.098627,75.872238 1.098627,1.154136 
	C75.666428,1.154136 150.333176,1.154136 225.000000,1.154136 
	C225.000000,13.074537 225.000000,25.068609 224.663208,37.307648 
	C221.452499,38.701702 218.604889,40.738400 215.699524,40.824409 
	C208.538010,41.036423 202.462128,42.971928 197.723816,49.334671 
	C195.957214,42.210293 191.211197,38.919830 185.260056,36.989635 
	C180.925766,35.583851 176.831955,34.064392 174.567703,29.513117 
	C174.039780,28.451902 171.832077,27.661339 170.493484,27.785311 
	C169.719543,27.856991 168.338593,30.222017 168.600037,31.182003 
	C170.229675,37.165718 171.054321,43.882732 174.462677,48.726364 
	C178.019089,53.780415 184.188171,56.995998 189.655121,61.367218 
	C188.002167,63.145416 186.017838,66.154678 183.272964,68.079239 
	C172.278641,75.787857 160.193985,73.988777 148.855469,69.844490 
	C135.478989,64.955315 122.433289,58.954857 109.730179,52.482338 
	C94.161880,44.549953 78.341934,39.171806 60.525009,40.882259 
	C53.094288,41.595623 45.537987,40.988838 38.038837,41.004230 
	C25.758501,41.029438 16.814743,49.238960 16.185963,61.537125 
	C15.803567,69.016327 15.873100,76.534912 16.099567,84.024925 
	C16.393984,93.762291 21.304379,100.782455 30.029335,104.829453 
	C43.585556,111.117401 57.183952,117.337402 70.953964,123.136230 
	C93.035828,132.435333 115.925812,134.334045 139.408707,129.665710 
	C157.973755,125.975014 174.229752,116.927849 190.425171,107.764702 
	C197.939636,103.513107 205.317520,99.015907 212.690125,94.519852 
	C215.724335,92.669502 216.578842,89.812202 214.630051,86.815842 
	C212.541870,83.605202 209.973007,84.385010 206.895401,86.085754 
	C190.342865,95.233047 173.975464,104.808212 156.926300,112.940376 
	C135.929443,122.955521 113.489830,124.142891 91.071587,118.788651 
	C69.769470,113.700966 50.700867,102.827797 31.171040,93.301094 
	C29.380980,92.427902 28.177820,90.351555 26.118538,88.233719 
	C44.323505,87.448708 60.984165,87.119865 76.544685,95.679947 
	C88.081619,102.026573 100.882652,104.477829 113.994270,104.833496 
	C133.361389,105.358849 151.639496,100.593086 168.828323,92.040398 
	C181.934753,85.518990 193.632401,77.106026 199.742508,62.924149 
	C200.086914,62.124786 201.418915,61.192608 202.236954,61.240952 
	C211.648468,61.797146 218.722260,57.317123 225.000000,51.000000 
M62.347141,133.186737 
	C50.146687,124.862068 38.016514,116.430420 25.673452,108.322861 
	C23.720043,107.039757 20.204542,106.114090 18.508434,107.037796 
	C16.867199,107.931618 15.820779,111.460182 15.920639,113.770645 
	C16.957153,137.752594 25.552114,159.090225 41.624321,176.604202 
	C73.646362,211.498825 126.189720,220.961243 168.257065,193.896805 
	C196.898407,175.470123 212.047852,148.838974 214.732132,115.064735 
	C214.944839,112.388268 214.166321,108.015091 212.502335,107.208931 
	C210.326920,106.154991 206.331940,107.084557 203.951248,108.530167 
	C193.041443,115.154816 182.272614,122.038467 171.725403,129.228470 
	C136.328568,153.358368 100.104866,154.368225 62.347141,133.186737 
z"/>
<path fill="#060606" opacity="1.000000" stroke="none" 
	d="
M225.000000,50.536816 
	C218.722260,57.317123 211.648468,61.797146 202.236954,61.240952 
	C201.418915,61.192608 200.086914,62.124786 199.742508,62.924149 
	C193.632401,77.106026 181.934753,85.518990 168.828323,92.040398 
	C151.639496,100.593086 133.361389,105.358849 113.994270,104.833496 
	C100.882652,104.477829 88.081619,102.026573 76.544685,95.679947 
	C60.984165,87.119865 44.323505,87.448708 26.118538,88.233719 
	C28.177820,90.351555 29.380980,92.427902 31.171040,93.301094 
	C50.700867,102.827797 69.769470,113.700966 91.071587,118.788651 
	C113.489830,124.142891 135.929443,122.955521 156.926300,112.940376 
	C173.975464,104.808212 190.342865,95.233047 206.895401,86.085754 
	C209.973007,84.385010 212.541870,83.605202 214.630051,86.815842 
	C216.578842,89.812202 215.724335,92.669502 212.690125,94.519852 
	C205.317520,99.015907 197.939636,103.513107 190.425171,107.764702 
	C174.229752,116.927849 157.973755,125.975014 139.408707,129.665710 
	C115.925812,134.334045 93.035828,132.435333 70.953964,123.136230 
	C57.183952,117.337402 43.585556,111.117401 30.029335,104.829453 
	C21.304379,100.782455 16.393984,93.762291 16.099567,84.024925 
	C15.873100,76.534912 15.803567,69.016327 16.185963,61.537125 
	C16.814743,49.238960 25.758501,41.029438 38.038837,41.004230 
	C45.537987,40.988838 53.094288,41.595623 60.525009,40.882259 
	C78.341934,39.171806 94.161880,44.549953 109.730179,52.482338 
	C122.433289,58.954857 135.478989,64.955315 148.855469,69.844490 
	C160.193985,73.988777 172.278641,75.787857 183.272964,68.079239 
	C186.017838,66.154678 188.002167,63.145416 189.655121,61.367218 
	C184.188171,56.995998 178.019089,53.780415 174.462677,48.726364 
	C171.054321,43.882732 170.229675,37.165718 168.600037,31.182003 
	C168.338593,30.222017 169.719543,27.856991 170.493484,27.785311 
	C171.832077,27.661339 174.039780,28.451902 174.567703,29.513117 
	C176.831955,34.064392 180.925766,35.583851 185.260056,36.989635 
	C191.211197,38.919830 195.957214,42.210293 197.723816,49.334671 
	C202.462128,42.971928 208.538010,41.036423 215.699524,40.824409 
	C218.604889,40.738400 221.452499,38.701702 224.663208,37.776306 
	C225.000000,42.024544 225.000000,46.049088 225.000000,50.536816 
M112.582207,94.058884 
	C131.040985,94.834602 155.187775,89.344330 159.959702,83.993210 
	C152.264587,81.456116 143.890793,79.334236 136.048950,75.971786 
	C121.409523,69.694679 107.182083,62.459244 92.565140,56.125885 
	C87.338936,53.861420 81.540970,52.136047 75.900208,51.771851 
	C64.278786,51.021515 52.587597,51.273899 40.924965,51.262074 
	C29.616425,51.250603 26.154573,54.731167 25.975508,66.191917 
	C25.790976,78.002327 24.232664,77.985580 37.009220,77.538734 
	C52.587067,76.993919 67.312119,79.083626 81.349991,86.609756 
	C90.593506,91.565498 100.957947,93.868301 112.582207,94.058884 
z"/>
<path fill="#060606" opacity="1.000000" stroke="none" 
	d="
M62.652145,133.389191 
	C100.104866,154.368225 136.328568,153.358368 171.725403,129.228470 
	C182.272614,122.038467 193.041443,115.154816 203.951248,108.530167 
	C206.331940,107.084557 210.326920,106.154991 212.502335,107.208931 
	C214.166321,108.015091 214.944839,112.388268 214.732132,115.064735 
	C212.047852,148.838974 196.898407,175.470123 168.257065,193.896805 
	C126.189720,220.961243 73.646362,211.498825 41.624321,176.604202 
	C25.552114,159.090225 16.957153,137.752594 15.920639,113.770645 
	C15.820779,111.460182 16.867199,107.931618 18.508434,107.037796 
	C20.204542,106.114090 23.720043,107.039757 25.673452,108.322861 
	C38.016514,116.430420 50.146687,124.862068 62.652145,133.389191 
M90.187706,170.388596 
	C119.677666,177.090164 146.990631,173.037140 171.234146,153.933075 
	C180.098389,146.947998 188.600327,139.443039 197.887283,133.079742 
	C202.563461,129.875687 203.627136,126.119621 204.161972,120.221893 
	C193.918777,127.140732 184.573196,133.716583 174.970581,139.892838 
	C137.795776,163.803040 99.525543,165.180420 60.775341,144.240707 
	C49.027966,137.892700 38.215061,129.815399 26.974136,122.530174 
	C27.558983,126.056908 28.375223,130.096222 30.823389,132.405319 
	C36.477554,137.738281 42.855373,142.321106 49.061779,147.047867 
	C61.487976,156.511581 73.739693,166.316849 90.187706,170.388596 
M190.348816,152.661438 
	C187.187057,155.083344 183.937241,157.399414 180.878006,159.944565 
	C162.921326,174.883682 142.353394,183.119034 118.973846,184.037888 
	C93.720284,185.030365 71.240570,177.492172 51.422714,161.832474 
	C46.989811,158.329666 42.353840,155.083878 37.811356,151.719757 
	C51.494598,181.141800 89.233688,204.518326 130.733521,197.900391 
	C162.750092,192.794739 191.965683,163.261475 193.497314,150.499573 
	C192.491913,151.153061 191.707184,151.663132 190.348816,152.661438 
z"/>
<path fill="#F5F5F4" opacity="1.000000" stroke="none" 
	d="
M112.097328,94.056259 
	C100.957947,93.868301 90.593506,91.565498 81.349991,86.609756 
	C67.312119,79.083626 52.587067,76.993919 37.009220,77.538734 
	C24.232664,77.985580 25.790976,78.002327 25.975508,66.191917 
	C26.154573,54.731167 29.616425,51.250603 40.924965,51.262074 
	C52.587597,51.273899 64.278786,51.021515 75.900208,51.771851 
	C81.540970,52.136047 87.338936,53.861420 92.565140,56.125885 
	C107.182083,62.459244 121.409523,69.694679 136.048950,75.971786 
	C143.890793,79.334236 152.264587,81.456116 159.959702,83.993210 
	C155.187775,89.344330 131.040985,94.834602 112.097328,94.056259 
M55.811226,69.788666 
	C58.331184,71.808792 60.993832,71.764778 62.642780,69.086678 
	C63.568935,67.582489 64.003899,64.407883 63.106621,63.466362 
	C61.725861,62.017513 58.533451,60.701630 56.957325,61.359669 
	C53.530975,62.790180 53.133938,65.992081 55.811226,69.788666 
z"/>
<path fill="#F3F3F2" opacity="1.000000" stroke="none" 
	d="
M89.801193,170.249603 
	C73.739693,166.316849 61.487976,156.511581 49.061779,147.047867 
	C42.855373,142.321106 36.477554,137.738281 30.823389,132.405319 
	C28.375223,130.096222 27.558983,126.056908 26.974136,122.530174 
	C38.215061,129.815399 49.027966,137.892700 60.775341,144.240707 
	C99.525543,165.180420 137.795776,163.803040 174.970581,139.892838 
	C184.573196,133.716583 193.918777,127.140732 204.161972,120.221893 
	C203.627136,126.119621 202.563461,129.875687 197.887283,133.079742 
	C188.600327,139.443039 180.098389,146.947998 171.234146,153.933075 
	C146.990631,173.037140 119.677666,177.090164 89.801193,170.249603 
z"/>
<path fill="#F2F2F1" opacity="1.000000" stroke="none" 
	d="
M190.635620,152.417328 
	C191.707184,151.663132 192.491913,151.153061 193.497314,150.499573 
	C191.965683,163.261475 162.750092,192.794739 130.733521,197.900391 
	C89.233688,204.518326 51.494598,181.141800 37.811356,151.719757 
	C42.353840,155.083878 46.989811,158.329666 51.422714,161.832474 
	C71.240570,177.492172 93.720284,185.030365 118.973846,184.037888 
	C142.353394,183.119034 162.921326,174.883682 180.878006,159.944565 
	C183.937241,157.399414 187.187057,155.083344 190.635620,152.417328 
z"/>
<path fill="#0A0A0A" opacity="1.000000" stroke="none" 
	d="
M55.543495,69.499283 
	C53.133938,65.992081 53.530975,62.790180 56.957325,61.359669 
	C58.533451,60.701630 61.725861,62.017513 63.106621,63.466362 
	C64.003899,64.407883 63.568935,67.582489 62.642780,69.086678 
	C60.993832,71.764778 58.331184,71.808792 55.543495,69.499283 
z"/>
</svg>