<svg version="1.1" id="Layer_1" xmlns="http://www.w3.org/2000/svg" xmlns:xlink="http://www.w3.org/1999/xlink" x="0px" y="0px"
	 width="100%" viewBox="0 0 225 225" enable-background="new 0 0 225 225" xml:space="preserve">
<path fill="#FEFEFE" opacity="1.000000" stroke="none" 
	d="
M148.000000,226.000000 
	C98.666672,226.000000 49.833340,226.000000 1.000006,226.000000 
	C1.000004,151.000000 1.000004,76.000015 1.000002,1.000017 
	C75.999992,1.000011 150.999985,1.000011 225.999969,1.000005 
	C225.999985,75.999985 225.999985,150.999969 226.000000,225.999969 
	C200.166672,226.000000 174.333328,226.000000 148.000000,226.000000 
M121.265015,14.987201 
	C113.794319,15.273876 106.247696,14.977962 98.865044,15.940175 
	C43.970131,23.094860 5.190283,78.052811 16.508617,132.346741 
	C27.516359,185.150742 74.489441,218.299728 128.174393,211.149460 
	C182.796402,203.874390 221.628860,149.215836 210.617676,95.106491 
	C201.616928,50.876347 167.997818,20.415964 121.265015,14.987201 
z"/>
<path fill="#010101" opacity="1.000000" stroke="none" 
	d="
M121.735535,14.994439 
	C167.997818,20.415964 201.616928,50.876347 210.617676,95.106491 
	C221.628860,149.215836 182.796402,203.874390 128.174393,211.149460 
	C74.489441,218.299728 27.516359,185.150742 16.508617,132.346741 
	C5.190283,78.052811 43.970131,23.094860 98.865044,15.940175 
	C106.247696,14.977962 113.794319,15.273876 121.735535,14.994439 
M130.354782,81.108307 
	C127.606491,74.527328 124.736664,67.993439 122.160950,61.345604 
	C120.864166,57.998661 119.254425,55.232971 115.300209,55.167805 
	C111.107635,55.098713 109.401604,58.040272 107.978363,61.482101 
	C98.282784,84.928894 88.499123,108.339264 78.741623,131.760452 
	C74.431915,142.105164 70.116913,152.447662 65.565323,163.364395 
	C69.520798,163.364395 72.822693,163.129532 76.075233,163.429565 
	C79.417961,163.737915 80.960159,162.608170 82.191566,159.358444 
	C87.053131,146.528671 92.311287,133.849167 97.555305,120.782600 
	C98.583824,121.484505 99.419228,121.973534 100.164009,122.574814 
	C115.834808,135.226273 131.489365,147.897858 147.168198,160.539337 
	C148.583588,161.680511 150.123291,163.469284 151.639404,163.504913 
	C154.228409,163.565735 158.026794,163.293533 159.154602,161.664230 
	C160.615967,159.553040 161.027908,155.546387 160.046280,153.094528 
	C150.493973,129.235153 140.555832,105.530273 130.354782,81.108307 
z"/>
<path fill="#FAFAFA" opacity="1.000000" stroke="none" 
	d="
M130.541214,81.444832 
	C140.555832,105.530273 150.493973,129.235153 160.046280,153.094528 
	C161.027908,155.546387 160.615967,159.553040 159.154602,161.664230 
	C158.026794,163.293533 154.228409,163.565735 151.639404,163.504913 
	C150.123291,163.469284 148.583588,161.680511 147.168198,160.539337 
	C131.489365,147.897858 115.834808,135.226273 100.164009,122.574814 
	C99.419228,121.973534 98.583824,121.484505 97.555305,120.782600 
	C92.311287,133.849167 87.053131,146.528671 82.191566,159.358444 
	C80.960159,162.608170 79.417961,163.737915 76.075233,163.429565 
	C72.822693,163.129532 69.520798,163.364395 65.565323,163.364395 
	C70.116913,152.447662 74.431915,142.105164 78.741623,131.760452 
	C88.499123,108.339264 98.282784,84.928894 107.978363,61.482101 
	C109.401604,58.040272 111.107635,55.098713 115.300209,55.167805 
	C119.254425,55.232971 120.864166,57.998661 122.160950,61.345604 
	C124.736664,67.993439 127.606491,74.527328 130.541214,81.444832 
M138.913712,137.759781 
	C139.180084,137.658051 139.446472,137.556335 139.712845,137.454620 
	C139.514282,137.266006 139.315720,137.077393 139.174286,136.134613 
	C131.336700,116.670845 123.499107,97.207077 115.651939,77.719536 
	C115.232658,77.957275 114.784454,78.051704 114.687653,78.289307 
	C110.759880,87.929276 106.796600,97.556412 103.073349,107.275406 
	C102.722282,108.191833 103.543785,110.152168 104.432411,110.858604 
	C115.726051,119.836815 127.131691,128.674149 138.913712,137.759781 
z"/>
<path fill="#050505" opacity="1.000000" stroke="none" 
	d="
M138.508820,137.547348 
	C127.131691,128.674149 115.726051,119.836815 104.432411,110.858604 
	C103.543785,110.152168 102.722282,108.191833 103.073349,107.275406 
	C106.796600,97.556412 110.759880,87.929276 114.687653,78.289307 
	C114.784454,78.051704 115.232658,77.957275 115.651939,77.719536 
	C123.499107,97.207077 131.336700,116.670845 138.987808,136.670959 
	C138.801331,137.207291 138.508820,137.547348 138.508820,137.547348 
z"/>
<path fill="#050505" opacity="1.000000" stroke="none" 
	d="
M138.959259,137.048035 
	C139.315720,137.077393 139.514282,137.266006 139.712845,137.454620 
	C139.446472,137.556335 139.180084,137.658051 138.711273,137.653564 
	C138.508820,137.547348 138.801331,137.207291 138.959259,137.048035 
z"/>
</svg>