<svg version="1.1" id="Layer_1" xmlns="http://www.w3.org/2000/svg" xmlns:xlink="http://www.w3.org/1999/xlink" x="0px" y="0px"
	 width="100%" viewBox="0 0 225 225" enable-background="new 0 0 225 225" xml:space="preserve">
<path fill="#FEFFFF" opacity="1.000000" stroke="none" 
	d="
M149.000000,226.000000 
	C99.333336,226.000000 50.166672,226.000000 1.000007,226.000000 
	C1.000004,151.000000 1.000004,76.000015 1.000002,1.000017 
	C75.999992,1.000011 150.999985,1.000011 225.999969,1.000006 
	C225.999985,75.999985 225.999985,150.999969 226.000000,225.999969 
	C200.500000,226.000000 175.000000,226.000000 149.000000,226.000000 
M145.481415,112.135605 
	C101.403259,112.135605 57.325104,112.135605 13.363924,112.135605 
	C8.920690,145.715485 26.968473,173.841721 57.559048,181.686737 
	C70.313484,184.957626 83.295601,184.713058 96.282303,183.175262 
	C135.017014,178.588577 164.068741,160.041931 180.957367,124.172806 
	C182.409927,121.087791 183.913971,119.797707 187.503403,119.605515 
	C201.708893,118.844887 210.060532,112.485649 214.002182,99.994621 
	C206.317932,93.199341 196.990997,93.745102 187.701187,94.332535 
	C183.400558,82.311752 178.546509,76.287460 169.686188,72.116585 
	C161.123581,83.393890 159.436417,95.491249 165.338684,108.664391 
	C159.456970,112.501976 152.927109,112.123550 145.481415,112.135605 
M122.962784,51.514774 
	C122.962784,48.745026 122.962784,45.975273 122.962784,43.252182 
	C115.644806,43.252182 108.938698,43.252182 102.403336,43.252182 
	C102.403336,49.673698 102.403336,55.722450 102.403336,61.652416 
	C109.381775,61.652416 115.965607,61.652416 122.962776,61.652416 
	C122.962776,58.412853 122.962776,55.452393 122.962784,51.514774 
M58.573051,65.820229 
	C56.801720,65.820229 55.030384,65.820229 53.284470,65.820229 
	C53.284470,72.458321 53.284470,78.483086 53.284470,84.348480 
	C60.274536,84.348480 66.829254,84.348480 73.328621,84.348480 
	C73.328621,78.003563 73.328621,72.082092 73.328621,65.820145 
	C68.515709,65.820145 64.034203,65.820145 58.573051,65.820229 
M98.144417,67.655411 
	C97.525604,67.052650 96.917778,65.939842 96.286285,65.926262 
	C90.165665,65.794510 84.041084,65.847137 77.762222,65.847137 
	C77.762222,72.354225 77.762222,78.402176 77.762222,84.418594 
	C84.714066,84.418594 91.288841,84.418594 98.167671,84.418594 
	C98.167671,78.927055 98.167671,73.778542 98.144417,67.655411 
M113.472504,84.758049 
	C116.560043,84.758049 119.647575,84.758049 122.661537,84.758049 
	C122.661537,78.037933 122.661537,72.113052 122.661537,66.207443 
	C115.639488,66.207443 108.932938,66.207443 102.311340,66.207443 
	C102.311340,72.506622 102.311340,78.419220 102.311340,84.757874 
	C105.905952,84.757874 109.202309,84.757874 113.472504,84.758049 
M65.379906,88.528572 
	C61.303726,88.528572 57.227547,88.528572 53.249619,88.528572 
	C53.249619,95.159424 53.249619,101.042633 53.249619,106.761810 
	C60.191139,106.761810 66.742233,106.761810 73.399078,106.761810 
	C73.399078,100.643318 73.399078,94.897453 73.399078,88.529175 
	C70.882683,88.529175 68.606674,88.529175 65.379906,88.528572 
M83.733093,88.526413 
	C81.790565,88.526413 79.848038,88.526413 77.721298,88.526413 
	C77.721298,95.019531 77.721298,100.900742 77.721298,106.845627 
	C84.604256,106.845627 91.169487,106.845627 97.853134,106.845627 
	C97.853134,100.682274 97.853134,94.809669 97.853134,88.526993 
	C93.258682,88.526993 88.965500,88.526993 83.733093,88.526413 
M147.662445,90.155258 
	C147.110825,89.641426 146.566605,88.690224 146.006454,88.680763 
	C139.736145,88.574692 133.463394,88.613762 127.233078,88.613762 
	C127.233078,95.074974 127.233078,100.973854 127.233078,106.787598 
	C134.171738,106.787598 140.741150,106.787598 147.702957,106.787598 
	C147.702957,101.319534 147.702957,96.185364 147.662445,90.155258 
M41.448940,107.128632 
	C43.871292,107.128632 46.293648,107.128632 48.752159,107.128632 
	C48.752159,100.678162 48.752159,94.919937 48.752159,89.037506 
	C41.805775,89.037506 35.115669,89.037506 28.365088,89.037506 
	C28.365088,95.163544 28.365088,100.914764 28.365088,107.128685 
	C32.556713,107.128685 36.512779,107.128685 41.448940,107.128632 
M107.593857,107.138817 
	C112.645065,107.138817 117.696266,107.138817 122.687317,107.138817 
	C122.687317,100.608429 122.687317,94.875214 122.687317,88.995972 
	C115.736053,88.995972 109.060333,88.995972 102.352676,88.995972 
	C102.352676,95.181702 102.352676,101.042328 102.352676,107.138832 
	C103.998459,107.138832 105.308640,107.138832 107.593857,107.138817 
z"/>
<path fill="#0A9CEC" opacity="1.000000" stroke="none" 
	d="
M145.976685,112.135635 
	C152.927109,112.123550 159.456970,112.501976 165.338684,108.664391 
	C159.436417,95.491249 161.123581,83.393890 169.686188,72.116585 
	C178.546509,76.287460 183.400558,82.311752 187.701187,94.332535 
	C196.990997,93.745102 206.317932,93.199341 214.002182,99.994621 
	C210.060532,112.485649 201.708893,118.844887 187.503403,119.605515 
	C183.913971,119.797707 182.409927,121.087791 180.957367,124.172806 
	C164.068741,160.041931 135.017014,178.588577 96.282303,183.175262 
	C83.295601,184.713058 70.313484,184.957626 57.559048,181.686737 
	C26.968473,173.841721 8.920690,145.715485 13.363924,112.135605 
	C57.325104,112.135605 101.403259,112.135605 145.976685,112.135635 
z"/>
<path fill="#0C9DEC" opacity="1.000000" stroke="none" 
	d="
M122.962784,52.003349 
	C122.962776,55.452393 122.962776,58.412853 122.962776,61.652416 
	C115.965607,61.652416 109.381775,61.652416 102.403336,61.652416 
	C102.403336,55.722450 102.403336,49.673698 102.403336,43.252182 
	C108.938698,43.252182 115.644806,43.252182 122.962784,43.252182 
	C122.962784,45.975273 122.962784,48.745026 122.962784,52.003349 
z"/>
<path fill="#119FED" opacity="1.000000" stroke="none" 
	d="
M59.062874,65.820190 
	C64.034203,65.820145 68.515709,65.820145 73.328621,65.820145 
	C73.328621,72.082092 73.328621,78.003563 73.328621,84.348480 
	C66.829254,84.348480 60.274536,84.348480 53.284470,84.348480 
	C53.284470,78.483086 53.284470,72.458321 53.284470,65.820229 
	C55.030384,65.820229 56.801720,65.820229 59.062874,65.820190 
z"/>
<path fill="#129FEC" opacity="1.000000" stroke="none" 
	d="
M98.156044,68.142715 
	C98.167671,73.778542 98.167671,78.927055 98.167671,84.418594 
	C91.288841,84.418594 84.714066,84.418594 77.762222,84.418594 
	C77.762222,78.402176 77.762222,72.354225 77.762222,65.847137 
	C84.041084,65.847137 90.165665,65.794510 96.286285,65.926262 
	C96.917778,65.939842 97.525604,67.052650 98.156044,68.142715 
z"/>
<path fill="#0F9EEC" opacity="1.000000" stroke="none" 
	d="
M112.985580,84.757965 
	C109.202309,84.757874 105.905952,84.757874 102.311340,84.757874 
	C102.311340,78.419220 102.311340,72.506622 102.311340,66.207443 
	C108.932938,66.207443 115.639488,66.207443 122.661537,66.207443 
	C122.661537,72.113052 122.661537,78.037933 122.661537,84.758049 
	C119.647575,84.758049 116.560043,84.758049 112.985580,84.757965 
z"/>
<path fill="#0D9DEC" opacity="1.000000" stroke="none" 
	d="
M65.855286,88.528870 
	C68.606674,88.529175 70.882683,88.529175 73.399078,88.529175 
	C73.399078,94.897453 73.399078,100.643318 73.399078,106.761810 
	C66.742233,106.761810 60.191139,106.761810 53.249619,106.761810 
	C53.249619,101.042633 53.249619,95.159424 53.249619,88.528572 
	C57.227547,88.528572 61.303726,88.528572 65.855286,88.528870 
z"/>
<path fill="#0D9DEC" opacity="1.000000" stroke="none" 
	d="
M84.202698,88.526703 
	C88.965500,88.526993 93.258682,88.526993 97.853134,88.526993 
	C97.853134,94.809669 97.853134,100.682274 97.853134,106.845627 
	C91.169487,106.845627 84.604256,106.845627 77.721298,106.845627 
	C77.721298,100.900742 77.721298,95.019531 77.721298,88.526413 
	C79.848038,88.526413 81.790565,88.526413 84.202698,88.526703 
z"/>
<path fill="#0C9DEC" opacity="1.000000" stroke="none" 
	d="
M147.682709,90.603226 
	C147.702957,96.185364 147.702957,101.319534 147.702957,106.787598 
	C140.741150,106.787598 134.171738,106.787598 127.233078,106.787598 
	C127.233078,100.973854 127.233078,95.074974 127.233078,88.613762 
	C133.463394,88.613762 139.736145,88.574692 146.006454,88.680763 
	C146.566605,88.690224 147.110825,89.641426 147.682709,90.603226 
z"/>
<path fill="#0B9CEC" opacity="1.000000" stroke="none" 
	d="
M40.958893,107.128662 
	C36.512779,107.128685 32.556713,107.128685 28.365088,107.128685 
	C28.365088,100.914764 28.365088,95.163544 28.365088,89.037506 
	C35.115669,89.037506 41.805775,89.037506 48.752159,89.037506 
	C48.752159,94.919937 48.752159,100.678162 48.752159,107.128632 
	C46.293648,107.128632 43.871292,107.128632 40.958893,107.128662 
z"/>
<path fill="#0A9CEC" opacity="1.000000" stroke="none" 
	d="
M107.106339,107.138824 
	C105.308640,107.138832 103.998459,107.138832 102.352676,107.138832 
	C102.352676,101.042328 102.352676,95.181702 102.352676,88.995972 
	C109.060333,88.995972 115.736053,88.995972 122.687317,88.995972 
	C122.687317,94.875214 122.687317,100.608429 122.687317,107.138817 
	C117.696266,107.138817 112.645065,107.138817 107.106339,107.138824 
z"/>
</svg>