<svg version="1.1" id="Layer_1" xmlns="http://www.w3.org/2000/svg" xmlns:xlink="http://www.w3.org/1999/xlink" x="0px" y="0px"
	 width="100%" viewBox="0 0 225 225" enable-background="new 0 0 225 225" xml:space="preserve">
<path fill="#FFFEFE" opacity="1.000000" stroke="none" 
	d="
M125.000000,226.000000 
	C83.333336,226.000000 42.166672,226.000000 1.000005,226.000000 
	C1.000004,151.000000 1.000004,76.000015 1.000002,1.000016 
	C75.999992,1.000010 150.999985,1.000010 225.999969,1.000005 
	C225.999985,75.999985 225.999985,150.999969 226.000000,225.999969 
	C192.500000,226.000000 159.000000,226.000000 125.000000,226.000000 
M121.719582,89.923218 
	C121.793564,108.276993 121.867546,126.630768 121.943420,145.585037 
	C122.283859,145.769028 122.624298,145.953018 123.316574,146.700363 
	C129.583557,151.036133 132.172775,157.107712 130.623688,164.438980 
	C129.068085,171.801056 124.025223,176.125916 116.713692,177.772034 
	C114.982994,178.161682 112.884865,179.233856 111.543312,178.647598 
	C104.756851,175.681793 98.360832,171.956467 97.183853,163.662491 
	C96.059677,155.740616 99.451073,149.815796 106.739059,145.254501 
	C106.883926,144.813904 107.028793,144.373322 107.382698,143.022766 
	C107.311172,123.697838 107.239647,104.372910 107.164703,84.401863 
	C106.789139,84.218674 106.413582,84.035477 105.658234,83.305916 
	C98.472321,78.820679 95.861252,72.440193 97.474693,64.141014 
	C97.710922,62.925850 97.380074,61.102695 96.577446,60.260750 
	C89.026520,52.339920 81.315918,44.571308 73.790245,36.900261 
	C72.869896,37.399200 72.524811,37.497669 72.302612,37.719318 
	C50.603153,59.364983 28.847368,80.954865 7.261061,102.712875 
	C0.513716,109.513885 1.002047,117.641312 8.097359,124.737877 
	C39.069908,155.715866 70.051140,186.685181 101.055687,217.631134 
	C110.291748,226.849747 117.117233,226.924927 126.279663,217.783401 
	C157.175095,186.958450 188.031021,156.093796 218.863266,125.205635 
	C226.498764,117.556305 226.406403,109.783142 218.734253,102.097191 
	C206.378784,89.719452 193.991409,77.373566 181.621445,65.010300 
	C162.418350,45.817642 143.065430,26.770941 124.115555,7.331398 
	C118.793671,1.872007 108.941002,1.745833 105.038605,5.436586 
	C97.708199,12.369424 90.985161,19.944460 83.739868,27.534988 
	C90.726364,34.492981 98.022881,41.759117 105.318207,49.026451 
	C105.907913,49.613899 106.388054,50.457447 107.096863,50.747276 
	C108.374817,51.269829 109.828621,51.865635 111.137230,51.731403 
	C123.152214,50.499008 131.871246,58.941158 131.043182,70.814705 
	C130.908142,72.751060 131.770798,75.283783 133.080673,76.701744 
	C138.388916,82.448044 144.180923,87.745682 149.533340,93.453682 
	C152.531219,96.650742 155.447906,98.401245 160.223038,97.939720 
	C167.118210,97.273285 173.369446,101.693138 175.847046,108.137085 
	C178.372818,114.706284 177.536285,120.896141 172.639069,126.220497 
	C167.925064,131.345657 160.818329,133.088150 154.572311,130.751465 
	C146.390930,127.690758 141.951813,119.622185 143.461060,111.075012 
	C143.729767,109.553284 143.398941,107.302917 142.416565,106.284966 
	C136.416885,100.068108 130.149277,94.109810 123.705048,87.480247 
	C123.220665,87.158653 122.736282,86.837059 122.251907,86.515457 
	C122.146049,87.346031 122.040192,88.176598 121.719582,89.923218 
z"/>
<path fill="#F34F29" opacity="1.000000" stroke="none" 
	d="
M107.168114,85.047981 
	C107.239647,104.372910 107.311172,123.697838 106.989365,143.674332 
	C106.429359,144.754593 106.262688,145.183273 106.096008,145.611954 
	C99.451073,149.815796 96.059677,155.740616 97.183853,163.662491 
	C98.360832,171.956467 104.756851,175.681793 111.543312,178.647598 
	C112.884865,179.233856 114.982994,178.161682 116.713692,177.772034 
	C124.025223,176.125916 129.068085,171.801056 130.623688,164.438980 
	C132.172775,157.107712 129.583557,151.036133 123.046097,146.166534 
	C122.497589,145.416641 122.219559,145.200592 121.941528,144.984543 
	C121.867546,126.630768 121.793564,108.276993 122.125153,89.450424 
	C123.010826,88.673523 123.490913,88.369408 123.971008,88.065300 
	C130.149277,94.109810 136.416885,100.068108 142.416565,106.284966 
	C143.398941,107.302917 143.729767,109.553284 143.461060,111.075012 
	C141.951813,119.622185 146.390930,127.690758 154.572311,130.751465 
	C160.818329,133.088150 167.925064,131.345657 172.639069,126.220497 
	C177.536285,120.896141 178.372818,114.706284 175.847046,108.137085 
	C173.369446,101.693138 167.118210,97.273285 160.223038,97.939720 
	C155.447906,98.401245 152.531219,96.650742 149.533340,93.453682 
	C144.180923,87.745682 138.388916,82.448044 133.080673,76.701744 
	C131.770798,75.283783 130.908142,72.751060 131.043182,70.814705 
	C131.871246,58.941158 123.152214,50.499008 111.137230,51.731403 
	C109.828621,51.865635 108.374817,51.269829 107.096863,50.747276 
	C106.388054,50.457447 105.907913,49.613899 105.318207,49.026451 
	C98.022881,41.759117 90.726364,34.492981 83.739868,27.534988 
	C90.985161,19.944460 97.708199,12.369424 105.038605,5.436586 
	C108.941002,1.745833 118.793671,1.872007 124.115555,7.331398 
	C143.065430,26.770941 162.418350,45.817642 181.621445,65.010300 
	C193.991409,77.373566 206.378784,89.719452 218.734253,102.097191 
	C226.406403,109.783142 226.498764,117.556305 218.863266,125.205635 
	C188.031021,156.093796 157.175095,186.958450 126.279663,217.783401 
	C117.117233,226.924927 110.291748,226.849747 101.055687,217.631134 
	C70.051140,186.685181 39.069908,155.715866 8.097359,124.737877 
	C1.002047,117.641312 0.513716,109.513885 7.261061,102.712875 
	C28.847368,80.954865 50.603153,59.364983 72.302612,37.719318 
	C72.524811,37.497669 72.869896,37.399200 73.790245,36.900261 
	C81.315918,44.571308 89.026520,52.339920 96.577446,60.260750 
	C97.380074,61.102695 97.710922,62.925850 97.474693,64.141014 
	C95.861252,72.440193 98.472321,78.820679 105.956139,83.844955 
	C106.558731,84.605324 106.863426,84.826653 107.168114,85.047981 
z"/>
<path fill="#F24516" opacity="1.000000" stroke="none" 
	d="
M123.838028,87.772774 
	C123.490913,88.369408 123.010826,88.673523 122.232529,88.992401 
	C122.040192,88.176598 122.146049,87.346031 122.251907,86.515457 
	C122.736282,86.837059 123.220665,87.158653 123.838028,87.772774 
z"/>
<path fill="#F34617" opacity="1.000000" stroke="none" 
	d="
M107.166412,84.724922 
	C106.863426,84.826653 106.558731,84.605324 106.146034,84.118134 
	C106.413582,84.035477 106.789139,84.218674 107.166412,84.724922 
z"/>
<path fill="#F34617" opacity="1.000000" stroke="none" 
	d="
M106.417542,145.433228 
	C106.262688,145.183273 106.429359,144.754593 106.884842,144.129303 
	C107.028793,144.373322 106.883926,144.813904 106.417542,145.433228 
z"/>
<path fill="#F24516" opacity="1.000000" stroke="none" 
	d="
M121.942474,145.284790 
	C122.219559,145.200592 122.497589,145.416641 122.870178,145.884857 
	C122.624298,145.953018 122.283859,145.769028 121.942474,145.284790 
z"/>
</svg>