<svg version="1.1" id="Layer_1" xmlns="http://www.w3.org/2000/svg" xmlns:xlink="http://www.w3.org/1999/xlink" x="0px" y="0px"
	 width="100%" viewBox="0 0 225 225" enable-background="new 0 0 225 225" xml:space="preserve">
<path fill="#FEFEFF" opacity="1.000000" stroke="none" 
	d="
M54.000000,1.000000 
	C111.244576,1.000000 168.489151,1.000000 226.000000,1.000000 
	C226.000000,37.687130 226.000000,74.374908 225.660156,111.378181 
	C221.362076,96.046082 209.490814,85.578850 194.221909,85.496620 
	C180.874710,85.424736 166.385147,91.039139 160.176132,113.498688 
	C155.691238,113.498688 151.037781,113.210136 146.438950,113.587448 
	C142.566711,113.905151 141.068298,112.507477 139.998535,108.815773 
	C134.683350,90.473366 115.896797,81.646126 98.402786,87.171989 
	C87.343658,90.665253 80.179756,98.583351 77.171677,109.823502 
	C76.406075,112.684265 75.294304,113.827324 72.477577,113.516235 
	C70.328041,113.278831 68.146881,113.261269 66.018494,112.910805 
	C58.352287,111.648476 48.511822,102.687202 49.163551,94.985588 
	C50.728531,94.714722 52.347427,94.378899 53.981983,94.160004 
	C76.352364,91.164307 92.395332,74.124153 94.674629,50.917149 
	C96.652466,30.779608 82.906258,10.285164 62.824780,3.522105 
	C59.928547,2.546710 56.943790,1.834178 54.000000,1.000000 
z"/>
<path fill="#2289FF" opacity="1.000000" stroke="none" 
	d="
M53.535347,1.000000 
	C56.943790,1.834178 59.928547,2.546710 62.824780,3.522105 
	C82.906258,10.285164 96.652466,30.779608 94.674629,50.917149 
	C92.395332,74.124153 76.352364,91.164307 53.981983,94.160004 
	C52.347427,94.378899 50.728531,94.714722 49.163551,94.985588 
	C48.511822,102.687202 58.352287,111.648476 66.018494,112.910805 
	C68.146881,113.261269 70.328041,113.278831 72.477577,113.516235 
	C75.294304,113.827324 76.406075,112.684265 77.171677,109.823502 
	C80.179756,98.583351 87.343658,90.665253 98.402786,87.171989 
	C115.896797,81.646126 134.683350,90.473366 139.998535,108.815773 
	C141.068298,112.507477 142.566711,113.905151 146.438950,113.587448 
	C151.037781,113.210136 155.691238,113.498688 160.176132,113.498688 
	C166.385147,91.039139 180.874710,85.424736 194.221909,85.496620 
	C209.490814,85.578850 221.362076,96.046082 225.660156,111.846840 
	C226.000000,115.692909 226.000000,119.385818 225.668488,123.714676 
	C222.059052,139.426132 209.827911,150.190048 195.063477,150.992569 
	C178.615158,151.886627 166.452362,142.162155 160.370132,123.108093 
	C154.151672,123.108093 147.870438,123.108093 141.742889,123.108093 
	C141.469589,123.397820 141.294739,123.495819 141.265778,123.626228 
	C137.310013,141.434174 124.112305,150.299728 109.927475,150.939285 
	C94.246925,151.646301 82.861427,142.552200 76.854095,125.310097 
	C76.515648,124.338699 75.164696,123.019539 74.308151,123.036430 
	C64.647949,123.226990 56.039982,120.455879 47.967072,113.422546 
	C47.967072,115.692032 47.967052,116.945702 47.967068,118.199371 
	C47.967228,131.860641 47.941532,145.521973 47.974827,159.183167 
	C48.008251,172.895920 55.156410,183.305740 68.080589,187.453171 
	C70.684158,188.288666 75.167892,190.949173 76.831635,185.860596 
	C81.296043,172.206192 88.987587,163.361145 104.498978,161.383163 
	C112.495178,160.363510 119.237206,161.700851 125.517036,165.236771 
	C136.390976,171.359436 141.719864,181.508926 141.496857,193.866150 
	C141.273651,206.234283 135.368164,215.828018 124.454880,221.900635 
	C121.213264,223.704407 117.498146,224.657242 114.000000,226.000000 
	C110.638710,226.000000 107.277428,226.000000 103.286606,225.665756 
	C89.590782,222.554169 81.164635,214.575882 77.328674,201.964355 
	C76.459465,199.106674 75.611534,198.092987 72.581383,197.690430 
	C54.608574,195.302704 42.901142,184.354996 39.445698,166.671021 
	C39.429008,164.589081 39.170303,162.777344 38.808567,160.508301 
	C38.689476,139.578705 38.583588,119.105743 38.741299,98.634819 
	C38.769234,95.008957 37.702068,93.600258 34.142479,92.508514 
	C18.785917,87.798576 8.648731,77.457207 3.316217,62.363682 
	C2.459581,59.938995 1.767924,57.456028 1.000000,55.000000 
	C1.000000,50.310745 1.000000,45.621487 1.339880,40.297142 
	C6.021338,19.884598 18.035078,7.442825 37.527073,2.125127 
	C38.389511,1.889842 39.177391,1.381274 40.000000,1.000000 
	C44.356899,1.000000 48.713799,1.000000 53.535347,1.000000 
M13.440334,62.844051 
	C20.624577,79.278770 39.308502,90.019516 59.773666,83.432968 
	C74.907410,78.562309 84.846115,64.741516 85.276932,48.849133 
	C85.891670,26.171902 65.755913,7.491502 44.038944,10.591722 
	C18.260344,14.271761 4.478373,37.263638 13.440334,62.844051 
M104.201500,216.098373 
	C107.287491,216.097061 110.461205,216.567825 113.444420,216.013458 
	C127.013031,213.492020 135.218689,199.794647 131.297791,186.612625 
	C127.949509,175.355743 117.923515,168.861633 105.640121,169.993439 
	C95.043114,170.969864 86.274261,180.347778 85.245735,191.804367 
	C84.277390,202.590607 91.856339,212.661087 104.201500,216.098373 
M103.457001,140.991989 
	C107.200874,143.439728 111.003792,141.742966 114.636108,140.872986 
	C127.110664,137.885117 134.785309,124.796211 131.588516,112.356972 
	C128.337418,99.706429 115.034538,92.052116 102.539299,95.642403 
	C92.511627,98.523682 85.651985,107.187431 85.211632,117.527321 
	C84.772781,127.831871 91.464241,136.763931 103.457001,140.991989 
M179.997696,137.605576 
	C186.011856,141.251358 192.156982,143.068848 199.359116,140.947037 
	C210.247269,137.739304 218.229675,126.332207 216.536575,115.493187 
	C214.837112,104.613441 206.969559,96.385910 196.972549,95.033997 
	C185.813995,93.525002 175.692032,99.144287 171.516800,109.165985 
	C167.332260,119.210022 170.324326,129.803207 179.997696,137.605576 
z"/>
<path fill="#FDFEFF" opacity="1.000000" stroke="none" 
	d="
M114.468658,226.000000 
	C117.498146,224.657242 121.213264,223.704407 124.454880,221.900635 
	C135.368164,215.828018 141.273651,206.234283 141.496857,193.866150 
	C141.719864,181.508926 136.390976,171.359436 125.517036,165.236771 
	C119.237206,161.700851 112.495178,160.363510 104.498978,161.383163 
	C88.987587,163.361145 81.296043,172.206192 76.831635,185.860596 
	C75.167892,190.949173 70.684158,188.288666 68.080589,187.453171 
	C55.156410,183.305740 48.008251,172.895920 47.974827,159.183167 
	C47.941532,145.521973 47.967228,131.860641 47.967068,118.199371 
	C47.967052,116.945702 47.967072,115.692032 47.967072,113.422546 
	C56.039982,120.455879 64.647949,123.226990 74.308151,123.036430 
	C75.164696,123.019539 76.515648,124.338699 76.854095,125.310097 
	C82.861427,142.552200 94.246925,151.646301 109.927475,150.939285 
	C124.112305,150.299728 137.310013,141.434174 141.265778,123.626228 
	C141.294739,123.495819 141.469589,123.397820 141.742889,123.108093 
	C147.870438,123.108093 154.151672,123.108093 160.370132,123.108093 
	C166.452362,142.162155 178.615158,151.886627 195.063477,150.992569 
	C209.827911,150.190048 222.059052,139.426132 225.668488,124.175316 
	C226.000000,144.687561 226.000000,165.375122 225.689392,186.345490 
	C220.531113,170.242737 209.321198,160.947235 194.186020,160.762573 
	C177.916763,160.564087 166.588165,168.856079 161.464844,185.217453 
	C160.482162,188.355621 158.789154,188.504745 156.192810,189.070923 
	C154.272079,189.489807 151.639908,191.494843 151.288589,193.198257 
	C150.661514,196.238770 153.127335,197.852310 156.240372,197.996216 
	C157.698441,198.063614 159.154892,198.166260 160.707825,198.258606 
	C163.617020,212.092148 171.754547,220.885391 184.959488,225.030136 
	C185.367584,225.158234 185.655869,225.668106 186.000000,226.000000 
	C162.312439,226.000000 138.624878,226.000000 114.468658,226.000000 
z"/>
<path fill="#FEFEFF" opacity="1.000000" stroke="none" 
	d="
M39.203682,166.941254 
	C42.901142,184.354996 54.608574,195.302704 72.581383,197.690430 
	C75.611534,198.092987 76.459465,199.106674 77.328674,201.964355 
	C81.164635,214.575882 89.590782,222.554169 102.828537,225.665756 
	C69.054558,226.000000 35.109116,226.000000 1.000000,226.000000 
	C1.000000,169.312546 1.000000,112.624931 1.000000,55.468658 
	C1.767924,57.456028 2.459581,59.938995 3.316217,62.363682 
	C8.648731,77.457207 18.785917,87.798576 34.142479,92.508514 
	C37.702068,93.600258 38.769234,95.008957 38.741299,98.634819 
	C38.583588,119.105743 38.689476,139.578705 38.735161,160.933075 
	C38.911087,163.523849 39.057384,165.232559 39.203682,166.941254 
z"/>
<path fill="#7BB9FF" opacity="1.000000" stroke="none" 
	d="
M186.463181,226.000000 
	C185.655869,225.668106 185.367584,225.158234 184.959488,225.030136 
	C171.754547,220.885391 163.617020,212.092148 160.707825,198.258606 
	C159.154892,198.166260 157.698441,198.063614 156.240372,197.996216 
	C153.127335,197.852310 150.661514,196.238770 151.288589,193.198257 
	C151.639908,191.494843 154.272079,189.489807 156.192810,189.070923 
	C158.789154,188.504745 160.482162,188.355621 161.464844,185.217453 
	C166.588165,168.856079 177.916763,160.564087 194.186020,160.762573 
	C209.321198,160.947235 220.531113,170.242737 225.689392,186.814148 
	C226.000000,191.024551 226.000000,195.049088 225.698914,199.732300 
	C223.858566,203.858566 222.616730,207.498993 220.721863,210.759979 
	C215.863739,219.120697 207.802368,223.140396 199.000000,226.000000 
	C194.975449,226.000000 190.950912,226.000000 186.463181,226.000000 
M216.295776,190.210754 
	C214.253204,176.565964 203.001129,168.225861 189.103745,170.055862 
	C177.171219,171.627121 168.130859,183.953613 170.122131,196.847595 
	C172.073135,209.480850 182.143677,217.215088 194.406708,216.662460 
	C208.050049,216.047577 217.700058,204.282669 216.295776,190.210754 
z"/>
<path fill="#FDFEFF" opacity="1.000000" stroke="none" 
	d="
M39.531342,1.000000 
	C39.177391,1.381274 38.389511,1.889842 37.527073,2.125127 
	C18.035078,7.442825 6.021338,19.884598 1.339880,39.831024 
	C1.000000,27.073353 1.000000,14.146708 1.000000,1.000000 
	C13.686713,1.000000 26.374699,1.000000 39.531342,1.000000 
z"/>
<path fill="#FEFEFF" opacity="1.000000" stroke="none" 
	d="
M199.468658,226.000000 
	C207.802368,223.140396 215.863739,219.120697 220.721863,210.759979 
	C222.616730,207.498993 223.858566,203.858566 225.698914,200.195480 
	C226.000000,208.594467 226.000000,217.188950 226.000000,226.000000 
	C217.313629,226.000000 208.625473,226.000000 199.468658,226.000000 
z"/>
<path fill="#FCFDFF" opacity="1.000000" stroke="none" 
	d="
M13.294170,62.484905 
	C4.478373,37.263638 18.260344,14.271761 44.038944,10.591722 
	C65.755913,7.491502 85.891670,26.171902 85.276932,48.849133 
	C84.846115,64.741516 74.907410,78.562309 59.773666,83.432968 
	C39.308502,90.019516 20.624577,79.278770 13.294170,62.484905 
M61.287212,59.783512 
	C62.978348,58.729961 64.687065,57.703480 66.357559,56.618156 
	C73.393936,52.046577 73.563072,44.204735 66.584709,39.639328 
	C59.223770,34.823620 51.807377,30.081127 44.263241,25.560253 
	C36.887489,21.140284 29.220461,25.467113 29.096493,34.050392 
	C28.964472,43.191254 28.973160,52.336750 29.094067,61.477924 
	C29.215425,70.653366 36.676987,74.801941 44.570225,70.109421 
	C49.991463,66.886505 55.293785,63.463562 61.287212,59.783512 
z"/>
<path fill="#FBFCFF" opacity="1.000000" stroke="none" 
	d="
M103.825562,216.045517 
	C91.856339,212.661087 84.277390,202.590607 85.245735,191.804367 
	C86.274261,180.347778 95.043114,170.969864 105.640121,169.993439 
	C117.923515,168.861633 127.949509,175.355743 131.297791,186.612625 
	C135.218689,199.794647 127.013031,213.492020 113.444420,216.013458 
	C110.461205,216.567825 107.287491,216.097061 103.825562,216.045517 
M106.121262,191.830750 
	C104.940239,187.392349 102.065948,185.360245 97.593170,186.499390 
	C93.872940,187.446854 92.097458,190.315826 92.590431,194.059708 
	C93.082169,197.794281 95.433533,200.099976 99.370399,200.008957 
	C104.028831,199.901260 106.292221,197.300400 106.121262,191.830750 
M111.253319,191.891373 
	C110.914185,196.165176 112.758286,199.124725 116.955078,199.950638 
	C120.681252,200.683929 123.605202,198.963699 124.706795,195.270523 
	C125.856033,191.417603 124.529152,188.248306 120.638535,186.779922 
	C116.230919,185.116425 113.275154,187.037872 111.253319,191.891373 
z"/>
<path fill="#FBFDFF" opacity="1.000000" stroke="none" 
	d="
M103.076653,140.929321 
	C91.464241,136.763931 84.772781,127.831871 85.211632,117.527321 
	C85.651985,107.187431 92.511627,98.523682 102.539299,95.642403 
	C115.034538,92.052116 128.337418,99.706429 131.588516,112.356972 
	C134.785309,124.796211 127.110664,137.885117 114.636108,140.872986 
	C111.003792,141.742966 107.200874,143.439728 103.076653,140.929321 
M95.401398,124.042137 
	C96.584915,125.210007 97.763763,126.382652 98.952766,127.544907 
	C103.184944,131.681870 104.754974,131.730042 108.855728,127.701111 
	C112.652138,123.971191 116.356430,120.147263 120.166115,116.431183 
	C122.640694,114.017395 124.583656,111.437088 121.436256,108.386192 
	C118.219856,105.268425 115.638275,107.530212 113.456024,110.035080 
	C110.543976,113.377640 107.793633,116.861092 104.966827,120.292534 
	C100.808197,116.290161 98.047920,112.559708 93.908386,115.892502 
	C90.875130,118.334602 92.440514,121.239761 95.401398,124.042137 
z"/>
<path fill="#FAFCFF" opacity="1.000000" stroke="none" 
	d="
M179.709991,137.380157 
	C170.324326,129.803207 167.332260,119.210022 171.516800,109.165985 
	C175.692032,99.144287 185.813995,93.525002 196.972549,95.033997 
	C206.969559,96.385910 214.837112,104.613441 216.536575,115.493187 
	C218.229675,126.332207 210.247269,137.739304 199.359116,140.947037 
	C192.156982,143.068848 186.011856,141.251358 179.709991,137.380157 
M179.486633,123.815559 
	C180.903244,125.220062 182.381668,126.568184 183.724014,128.040405 
	C186.855408,131.474777 189.772476,131.413574 192.983582,128.004471 
	C196.970901,123.771286 201.224731,119.790344 205.309906,115.647652 
	C207.608719,113.316452 208.199844,110.622620 205.654129,108.216454 
	C203.193939,105.891151 200.709671,106.952698 198.691925,109.134438 
	C195.449005,112.640945 192.302414,116.236549 189.215012,119.682999 
	C182.946915,114.619789 180.161285,113.693932 178.172852,115.871880 
	C175.784134,118.488274 176.649231,121.027084 179.486633,123.815559 
z"/>
<path fill="#1084FF" opacity="1.000000" stroke="none" 
	d="
M39.445698,166.671021 
	C39.057384,165.232559 38.911087,163.523849 38.838188,161.390381 
	C39.170303,162.777344 39.429008,164.589081 39.445698,166.671021 
z"/>
<path fill="#FEFEFF" opacity="1.000000" stroke="none" 
	d="
M216.411499,190.609039 
	C217.700058,204.282669 208.050049,216.047577 194.406708,216.662460 
	C182.143677,217.215088 172.073135,209.480850 170.122131,196.847595 
	C168.130859,183.953613 177.171219,171.627121 189.103745,170.055862 
	C203.001129,168.225861 214.253204,176.565964 216.411499,190.609039 
z"/>
<path fill="#2289FF" opacity="1.000000" stroke="none" 
	d="
M60.968239,59.956772 
	C55.293785,63.463562 49.991463,66.886505 44.570225,70.109421 
	C36.676987,74.801941 29.215425,70.653366 29.094067,61.477924 
	C28.973160,52.336750 28.964472,43.191254 29.096493,34.050392 
	C29.220461,25.467113 36.887489,21.140284 44.263241,25.560253 
	C51.807377,30.081127 59.223770,34.823620 66.584709,39.639328 
	C73.563072,44.204735 73.393936,52.046577 66.357559,56.618156 
	C64.687065,57.703480 62.978348,58.729961 60.968239,59.956772 
M38.269951,34.946087 
	C38.269951,43.959457 38.269951,52.972824 38.269951,63.042850 
	C46.898621,57.707115 54.407520,53.063820 62.642357,47.971619 
	C54.098103,42.732857 46.245720,37.918304 37.964909,33.165268 
	C37.845779,33.241356 37.726646,33.317448 37.607517,33.393536 
	C37.769096,33.604191 37.930676,33.814846 38.269951,34.946087 
z"/>
<path fill="#288CFF" opacity="1.000000" stroke="none" 
	d="
M106.165115,192.240845 
	C106.292221,197.300400 104.028831,199.901260 99.370399,200.008957 
	C95.433533,200.099976 93.082169,197.794281 92.590431,194.059708 
	C92.097458,190.315826 93.872940,187.446854 97.593170,186.499390 
	C102.065948,185.360245 104.940239,187.392349 106.165115,192.240845 
z"/>
<path fill="#248BFF" opacity="1.000000" stroke="none" 
	d="
M111.386452,191.531815 
	C113.275154,187.037872 116.230919,185.116425 120.638535,186.779922 
	C124.529152,188.248306 125.856033,191.417603 124.706795,195.270523 
	C123.605202,198.963699 120.681252,200.683929 116.955078,199.950638 
	C112.758286,199.124725 110.914185,196.165176 111.386452,191.531815 
z"/>
<path fill="#2088FF" opacity="1.000000" stroke="none" 
	d="
M95.151917,123.784683 
	C92.440514,121.239761 90.875130,118.334602 93.908386,115.892502 
	C98.047920,112.559708 100.808197,116.290161 104.966827,120.292534 
	C107.793633,116.861092 110.543976,113.377640 113.456024,110.035080 
	C115.638275,107.530212 118.219856,105.268425 121.436256,108.386192 
	C124.583656,111.437088 122.640694,114.017395 120.166115,116.431183 
	C116.356430,120.147263 112.652138,123.971191 108.855728,127.701111 
	C104.754974,131.730042 103.184944,131.681870 98.952766,127.544907 
	C97.763763,126.382652 96.584915,125.210007 95.151917,123.784683 
z"/>
<path fill="#238AFF" opacity="1.000000" stroke="none" 
	d="
M179.230194,123.545822 
	C176.649231,121.027084 175.784134,118.488274 178.172852,115.871880 
	C180.161285,113.693932 182.946915,114.619789 189.215012,119.682999 
	C192.302414,116.236549 195.449005,112.640945 198.691925,109.134438 
	C200.709671,106.952698 203.193939,105.891151 205.654129,108.216454 
	C208.199844,110.622620 207.608719,113.316452 205.309906,115.647652 
	C201.224731,119.790344 196.970901,123.771286 192.983582,128.004471 
	C189.772476,131.413574 186.855408,131.474777 183.724014,128.040405 
	C182.381668,126.568184 180.903244,125.220062 179.230194,123.545822 
z"/>
<path fill="#F4F9FF" opacity="1.000000" stroke="none" 
	d="
M38.393341,33.103752 
	C46.245720,37.918304 54.098103,42.732857 62.642357,47.971619 
	C54.407520,53.063820 46.898621,57.707115 38.269951,63.042850 
	C38.269951,52.972824 38.269951,43.959457 38.274307,34.261211 
	C38.278660,33.576336 38.393341,33.103752 38.393341,33.103752 
z"/>
<path fill="#1184FF" opacity="1.000000" stroke="none" 
	d="
M38.179123,33.134510 
	C38.393341,33.103752 38.278660,33.576336 38.185455,33.800919 
	C37.930676,33.814846 37.769096,33.604191 37.607517,33.393536 
	C37.726646,33.317448 37.845779,33.241356 38.179123,33.134510 
z"/>
</svg>