<svg version="1.1" id="Layer_1" xmlns="http://www.w3.org/2000/svg" xmlns:xlink="http://www.w3.org/1999/xlink" x="0px" y="0px"
	 width="100%" viewBox="0 0 228 221" enable-background="new 0 0 228 221" xml:space="preserve">
<path fill="#FEFEFF" opacity="1.000000" stroke="none" 
	d="
M132.000000,222.000000 
	C88.000000,222.000000 44.500004,222.000000 1.000006,222.000000 
	C1.000004,148.333344 1.000004,74.666679 1.000002,1.000016 
	C76.999992,1.000010 152.999985,1.000010 228.999969,1.000005 
	C228.999985,74.666649 228.999985,148.333298 229.000000,221.999969 
	C196.833328,222.000000 164.666672,222.000000 132.000000,222.000000 
M153.554688,20.934162 
	C143.206161,16.001043 132.830460,11.123812 122.520813,6.110716 
	C117.529213,3.683534 112.697815,3.596922 107.671944,6.004847 
	C82.647820,17.994064 57.609985,29.955097 32.533421,41.834103 
	C27.467548,44.233849 24.473967,48.025368 23.241776,53.413910 
	C17.130749,80.138298 11.059544,106.872200 4.801548,133.562241 
	C3.506286,139.086487 4.658110,143.650635 8.140017,147.963181 
	C25.504881,169.470505 42.834217,191.006638 60.123043,212.575150 
	C63.900410,217.287567 68.824158,218.858383 74.642822,218.844498 
	C101.471619,218.780502 128.300964,218.738968 155.129364,218.856812 
	C161.811264,218.886169 166.832397,216.521317 171.030823,211.227982 
	C186.760132,191.396744 202.498672,171.563232 218.722366,152.138687 
	C224.703369,144.977631 226.675293,138.191742 224.296555,128.867523 
	C217.932632,103.921982 212.760529,78.674004 206.581818,53.677952 
	C205.607788,49.737514 202.657410,44.982162 199.254440,43.171246 
	C184.529892,35.335461 169.297913,28.453247 153.554688,20.934162 
z"/>
<path fill="#336CE5" opacity="1.000000" stroke="none" 
	d="
M153.902588,21.079166 
	C169.297913,28.453247 184.529892,35.335461 199.254440,43.171246 
	C202.657410,44.982162 205.607788,49.737514 206.581818,53.677952 
	C212.760529,78.674004 217.932632,103.921982 224.296555,128.867523 
	C226.675293,138.191742 224.703369,144.977631 218.722366,152.138687 
	C202.498672,171.563232 186.760132,191.396744 171.030823,211.227982 
	C166.832397,216.521317 161.811264,218.886169 155.129364,218.856812 
	C128.300964,218.738968 101.471619,218.780502 74.642822,218.844498 
	C68.824158,218.858383 63.900410,217.287567 60.123043,212.575150 
	C42.834217,191.006638 25.504881,169.470505 8.140017,147.963181 
	C4.658110,143.650635 3.506286,139.086487 4.801548,133.562241 
	C11.059544,106.872200 17.130749,80.138298 23.241776,53.413910 
	C24.473967,48.025368 27.467548,44.233849 32.533421,41.834103 
	C57.609985,29.955097 82.647820,17.994064 107.671944,6.004847 
	C112.697815,3.596922 117.529213,3.683534 122.520813,6.110716 
	C132.830460,11.123812 143.206161,16.001043 153.902588,21.079166 
M142.310959,62.132977 
	C137.807800,60.452667 133.410080,58.360062 128.780014,57.176003 
	C118.448975,54.534012 117.717270,53.735672 119.069557,42.929958 
	C119.213577,41.779156 119.950310,40.544472 119.691238,39.533394 
	C119.108322,37.258381 118.405228,34.855286 117.054581,33.015659 
	C116.529388,32.300327 113.254990,32.370998 112.751411,33.113503 
	C111.466515,35.008038 110.528015,37.451809 110.391273,39.732216 
	C110.215149,42.669331 111.312065,45.673328 111.213280,48.626865 
	C111.081436,52.568909 110.476952,55.648636 104.889618,56.386219 
	C93.292175,57.917194 82.910629,63.000256 74.473869,71.264069 
	C71.380867,74.293663 68.696327,73.889755 65.949425,71.686325 
	C63.109425,69.408218 60.723869,66.573143 58.018372,64.115044 
	C55.443005,61.775173 52.346626,60.394566 49.839451,63.768139 
	C47.567448,66.825272 49.459423,69.408638 52.206451,71.278923 
	C53.577335,72.212288 55.184624,72.831146 56.455223,73.872574 
	C59.524578,76.388298 62.458858,79.068832 65.324677,81.575401 
	C57.632450,93.764763 54.226234,105.907944 55.082317,119.119820 
	C55.393963,123.929466 52.823956,126.122238 48.610832,126.875206 
	C45.668449,127.401054 42.652775,127.504997 39.677738,127.863022 
	C36.190758,128.282639 33.149452,129.617493 34.021301,133.764587 
	C34.925716,138.066544 38.543655,137.596191 41.689373,136.766922 
	C44.888977,135.923416 47.918285,134.434464 51.117485,133.588730 
	C54.769138,132.623367 57.883030,134.078445 59.234253,137.482117 
	C63.806423,148.999176 71.785561,157.875732 81.385109,165.121292 
	C85.183014,167.987869 84.388008,170.373459 83.055962,173.210709 
	C81.583054,176.348053 79.430626,179.161621 77.642807,182.157181 
	C75.815979,185.218079 75.268593,188.373871 79.059464,190.186752 
	C82.674011,191.915298 84.621635,189.325806 85.870941,186.377197 
	C86.839272,184.091751 87.434738,181.651291 88.276138,179.308548 
	C90.994812,171.738815 93.098320,170.745743 100.432037,173.295013 
	C103.265686,174.280014 106.240562,175.951859 109.035782,175.745895 
	C116.894753,175.166824 124.993652,175.697067 132.488007,172.584930 
	C136.619904,170.869110 138.873978,173.008743 140.395630,176.169006 
	C141.898071,179.289352 142.741364,182.720291 144.016205,185.958939 
	C145.266830,189.136032 147.262863,191.884552 151.072998,190.054199 
	C154.866760,188.231735 154.138428,185.010971 152.316345,181.986816 
	C150.515976,178.998703 148.453491,176.150223 146.871872,173.053619 
	C145.232986,169.844910 145.319336,167.059998 148.935165,164.647552 
	C158.732544,158.110855 165.796738,149.206497 170.382446,138.333847 
	C172.397385,133.556488 175.126266,132.294510 180.115387,133.807266 
	C183.285187,134.768372 186.352951,136.099289 189.556931,136.904312 
	C192.319931,137.598557 195.153427,137.225281 195.961456,133.892624 
	C196.798981,130.438431 194.807251,128.504776 191.535995,127.988174 
	C188.420334,127.496147 185.253235,127.339897 182.123795,126.923042 
	C176.678040,126.197655 174.770798,123.980698 174.994156,118.523941 
	C175.528030,105.479553 172.133530,93.526436 165.221115,82.640152 
	C166.943665,76.353615 172.646225,74.517723 177.307724,71.507881 
	C180.179108,69.653877 182.345642,67.301117 180.201431,63.692257 
	C178.574600,60.954124 174.814728,61.271656 171.571045,64.311790 
	C169.024261,66.698746 166.821701,69.511940 164.055481,71.588676 
	C161.454315,73.541504 158.761719,74.598091 155.483932,71.473183 
	C151.801178,67.962196 147.181366,65.434090 142.310959,62.132977 
z"/>
<path fill="#FCFCFE" opacity="1.000000" stroke="none" 
	d="
M142.640091,62.305683 
	C147.181366,65.434090 151.801178,67.962196 155.483932,71.473183 
	C158.761719,74.598091 161.454315,73.541504 164.055481,71.588676 
	C166.821701,69.511940 169.024261,66.698746 171.571045,64.311790 
	C174.814728,61.271656 178.574600,60.954124 180.201431,63.692257 
	C182.345642,67.301117 180.179108,69.653877 177.307724,71.507881 
	C172.646225,74.517723 166.943665,76.353615 165.221115,82.640152 
	C172.133530,93.526436 175.528030,105.479553 174.994156,118.523941 
	C174.770798,123.980698 176.678040,126.197655 182.123795,126.923042 
	C185.253235,127.339897 188.420334,127.496147 191.535995,127.988174 
	C194.807251,128.504776 196.798981,130.438431 195.961456,133.892624 
	C195.153427,137.225281 192.319931,137.598557 189.556931,136.904312 
	C186.352951,136.099289 183.285187,134.768372 180.115387,133.807266 
	C175.126266,132.294510 172.397385,133.556488 170.382446,138.333847 
	C165.796738,149.206497 158.732544,158.110855 148.935165,164.647552 
	C145.319336,167.059998 145.232986,169.844910 146.871872,173.053619 
	C148.453491,176.150223 150.515976,178.998703 152.316345,181.986816 
	C154.138428,185.010971 154.866760,188.231735 151.072998,190.054199 
	C147.262863,191.884552 145.266830,189.136032 144.016205,185.958939 
	C142.741364,182.720291 141.898071,179.289352 140.395630,176.169006 
	C138.873978,173.008743 136.619904,170.869110 132.488007,172.584930 
	C124.993652,175.697067 116.894753,175.166824 109.035782,175.745895 
	C106.240562,175.951859 103.265686,174.280014 100.432037,173.295013 
	C93.098320,170.745743 90.994812,171.738815 88.276138,179.308548 
	C87.434738,181.651291 86.839272,184.091751 85.870941,186.377197 
	C84.621635,189.325806 82.674011,191.915298 79.059464,190.186752 
	C75.268593,188.373871 75.815979,185.218079 77.642807,182.157181 
	C79.430626,179.161621 81.583054,176.348053 83.055962,173.210709 
	C84.388008,170.373459 85.183014,167.987869 81.385109,165.121292 
	C71.785561,157.875732 63.806423,148.999176 59.234253,137.482117 
	C57.883030,134.078445 54.769138,132.623367 51.117485,133.588730 
	C47.918285,134.434464 44.888977,135.923416 41.689373,136.766922 
	C38.543655,137.596191 34.925716,138.066544 34.021301,133.764587 
	C33.149452,129.617493 36.190758,128.282639 39.677738,127.863022 
	C42.652775,127.504997 45.668449,127.401054 48.610832,126.875206 
	C52.823956,126.122238 55.393963,123.929466 55.082317,119.119820 
	C54.226234,105.907944 57.632450,93.764763 65.324677,81.575401 
	C62.458858,79.068832 59.524578,76.388298 56.455223,73.872574 
	C55.184624,72.831146 53.577335,72.212288 52.206451,71.278923 
	C49.459423,69.408638 47.567448,66.825272 49.839451,63.768139 
	C52.346626,60.394566 55.443005,61.775173 58.018372,64.115044 
	C60.723869,66.573143 63.109425,69.408218 65.949425,71.686325 
	C68.696327,73.889755 71.380867,74.293663 74.473869,71.264069 
	C82.910629,63.000256 93.292175,57.917194 104.889618,56.386219 
	C110.476952,55.648636 111.081436,52.568909 111.213280,48.626865 
	C111.312065,45.673328 110.215149,42.669331 110.391273,39.732216 
	C110.528015,37.451809 111.466515,35.008038 112.751411,33.113503 
	C113.254990,32.370998 116.529388,32.300327 117.054581,33.015659 
	C118.405228,34.855286 119.108322,37.258381 119.691238,39.533394 
	C119.950310,40.544472 119.213577,41.779156 119.069557,42.929958 
	C117.717270,53.735672 118.448975,54.534012 128.780014,57.176003 
	C133.410080,58.360062 137.807800,60.452667 142.640091,62.305683 
M108.446999,79.042374 
	C108.628448,76.393417 109.046082,73.728111 108.864395,71.104301 
	C108.800011,70.174538 107.125771,68.482338 106.440399,68.601288 
	C96.980141,70.243141 88.636459,74.134598 81.693741,81.348175 
	C88.180023,85.939804 94.208160,90.338455 100.378212,94.528091 
	C104.398491,97.257965 107.425171,95.785194 107.893295,90.905334 
	C108.241524,87.275269 108.190773,83.606926 108.446999,79.042374 
M144.554382,128.908066 
	C141.150330,128.799774 137.741409,128.529770 134.343704,128.632111 
	C131.393768,128.720947 130.720245,130.636307 131.724945,133.130997 
	C134.674118,140.453827 137.707809,147.742630 140.900467,155.512192 
	C149.849167,149.078873 156.466141,141.761734 159.745804,131.465607 
	C154.558304,130.564453 149.991821,129.771194 144.554382,128.908066 
M129.789871,159.768204 
	C126.277748,153.367813 122.849770,146.919266 119.223167,140.584427 
	C116.906830,136.538330 113.620796,136.001022 111.533234,139.464539 
	C107.451492,146.236664 103.774445,153.252701 99.817825,160.369278 
	C110.156044,163.755600 119.893852,163.852768 129.789871,159.768204 
M89.988907,113.758652 
	C92.817101,111.907639 95.114075,110.079414 91.500633,106.699760 
	C85.835846,101.401520 80.329994,95.933365 74.396355,90.188148 
	C68.742897,99.814468 66.392914,109.363281 67.663872,120.093796 
	C75.279190,117.936661 82.260941,115.958984 89.988907,113.758652 
M162.769653,117.893707 
	C163.005585,109.603539 161.513718,101.639702 157.654160,94.290535 
	C157.081909,93.200890 153.987518,92.077293 153.384094,92.574944 
	C147.995697,97.018753 142.766006,101.685349 137.844437,106.638924 
	C136.873734,107.615944 136.981445,111.575287 137.343658,111.685364 
	C145.727386,114.233185 154.215088,116.438889 162.769653,117.893707 
M126.383446,95.921646 
	C133.636948,91.182495 140.890457,86.443352 148.356293,81.565483 
	C136.587875,71.944855 129.336594,68.559296 120.972275,68.707451 
	C121.352203,76.310318 121.552673,83.922646 122.259674,91.487625 
	C122.404266,93.034752 124.448700,94.404320 126.383446,95.921646 
M82.442947,150.077744 
	C84.590744,151.761520 86.738548,153.445282 89.188919,155.366257 
	C92.256546,147.987213 95.116302,141.303116 97.801018,134.549454 
	C98.805122,132.023514 98.931183,129.127457 95.345131,128.917862 
	C91.162804,128.673401 86.903076,129.033035 82.730217,129.555878 
	C78.816498,130.046265 74.972313,131.091705 70.481239,132.020325 
	C72.818352,138.873077 76.818634,144.567657 82.442947,150.077744 
M116.186256,123.095657 
	C116.783287,122.819817 117.354736,122.442665 117.981461,122.284462 
	C122.312943,121.191086 122.961746,117.561600 122.620888,114.203056 
	C122.430946,112.331459 120.263641,109.296913 118.806435,109.187042 
	C115.210823,108.915947 110.899467,107.150703 108.084091,111.626595 
	C105.116302,116.344818 108.138329,121.327141 116.186256,123.095657 
z"/>
<path fill="#346EE5" opacity="1.000000" stroke="none" 
	d="
M108.382362,79.499008 
	C108.190773,83.606926 108.241524,87.275269 107.893295,90.905334 
	C107.425171,95.785194 104.398491,97.257965 100.378212,94.528091 
	C94.208160,90.338455 88.180023,85.939804 81.693741,81.348175 
	C88.636459,74.134598 96.980141,70.243141 106.440399,68.601288 
	C107.125771,68.482338 108.800011,70.174538 108.864395,71.104301 
	C109.046082,73.728111 108.628448,76.393417 108.382362,79.499008 
z"/>
<path fill="#346DE5" opacity="1.000000" stroke="none" 
	d="
M144.989868,128.942993 
	C149.991821,129.771194 154.558304,130.564453 159.745804,131.465607 
	C156.466141,141.761734 149.849167,149.078873 140.900467,155.512192 
	C137.707809,147.742630 134.674118,140.453827 131.724945,133.130997 
	C130.720245,130.636307 131.393768,128.720947 134.343704,128.632111 
	C137.741409,128.529770 141.150330,128.799774 144.989868,128.942993 
z"/>
<path fill="#346EE5" opacity="1.000000" stroke="none" 
	d="
M129.715637,160.142639 
	C119.893852,163.852768 110.156044,163.755600 99.817825,160.369278 
	C103.774445,153.252701 107.451492,146.236664 111.533234,139.464539 
	C113.620796,136.001022 116.906830,136.538330 119.223167,140.584427 
	C122.849770,146.919266 126.277748,153.367813 129.715637,160.142639 
z"/>
<path fill="#346EE5" opacity="1.000000" stroke="none" 
	d="
M89.615799,113.869980 
	C82.260941,115.958984 75.279190,117.936661 67.663872,120.093796 
	C66.392914,109.363281 68.742897,99.814468 74.396355,90.188148 
	C80.329994,95.933365 85.835846,101.401520 91.500633,106.699760 
	C95.114075,110.079414 92.817101,111.907639 89.615799,113.869980 
z"/>
<path fill="#346EE5" opacity="1.000000" stroke="none" 
	d="
M162.726593,118.300850 
	C154.215088,116.438889 145.727386,114.233185 137.343658,111.685364 
	C136.981445,111.575287 136.873734,107.615944 137.844437,106.638924 
	C142.766006,101.685349 147.995697,97.018753 153.384094,92.574944 
	C153.987518,92.077293 157.081909,93.200890 157.654160,94.290535 
	C161.513718,101.639702 163.005585,109.603539 162.726593,118.300850 
z"/>
<path fill="#356EE5" opacity="1.000000" stroke="none" 
	d="
M126.000412,95.888687 
	C124.448700,94.404320 122.404266,93.034752 122.259674,91.487625 
	C121.552673,83.922646 121.352203,76.310318 120.972275,68.707451 
	C129.336594,68.559296 136.587875,71.944855 148.356293,81.565483 
	C140.890457,86.443352 133.636948,91.182495 126.000412,95.888687 
z"/>
<path fill="#336DE5" opacity="1.000000" stroke="none" 
	d="
M82.188499,149.829605 
	C76.818634,144.567657 72.818352,138.873077 70.481239,132.020325 
	C74.972313,131.091705 78.816498,130.046265 82.730217,129.555878 
	C86.903076,129.033035 91.162804,128.673401 95.345131,128.917862 
	C98.931183,129.127457 98.805122,132.023514 97.801018,134.549454 
	C95.116302,141.303116 92.256546,147.987213 89.188919,155.366257 
	C86.738548,153.445282 84.590744,151.761520 82.188499,149.829605 
z"/>
<path fill="#336DE5" opacity="1.000000" stroke="none" 
	d="
M115.792709,123.204582 
	C108.138329,121.327141 105.116302,116.344818 108.084091,111.626595 
	C110.899467,107.150703 115.210823,108.915947 118.806435,109.187042 
	C120.263641,109.296913 122.430946,112.331459 122.620888,114.203056 
	C122.961746,117.561600 122.312943,121.191086 117.981461,122.284462 
	C117.354736,122.442665 116.783287,122.819817 115.792709,123.204582 
z"/>
</svg>