<svg version="1.1" id="Layer_1" xmlns="http://www.w3.org/2000/svg" xmlns:xlink="http://www.w3.org/1999/xlink" x="0px" y="0px"
	 width="100%" viewBox="0 0 225 225" enable-background="new 0 0 225 225" xml:space="preserve">
<path fill="#010101" opacity="1.000000" stroke="none" 
	d="
M1.000000,127.000000 
	C1.000000,125.611107 1.000000,124.222221 1.356876,122.185333 
	C1.753930,117.642685 1.794110,113.748032 1.873440,109.487213 
	C1.881927,108.385681 1.851263,107.650314 1.880957,106.571487 
	C1.627544,105.485359 1.313772,104.742676 1.000000,104.000000 
	C1.000000,102.611107 1.000000,101.222221 1.370896,99.299637 
	C2.093651,97.313766 2.482848,95.869492 2.791952,94.408272 
	C12.620670,47.945423 40.074970,17.801519 85.904579,4.722586 
	C90.884895,3.301295 95.965767,2.232368 101.000000,1.000000 
	C101.750000,1.000000 102.500000,1.000000 103.828293,1.375356 
	C107.959702,1.783524 111.512802,1.816337 115.433884,1.906145 
	C116.546616,1.933595 117.291367,1.904048 118.382126,1.928180 
	C119.485420,1.654572 120.242714,1.327287 121.000000,1.000001 
	C122.388893,1.000000 123.777779,1.000000 125.715981,1.382084 
	C171.354584,6.622119 210.402695,40.324768 222.002823,84.447891 
	C223.445709,89.936203 224.672882,95.481239 226.000000,101.000000 
	C226.000000,102.066437 226.000000,103.132881 225.633682,104.819061 
	C225.219589,109.324669 225.171814,113.210548 225.093185,117.433670 
	C225.374893,118.513947 225.687439,119.256973 226.000000,120.000000 
	C226.000000,122.041748 226.000000,124.083496 225.633057,126.707458 
	C224.898102,129.075317 224.531281,130.861221 224.161880,132.646606 
	C214.609619,178.815125 187.238144,208.660812 142.050262,222.066132 
	C136.469009,223.721848 130.688293,224.705124 125.000000,226.000000 
	C123.933563,226.000000 122.867119,226.000000 121.247818,225.702209 
	C119.830147,225.319366 118.965324,225.234314 117.638626,225.104187 
	C114.697128,225.114380 112.217514,225.169632 109.348145,225.213943 
	C107.305580,225.468674 105.652794,225.734344 104.000000,226.000000 
	C102.611107,226.000000 101.222221,226.000000 99.300079,225.628693 
	C97.317390,224.893356 95.879547,224.472504 94.416801,224.173492 
	C48.140881,214.714249 18.375767,187.244934 4.905902,142.051910 
	C3.426267,137.087555 2.293597,132.019806 1.000000,127.000000 
M119.309235,64.167511 
	C117.795372,61.585339 116.281517,59.003162 114.503357,55.970169 
	C95.782776,88.649269 77.436989,120.674118 58.724552,153.339005 
	C96.165955,153.339005 132.859543,153.339005 170.285049,153.339005 
	C153.197830,123.396553 136.467972,94.080330 119.309235,64.167511 
z"/>
<path fill="#FDFDFD" opacity="1.000000" stroke="none" 
	d="
M226.000000,100.531342 
	C224.672882,95.481239 223.445709,89.936203 222.002823,84.447891 
	C210.402695,40.324768 171.354584,6.622119 126.132645,1.382084 
	C159.260269,1.000000 192.520523,1.000000 226.000000,1.000000 
	C226.000000,34.020573 226.000000,67.041626 226.000000,100.531342 
z"/>
<path fill="#FDFDFD" opacity="1.000000" stroke="none" 
	d="
M125.468658,226.000000 
	C130.688293,224.705124 136.469009,223.721848 142.050262,222.066132 
	C187.238144,208.660812 214.609619,178.815125 224.161880,132.646606 
	C224.531281,130.861221 224.898102,129.075317 225.633057,127.144836 
	C226.000000,159.927658 226.000000,192.855331 226.000000,226.000000 
	C192.646088,226.000000 159.291702,226.000000 125.468658,226.000000 
z"/>
<path fill="#FDFDFD" opacity="1.000000" stroke="none" 
	d="
M100.531342,1.000000 
	C95.965767,2.232368 90.884895,3.301295 85.904579,4.722586 
	C40.074970,17.801519 12.620670,47.945423 2.791952,94.408272 
	C2.482848,95.869492 2.093651,97.313766 1.370896,98.882973 
	C1.000000,66.405663 1.000000,33.811325 1.000000,1.000000 
	C34.020576,1.000000 67.041634,1.000000 100.531342,1.000000 
z"/>
<path fill="#FDFDFD" opacity="1.000000" stroke="none" 
	d="
M1.000000,127.468658 
	C2.293597,132.019806 3.426267,137.087555 4.905902,142.051910 
	C18.375767,187.244934 48.140881,214.714249 94.416801,224.173492 
	C95.879547,224.472504 97.317390,224.893356 98.883423,225.628693 
	C66.406029,226.000000 33.812065,226.000000 1.000000,226.000000 
	C1.000000,193.312759 1.000000,160.625046 1.000000,127.468658 
z"/>
<path fill="#2B2B2B" opacity="1.000000" stroke="none" 
	d="
M225.124039,117.096420 
	C225.171814,113.210548 225.219589,109.324669 225.633682,105.219398 
	C226.000000,108.692909 226.000000,112.385818 225.780411,116.558044 
	C225.560822,117.037354 225.124039,117.096420 225.124039,117.096420 
z"/>
<path fill="#242424" opacity="1.000000" stroke="none" 
	d="
M1.834289,109.853371 
	C1.794110,113.748032 1.753930,117.642685 1.356876,121.768677 
	C1.000000,118.307091 1.000000,114.614182 1.208346,110.422684 
	C1.416691,109.924103 1.834289,109.853371 1.834289,109.853371 
z"/>
<path fill="#444444" opacity="1.000000" stroke="none" 
	d="
M115.065910,1.849149 
	C111.512802,1.816337 107.959702,1.783524 104.203293,1.375356 
	C107.361290,1.000000 110.722572,1.000000 114.552574,1.212740 
	C115.021286,1.425481 115.065910,1.849149 115.065910,1.849149 
z"/>
<path fill="#242424" opacity="1.000000" stroke="none" 
	d="
M109.737907,225.224884 
	C112.217514,225.169632 114.697128,225.114380 117.609116,225.315857 
	C118.041504,225.572586 118.000000,226.000000 118.000000,226.000000 
	C115.629440,226.000000 113.258888,226.000000 110.365845,225.810547 
	C109.843361,225.621094 109.737907,225.224884 109.737907,225.224884 
z"/>
<path fill="#818181" opacity="1.000000" stroke="none" 
	d="
M109.348145,225.213943 
	C109.737907,225.224884 109.843361,225.621094 109.921677,225.810547 
	C108.285645,226.000000 106.571281,226.000000 104.428467,226.000000 
	C105.652794,225.734344 107.305580,225.468674 109.348145,225.213943 
z"/>
<path fill="#818181" opacity="1.000000" stroke="none" 
	d="
M1.000000,104.375000 
	C1.313772,104.742676 1.627544,105.485359 1.674622,106.580818 
	C1.407928,106.933601 1.000000,107.000000 1.000000,107.000000 
	C1.000000,106.250000 1.000000,105.500000 1.000000,104.375000 
z"/>
<path fill="#555555" opacity="1.000000" stroke="none" 
	d="
M1.000000,107.375000 
	C1.000000,107.000000 1.407928,106.933601 1.614263,106.924271 
	C1.851263,107.650314 1.881927,108.385681 1.873440,109.487213 
	C1.834289,109.853371 1.416691,109.924103 1.208346,109.962051 
	C1.000000,109.250000 1.000000,108.500000 1.000000,107.375000 
z"/>
<path fill="#818181" opacity="1.000000" stroke="none" 
	d="
M120.625000,1.000001 
	C120.242714,1.327287 119.485420,1.654572 118.363472,1.710222 
	C117.998810,1.438586 118.000000,1.000000 118.000000,1.000000 
	C118.750000,1.000000 119.500000,1.000000 120.625000,1.000001 
z"/>
<path fill="#555555" opacity="1.000000" stroke="none" 
	d="
M225.093185,117.433670 
	C225.124039,117.096420 225.560822,117.037354 225.780411,117.018677 
	C226.000000,117.750000 226.000000,118.500000 226.000000,119.625000 
	C225.687439,119.256973 225.374893,118.513947 225.093185,117.433670 
z"/>
<path fill="#656565" opacity="1.000000" stroke="none" 
	d="
M117.625000,1.000000 
	C118.000000,1.000000 117.998810,1.438586 118.017471,1.656544 
	C117.291367,1.904048 116.546616,1.933595 115.433884,1.906145 
	C115.065910,1.849149 115.021286,1.425481 115.010643,1.212740 
	C115.750000,1.000000 116.500000,1.000000 117.625000,1.000000 
z"/>
<path fill="#444444" opacity="1.000000" stroke="none" 
	d="
M118.375000,226.000000 
	C118.000000,226.000000 118.041504,225.572586 118.071007,225.360931 
	C118.965324,225.234314 119.830147,225.319366 120.847481,225.702209 
	C120.250000,226.000000 119.500000,226.000000 118.375000,226.000000 
z"/>
<path fill="#FCFCFC" opacity="1.000000" stroke="none" 
	d="
M119.523682,64.465813 
	C136.467972,94.080330 153.197830,123.396553 170.285049,153.339005 
	C132.859543,153.339005 96.165955,153.339005 58.724552,153.339005 
	C77.436989,120.674118 95.782776,88.649269 114.503357,55.970169 
	C116.281517,59.003162 117.795372,61.585339 119.523682,64.465813 
z"/>
</svg>