<svg version="1.1" id="Layer_1" xmlns="http://www.w3.org/2000/svg" xmlns:xlink="http://www.w3.org/1999/xlink" x="0px" y="0px"
	 width="100%" viewBox="0 0 225 225" enable-background="new 0 0 225 225" xml:space="preserve">
<path fill="#FCFCFC" opacity="1.000000" stroke="none" 
	d="
M124.000000,226.000000 
	C82.666672,226.000000 41.833340,226.000000 1.000005,226.000000 
	C1.000004,151.000000 1.000004,76.000015 1.000002,1.000015 
	C75.999992,1.000010 150.999985,1.000010 225.999969,1.000005 
	C225.999985,75.999985 225.999985,150.999969 226.000000,225.999969 
	C192.166672,226.000000 158.333328,226.000000 124.000000,226.000000 
M123.479355,162.703415 
	C126.808739,162.697159 130.146744,162.843231 133.465866,162.655472 
	C142.676743,162.134445 149.235550,155.653015 149.324509,146.679932 
	C149.471390,131.865143 149.386536,117.047768 149.352020,102.231598 
	C149.339996,97.070114 147.543396,91.907623 143.024887,89.970436 
	C136.632935,87.230049 137.033661,82.605797 137.247787,77.471367 
	C137.296295,76.308136 137.268265,75.140732 137.247498,73.975754 
	C136.978775,58.905521 125.735550,47.372059 111.249710,47.301182 
	C96.809578,47.230526 85.258080,58.715359 84.799759,73.657265 
	C84.697723,76.983734 85.020363,80.341850 84.666183,83.633614 
	C84.504105,85.140030 83.537407,87.145760 82.315002,87.854225 
	C75.852936,91.599434 73.182617,97.164993 73.220879,104.427406 
	C73.291039,117.745010 73.210587,131.063354 73.249901,144.381210 
	C73.284317,156.041351 79.860260,162.633865 91.521507,162.692413 
	C101.842682,162.744247 112.164330,162.703354 123.479355,162.703415 
M176.589951,49.094425 
	C189.429916,48.966667 196.312958,34.813789 189.247589,24.579140 
	C184.223358,17.301188 174.216843,15.754211 167.209351,21.013309 
	C160.114761,26.337769 158.873093,35.982178 164.117706,43.209194 
	C165.186325,44.681709 166.299225,47.104698 165.812332,48.561752 
	C162.946854,57.136578 159.124710,65.200005 151.111145,70.402580 
	C149.593719,71.387718 148.396317,72.852654 146.977341,74.005196 
	C143.648834,76.708725 144.273819,79.775841 145.703201,83.203331 
	C157.916870,75.391335 165.426773,66.469727 171.671616,53.056412 
	C172.419891,51.449200 174.364120,50.398792 176.589951,49.094425 
M59.826111,10.474720 
	C54.648636,19.530983 57.000889,28.741045 66.059853,33.284611 
	C68.669624,34.593552 69.249397,36.078129 69.199493,38.654293 
	C69.070503,45.313587 69.768768,52.048161 69.005577,58.621342 
	C67.986977,67.394234 72.475807,73.365135 77.830605,79.937515 
	C78.029732,78.462158 78.363983,77.523331 78.239197,76.650101 
	C77.622795,72.336517 76.441208,68.056465 76.283508,63.734505 
	C75.967918,55.085678 76.077095,46.414322 76.303246,37.759903 
	C76.339561,36.370037 77.563667,34.392010 78.792511,33.756123 
	C85.259758,30.409533 88.603676,25.310522 88.080406,18.052574 
	C87.602402,11.422636 83.938919,6.722600 77.724655,4.655822 
	C70.914299,2.390793 64.919296,4.228085 59.826111,10.474720 
M197.143356,112.671524 
	C194.721085,120.907089 188.558929,121.697777 181.369232,120.766151 
	C178.917618,120.448471 176.390213,120.715736 173.897430,120.715736 
	C168.155441,120.715736 162.413452,120.715744 156.778946,120.715744 
	C156.778946,123.487984 156.778946,125.523712 156.778946,127.766197 
	C167.695007,127.766197 178.157227,127.864822 188.615616,127.707436 
	C191.846588,127.658806 193.891205,128.281998 195.793488,131.398407 
	C200.924362,139.804108 212.048904,141.191376 219.042786,134.785492 
	C225.284164,129.068848 225.994980,119.569160 220.656586,113.217567 
	C214.805389,106.255867 205.707565,105.831833 197.143356,112.671524 
M213.753387,84.056282 
	C217.586929,76.038071 216.251038,68.800629 210.032501,63.897488 
	C204.159271,59.266621 195.536667,59.489491 189.795776,64.420532 
	C183.586685,69.753731 182.900177,76.880180 188.182602,86.952522 
	C185.710251,89.170853 182.643402,91.302017 180.391327,94.091087 
	C177.139954,98.117767 173.348145,99.560661 168.285995,99.034195 
	C164.430969,98.633270 160.500824,98.954605 156.383835,98.954605 
	C156.640518,101.728760 156.819000,103.657700 156.988831,105.493172 
	C176.775253,107.405319 176.775436,107.405510 190.122238,93.963440 
	C190.590836,93.491501 190.963882,92.782127 191.526306,92.573112 
	C193.092468,91.991058 194.850632,90.989471 196.327728,91.262772 
	C203.450394,92.580681 209.109604,90.592873 213.753387,84.056282 
M188.620834,178.817017 
	C189.625885,179.683319 190.556335,180.660110 191.648392,181.397552 
	C197.730713,185.504837 205.662811,184.889526 210.975128,179.961655 
	C216.273895,175.046371 217.513824,166.939758 213.908737,160.781784 
	C210.043793,154.179932 202.549622,151.018539 195.491226,153.959305 
	C191.462357,155.637878 189.300858,154.738556 186.674957,151.764221 
	C183.849136,148.563461 180.773117,144.130142 177.161362,143.392548 
	C170.539169,142.040146 163.443298,143.007202 156.628494,143.007202 
	C156.628494,145.628448 156.628494,147.542984 156.628494,149.831039 
	C161.734634,149.831039 166.533035,149.817581 171.331329,149.835953 
	C174.342819,149.847488 185.460159,158.386566 186.028519,161.223816 
	C186.176193,161.960938 185.820740,162.832672 185.582947,163.607773 
	C183.950027,168.930191 184.863937,173.795227 188.620834,178.817017 
M31.714336,130.908356 
	C33.497734,129.859253 35.254253,127.960571 37.069027,127.903152 
	C46.648388,127.600098 56.242424,127.761055 66.048027,127.761055 
	C66.048027,125.240250 66.048027,123.172234 66.048027,120.720299 
	C56.503307,120.720299 47.231274,120.644348 37.961857,120.766663 
	C35.187912,120.803268 33.652180,120.289108 32.471447,117.267929 
	C29.233986,108.984108 20.218294,105.441231 12.337921,108.801880 
	C6.239208,111.402733 2.504198,117.240372 2.754007,123.781052 
	C3.004903,130.350189 7.345919,136.103912 13.454857,137.964310 
	C20.374392,140.071548 26.395184,137.909927 31.714336,130.908356 
M47.985401,105.006813 
	C53.860718,105.391548 59.736034,105.776276 65.861359,106.177383 
	C65.861359,103.281525 65.861359,101.251534 65.861359,98.332794 
	C53.161968,102.383369 46.025444,95.053230 39.596169,85.879166 
	C40.079613,84.993324 40.754791,83.879196 41.314598,82.709839 
	C44.285984,76.503090 42.762703,68.972954 37.658195,64.486710 
	C32.527466,59.977413 24.802776,59.293911 19.093115,62.844025 
	C13.205615,66.504715 10.416567,73.707718 12.186552,80.680908 
	C13.749684,86.839157 20.178288,92.752716 26.567135,91.411865 
	C33.665638,89.922081 36.825424,93.817787 40.667763,97.813843 
	C42.857948,100.091652 45.152084,102.269508 47.985401,105.006813 
M68.696266,217.747269 
	C74.849464,223.203262 81.205742,224.368927 87.392021,221.175827 
	C93.524948,218.010269 96.218369,212.149841 95.708160,204.484177 
	C95.602562,202.897568 97.174744,200.990875 98.379395,199.577515 
	C99.933731,197.753845 103.328217,196.370361 103.439934,194.636841 
	C103.979500,186.264603 103.682991,177.838470 103.682991,169.436981 
	C101.115898,169.436981 99.197487,169.436981 96.816566,169.436981 
	C96.816566,175.342285 96.471893,180.984299 96.920006,186.562607 
	C97.315079,191.480743 95.672958,194.457581 90.947296,195.742752 
	C82.627953,190.326263 74.869377,190.528168 69.214172,196.308319 
	C63.595139,202.051483 63.229275,209.767105 68.696266,217.747269 
M35.431980,181.106796 
	C40.025475,177.609161 42.969234,172.716095 41.458897,167.290543 
	C39.892124,161.662231 42.616764,159.021866 45.722912,155.459839 
	C49.701771,150.897018 54.145313,148.890366 60.089588,149.789062 
	C61.989193,150.076279 63.968842,149.834045 66.293747,149.834045 
	C66.161552,147.161194 66.060257,145.113022 65.955978,143.004532 
	C60.037891,143.004532 53.993744,141.396973 49.619766,143.413025 
	C44.199787,145.911194 40.163982,151.412476 35.835804,155.339218 
	C32.811970,154.482620 30.172405,153.326050 27.442114,153.042221 
	C20.706190,152.341965 14.489753,156.271011 11.908257,162.409943 
	C9.434892,168.291733 10.923395,175.516617 15.504221,179.863953 
	C20.700375,184.795303 27.503298,185.388275 35.431980,181.106796 
M138.009354,186.709793 
	C134.263260,185.200500 129.257858,184.664459 127.126801,181.907013 
	C125.014130,179.173370 125.797722,174.201355 125.275162,169.916840 
	C123.351410,169.916840 121.266052,169.916840 118.975731,169.916840 
	C118.884171,170.837616 118.865898,171.642883 118.717110,172.423264 
	C116.834480,182.297348 120.067711,189.005875 130.332687,191.538651 
	C133.079147,192.216324 133.925949,193.988358 133.975250,197.034332 
	C134.150604,207.867599 144.403244,215.030502 154.417419,211.677505 
	C160.379135,209.681351 164.779007,204.187622 165.084473,197.957901 
	C165.399063,191.541931 162.435638,186.725983 157.009537,183.544937 
	C151.409073,180.261688 144.628937,181.370697 138.009354,186.709793 
z"/>
<path fill="#050505" opacity="1.000000" stroke="none" 
	d="
M122.982559,162.703400 
	C112.164330,162.703354 101.842682,162.744247 91.521507,162.692413 
	C79.860260,162.633865 73.284317,156.041351 73.249901,144.381210 
	C73.210587,131.063354 73.291039,117.745010 73.220879,104.427406 
	C73.182617,97.164993 75.852936,91.599434 82.315002,87.854225 
	C83.537407,87.145760 84.504105,85.140030 84.666183,83.633614 
	C85.020363,80.341850 84.697723,76.983734 84.799759,73.657265 
	C85.258080,58.715359 96.809578,47.230526 111.249710,47.301182 
	C125.735550,47.372059 136.978775,58.905521 137.247498,73.975754 
	C137.268265,75.140732 137.296295,76.308136 137.247787,77.471367 
	C137.033661,82.605797 136.632935,87.230049 143.024887,89.970436 
	C147.543396,91.907623 149.339996,97.070114 149.352020,102.231598 
	C149.386536,117.047768 149.471390,131.865143 149.324509,146.679932 
	C149.235550,155.653015 142.676743,162.134445 133.465866,162.655472 
	C130.146744,162.843231 126.808739,162.697159 122.982559,162.703400 
M109.796417,54.338890 
	C94.393921,56.631474 89.742279,68.575577 92.690025,85.516563 
	C105.212280,85.516563 117.744469,85.516563 130.218979,85.516563 
	C133.375702,66.056526 126.501320,55.237064 109.796417,54.338890 
M117.546143,144.493774 
	C120.583527,143.285461 121.315041,141.037735 120.542053,138.033646 
	C119.838264,135.298462 119.309692,132.516495 118.554520,129.796631 
	C117.401642,125.644363 116.342903,121.950981 119.963058,117.943352 
	C122.853226,114.743835 120.991295,108.743721 117.383461,105.927773 
	C113.988014,103.277596 108.783508,103.453568 105.363220,106.334198 
	C101.820686,109.317772 100.131424,114.757851 103.018150,117.860802 
	C106.644531,121.758804 105.334953,125.390648 104.395691,129.357361 
	C103.783211,131.944000 103.012833,134.493698 102.417519,137.083908 
	C101.161331,142.549561 102.724663,144.618378 108.233688,144.748779 
	C111.060173,144.815674 113.890472,144.721695 117.546143,144.493774 
z"/>
<path fill="#0E0E0E" opacity="1.000000" stroke="none" 
	d="
M176.171997,49.092361 
	C174.364120,50.398792 172.419891,51.449200 171.671616,53.056412 
	C165.426773,66.469727 157.916870,75.391335 145.703201,83.203331 
	C144.273819,79.775841 143.648834,76.708725 146.977341,74.005196 
	C148.396317,72.852654 149.593719,71.387718 151.111145,70.402580 
	C159.124710,65.200005 162.946854,57.136578 165.812332,48.561752 
	C166.299225,47.104698 165.186325,44.681709 164.117706,43.209194 
	C158.873093,35.982178 160.114761,26.337769 167.209351,21.013309 
	C174.216843,15.754211 184.223358,17.301188 189.247589,24.579140 
	C196.312958,34.813789 189.429916,48.966667 176.171997,49.092361 
M185.145142,32.606117 
	C184.584091,28.103115 181.978485,24.740620 177.620026,24.870434 
	C174.677277,24.958084 170.683441,26.885717 169.239502,29.256804 
	C167.913788,31.433741 168.313522,36.108948 169.902740,38.205845 
	C171.487701,40.297153 175.555710,41.552490 178.425110,41.376915 
	C182.626099,41.119862 184.762909,37.647602 185.145142,32.606117 
z"/>
<path fill="#0E0E0E" opacity="1.000000" stroke="none" 
	d="
M60.049057,10.178108 
	C64.919296,4.228085 70.914299,2.390793 77.724655,4.655822 
	C83.938919,6.722600 87.602402,11.422636 88.080406,18.052574 
	C88.603676,25.310522 85.259758,30.409533 78.792511,33.756123 
	C77.563667,34.392010 76.339561,36.370037 76.303246,37.759903 
	C76.077095,46.414322 75.967918,55.085678 76.283508,63.734505 
	C76.441208,68.056465 77.622795,72.336517 78.239197,76.650101 
	C78.363983,77.523331 78.029732,78.462158 77.830605,79.937515 
	C72.475807,73.365135 67.986977,67.394234 69.005577,58.621342 
	C69.768768,52.048161 69.070503,45.313587 69.199493,38.654293 
	C69.249397,36.078129 68.669624,34.593552 66.059853,33.284611 
	C57.000889,28.741045 54.648636,19.530983 60.049057,10.178108 
M64.542336,16.381247 
	C63.167255,20.292255 64.016853,23.974268 67.428436,25.970327 
	C69.701256,27.300114 73.132393,27.837681 75.684319,27.225592 
	C79.547882,26.298904 81.414246,22.947433 81.189003,18.832073 
	C80.976936,14.957478 78.987228,12.161837 75.244278,11.187537 
	C70.793846,10.029078 67.057632,11.219798 64.542336,16.381247 
z"/>
<path fill="#111111" opacity="1.000000" stroke="none" 
	d="
M197.400665,112.408592 
	C205.707565,105.831833 214.805389,106.255867 220.656586,113.217567 
	C225.994980,119.569160 225.284164,129.068848 219.042786,134.785492 
	C212.048904,141.191376 200.924362,139.804108 195.793488,131.398407 
	C193.891205,128.281998 191.846588,127.658806 188.615616,127.707436 
	C178.157227,127.864822 167.695007,127.766197 156.778946,127.766197 
	C156.778946,125.523712 156.778946,123.487984 156.778946,120.715744 
	C162.413452,120.715744 168.155441,120.715736 173.897430,120.715736 
	C176.390213,120.715736 178.917618,120.448471 181.369232,120.766151 
	C188.558929,121.697777 194.721085,120.907089 197.400665,112.408592 
M206.218124,131.537949 
	C210.353455,132.364822 214.339081,131.526367 215.845779,127.522697 
	C216.859970,124.827728 216.945099,120.611099 215.448776,118.472542 
	C213.948257,116.327972 209.728928,114.627586 207.144501,115.109566 
	C204.559372,115.591682 201.475830,118.618195 200.481491,121.239128 
	C198.825348,125.604454 201.327835,129.160019 206.218124,131.537949 
z"/>
<path fill="#0E0E0E" opacity="1.000000" stroke="none" 
	d="
M213.553482,84.373322 
	C209.109604,90.592873 203.450394,92.580681 196.327728,91.262772 
	C194.850632,90.989471 193.092468,91.991058 191.526306,92.573112 
	C190.963882,92.782127 190.590836,93.491501 190.122238,93.963440 
	C176.775436,107.405510 176.775253,107.405319 156.988831,105.493172 
	C156.819000,103.657700 156.640518,101.728760 156.383835,98.954605 
	C160.500824,98.954605 164.430969,98.633270 168.285995,99.034195 
	C173.348145,99.560661 177.139954,98.117767 180.391327,94.091087 
	C182.643402,91.302017 185.710251,89.170853 188.182602,86.952522 
	C182.900177,76.880180 183.586685,69.753731 189.795776,64.420532 
	C195.536667,59.489491 204.159271,59.266621 210.032501,63.897488 
	C216.251038,68.800629 217.586929,76.038071 213.553482,84.373322 
M208.388672,77.900597 
	C208.625687,71.816475 206.035492,68.112282 201.033020,67.381378 
	C196.854523,66.770874 192.465240,69.981079 191.482925,74.366104 
	C190.567459,78.452675 193.064438,82.799103 197.144379,84.220924 
	C201.787354,85.838959 205.709152,83.854507 208.388672,77.900597 
z"/>
<path fill="#0F0F0F" opacity="1.000000" stroke="none" 
	d="
M188.380493,178.535553 
	C184.863937,173.795227 183.950027,168.930191 185.582947,163.607773 
	C185.820740,162.832672 186.176193,161.960938 186.028519,161.223816 
	C185.460159,158.386566 174.342819,149.847488 171.331329,149.835953 
	C166.533035,149.817581 161.734634,149.831039 156.628494,149.831039 
	C156.628494,147.542984 156.628494,145.628448 156.628494,143.007202 
	C163.443298,143.007202 170.539169,142.040146 177.161362,143.392548 
	C180.773117,144.130142 183.849136,148.563461 186.674957,151.764221 
	C189.300858,154.738556 191.462357,155.637878 195.491226,153.959305 
	C202.549622,151.018539 210.043793,154.179932 213.908737,160.781784 
	C217.513824,166.939758 216.273895,175.046371 210.975128,179.961655 
	C205.662811,184.889526 197.730713,185.504837 191.648392,181.397552 
	C190.556335,180.660110 189.625885,179.683319 188.380493,178.535553 
M205.009766,161.240707 
	C198.502380,158.603958 192.863693,160.995651 191.938843,166.911209 
	C191.245605,171.345261 192.854736,174.762192 197.167007,176.455933 
	C201.188263,178.035370 204.721497,176.993774 207.339005,173.621597 
	C210.215637,169.915604 209.552338,165.976334 205.009766,161.240707 
z"/>
<path fill="#101010" opacity="1.000000" stroke="none" 
	d="
M31.505011,131.233658 
	C26.395184,137.909927 20.374392,140.071548 13.454857,137.964310 
	C7.345919,136.103912 3.004903,130.350189 2.754007,123.781052 
	C2.504198,117.240372 6.239208,111.402733 12.337921,108.801880 
	C20.218294,105.441231 29.233986,108.984108 32.471447,117.267929 
	C33.652180,120.289108 35.187912,120.803268 37.961857,120.766663 
	C47.231274,120.644348 56.503307,120.720299 66.048027,120.720299 
	C66.048027,123.172234 66.048027,125.240250 66.048027,127.761055 
	C56.242424,127.761055 46.648388,127.600098 37.069027,127.903152 
	C35.254253,127.960571 33.497734,129.859253 31.505011,131.233658 
M25.811411,118.872108 
	C21.487946,113.927650 16.005295,113.209946 12.183568,117.088158 
	C9.360802,119.952644 8.905358,124.726448 11.141351,128.012329 
	C13.567785,131.578064 18.321325,132.857697 22.081881,130.957474 
	C26.230492,128.861160 27.581429,125.045952 25.811411,118.872108 
z"/>
<path fill="#0F0F0F" opacity="1.000000" stroke="none" 
	d="
M47.692406,104.749588 
	C45.152084,102.269508 42.857948,100.091652 40.667763,97.813843 
	C36.825424,93.817787 33.665638,89.922081 26.567135,91.411865 
	C20.178288,92.752716 13.749684,86.839157 12.186552,80.680908 
	C10.416567,73.707718 13.205615,66.504715 19.093115,62.844025 
	C24.802776,59.293911 32.527466,59.977413 37.658195,64.486710 
	C42.762703,68.972954 44.285984,76.503090 41.314598,82.709839 
	C40.754791,83.879196 40.079613,84.993324 39.596169,85.879166 
	C46.025444,95.053230 53.161968,102.383369 65.861359,98.332794 
	C65.861359,101.251534 65.861359,103.281525 65.861359,106.177383 
	C59.736034,105.776276 53.860718,105.391548 47.692406,104.749588 
M27.358788,67.359695 
	C22.672104,67.610641 18.948116,69.786133 18.762117,74.550934 
	C18.651854,77.375641 20.120995,81.390518 22.260481,82.859200 
	C24.428423,84.347412 28.859873,84.418633 31.254292,83.144897 
	C33.458466,81.972359 35.327168,78.239418 35.460419,75.541351 
	C35.677856,71.138855 32.466351,68.434723 27.358788,67.359695 
z"/>
<path fill="#0F0F0F" opacity="1.000000" stroke="none" 
	d="
M68.460358,217.463684 
	C63.229275,209.767105 63.595139,202.051483 69.214172,196.308319 
	C74.869377,190.528168 82.627953,190.326263 90.948318,195.743408 
	C95.672958,194.457581 97.315079,191.480743 96.920006,186.562607 
	C96.471893,180.984299 96.816566,175.342285 96.816566,169.436981 
	C99.197487,169.436981 101.115898,169.436981 103.682991,169.436981 
	C103.682991,177.838470 103.979500,186.264603 103.439934,194.636841 
	C103.328217,196.370361 99.933731,197.753845 98.379395,199.577515 
	C97.174744,200.990875 95.602562,202.897568 95.708160,204.484177 
	C96.218369,212.149841 93.524948,218.010269 87.392021,221.175827 
	C81.205742,224.368927 74.849464,223.203262 68.460358,217.463684 
M81.932060,199.179535 
	C77.672157,198.402451 73.804008,199.709808 72.489159,203.694351 
	C71.585663,206.432281 71.801971,210.714554 73.440529,212.784500 
	C75.063522,214.834824 79.139061,215.874039 82.064011,215.738663 
	C86.136642,215.550201 88.325577,212.047638 88.738159,208.160248 
	C89.204071,203.770401 86.489449,201.114777 81.932060,199.179535 
z"/>
<path fill="#101010" opacity="1.000000" stroke="none" 
	d="
M35.129799,181.327545 
	C27.503298,185.388275 20.700375,184.795303 15.504221,179.863953 
	C10.923395,175.516617 9.434892,168.291733 11.908257,162.409943 
	C14.489753,156.271011 20.706190,152.341965 27.442114,153.042221 
	C30.172405,153.326050 32.811970,154.482620 35.835804,155.339218 
	C40.163982,151.412476 44.199787,145.911194 49.619766,143.413025 
	C53.993744,141.396973 60.037891,143.004532 65.955978,143.004532 
	C66.060257,145.113022 66.161552,147.161194 66.293747,149.834045 
	C63.968842,149.834045 61.989193,150.076279 60.089588,149.789062 
	C54.145313,148.890366 49.701771,150.897018 45.722912,155.459839 
	C42.616764,159.021866 39.892124,161.662231 41.458897,167.290543 
	C42.969234,172.716095 40.025475,177.609161 35.129799,181.327545 
M21.387295,161.695023 
	C16.476423,166.901047 16.958607,173.397537 22.564219,176.116333 
	C26.386692,177.970261 30.086618,177.521835 32.961323,174.291443 
	C35.958508,170.923401 36.231770,167.032623 33.465092,163.421082 
	C30.416382,159.441391 26.436270,158.821381 21.387295,161.695023 
z"/>
<path fill="#0E0E0E" opacity="1.000000" stroke="none" 
	d="
M138.297363,186.468262 
	C144.628937,181.370697 151.409073,180.261688 157.009537,183.544937 
	C162.435638,186.725983 165.399063,191.541931 165.084473,197.957901 
	C164.779007,204.187622 160.379135,209.681351 154.417419,211.677505 
	C144.403244,215.030502 134.150604,207.867599 133.975250,197.034332 
	C133.925949,193.988358 133.079147,192.216324 130.332687,191.538651 
	C120.067711,189.005875 116.834480,182.297348 118.717110,172.423264 
	C118.865898,171.642883 118.884171,170.837616 118.975731,169.916840 
	C121.266052,169.916840 123.351410,169.916840 125.275162,169.916840 
	C125.797722,174.201355 125.014130,179.173370 127.126801,181.907013 
	C129.257858,184.664459 134.263260,185.200500 138.297363,186.468262 
M147.942169,205.801178 
	C154.567139,205.749664 158.563705,202.099426 158.097488,196.525879 
	C157.671188,191.429611 153.103668,187.895142 147.948120,188.823608 
	C143.903946,189.551910 141.434402,192.117203 140.937561,196.146637 
	C140.348053,200.927567 142.791214,203.993149 147.942169,205.801178 
z"/>
<path fill="#F7F7F7" opacity="1.000000" stroke="none" 
	d="
M110.207359,54.297810 
	C126.501320,55.237064 133.375702,66.056526 130.218979,85.516563 
	C117.744469,85.516563 105.212280,85.516563 92.690025,85.516563 
	C89.742279,68.575577 94.393921,56.631474 110.207359,54.297810 
z"/>
<path fill="#F4F4F4" opacity="1.000000" stroke="none" 
	d="
M117.132599,144.597107 
	C113.890472,144.721695 111.060173,144.815674 108.233688,144.748779 
	C102.724663,144.618378 101.161331,142.549561 102.417519,137.083908 
	C103.012833,134.493698 103.783211,131.944000 104.395691,129.357361 
	C105.334953,125.390648 106.644531,121.758804 103.018150,117.860802 
	C100.131424,114.757851 101.820686,109.317772 105.363220,106.334198 
	C108.783508,103.453568 113.988014,103.277596 117.383461,105.927773 
	C120.991295,108.743721 122.853226,114.743835 119.963058,117.943352 
	C116.342903,121.950981 117.401642,125.644363 118.554520,129.796631 
	C119.309692,132.516495 119.838264,135.298462 120.542053,138.033646 
	C121.315041,141.037735 120.583527,143.285461 117.132599,144.597107 
z"/>
<path fill="#F4F4F4" opacity="1.000000" stroke="none" 
	d="
M185.159058,33.006561 
	C184.762909,37.647602 182.626099,41.119862 178.425110,41.376915 
	C175.555710,41.552490 171.487701,40.297153 169.902740,38.205845 
	C168.313522,36.108948 167.913788,31.433741 169.239502,29.256804 
	C170.683441,26.885717 174.677277,24.958084 177.620026,24.870434 
	C181.978485,24.740620 184.584091,28.103115 185.159058,33.006561 
z"/>
<path fill="#F4F4F4" opacity="1.000000" stroke="none" 
	d="
M64.716705,16.028633 
	C67.057632,11.219798 70.793846,10.029078 75.244278,11.187537 
	C78.987228,12.161837 80.976936,14.957478 81.189003,18.832073 
	C81.414246,22.947433 79.547882,26.298904 75.684319,27.225592 
	C73.132393,27.837681 69.701256,27.300114 67.428436,25.970327 
	C64.016853,23.974268 63.167255,20.292255 64.716705,16.028633 
z"/>
<path fill="#F4F4F4" opacity="1.000000" stroke="none" 
	d="
M205.851532,131.418182 
	C201.327835,129.160019 198.825348,125.604454 200.481491,121.239128 
	C201.475830,118.618195 204.559372,115.591682 207.144501,115.109566 
	C209.728928,114.627586 213.948257,116.327972 215.448776,118.472542 
	C216.945099,120.611099 216.859970,124.827728 215.845779,127.522697 
	C214.339081,131.526367 210.353455,132.364822 205.851532,131.418182 
z"/>
<path fill="#F1F1F1" opacity="1.000000" stroke="none" 
	d="
M208.286575,78.267609 
	C205.709152,83.854507 201.787354,85.838959 197.144379,84.220924 
	C193.064438,82.799103 190.567459,78.452675 191.482925,74.366104 
	C192.465240,69.981079 196.854523,66.770874 201.033020,67.381378 
	C206.035492,68.112282 208.625687,71.816475 208.286575,78.267609 
z"/>
<path fill="#F3F3F3" opacity="1.000000" stroke="none" 
	d="
M205.323792,161.478943 
	C209.552338,165.976334 210.215637,169.915604 207.339005,173.621597 
	C204.721497,176.993774 201.188263,178.035370 197.167007,176.455933 
	C192.854736,174.762192 191.245605,171.345261 191.938843,166.911209 
	C192.863693,160.995651 198.502380,158.603958 205.323792,161.478943 
z"/>
<path fill="#F3F3F3" opacity="1.000000" stroke="none" 
	d="
M25.955885,119.240463 
	C27.581429,125.045952 26.230492,128.861160 22.081881,130.957474 
	C18.321325,132.857697 13.567785,131.578064 11.141351,128.012329 
	C8.905358,124.726448 9.360802,119.952644 12.183568,117.088158 
	C16.005295,113.209946 21.487946,113.927650 25.955885,119.240463 
z"/>
<path fill="#F1F1F1" opacity="1.000000" stroke="none" 
	d="
M27.734894,67.397781 
	C32.466351,68.434723 35.677856,71.138855 35.460419,75.541351 
	C35.327168,78.239418 33.458466,81.972359 31.254292,83.144897 
	C28.859873,84.418633 24.428423,84.347412 22.260481,82.859200 
	C20.120995,81.390518 18.651854,77.375641 18.762117,74.550934 
	C18.948116,69.786133 22.672104,67.610641 27.734894,67.397781 
z"/>
<path fill="#F3F3F3" opacity="1.000000" stroke="none" 
	d="
M82.299263,199.323273 
	C86.489449,201.114777 89.204071,203.770401 88.738159,208.160248 
	C88.325577,212.047638 86.136642,215.550201 82.064011,215.738663 
	C79.139061,215.874039 75.063522,214.834824 73.440529,212.784500 
	C71.801971,210.714554 71.585663,206.432281 72.489159,203.694351 
	C73.804008,199.709808 77.672157,198.402451 82.299263,199.323273 
z"/>
<path fill="#F2F2F2" opacity="1.000000" stroke="none" 
	d="
M21.701639,161.455261 
	C26.436270,158.821381 30.416382,159.441391 33.465092,163.421082 
	C36.231770,167.032623 35.958508,170.923401 32.961323,174.291443 
	C30.086618,177.521835 26.386692,177.970261 22.564219,176.116333 
	C16.958607,173.397537 16.476423,166.901047 21.701639,161.455261 
z"/>
<path fill="#F4F4F4" opacity="1.000000" stroke="none" 
	d="
M147.558838,205.725464 
	C142.791214,203.993149 140.348053,200.927567 140.937561,196.146637 
	C141.434402,192.117203 143.903946,189.551910 147.948120,188.823608 
	C153.103668,187.895142 157.671188,191.429611 158.097488,196.525879 
	C158.563705,202.099426 154.567139,205.749664 147.558838,205.725464 
z"/>
</svg>