<svg version="1.1" id="Layer_1" xmlns="http://www.w3.org/2000/svg" xmlns:xlink="http://www.w3.org/1999/xlink" x="0px" y="0px"
	 width="100%" viewBox="0 0 221 228" enable-background="new 0 0 221 228" xml:space="preserve">
<path fill="#FEFEFE" opacity="1.000000" stroke="none" 
	d="
M127.000000,229.000000 
	C85.064323,229.000000 43.128651,229.000000 1.000000,229.000000 
	C1.000000,175.979263 1.000000,122.958290 1.376653,69.613640 
	C5.482818,85.439224 8.730684,101.719620 13.081581,117.699692 
	C17.174158,132.731003 22.450392,147.483536 32.249493,159.972610 
	C41.671585,171.981201 51.384556,173.644058 64.536652,165.900284 
	C69.551460,170.999939 76.032425,173.215393 82.938103,173.401062 
	C89.568825,173.579346 96.228920,172.664795 102.892807,172.229370 
	C103.230492,178.186249 103.283951,184.873276 104.048691,191.477951 
	C105.898758,207.456009 108.716255,223.005630 127.000000,229.000000 
z"/>
<path fill="#070707" opacity="1.000000" stroke="none" 
	d="
M127.458069,229.000000 
	C108.716255,223.005630 105.898758,207.456009 104.048691,191.477951 
	C103.283951,184.873276 103.230492,178.186249 102.892807,172.229370 
	C96.228920,172.664795 89.568825,173.579346 82.938103,173.401062 
	C76.032425,173.215393 69.551460,170.999939 64.536652,165.900284 
	C51.384556,173.644058 41.671585,171.981201 32.249493,159.972610 
	C22.450392,147.483536 17.174158,132.731003 13.081581,117.699692 
	C8.730684,101.719620 5.482818,85.439224 1.376653,69.144981 
	C1.000000,67.285645 1.000000,65.571281 1.353911,63.214298 
	C1.743809,60.027615 1.779795,57.483562 1.876493,54.595871 
	C1.624803,53.501492 1.312402,52.750748 1.000000,52.000000 
	C1.000000,50.933331 1.000000,49.866661 1.369213,48.281113 
	C2.133177,45.982239 2.583894,44.212566 2.914143,42.420689 
	C6.823225,21.210600 21.998667,7.369892 43.389404,4.739993 
	C57.582272,2.995041 71.093254,5.699328 84.621170,9.274889 
	C86.508888,9.773830 89.011185,10.004467 90.619347,9.175962 
	C102.553726,3.027533 115.298431,2.817616 128.064255,4.274693 
	C135.543167,5.128327 142.146637,2.839910 149.000000,1.000000 
	C156.020950,1.000000 163.041901,1.000000 170.665207,1.377960 
	C181.942703,3.177830 191.766800,6.771958 200.847763,12.656866 
	C216.916107,23.069956 223.217972,37.330044 220.524704,56.473381 
	C216.932419,82.006950 207.953018,105.469032 195.752136,127.914200 
	C195.094635,129.123749 194.483322,130.358429 193.475510,132.306168 
	C197.942993,131.632462 201.563889,131.219498 205.129166,130.522156 
	C213.594452,128.866364 217.927536,130.731155 222.000000,138.000000 
	C222.000000,140.041672 222.000000,142.083328 221.647400,144.595184 
	C218.819366,148.116043 216.753326,151.656342 213.795181,154.129639 
	C203.024048,163.135330 190.006012,165.043015 176.589813,164.909592 
	C175.392578,174.885452 174.657227,184.822449 172.929062,194.583649 
	C169.772049,212.415222 159.950256,224.357819 141.424042,227.867569 
	C140.253204,228.089371 139.140015,228.615479 138.000000,229.000000 
	C134.638718,229.000000 131.277420,229.000000 127.458069,229.000000 
M24.989290,133.500610 
	C29.162546,141.185425 32.599777,149.402573 37.682182,156.429855 
	C45.238129,166.877228 55.044037,166.706909 63.528294,157.068085 
	C68.585938,151.322174 73.564102,145.503983 78.735832,139.862991 
	C79.651138,138.864639 81.481369,137.869202 82.650978,138.096710 
	C86.156586,138.778549 89.544243,140.066788 92.876122,141.087173 
	C89.814812,148.588043 82.797142,148.932480 76.437233,150.619064 
	C72.653709,151.622391 68.068428,152.449265 67.878052,157.517715 
	C67.680862,162.767502 72.404900,163.882706 76.119370,165.617310 
	C76.561150,165.823608 77.081207,165.864334 77.566551,165.974899 
	C88.370270,168.436127 98.583527,167.655258 108.385941,160.342178 
	C109.038734,172.058395 108.645447,183.652039 109.153687,195.206039 
	C109.624939,205.919144 113.020317,215.690659 123.440948,220.883331 
	C137.808960,228.043015 160.213211,218.361954 164.804352,203.045670 
	C166.414490,197.674164 167.131668,192.006409 167.932999,186.427460 
	C169.299194,176.916000 170.409653,167.367798 171.642426,157.718597 
	C174.414383,157.864532 176.880310,158.058762 179.349319,158.113281 
	C190.440979,158.358200 200.849838,156.186600 209.697311,149.025589 
	C212.849274,146.474442 217.148117,143.838669 215.040283,139.015747 
	C212.792862,133.873444 208.023376,136.263016 204.043228,136.737503 
	C197.232101,137.549438 190.360123,139.520462 183.268127,136.075729 
	C184.253586,134.420471 185.074936,133.036957 185.899933,131.655640 
	C200.678162,106.911919 211.510788,80.776665 214.478409,51.785168 
	C215.720276,39.653217 212.689468,29.382788 202.641998,21.807779 
	C199.992859,19.810541 197.410889,17.677073 194.571274,15.987313 
	C176.036148,4.957749 156.359741,5.269980 136.191391,10.181874 
	C133.722855,10.783076 130.959061,10.863697 128.444672,10.468804 
	C115.486572,8.433689 102.980804,8.907212 91.207436,15.613513 
	C89.813934,16.407276 87.454285,16.265007 85.807976,15.733821 
	C73.368843,11.720324 60.723259,9.433165 47.590290,10.026636 
	C29.763884,10.832201 15.385640,20.499298 10.759798,36.933704 
	C8.287724,45.716339 6.984377,55.397480 7.813473,64.428932 
	C9.973649,87.960030 16.279861,110.683136 24.989290,133.500610 
z"/>
<path fill="#FEFEFE" opacity="1.000000" stroke="none" 
	d="
M138.468658,229.000000 
	C139.140015,228.615479 140.253204,228.089371 141.424042,227.867569 
	C159.950256,224.357819 169.772049,212.415222 172.929062,194.583649 
	C174.657227,184.822449 175.392578,174.885452 176.589813,164.909592 
	C190.006012,165.043015 203.024048,163.135330 213.795181,154.129639 
	C216.753326,151.656342 218.819366,148.116043 221.647400,145.032684 
	C222.000000,172.926895 222.000000,200.853790 222.000000,229.000000 
	C194.312820,229.000000 166.625076,229.000000 138.468658,229.000000 
z"/>
<path fill="#FCFCFC" opacity="1.000000" stroke="none" 
	d="
M222.000000,137.531342 
	C217.927536,130.731155 213.594452,128.866364 205.129166,130.522156 
	C201.563889,131.219498 197.942993,131.632462 193.475510,132.306168 
	C194.483322,130.358429 195.094635,129.123749 195.752136,127.914200 
	C207.953018,105.469032 216.932419,82.006950 220.524704,56.473381 
	C223.217972,37.330044 216.916107,23.069956 200.847763,12.656866 
	C191.766800,6.771958 181.942703,3.177830 171.133789,1.377960 
	C187.960358,1.000000 204.920700,1.000000 222.000000,1.000000 
	C222.000000,46.354160 222.000000,91.708420 222.000000,137.531342 
z"/>
<path fill="#F9F9F9" opacity="1.000000" stroke="none" 
	d="
M148.531342,1.000000 
	C142.146637,2.839910 135.543167,5.128327 128.064255,4.274693 
	C115.298431,2.817616 102.553726,3.027533 90.619347,9.175962 
	C89.011185,10.004467 86.508888,9.773830 84.621170,9.274889 
	C71.093254,5.699328 57.582272,2.995041 43.389404,4.739993 
	C21.998667,7.369892 6.823225,21.210600 2.914143,42.420689 
	C2.583894,44.212566 2.133177,45.982239 1.369213,47.881115 
	C1.000000,32.368557 1.000000,16.737114 1.000000,1.000000 
	C50.020847,1.000000 99.041763,1.000000 148.531342,1.000000 
z"/>
<path fill="#707070" opacity="1.000000" stroke="none" 
	d="
M1.815781,54.939507 
	C1.779795,57.483562 1.743809,60.027615 1.353911,62.785835 
	C1.000000,60.629444 1.000000,58.258884 1.203569,55.423965 
	C1.407138,54.959599 1.815781,54.939507 1.815781,54.939507 
z"/>
<path fill="#959595" opacity="1.000000" stroke="none" 
	d="
M1.876493,54.595871 
	C1.815781,54.939507 1.407138,54.959599 1.203569,54.979797 
	C1.000000,54.250000 1.000000,53.500000 1.000000,52.375000 
	C1.312402,52.750748 1.624803,53.501492 1.876493,54.595871 
z"/>
<path fill="#F7F8F9" opacity="1.000000" stroke="none" 
	d="
M24.841450,133.141785 
	C16.279861,110.683136 9.973649,87.960030 7.813473,64.428932 
	C6.984377,55.397480 8.287724,45.716339 10.759798,36.933704 
	C15.385640,20.499298 29.763884,10.832201 47.590290,10.026636 
	C60.723259,9.433165 73.368843,11.720324 85.807976,15.733821 
	C87.454285,16.265007 89.813934,16.407276 91.207436,15.613513 
	C102.980804,8.907212 115.486572,8.433689 128.444672,10.468804 
	C130.959061,10.863697 133.722855,10.783076 136.191391,10.181874 
	C156.359741,5.269980 176.036148,4.957749 194.571274,15.987313 
	C197.410889,17.677073 199.992859,19.810541 202.641998,21.807779 
	C212.689468,29.382788 215.720276,39.653217 214.478409,51.785168 
	C211.510788,80.776665 200.678162,106.911919 185.899933,131.655640 
	C185.074936,133.036957 184.253586,134.420471 183.268127,136.075729 
	C190.360123,139.520462 197.232101,137.549438 204.043228,136.737503 
	C208.023376,136.263016 212.792862,133.873444 215.040283,139.015747 
	C217.148117,143.838669 212.849274,146.474442 209.697311,149.025589 
	C200.849838,156.186600 190.440979,158.358200 179.349319,158.113281 
	C176.880310,158.058762 174.414383,157.864532 171.642426,157.718597 
	C170.409653,167.367798 169.299194,176.916000 167.932999,186.427460 
	C167.131668,192.006409 166.414490,197.674164 164.804352,203.045670 
	C160.213211,218.361954 137.808960,228.043015 123.440948,220.883331 
	C113.020317,215.690659 109.624939,205.919144 109.153687,195.206039 
	C108.645447,183.652039 109.038734,172.058395 108.385941,160.342178 
	C98.583527,167.655258 88.370270,168.436127 77.566551,165.974899 
	C77.081207,165.864334 76.561150,165.823608 76.119370,165.617310 
	C72.404900,163.882706 67.680862,162.767502 67.878052,157.517715 
	C68.068428,152.449265 72.653709,151.622391 76.437233,150.619064 
	C82.797142,148.932480 89.814812,148.588043 92.876122,141.087173 
	C89.544243,140.066788 86.156586,138.778549 82.650978,138.096710 
	C81.481369,137.869202 79.651138,138.864639 78.735832,139.862991 
	C73.564102,145.503983 68.585938,151.322174 63.528294,157.068085 
	C55.044037,166.706909 45.238129,166.877228 37.682182,156.429855 
	C32.599777,149.402573 29.162546,141.185425 24.841450,133.141785 
M90.959785,69.281601 
	C90.775520,69.216438 90.585922,69.176781 89.731216,68.940407 
	C83.126625,67.551651 78.067429,71.204124 72.846962,74.217964 
	C72.312042,74.526787 72.006668,75.625320 71.983368,76.369568 
	C71.619247,87.995857 70.816467,99.638206 71.141006,111.248169 
	C71.488350,123.673889 82.489922,133.954025 94.030090,133.749252 
	C96.316849,128.079041 98.442924,122.337341 100.926117,116.754501 
	C105.188423,107.171776 105.895973,97.223198 104.576118,86.219177 
	C103.775513,82.949394 102.974915,79.679619 102.608147,76.310440 
	C102.608147,76.310440 102.617416,75.865456 102.491913,75.128944 
	C100.328888,72.843826 98.165863,70.558716 95.242409,68.035774 
	C93.908554,68.478416 92.574699,68.921059 90.959785,69.281601 
M176.984436,70.294022 
	C176.652649,69.222504 176.320862,68.150986 175.166748,66.931183 
	C173.506592,66.952560 171.846451,66.973938 169.455399,66.773697 
	C165.725296,68.115265 161.995178,69.456825 157.709229,71.241562 
	C153.738861,78.732651 156.492676,85.965118 159.344788,92.724915 
	C163.534698,102.655388 168.668854,112.187462 173.788483,122.684319 
	C176.853256,116.716698 177.507553,111.164085 176.665375,105.570244 
	C174.923126,93.998138 174.508331,82.486938 176.984436,70.294022 
M101.057251,63.200874 
	C103.638550,66.542877 107.543724,69.523651 108.571297,73.289604 
	C112.949921,89.336830 113.722244,105.417999 106.100090,121.014854 
	C103.963554,125.386765 102.533386,130.103867 100.739685,134.765320 
	C111.221657,136.782104 114.597557,141.374863 114.734482,151.520645 
	C114.945587,167.162689 115.372704,182.808533 116.105743,198.434113 
	C116.495842,206.749451 122.052284,214.127609 128.226974,215.862762 
	C142.321686,219.823532 157.621033,210.583755 159.778641,196.290283 
	C162.087006,180.998093 164.120483,165.645233 165.581909,150.253159 
	C166.225723,143.472229 167.481277,137.827820 174.171478,135.390411 
	C169.053009,126.132637 163.761902,117.325417 159.241974,108.138763 
	C155.813507,101.170471 152.676910,93.908699 150.624588,86.443726 
	C146.053436,69.817116 153.710403,60.202003 170.868866,60.005646 
	C172.393723,59.988201 173.916443,59.783836 177.237518,59.527615 
	C172.481018,52.036793 169.070633,45.360229 164.464401,39.647968 
	C148.395416,19.720507 127.347855,12.454443 102.518608,17.990225 
	C83.938423,22.132751 72.908859,45.090569 72.582672,66.511497 
	C81.504890,62.734322 90.382805,58.634300 101.057251,63.200874 
M74.937576,132.838745 
	C66.594658,124.331924 63.209003,114.363464 64.818619,102.367737 
	C65.764359,95.319641 65.909813,88.057648 65.461670,80.951996 
	C64.620682,67.617348 65.917717,54.609356 70.955940,42.288490 
	C73.903046,35.081413 78.238243,28.441956 81.978889,21.491596 
	C81.980164,21.492214 81.563896,21.206266 81.103752,21.079273 
	C69.405777,17.850777 57.731594,16.675608 45.401394,17.549400 
	C31.126247,18.561026 22.147818,25.153351 17.258879,37.753819 
	C15.257391,42.912338 14.026083,48.791485 14.178842,54.294659 
	C15.077751,86.678123 23.854118,117.130936 38.161182,146.044266 
	C39.747707,149.250488 42.271103,152.130722 44.835861,154.684174 
	C49.059349,158.889038 52.941048,158.916779 56.943966,154.570007 
	C63.246059,147.726593 69.177635,140.541977 74.937576,132.838745 
M183.809219,66.542366 
	C183.219055,84.940842 182.628906,103.339317 182.038742,121.737793 
	C183.950592,121.515228 184.452164,121.277161 184.671890,120.882263 
	C195.239227,101.890495 203.448471,81.933517 206.799393,60.404194 
	C210.355316,37.557655 208.951691,31.334263 186.408066,18.978365 
	C177.425186,14.054963 167.538925,13.260296 157.435272,14.641938 
	C155.350708,14.926998 153.181122,14.532729 151.053085,14.573940 
	C148.962372,14.614429 146.874680,14.810632 143.445724,15.020520 
	C161.803299,24.170052 173.666245,37.395939 181.018906,54.672607 
	C182.480026,58.105850 182.909302,61.978226 183.809219,66.542366 
M86.661674,160.874603 
	C94.154655,160.878342 100.709366,158.638947 105.722176,152.808868 
	C108.737930,149.301437 108.749619,145.579163 105.727592,143.169708 
	C101.961113,140.166718 99.816673,143.147934 98.095139,145.708755 
	C94.019821,151.770935 88.436195,155.049118 81.309334,156.135574 
	C79.821426,156.362396 78.461281,157.427277 77.042267,158.105957 
	C77.083191,158.470352 77.124115,158.834747 77.165039,159.199142 
	C80.046844,159.734955 82.928658,160.270752 86.661674,160.874603 
M178.492538,141.020538 
	C177.704895,141.277588 176.548950,141.292694 176.193512,141.833710 
	C174.676422,144.143005 173.395813,146.607666 172.028900,149.015640 
	C173.777328,149.899597 175.630981,151.697601 177.256104,151.510513 
	C184.597702,150.665283 191.916626,149.457642 199.149277,147.932556 
	C201.320435,147.474747 203.186188,145.568451 205.191849,144.325745 
	C196.165268,143.924774 187.340195,146.269333 178.492538,141.020538 
z"/>
<path fill="#336791" opacity="1.000000" stroke="none" 
	d="
M100.697250,63.067467 
	C90.382805,58.634300 81.504890,62.734322 72.582672,66.511497 
	C72.908859,45.090569 83.938423,22.132751 102.518608,17.990225 
	C127.347855,12.454443 148.395416,19.720507 164.464401,39.647968 
	C169.070633,45.360229 172.481018,52.036793 177.237518,59.527615 
	C173.916443,59.783836 172.393723,59.988201 170.868866,60.005646 
	C153.710403,60.202003 146.053436,69.817116 150.624588,86.443726 
	C152.676910,93.908699 155.813507,101.170471 159.241974,108.138763 
	C163.761902,117.325417 169.053009,126.132637 174.171478,135.390411 
	C167.481277,137.827820 166.225723,143.472229 165.581909,150.253159 
	C164.120483,165.645233 162.087006,180.998093 159.778641,196.290283 
	C157.621033,210.583755 142.321686,219.823532 128.226974,215.862762 
	C122.052284,214.127609 116.495842,206.749451 116.105743,198.434113 
	C115.372704,182.808533 114.945587,167.162689 114.734482,151.520645 
	C114.597557,141.374863 111.221657,136.782104 100.739685,134.765320 
	C102.533386,130.103867 103.963554,125.386765 106.100090,121.014854 
	C113.722244,105.417999 112.949921,89.336830 108.571297,73.289604 
	C107.543724,69.523651 103.638550,66.542877 100.697250,63.067467 
z"/>
<path fill="#346791" opacity="1.000000" stroke="none" 
	d="
M75.101822,133.170273 
	C69.177635,140.541977 63.246059,147.726593 56.943966,154.570007 
	C52.941048,158.916779 49.059349,158.889038 44.835861,154.684174 
	C42.271103,152.130722 39.747707,149.250488 38.161182,146.044266 
	C23.854118,117.130936 15.077751,86.678123 14.178842,54.294659 
	C14.026083,48.791485 15.257391,42.912338 17.258879,37.753819 
	C22.147818,25.153351 31.126247,18.561026 45.401394,17.549400 
	C57.731594,16.675608 69.405777,17.850777 81.103752,21.079273 
	C81.563896,21.206266 81.980164,21.492214 81.978889,21.491596 
	C78.238243,28.441956 73.903046,35.081413 70.955940,42.288490 
	C65.917717,54.609356 64.620682,67.617348 65.461670,80.951996 
	C65.909813,88.057648 65.764359,95.319641 64.818619,102.367737 
	C63.209003,114.363464 66.594658,124.331924 75.101822,133.170273 
z"/>
<path fill="#346892" opacity="1.000000" stroke="none" 
	d="
M183.811813,66.095230 
	C182.909302,61.978226 182.480026,58.105850 181.018906,54.672607 
	C173.666245,37.395939 161.803299,24.170052 143.445724,15.020520 
	C146.874680,14.810632 148.962372,14.614429 151.053085,14.573940 
	C153.181122,14.532729 155.350708,14.926998 157.435272,14.641938 
	C167.538925,13.260296 177.425186,14.054963 186.408066,18.978365 
	C208.951691,31.334263 210.355316,37.557655 206.799393,60.404194 
	C203.448471,81.933517 195.239227,101.890495 184.671890,120.882263 
	C184.452164,121.277161 183.950592,121.515228 182.038742,121.737793 
	C182.628906,103.339317 183.219055,84.940842 183.811813,66.095230 
z"/>
<path fill="#346892" opacity="1.000000" stroke="none" 
	d="
M102.617416,75.865456 
	C102.617416,75.865456 102.608147,76.310440 102.343086,76.811844 
	C102.902733,80.539490 103.727432,83.765732 104.552132,86.991982 
	C105.895973,97.223198 105.188423,107.171776 100.926117,116.754501 
	C98.442924,122.337341 96.316849,128.079041 94.023949,133.746643 
	C82.489922,133.954025 71.488350,123.673889 71.141006,111.248169 
	C70.816467,99.638206 71.619247,87.995857 71.983368,76.369568 
	C72.006668,75.625320 72.312042,74.526787 72.846962,74.217964 
	C78.067429,71.204124 83.126625,67.551651 89.943039,69.550049 
	C90.120399,70.496887 90.085953,70.834099 89.889160,71.394821 
	C89.154831,72.078346 88.582848,72.538345 87.842422,73.080795 
	C87.604454,73.265640 87.453430,73.423203 87.479111,73.461128 
	C87.610733,73.655548 87.787842,73.819168 88.107086,74.294891 
	C90.565529,76.907906 91.812981,81.256378 96.837402,78.827103 
	C97.421539,78.514214 97.708305,78.248322 98.141678,77.742386 
	C98.836197,76.995117 99.384094,76.487885 100.379135,75.983932 
	C101.423325,75.946625 102.020370,75.906036 102.617416,75.865456 
z"/>
<path fill="#356892" opacity="1.000000" stroke="none" 
	d="
M170.186295,66.995323 
	C171.846451,66.973938 173.506592,66.952560 175.550568,67.424210 
	C176.232742,68.931496 176.531097,69.945740 176.829468,70.959984 
	C174.508331,82.486938 174.923126,93.998138 176.665375,105.570244 
	C177.507553,111.164085 176.853256,116.716698 173.788483,122.684319 
	C168.668854,112.187462 163.534698,102.655388 159.344788,92.724915 
	C156.492676,85.965118 153.738861,78.732651 158.302338,71.029526 
	C159.614441,70.928673 160.333405,71.039856 160.962494,71.534203 
	C160.911392,75.650803 163.555588,76.352646 166.319260,75.946548 
	C169.306061,75.507683 171.667145,73.918983 170.829056,69.926041 
	C170.366745,69.550797 170.021179,69.437317 169.617615,69.431122 
	C169.559631,69.538414 169.320633,69.587204 169.578278,68.953003 
	C169.952713,67.877647 170.069504,67.436485 170.186295,66.995323 
z"/>
<path fill="#356992" opacity="1.000000" stroke="none" 
	d="
M86.236069,160.840576 
	C82.928658,160.270752 80.046844,159.734955 77.165039,159.199142 
	C77.124115,158.834747 77.083191,158.470352 77.042267,158.105957 
	C78.461281,157.427277 79.821426,156.362396 81.309334,156.135574 
	C88.436195,155.049118 94.019821,151.770935 98.095139,145.708755 
	C99.816673,143.147934 101.961113,140.166718 105.727592,143.169708 
	C108.749619,145.579163 108.737930,149.301437 105.722176,152.808868 
	C100.709366,158.638947 94.154655,160.878342 86.236069,160.840576 
z"/>
<path fill="#3A6C95" opacity="1.000000" stroke="none" 
	d="
M178.864075,141.133545 
	C187.340195,146.269333 196.165268,143.924774 205.191849,144.325745 
	C203.186188,145.568451 201.320435,147.474747 199.149277,147.932556 
	C191.916626,149.457642 184.597702,150.665283 177.256104,151.510513 
	C175.630981,151.697601 173.777328,149.899597 172.028900,149.015640 
	C173.395813,146.607666 174.676422,144.143005 176.193512,141.833710 
	C176.548950,141.292694 177.704895,141.277588 178.864075,141.133545 
z"/>
<path fill="#2F6892" opacity="1.000000" stroke="none" 
	d="
M102.554665,75.497200 
	C102.020370,75.906036 101.423325,75.946625 100.380348,75.606216 
	C98.237846,69.978836 93.818726,71.369682 90.051498,71.171303 
	C90.085953,70.834099 90.120399,70.496887 90.272919,69.661163 
	C90.585922,69.176781 90.775520,69.216438 91.493057,69.520081 
	C93.351837,69.263573 94.677330,68.768585 96.002831,68.273605 
	C98.165863,70.558716 100.328888,72.843826 102.554665,75.497200 
z"/>
<path fill="#28638F" opacity="1.000000" stroke="none" 
	d="
M169.820847,66.884506 
	C170.069504,67.436485 169.952713,67.877647 169.235596,68.930939 
	C166.107635,70.079056 163.580002,70.615051 161.052383,71.151039 
	C160.333405,71.039856 159.614441,70.928673 158.580261,70.807945 
	C161.995178,69.456825 165.725296,68.115265 169.820847,66.884506 
z"/>
<path fill="#2F6892" opacity="1.000000" stroke="none" 
	d="
M104.564125,86.605576 
	C103.727432,83.765732 102.902733,80.539490 102.126175,76.861542 
	C102.974915,79.679619 103.775513,82.949394 104.564125,86.605576 
z"/>
<path fill="#346892" opacity="1.000000" stroke="none" 
	d="
M95.622620,68.154694 
	C94.677330,68.768585 93.351837,69.263573 91.633591,69.561134 
	C92.574699,68.921059 93.908554,68.478416 95.622620,68.154694 
z"/>
<path fill="#28638F" opacity="1.000000" stroke="none" 
	d="
M176.906952,70.626999 
	C176.531097,69.945740 176.232742,68.931496 175.961731,67.498352 
	C176.320862,68.150986 176.652649,69.222504 176.906952,70.626999 
z"/>
<path fill="#F3F6F8" opacity="1.000000" stroke="none" 
	d="
M89.889160,71.394821 
	C93.818726,71.369682 98.237846,69.978836 99.933212,75.602936 
	C99.384094,76.487885 98.836197,76.995117 97.844284,77.791481 
	C97.113525,78.345108 96.826767,78.609604 96.540016,78.874100 
	C91.812981,81.256378 90.565529,76.907906 88.154022,74.048050 
	C88.032249,73.332687 88.021561,73.165520 88.010864,72.998344 
	C88.582848,72.538345 89.154831,72.078346 89.889160,71.394821 
z"/>
<path fill="#2F6892" opacity="1.000000" stroke="none" 
	d="
M87.842422,73.080795 
	C88.021561,73.165520 88.032249,73.332687 87.996002,73.746696 
	C87.787842,73.819168 87.610733,73.655548 87.479111,73.461128 
	C87.453430,73.423203 87.604454,73.265640 87.842422,73.080795 
z"/>
<path fill="#2F6892" opacity="1.000000" stroke="none" 
	d="
M96.837402,78.827103 
	C96.826767,78.609604 97.113525,78.345108 97.697678,78.031525 
	C97.708305,78.248322 97.421539,78.514214 96.837402,78.827103 
z"/>
<path fill="#F2F5F7" opacity="1.000000" stroke="none" 
	d="
M160.962494,71.534203 
	C163.580002,70.615051 166.107635,70.079056 168.977936,69.565140 
	C169.320633,69.587204 169.559631,69.538414 169.729874,69.683121 
	C170.248672,69.947823 170.597244,70.067810 170.945801,70.187798 
	C171.667145,73.918983 169.306061,75.507683 166.319260,75.946548 
	C163.555588,76.352646 160.911392,75.650803 160.962494,71.534203 
z"/>
<path fill="#28638F" opacity="1.000000" stroke="none" 
	d="
M170.829056,69.926041 
	C170.597244,70.067810 170.248672,69.947823 169.787872,69.575836 
	C170.021179,69.437317 170.366745,69.550797 170.829056,69.926041 
z"/>
</svg>