<svg version="1.1" id="Layer_1" xmlns="http://www.w3.org/2000/svg" xmlns:xlink="http://www.w3.org/1999/xlink" x="0px" y="0px"
	 width="100%" viewBox="0 0 225 225" enable-background="new 0 0 225 225" xml:space="preserve">
<path fill="#FEFEFF" opacity="1.000000" stroke="none" 
	d="
M1.000000,88.000000 
	C1.000000,58.666672 1.000000,29.833344 1.000000,1.000012 
	C75.999977,1.000008 150.999954,1.000008 225.999954,1.000004 
	C225.999969,75.999969 225.999969,150.999939 225.999985,225.999939 
	C151.000046,225.999954 76.000092,225.999954 1.000068,225.999969 
	C1.000000,180.166672 1.000000,134.333328 1.000000,88.000000 
M130.345932,43.581276 
	C130.345932,50.470825 130.345932,57.360378 130.345932,65.012535 
	C134.874100,64.618958 138.833496,64.274818 143.059402,63.036160 
	C143.059402,56.358002 143.059402,49.679848 143.059402,43.171665 
	C138.608826,43.171665 134.838455,43.171665 130.345932,43.581276 
M145.568527,38.846897 
	C145.753571,38.550083 145.938614,38.253269 146.720505,37.506165 
	C147.559586,33.546860 145.060394,33.006081 142.080215,33.005154 
	C121.768837,32.998837 101.456512,32.919640 81.147781,33.151443 
	C79.446747,33.170860 77.769814,35.302925 76.081688,36.453457 
	C77.768112,37.387081 79.439888,39.097832 81.143295,39.129932 
	C93.458954,39.361996 105.781227,39.301853 118.100937,39.239136 
	C127.076469,39.193447 136.051270,39.002544 145.568527,38.846897 
M27.505795,192.159714 
	C27.659136,192.069382 27.812475,191.979050 28.661074,191.431763 
	C28.661074,185.415298 28.661074,179.398834 28.661074,173.024933 
	C38.271072,179.246490 46.523945,178.028290 50.157642,169.917480 
	C53.561142,162.320526 53.564377,154.419724 50.061337,146.814957 
	C47.256798,140.726578 40.206684,138.259933 34.062180,141.006485 
	C32.054604,141.903870 30.310337,143.390289 28.585356,144.516144 
	C28.018753,143.330643 27.492290,142.229141 26.506178,140.889648 
	C26.338133,140.928757 26.170088,140.967880 25.341499,140.848373 
	C24.894402,140.898758 24.447302,140.949127 23.429731,140.975739 
	C23.310577,141.310486 23.191422,141.645248 22.902744,142.906677 
	C22.959482,158.944092 23.016222,174.981491 23.059771,191.611542 
	C23.381620,191.766678 23.703468,191.921814 24.750555,192.280655 
	C25.493551,192.210312 26.236547,192.139969 27.505795,192.159714 
M92.812294,106.104683 
	C92.812294,85.190170 92.812294,64.275658 92.812294,43.222229 
	C88.266670,43.222229 84.234657,43.222229 80.246765,43.222229 
	C80.246765,64.942917 80.246765,86.308159 80.246765,108.329254 
	C84.634392,107.864197 88.644356,107.439171 92.812294,106.104683 
M109.835052,61.500626 
	C109.835052,55.394409 109.835052,49.288197 109.835052,43.121410 
	C105.272278,43.121410 101.345100,43.121410 97.337372,43.121410 
	C97.337372,60.888149 97.337372,78.401413 97.337372,95.728302 
	C101.669830,95.728302 105.593056,95.728302 109.834946,95.728302 
	C109.834946,84.427940 109.834946,73.464203 109.835052,61.500626 
M138.460190,142.906738 
	C132.080551,138.899780 125.857925,139.020859 121.030098,143.245880 
	C114.924042,148.589523 113.167313,161.249008 117.432320,169.172562 
	C121.135597,176.052536 129.156723,178.588989 138.323639,176.193924 
	C141.968658,175.241608 142.849716,173.464096 141.642654,170.164093 
	C126.890358,173.834717 120.662323,170.645828 122.010056,159.567261 
	C129.166748,159.567261 136.401001,159.567261 143.816147,159.567261 
	C143.987457,153.238525 143.487595,147.730194 138.460190,142.906738 
M66.933044,152.544067 
	C66.304184,150.827179 65.549126,149.144531 65.072098,147.386444 
	C63.998928,143.431198 62.858635,139.723099 57.138512,142.267731 
	C60.917980,152.260406 64.809227,162.466736 68.637741,172.696548 
	C71.756271,181.029312 67.011589,187.664047 58.189896,187.417023 
	C57.898914,187.408859 57.600384,187.670227 57.218773,187.845795 
	C57.218773,189.098770 57.218773,190.385147 57.218773,191.631561 
	C66.572014,193.477264 70.596649,191.400833 73.858734,182.469147 
	C78.129776,170.774918 82.083054,158.964584 86.169518,147.202988 
	C86.847649,145.251190 87.507881,143.293182 88.168282,141.361755 
	C83.895126,139.903198 81.870308,141.057449 80.874054,145.032257 
	C79.665886,149.852463 77.831535,154.514648 76.296310,159.254333 
	C75.179543,162.702087 74.108475,166.164642 72.846741,170.159805 
	C70.747345,163.985870 68.932724,158.649429 66.933044,152.544067 
M113.648994,45.195305 
	C113.648994,56.124470 113.648994,67.053635 113.648994,77.961609 
	C118.303200,77.961609 122.344963,77.961609 126.350723,77.961609 
	C126.350723,66.134369 126.350723,54.702473 126.350723,42.071789 
	C121.874939,42.872524 117.775146,43.605995 113.648994,45.195305 
M150.077530,171.572617 
	C151.005341,173.052933 151.779648,175.663635 152.888000,175.814133 
	C157.246048,176.405899 161.758545,176.675308 166.119370,176.199646 
	C170.389023,175.733963 173.342896,172.968201 174.013626,168.435043 
	C174.735504,163.556168 172.773514,160.045807 168.339371,157.910385 
	C165.207794,156.402283 161.876038,155.193573 159.023926,153.271927 
	C157.653519,152.348618 156.130203,149.684418 156.569534,148.527802 
	C157.153519,146.990387 159.542068,145.287201 161.233582,145.201538 
	C164.602081,145.030960 168.023987,145.915405 171.931061,146.430923 
	C172.322571,145.501602 172.923569,144.074997 174.185760,141.078918 
	C168.202942,140.941544 163.195892,140.457275 158.253616,140.830597 
	C154.339630,141.126221 151.589890,143.645172 150.940948,147.793198 
	C150.211914,152.453217 151.962433,155.884674 156.259995,157.959335 
	C158.945038,159.255569 161.913162,160.205200 164.198822,162.012726 
	C166.012436,163.446976 166.982574,165.947815 168.327209,167.975082 
	C166.160873,169.355118 164.121628,171.540680 161.795471,171.907654 
	C158.999695,172.348709 155.963654,171.212250 153.023239,170.822052 
	C152.063614,170.694717 151.077713,170.765503 150.077530,171.572617 
M104.631790,177.003418 
	C107.707397,176.780426 111.307716,177.041336 109.461441,172.021301 
	C105.893486,171.929962 101.413322,173.401657 101.144341,168.055099 
	C100.762909,160.473419 101.047554,152.858215 101.047554,144.959625 
	C104.252312,144.959625 106.868790,144.959625 109.453102,144.959625 
	C109.733459,141.551086 109.733459,141.551086 101.193016,140.337738 
	C101.055496,137.831451 100.914642,135.264557 100.773735,132.696640 
	C95.521347,132.062149 97.166176,136.789841 95.390450,138.649658 
	C93.597923,140.527100 91.593399,142.202133 88.850166,144.733078 
	C91.840935,144.979813 93.265526,145.097336 94.999130,145.240356 
	C94.999130,152.534958 94.902679,159.511871 95.026527,166.484879 
	C95.147942,173.320755 97.364761,175.855988 104.631790,177.003418 
M185.187332,134.829483 
	C183.011215,138.067154 180.835083,141.304840 178.507980,144.767120 
	C180.263443,144.967407 181.688278,145.129974 183.872665,145.379211 
	C183.872665,153.569550 183.507858,161.536591 183.991226,169.451828 
	C184.359940,175.489883 191.126801,179.043304 196.578430,176.438904 
	C197.693085,175.906418 198.181519,174.063034 199.279922,172.311569 
	C190.806808,171.944305 189.769714,171.724777 189.574844,167.943756 
	C189.185760,160.394302 189.459488,152.810684 189.459488,144.899597 
	C192.543182,144.899597 195.157166,144.899597 198.016800,144.899597 
	C198.016800,143.592102 198.197769,141.854858 197.989456,141.806839 
	C195.205902,141.165390 192.367950,140.760132 189.185989,140.237396 
	C189.185989,138.469208 189.294571,136.819946 189.142349,135.195129 
	C189.060379,134.320160 188.531479,133.487061 188.204224,132.635056 
	C187.301941,133.136139 186.399673,133.637222 185.187332,134.829483 
M132.281464,26.721653 
	C131.611954,27.228014 130.942444,27.734377 130.272934,28.240742 
	C130.832687,28.713705 131.375961,29.571182 131.954941,29.596024 
	C135.237244,29.736853 138.534378,29.784044 141.810211,29.589607 
	C142.394012,29.554956 142.901627,28.236761 144.038544,26.717100 
	C139.636017,26.717100 136.372009,26.717100 132.281464,26.721653 
M116.196838,29.754307 
	C118.990952,29.750422 121.791931,29.851084 124.574318,29.668482 
	C125.262138,29.623341 125.889580,28.658209 126.544777,28.115986 
	C125.987213,27.642124 125.444717,26.780796 124.869606,26.758438 
	C121.588669,26.630880 118.202339,26.224922 115.046829,26.868961 
	C112.791412,27.329288 113.026039,29.014275 116.196838,29.754307 
M103.483612,29.771597 
	C105.675156,29.298752 108.790459,30.953089 110.671585,26.607317 
	C107.289803,26.607317 105.011223,26.388544 102.797104,26.672455 
	C100.815498,26.926554 98.904938,27.734674 96.963028,28.298353 
	C98.834114,28.789341 100.705193,29.280327 103.483612,29.771597 
M79.951759,28.543636 
	C84.742447,30.942642 91.488434,30.283367 92.980278,26.242477 
	C88.326683,26.759800 84.137955,27.225443 79.951759,28.543636 
z"/>
<path fill="#06A0E3" opacity="1.000000" stroke="none" 
	d="
M92.733307,106.559410 
	C88.644356,107.439171 84.634392,107.864197 80.246765,108.329254 
	C80.246765,86.308159 80.246765,64.942917 80.246765,43.222229 
	C84.234657,43.222229 88.266670,43.222229 92.812294,43.222229 
	C92.812294,64.275658 92.812294,85.190170 92.733307,106.559410 
z"/>
<path fill="#C7D307" opacity="1.000000" stroke="none" 
	d="
M109.834999,62.000546 
	C109.834946,73.464203 109.834946,84.427940 109.834946,95.728302 
	C105.593056,95.728302 101.669830,95.728302 97.337372,95.728302 
	C97.337372,78.401413 97.337372,60.888149 97.337372,43.121410 
	C101.345100,43.121410 105.272278,43.121410 109.835052,43.121410 
	C109.835052,49.288197 109.835052,55.394409 109.834999,62.000546 
z"/>
<path fill="#6D6D6D" opacity="1.000000" stroke="none" 
	d="
M26.965830,141.127655 
	C27.492290,142.229141 28.018753,143.330643 28.585356,144.516144 
	C30.310337,143.390289 32.054604,141.903870 34.062180,141.006485 
	C40.206684,138.259933 47.256798,140.726578 50.061337,146.814957 
	C53.564377,154.419724 53.561142,162.320526 50.157642,169.917480 
	C46.523945,178.028290 38.271072,179.246490 28.661074,173.024933 
	C28.661074,179.398834 28.661074,185.415298 28.201448,191.513855 
	C27.487730,191.753845 27.233637,191.911728 26.979544,192.069626 
	C26.236547,192.139969 25.493551,192.210312 24.289721,191.952438 
	C23.653608,191.326660 23.401632,191.124893 23.072960,191.018906 
	C23.016222,174.981491 22.959482,158.944092 23.197889,142.339890 
	C23.747330,141.571121 23.916388,141.313263 24.000204,140.999512 
	C24.447302,140.949127 24.894402,140.898758 25.748634,141.089890 
	C26.425791,141.263489 26.695812,141.195572 26.965830,141.127655 
M34.295830,145.344894 
	C32.714592,147.148041 30.023886,148.808258 29.769537,150.782364 
	C29.123243,155.798477 29.102001,161.012573 29.722134,166.037384 
	C30.221935,170.087189 33.345371,172.047485 37.629169,172.087616 
	C42.051861,172.129013 44.630383,169.794983 45.404419,165.851761 
	C46.098530,162.315689 46.276466,158.591705 46.076008,154.984314 
	C45.633541,147.021667 43.020065,144.842834 34.295830,145.344894 
z"/>
<path fill="#0BA1E4" opacity="1.000000" stroke="none" 
	d="
M138.750946,143.141968 
	C143.487595,147.730194 143.987457,153.238525 143.816147,159.567261 
	C136.401001,159.567261 129.166748,159.567261 122.010056,159.567261 
	C120.662323,170.645828 126.890358,173.834717 141.642654,170.164093 
	C142.849716,173.464096 141.968658,175.241608 138.323639,176.193924 
	C129.156723,178.588989 121.135597,176.052536 117.432320,169.172562 
	C113.167313,161.249008 114.924042,148.589523 121.030098,143.245880 
	C125.857925,139.020859 132.080551,138.899780 138.750946,143.141968 
M122.083084,150.767105 
	C121.879883,152.036026 121.676682,153.304932 121.443665,154.760010 
	C126.789154,154.760010 131.876373,154.760010 137.110001,154.760010 
	C137.472656,150.494873 136.777222,146.686630 132.454224,145.331787 
	C128.011780,143.939514 124.311134,145.484894 122.083084,150.767105 
z"/>
<path fill="#6B6B6B" opacity="1.000000" stroke="none" 
	d="
M67.025574,152.928528 
	C68.932724,158.649429 70.747345,163.985870 72.846741,170.159805 
	C74.108475,166.164642 75.179543,162.702087 76.296310,159.254333 
	C77.831535,154.514648 79.665886,149.852463 80.874054,145.032257 
	C81.870308,141.057449 83.895126,139.903198 88.168282,141.361755 
	C87.507881,143.293182 86.847649,145.251190 86.169518,147.202988 
	C82.083054,158.964584 78.129776,170.774918 73.858734,182.469147 
	C70.596649,191.400833 66.572014,193.477264 57.218773,191.631561 
	C57.218773,190.385147 57.218773,189.098770 57.218773,187.845795 
	C57.600384,187.670227 57.898914,187.408859 58.189896,187.417023 
	C67.011589,187.664047 71.756271,181.029312 68.637741,172.696548 
	C64.809227,162.466736 60.917980,152.260406 57.138512,142.267731 
	C62.858635,139.723099 63.998928,143.431198 65.072098,147.386444 
	C65.549126,149.144531 66.304184,150.827179 67.025574,152.928528 
z"/>
<path fill="#F0811B" opacity="1.000000" stroke="none" 
	d="
M113.662170,44.767387 
	C117.775146,43.605995 121.874939,42.872524 126.350723,42.071789 
	C126.350723,54.702473 126.350723,66.134369 126.350723,77.961609 
	C122.344963,77.961609 118.303200,77.961609 113.648994,77.961609 
	C113.648994,67.053635 113.648994,56.124470 113.662170,44.767387 
z"/>
<path fill="#696969" opacity="1.000000" stroke="none" 
	d="
M145.026398,38.876381 
	C136.051270,39.002544 127.076469,39.193447 118.100937,39.239136 
	C105.781227,39.301853 93.458954,39.361996 81.143295,39.129932 
	C79.439888,39.097832 77.768112,37.387081 76.081688,36.453457 
	C77.769814,35.302925 79.446747,33.170860 81.147781,33.151443 
	C101.456512,32.919640 121.768837,32.998837 142.080215,33.005154 
	C145.060394,33.006081 147.559586,33.546860 146.195602,37.829796 
	C145.372269,38.319862 145.157501,38.560844 145.026398,38.876381 
z"/>
<path fill="#07A0E3" opacity="1.000000" stroke="none" 
	d="
M150.090668,171.159149 
	C151.077713,170.765503 152.063614,170.694717 153.023239,170.822052 
	C155.963654,171.212250 158.999695,172.348709 161.795471,171.907654 
	C164.121628,171.540680 166.160873,169.355118 168.327209,167.975082 
	C166.982574,165.947815 166.012436,163.446976 164.198822,162.012726 
	C161.913162,160.205200 158.945038,159.255569 156.259995,157.959335 
	C151.962433,155.884674 150.211914,152.453217 150.940948,147.793198 
	C151.589890,143.645172 154.339630,141.126221 158.253616,140.830597 
	C163.195892,140.457275 168.202942,140.941544 174.185760,141.078918 
	C172.923569,144.074997 172.322571,145.501602 171.931061,146.430923 
	C168.023987,145.915405 164.602081,145.030960 161.233582,145.201538 
	C159.542068,145.287201 157.153519,146.990387 156.569534,148.527802 
	C156.130203,149.684418 157.653519,152.348618 159.023926,153.271927 
	C161.876038,155.193573 165.207794,156.402283 168.339371,157.910385 
	C172.773514,160.045807 174.735504,163.556168 174.013626,168.435043 
	C173.342896,172.968201 170.389023,175.733963 166.119370,176.199646 
	C161.758545,176.675308 157.246048,176.405899 152.888000,175.814133 
	C151.779648,175.663635 151.005341,173.052933 150.090668,171.159149 
z"/>
<path fill="#039FE3" opacity="1.000000" stroke="none" 
	d="
M104.206345,177.002808 
	C97.364761,175.855988 95.147942,173.320755 95.026527,166.484879 
	C94.902679,159.511871 94.999130,152.534958 94.999130,145.240356 
	C93.265526,145.097336 91.840935,144.979813 88.850166,144.733078 
	C91.593399,142.202133 93.597923,140.527100 95.390450,138.649658 
	C97.166176,136.789841 95.521347,132.062149 100.773735,132.696640 
	C100.914642,135.264557 101.055496,137.831451 101.193016,140.337738 
	C109.733459,141.551086 109.733459,141.551086 109.453102,144.959625 
	C106.868790,144.959625 104.252312,144.959625 101.047554,144.959625 
	C101.047554,152.858215 100.762909,160.473419 101.144341,168.055099 
	C101.413322,173.401657 105.893486,171.929962 109.461441,172.021301 
	C111.307716,177.041336 107.707397,176.780426 104.206345,177.002808 
z"/>
<path fill="#049FE3" opacity="1.000000" stroke="none" 
	d="
M185.342377,134.483887 
	C186.399673,133.637222 187.301941,133.136139 188.204224,132.635071 
	C188.531479,133.487061 189.060379,134.320160 189.142349,135.195129 
	C189.294571,136.819946 189.185989,138.469208 189.185989,140.237396 
	C192.367950,140.760132 195.205902,141.165390 197.989456,141.806839 
	C198.197769,141.854858 198.016800,143.592102 198.016800,144.899597 
	C195.157166,144.899597 192.543182,144.899597 189.459488,144.899597 
	C189.459488,152.810684 189.185760,160.394302 189.574844,167.943756 
	C189.769714,171.724777 190.806808,171.944305 199.279922,172.311569 
	C198.181519,174.063034 197.693085,175.906418 196.578430,176.438904 
	C191.126801,179.043304 184.359940,175.489883 183.991226,169.451828 
	C183.507858,161.536591 183.872665,153.569550 183.872665,145.379211 
	C181.688278,145.129974 180.263443,144.967407 178.507980,144.767120 
	C180.835083,141.304840 183.011215,138.067154 185.342377,134.483887 
z"/>
<path fill="#E0311E" opacity="1.000000" stroke="none" 
	d="
M142.792908,63.930679 
	C138.833496,64.274818 134.874100,64.618958 130.345932,65.012535 
	C130.345932,57.360378 130.345932,50.470825 131.006927,43.648834 
	C133.132660,43.816505 134.634705,44.174767 136.055328,43.969513 
	C140.774811,43.287609 142.389313,45.068844 142.101990,49.878868 
	C141.824020,54.532448 142.523026,59.244377 142.792908,63.930679 
z"/>
<path fill="#E2382D" opacity="1.000000" stroke="none" 
	d="
M132.694733,26.719376 
	C136.372009,26.717100 139.636017,26.717100 144.038544,26.717100 
	C142.901627,28.236761 142.394012,29.554956 141.810211,29.589607 
	C138.534378,29.784044 135.237244,29.736853 131.954941,29.596024 
	C131.375961,29.571182 130.832687,28.713705 130.272934,28.240742 
	C130.942444,27.734377 131.611954,27.228014 132.694733,26.719376 
z"/>
<path fill="#F18B30" opacity="1.000000" stroke="none" 
	d="
M115.796532,29.749163 
	C113.026039,29.014275 112.791412,27.329288 115.046829,26.868961 
	C118.202339,26.224922 121.588669,26.630880 124.869606,26.758438 
	C125.444717,26.780796 125.987213,27.642124 126.544777,28.115986 
	C125.889580,28.658209 125.262138,29.623341 124.574318,29.668482 
	C121.791931,29.851084 118.990952,29.750422 115.796532,29.749163 
z"/>
<path fill="#CCD72D" opacity="1.000000" stroke="none" 
	d="
M103.029945,29.771454 
	C100.705193,29.280327 98.834114,28.789341 96.963028,28.298353 
	C98.904938,27.734674 100.815498,26.926554 102.797104,26.672455 
	C105.011223,26.388544 107.289803,26.607317 110.671585,26.607317 
	C108.790459,30.953089 105.675156,29.298752 103.029945,29.771454 
z"/>
<path fill="#2BA8E6" opacity="1.000000" stroke="none" 
	d="
M79.950493,28.117363 
	C84.137955,27.225443 88.326683,26.759800 92.980278,26.242477 
	C91.488434,30.283367 84.742447,30.942642 79.950493,28.117363 
z"/>
<path fill="#DD0200" opacity="1.000000" stroke="none" 
	d="
M142.926147,63.483421 
	C142.523026,59.244377 141.824020,54.532448 142.101990,49.878868 
	C142.389313,45.068844 140.774811,43.287609 136.055328,43.969513 
	C134.634705,44.174767 133.132660,43.816505 131.368011,43.444031 
	C134.838455,43.171665 138.608826,43.171665 143.059402,43.171665 
	C143.059402,49.679848 143.059402,56.358002 142.926147,63.483421 
z"/>
<path fill="#5D5D5D" opacity="1.000000" stroke="none" 
	d="
M26.736004,141.008652 
	C26.695812,141.195572 26.425791,141.263489 26.078907,141.169189 
	C26.170088,140.967880 26.338133,140.928757 26.736004,141.008652 
z"/>
<path fill="#5D5D5D" opacity="1.000000" stroke="none" 
	d="
M23.714968,140.987625 
	C23.916388,141.313263 23.747330,141.571121 23.282650,141.876556 
	C23.191422,141.645248 23.310577,141.310486 23.714968,140.987625 
z"/>
<path fill="#606060" opacity="1.000000" stroke="none" 
	d="
M145.297455,38.861641 
	C145.157501,38.560844 145.372269,38.319862 145.897186,38.054943 
	C145.938614,38.253269 145.753571,38.550083 145.297455,38.861641 
z"/>
<path fill="#5D5D5D" opacity="1.000000" stroke="none" 
	d="
M23.066364,191.315216 
	C23.401632,191.124893 23.653608,191.326660 23.927101,191.850586 
	C23.703468,191.921814 23.381620,191.766678 23.066364,191.315216 
z"/>
<path fill="#5D5D5D" opacity="1.000000" stroke="none" 
	d="
M27.242668,192.114670 
	C27.233637,191.911728 27.487730,191.753845 27.853819,191.742340 
	C27.812475,191.979050 27.659136,192.069382 27.242668,192.114670 
z"/>
<path fill="#FDFDFD" opacity="1.000000" stroke="none" 
	d="
M34.688911,145.238831 
	C43.020065,144.842834 45.633541,147.021667 46.076008,154.984314 
	C46.276466,158.591705 46.098530,162.315689 45.404419,165.851761 
	C44.630383,169.794983 42.051861,172.129013 37.629169,172.087616 
	C33.345371,172.047485 30.221935,170.087189 29.722134,166.037384 
	C29.102001,161.012573 29.123243,155.798477 29.769537,150.782364 
	C30.023886,148.808258 32.714592,147.148041 34.688911,145.238831 
z"/>
<path fill="#F6FBFE" opacity="1.000000" stroke="none" 
	d="
M122.196136,150.399628 
	C124.311134,145.484894 128.011780,143.939514 132.454224,145.331787 
	C136.777222,146.686630 137.472656,150.494873 137.110001,154.760010 
	C131.876373,154.760010 126.789154,154.760010 121.443665,154.760010 
	C121.676682,153.304932 121.879883,152.036026 122.196136,150.399628 
z"/>
</svg>