<svg version="1.1" id="Layer_1" xmlns="http://www.w3.org/2000/svg" xmlns:xlink="http://www.w3.org/1999/xlink" x="0px" y="0px"
	 width="100%" viewBox="0 0 267 148" enable-background="new 0 0 267 148" xml:space="preserve">
<path fill="#FEFEFE" opacity="1.000000" stroke="none" 
	d="
M191.000000,149.000000 
	C127.371399,149.000000 64.242798,149.000000 1.057097,149.000000 
	C1.057097,99.734512 1.057097,50.468948 1.057097,1.101689 
	C89.878464,1.101689 178.757095,1.101689 267.817871,1.101689 
	C267.817871,50.332779 267.817871,99.666336 267.817871,149.000000 
	C242.469177,149.000000 216.984589,149.000000 191.000000,149.000000 
M168.137802,64.022667 
	C167.906189,64.338402 167.674561,64.654137 167.369537,64.989563 
	C167.369537,64.989563 167.350555,65.011871 166.617950,65.566154 
	C166.064804,69.062790 164.677261,72.706039 165.256668,76.003685 
	C165.632629,78.143433 168.593369,80.624519 170.916870,81.408134 
	C173.355560,82.230591 176.415985,81.209526 179.204697,80.994118 
	C179.309326,80.251694 179.413956,79.509270 179.518585,78.766846 
	C174.563248,78.881126 168.670166,80.563210 167.655472,72.688850 
	C172.123779,72.688850 176.037949,72.688850 179.900070,72.688850 
	C180.433624,65.895798 179.277969,64.109207 173.260162,62.939091 
	C172.800446,62.978996 172.340714,63.018902 171.194351,63.095001 
	C170.366791,63.341740 169.539246,63.588474 168.137802,64.022667 
M112.831917,88.955986 
	C113.445694,86.023819 114.059464,83.091652 114.696960,80.046158 
	C115.213142,80.307823 115.653069,80.490616 116.051880,80.739349 
	C119.389908,82.821342 122.620544,82.131432 125.128380,79.599991 
	C128.635406,76.059975 128.867218,71.604607 127.114456,67.105057 
	C125.816818,63.773834 123.359329,62.219795 119.657471,62.905331 
	C117.119308,63.375366 114.550613,63.680523 111.399727,64.008766 
	C111.278160,64.338013 111.156593,64.667259 110.860840,65.920425 
	C110.919136,73.281105 110.977425,80.641777 110.967613,88.559883 
	C111.306580,88.651085 111.645538,88.742279 112.831917,88.955986 
M83.847878,93.649872 
	C83.692871,93.694107 83.537872,93.738335 83.382866,93.782562 
	C83.607529,93.834030 83.832184,93.885498 83.727623,94.650299 
	C90.766586,113.951996 111.978561,128.263947 134.059891,128.610001 
	C154.948807,128.937363 177.109299,115.106026 184.606445,97.022438 
	C184.814529,96.520531 184.632721,95.856979 184.632721,95.214546 
	C183.972076,95.296471 183.560562,95.220665 183.348862,95.391899 
	C171.074738,105.319489 156.893112,109.617195 141.348480,111.781219 
	C133.939804,112.812614 127.427940,110.761444 120.492851,110.521515 
	C117.704681,110.425056 114.637833,110.646400 112.197876,109.579491 
	C102.337517,105.267899 92.014946,101.692055 83.847878,93.649872 
M171.917496,29.568663 
	C153.303375,13.815787 132.705475,10.581117 110.520073,20.676142 
	C97.133629,26.767376 84.494331,41.278450 84.866318,48.186287 
	C117.996178,26.103447 151.210632,26.185146 185.600739,48.968777 
	C182.197998,41.013084 177.686874,35.284641 171.917496,29.568663 
M103.374458,137.937622 
	C104.526527,128.788147 96.481819,123.712715 90.291519,125.418968 
	C85.103676,126.848915 81.751015,131.565292 82.114594,137.095749 
	C82.429893,141.891800 86.497452,146.269928 91.267746,146.947754 
	C96.788620,147.732239 100.783081,144.954910 103.374458,137.937622 
M183.584717,8.359757 
	C180.329865,3.312548 176.845474,1.852911 172.519028,3.724244 
	C168.330276,5.536026 166.491135,9.703816 167.784119,14.454436 
	C168.837494,18.324728 172.816269,20.701565 177.145950,20.047001 
	C181.941895,19.321947 184.221558,15.598619 183.584717,8.359757 
M88.905815,70.524292 
	C88.906540,71.353462 88.885155,72.183327 88.911438,73.011688 
	C89.161346,80.886650 92.001335,82.812492 99.525826,80.493744 
	C100.592247,80.165123 101.997192,80.935036 104.070709,81.369354 
	C104.070709,75.396744 104.107414,69.556335 103.962158,63.720459 
	C103.954903,63.429108 102.368668,63.177055 101.008591,62.744987 
	C101.008591,67.023346 101.483452,70.891457 100.795769,74.540466 
	C100.481331,76.208946 98.049561,78.137238 96.238968,78.589172 
	C95.322952,78.817818 93.248657,76.216072 92.450119,74.536461 
	C91.803429,73.176277 92.446312,71.258469 92.218933,69.629639 
	C91.923782,67.515327 91.332947,65.442307 90.869385,63.351509 
	C90.214844,65.439857 89.560295,67.528206 88.905815,70.524292 
M132.982681,88.770393 
	C134.660385,87.791962 137.172623,87.216560 137.873077,85.766174 
	C141.113632,79.056206 143.905899,72.125145 146.674698,65.199699 
	C146.925552,64.572304 145.864273,63.420315 144.799957,61.281120 
	C142.747131,67.141190 141.218079,71.506073 139.619690,76.068886 
	C135.860382,71.957520 137.465042,64.943665 131.298859,62.953789 
	C131.623917,65.574699 132.598450,67.833351 133.469376,70.131264 
	C135.770493,76.202805 139.901932,82.426216 132.208282,87.791183 
	C132.324356,87.910385 132.440414,88.029594 132.982681,88.770393 
M153.170166,75.127670 
	C154.486298,77.363823 155.581619,79.794624 157.266388,81.705811 
	C157.714279,82.213898 159.971039,81.127388 161.397293,80.773018 
	C152.847870,77.150772 158.571075,70.546600 156.503525,66.039185 
	C158.530655,65.456528 159.962280,65.045044 161.393921,64.633553 
	C161.345184,64.260956 161.296448,63.888359 161.247711,63.515762 
	C159.929092,63.515762 158.610474,63.515762 157.181549,63.515762 
	C156.934418,61.439995 156.705399,59.516296 156.273163,55.885757 
	C153.889008,59.381302 152.315628,61.688152 150.571457,64.245384 
	C154.898605,66.603134 152.645020,70.759109 153.170166,75.127670 
M89.330078,19.268810 
	C86.610321,16.051788 83.456360,15.505246 80.279045,18.336866 
	C77.777336,20.566385 76.954216,23.891338 79.416695,26.227671 
	C81.095062,27.820055 84.578072,29.024920 86.625198,28.386433 
	C90.428757,27.200123 91.499077,23.754894 89.330078,19.268810 
M77.874710,88.833923 
	C79.495155,86.330109 82.138115,83.971375 82.518318,81.291603 
	C83.257729,76.080040 82.839149,70.683792 82.619873,65.375633 
	C82.580978,64.433945 81.183472,63.548370 80.413338,62.636887 
	C79.999519,62.953865 79.585709,63.270844 79.171890,63.587826 
	C79.171890,69.066071 79.486443,74.571259 79.020531,80.009583 
	C78.828133,82.255409 77.239441,84.571266 75.783546,86.470192 
	C74.042877,88.740547 74.644974,89.183083 77.874710,88.833923 
M186.742798,81.230064 
	C187.436005,79.575836 188.602264,77.958054 188.733047,76.260498 
	C189.113617,71.320045 187.401306,65.573334 195.583252,64.328812 
	C195.236374,63.882687 194.889481,63.436558 194.542603,62.990429 
	C191.710693,63.318001 188.878784,63.645573 186.028915,63.975224 
	C186.028915,69.532341 186.028915,75.237625 186.742798,81.230064 
z"/>
<path fill="#F3792A" opacity="1.000000" stroke="none" 
	d="
M172.188782,29.800362 
	C177.686874,35.284641 182.197998,41.013084 185.600739,48.968777 
	C151.210632,26.185146 117.996178,26.103447 84.866318,48.186287 
	C84.494331,41.278450 97.133629,26.767376 110.520073,20.676142 
	C132.705475,10.581117 153.303375,13.815787 172.188782,29.800362 
z"/>
<path fill="#F3792A" opacity="1.000000" stroke="none" 
	d="
M83.983749,94.031693 
	C92.014946,101.692055 102.337517,105.267899 112.197876,109.579491 
	C114.637833,110.646400 117.704681,110.425056 120.492851,110.521515 
	C127.427940,110.761444 133.939804,112.812614 141.348480,111.781219 
	C156.893112,109.617195 171.074738,105.319489 183.348862,95.391899 
	C183.560562,95.220665 183.972076,95.296471 184.632721,95.214546 
	C184.632721,95.856979 184.814529,96.520531 184.606445,97.022438 
	C177.109299,115.106026 154.948807,128.937363 134.059891,128.610001 
	C111.978561,128.263947 90.766586,113.951996 83.873253,94.316772 
	C84.018883,93.983238 83.983749,94.031693 83.983749,94.031693 
z"/>
<path fill="#A0A0A0" opacity="1.000000" stroke="none" 
	d="
M103.274529,138.303299 
	C100.783081,144.954910 96.788620,147.732239 91.267746,146.947754 
	C86.497452,146.269928 82.429893,141.891800 82.114594,137.095749 
	C81.751015,131.565292 85.103676,126.848915 90.291519,125.418968 
	C96.481819,123.712715 104.526527,128.788147 103.274529,138.303299 
z"/>
<path fill="#787879" opacity="1.000000" stroke="none" 
	d="
M183.708923,8.742384 
	C184.221558,15.598619 181.941895,19.321947 177.145950,20.047001 
	C172.816269,20.701565 168.837494,18.324728 167.784119,14.454436 
	C166.491135,9.703816 168.330276,5.536026 172.519028,3.724244 
	C176.845474,1.852911 180.329865,3.312548 183.708923,8.742384 
z"/>
<path fill="#4F4F4F" opacity="1.000000" stroke="none" 
	d="
M111.035713,88.002457 
	C110.977425,80.641777 110.919136,73.281105 111.156647,65.357925 
	C111.712006,64.608025 111.893044,64.362671 111.995567,64.059380 
	C114.550613,63.680523 117.119308,63.375366 119.657471,62.905331 
	C123.359329,62.219795 125.816818,63.773834 127.114456,67.105057 
	C128.867218,71.604607 128.635406,76.059975 125.128380,79.599991 
	C122.620544,82.131432 119.389908,82.821342 116.051880,80.739349 
	C115.653069,80.490616 115.213142,80.307823 114.696960,80.046158 
	C114.059464,83.091652 113.445694,86.023819 112.296722,88.708199 
	C111.568176,88.230766 111.326233,88.078117 111.035713,88.002457 
M120.246895,78.994354 
	C124.521423,77.783844 125.460411,74.350311 124.691139,70.798241 
	C124.246338,68.744370 122.432220,66.227158 120.576416,65.406677 
	C117.328049,63.970531 115.093292,66.111572 114.192307,69.380928 
	C112.740448,74.649261 114.477737,77.787811 120.246895,78.994354 
z"/>
<path fill="#535353" opacity="1.000000" stroke="none" 
	d="
M88.905777,70.070419 
	C89.560295,67.528206 90.214844,65.439857 90.869385,63.351509 
	C91.332947,65.442307 91.923782,67.515327 92.218933,69.629639 
	C92.446312,71.258469 91.803429,73.176277 92.450119,74.536461 
	C93.248657,76.216072 95.322952,78.817818 96.238968,78.589172 
	C98.049561,78.137238 100.481331,76.208946 100.795769,74.540466 
	C101.483452,70.891457 101.008591,67.023346 101.008591,62.744987 
	C102.368668,63.177055 103.954903,63.429108 103.962158,63.720459 
	C104.107414,69.556335 104.070709,75.396744 104.070709,81.369354 
	C101.997192,80.935036 100.592247,80.165123 99.525826,80.493744 
	C92.001335,82.812492 89.161346,80.886650 88.911438,73.011688 
	C88.885155,72.183327 88.906540,71.353462 88.905777,70.070419 
z"/>
<path fill="#535353" opacity="1.000000" stroke="none" 
	d="
M132.769577,88.459595 
	C132.440414,88.029594 132.324356,87.910385 132.208282,87.791183 
	C139.901932,82.426216 135.770493,76.202805 133.469376,70.131264 
	C132.598450,67.833351 131.623917,65.574699 131.298859,62.953789 
	C137.465042,64.943665 135.860382,71.957520 139.619690,76.068886 
	C141.218079,71.506073 142.747131,67.141190 144.799957,61.281120 
	C145.864273,63.420315 146.925552,64.572304 146.674698,65.199699 
	C143.905899,72.125145 141.113632,79.056206 137.873077,85.766174 
	C137.172623,87.216560 134.660385,87.791962 132.769577,88.459595 
z"/>
<path fill="#626262" opacity="1.000000" stroke="none" 
	d="
M153.169922,74.680321 
	C152.645020,70.759109 154.898605,66.603134 150.571457,64.245384 
	C152.315628,61.688152 153.889008,59.381302 156.273163,55.885757 
	C156.705399,59.516296 156.934418,61.439995 157.181549,63.515762 
	C158.610474,63.515762 159.929092,63.515762 161.247711,63.515762 
	C161.296448,63.888359 161.345184,64.260956 161.393921,64.633553 
	C159.962280,65.045044 158.530655,65.456528 156.503525,66.039185 
	C158.571075,70.546600 152.847870,77.150772 161.397293,80.773018 
	C159.971039,81.127388 157.714279,82.213898 157.266388,81.705811 
	C155.581619,79.794624 154.486298,77.363823 153.169922,74.680321 
z"/>
<path fill="#676868" opacity="1.000000" stroke="none" 
	d="
M89.528656,19.572058 
	C91.499077,23.754894 90.428757,27.200123 86.625198,28.386433 
	C84.578072,29.024920 81.095062,27.820055 79.416695,26.227671 
	C76.954216,23.891338 77.777336,20.566385 80.279045,18.336866 
	C83.456360,15.505246 86.610321,16.051788 89.528656,19.572058 
z"/>
<path fill="#494949" opacity="1.000000" stroke="none" 
	d="
M173.952133,62.980377 
	C179.277969,64.109207 180.433624,65.895798 179.900070,72.688850 
	C176.037949,72.688850 172.123779,72.688850 167.655472,72.688850 
	C168.670166,80.563210 174.563248,78.881126 179.518585,78.766846 
	C179.413956,79.509270 179.309326,80.251694 179.204697,80.994118 
	C176.415985,81.209526 173.355560,82.230591 170.916870,81.408134 
	C168.593369,80.624519 165.632629,78.143433 165.256668,76.003685 
	C164.677261,72.706039 166.064804,69.062790 167.416748,65.408600 
	C168.128860,66.767365 168.042191,68.283691 167.960083,69.720276 
	C171.367996,69.720276 174.423706,69.720276 178.349411,69.720276 
	C176.608627,67.052094 175.280380,65.016235 173.952133,62.980377 
z"/>
<path fill="#5E5E5E" opacity="1.000000" stroke="none" 
	d="
M77.477493,88.925873 
	C74.644974,89.183083 74.042877,88.740547 75.783546,86.470192 
	C77.239441,84.571266 78.828133,82.255409 79.020531,80.009583 
	C79.486443,74.571259 79.171890,69.066071 79.171890,63.587826 
	C79.585709,63.270844 79.999519,62.953865 80.413338,62.636887 
	C81.183472,63.548370 82.580978,64.433945 82.619873,65.375633 
	C82.839149,70.683792 83.257729,76.080040 82.518318,81.291603 
	C82.138115,83.971375 79.495155,86.330109 77.477493,88.925873 
z"/>
<path fill="#545454" opacity="1.000000" stroke="none" 
	d="
M186.385864,81.086487 
	C186.028915,75.237625 186.028915,69.532341 186.028915,63.975224 
	C188.878784,63.645573 191.710693,63.318001 194.542603,62.990429 
	C194.889481,63.436558 195.236374,63.882687 195.583252,64.328812 
	C187.401306,65.573334 189.113617,71.320045 188.733047,76.260498 
	C188.602264,77.958054 187.436005,79.575836 186.385864,81.086487 
z"/>
<path fill="#ECECEC" opacity="1.000000" stroke="none" 
	d="
M173.606140,62.959736 
	C175.280380,65.016235 176.608627,67.052094 178.349411,69.720276 
	C174.423706,69.720276 171.367996,69.720276 167.960083,69.720276 
	C168.042191,68.283691 168.128860,66.767365 167.783051,65.131454 
	C167.350555,65.011871 167.369537,64.989563 167.700195,65.465614 
	C168.704376,65.669220 169.377930,65.396782 170.385986,65.066040 
	C171.107330,64.358093 171.494156,63.708447 171.880981,63.058807 
	C172.340714,63.018902 172.800446,62.978996 173.606140,62.959736 
z"/>
<path fill="#5E5E5E" opacity="1.000000" stroke="none" 
	d="
M171.537659,63.076904 
	C171.494156,63.708447 171.107330,64.358093 170.235992,64.784416 
	C169.404892,64.319130 169.058289,64.077171 168.711685,63.835209 
	C169.539246,63.588474 170.366791,63.341740 171.537659,63.076904 
z"/>
<path fill="#494949" opacity="1.000000" stroke="none" 
	d="
M168.424744,63.928940 
	C169.058289,64.077171 169.404892,64.319130 169.901489,64.842712 
	C169.377930,65.396782 168.704376,65.669220 167.736877,65.455765 
	C167.674561,64.654137 167.906189,64.338402 168.424744,63.928940 
z"/>
<path fill="#545454" opacity="1.000000" stroke="none" 
	d="
M111.697647,64.034073 
	C111.893044,64.362671 111.712006,64.608025 111.243744,64.895966 
	C111.156593,64.667259 111.278160,64.338013 111.697647,64.034073 
z"/>
<path fill="#545454" opacity="1.000000" stroke="none" 
	d="
M111.001663,88.281174 
	C111.326233,88.078117 111.568176,88.230766 111.873016,88.646942 
	C111.645538,88.742279 111.306580,88.651085 111.001663,88.281174 
z"/>
<path fill="#F3792A" opacity="1.000000" stroke="none" 
	d="
M84.037865,93.960106 
	C83.832184,93.885498 83.607529,93.834030 83.382866,93.782562 
	C83.537872,93.738335 83.692871,93.694107 83.915817,93.840782 
	C83.983749,94.031693 84.018883,93.983238 84.037865,93.960106 
z"/>
<path fill="#F7F7F7" opacity="1.000000" stroke="none" 
	d="
M119.848358,79.016556 
	C114.477737,77.787811 112.740448,74.649261 114.192307,69.380928 
	C115.093292,66.111572 117.328049,63.970531 120.576416,65.406677 
	C122.432220,66.227158 124.246338,68.744370 124.691139,70.798241 
	C125.460411,74.350311 124.521423,77.783844 119.848358,79.016556 
z"/>
</svg>