<svg version="1.1" id="Layer_1" xmlns="http://www.w3.org/2000/svg" xmlns:xlink="http://www.w3.org/1999/xlink" x="0px" y="0px"
	 width="100%" viewBox="0 0 225 225" enable-background="new 0 0 225 225" xml:space="preserve">
<path fill="#FEFFFF" opacity="1.000000" stroke="none" 
	d="
M1.000000,225.000000 
	C1.000000,150.979111 1.000000,76.958206 1.221557,2.363828 
	C1.716061,1.588428 1.901690,1.324981 2.000000,1.000000 
	C76.020897,1.000000 150.041794,1.000000 224.637863,1.220744 
	C225.409424,1.720567 225.671738,1.906738 226.000000,2.000000 
	C226.000000,76.020897 226.000000,150.041794 225.778442,224.636169 
	C225.283936,225.411560 225.098312,225.675018 225.000000,226.000000 
	C150.979111,226.000000 76.958206,226.000000 2.362145,225.779251 
	C1.590591,225.279434 1.328265,225.093277 1.000000,225.000000 
M142.593567,126.116425 
	C142.701096,125.753685 142.808609,125.390945 143.037537,124.094154 
	C142.994553,116.388138 142.951569,108.682121 142.913742,100.451439 
	C142.622345,100.346756 142.330933,100.242081 141.355423,100.276512 
	C134.997299,103.463737 128.585953,106.551903 122.323395,109.917015 
	C120.978981,110.639427 119.307228,112.332420 119.260490,113.631371 
	C118.976341,121.527443 119.118736,129.438873 119.118736,138.243515 
	C127.214600,134.079330 134.651917,130.253860 142.593567,126.116425 
M142.865067,136.424591 
	C142.423233,136.578018 141.981400,136.731445 140.843811,136.935135 
	C134.461456,140.106094 128.051849,143.224426 121.723885,146.500427 
	C120.682480,147.039597 119.284546,148.254013 119.262634,149.184875 
	C119.069542,157.384186 119.150696,165.589951 119.150696,174.872650 
	C127.415604,170.558380 134.703491,166.754105 142.497421,162.892761 
	C142.627731,162.606125 142.758026,162.319489 143.045410,161.102753 
	C143.004364,153.064850 142.963303,145.026962 142.865067,136.424591 
M95.393021,103.988770 
	C95.256256,104.327553 95.119484,104.666336 94.824577,105.930885 
	C94.824577,116.043282 94.824577,126.155678 94.824577,136.268066 
	C87.341049,122.771477 80.999100,109.128593 74.485435,95.568207 
	C73.613663,93.753319 72.160469,91.882782 70.476959,90.861504 
	C66.818306,88.642052 62.836880,86.954636 58.402126,84.954124 
	C58.275700,85.300621 58.149273,85.647125 57.872810,86.921722 
	C57.928577,106.284607 57.984344,125.647491 57.965984,145.502823 
	C57.965984,145.502823 58.189980,145.947601 58.400867,146.590591 
	C62.076988,148.426132 65.753105,150.261658 69.757156,152.622162 
	C70.467674,152.418579 71.178192,152.214996 72.018616,151.080551 
	C72.018616,141.758057 72.018616,132.435547 72.018616,123.113052 
	C78.731514,134.412811 85.095657,145.542648 90.364471,157.168869 
	C94.517204,166.332275 102.951836,169.157715 110.858871,174.316513 
	C110.858871,157.763062 110.858871,142.131226 110.858871,126.499390 
	C110.858871,110.583168 110.858871,110.583168 95.393021,103.988770 
M151.339310,152.241028 
	C151.339310,154.109833 151.339310,155.978638 151.339310,158.604950 
	C158.172348,155.188889 163.971848,152.375229 169.665543,149.361664 
	C170.655609,148.837631 171.827698,147.483429 171.849457,146.489334 
	C172.026154,138.414612 171.948746,130.334335 171.948746,121.174072 
	C165.749100,124.302933 160.414703,127.169571 154.922028,129.691467 
	C152.288101,130.900803 151.177094,132.455933 151.284500,135.381516 
	C151.479141,140.683365 151.339798,145.997482 151.339310,152.241028 
M151.337585,103.607529 
	C151.337585,109.519150 151.337585,115.430771 151.337585,122.095222 
	C158.183868,118.596832 164.356369,115.494003 170.456894,112.255539 
	C171.158844,111.882896 171.872314,110.759544 171.882431,109.975258 
	C171.986359,101.923363 171.946152,93.869614 171.946152,85.110504 
	C166.817261,87.638435 162.539169,90.243599 157.919968,91.894173 
	C152.519104,93.824059 150.214355,97.031792 151.337585,103.607529 
M114.180283,82.649048 
	C107.605324,86.109779 101.030373,89.570518 93.881393,93.333397 
	C100.660744,96.761536 106.792923,99.921021 112.996208,102.934105 
	C113.894127,103.370247 115.328339,103.509918 116.183350,103.098625 
	C122.858521,99.887596 129.452728,96.508247 137.339478,92.543701 
	C129.042740,88.761307 121.933517,85.520287 114.180283,82.649048 
M100.619286,80.090332 
	C102.129646,79.236183 103.640015,78.382034 105.963898,77.067818 
	C99.112289,73.599609 93.086815,70.516098 87.015572,67.525482 
	C86.371681,67.208305 85.319298,67.148926 84.693253,67.454758 
	C77.883629,70.781311 71.121307,74.204674 63.651943,77.949707 
	C65.823776,79.148781 67.336586,79.765701 68.599060,80.715401 
	C79.141769,88.646194 89.577530,89.029396 100.619286,80.090332 
M141.688690,68.247246 
	C136.419464,71.100044 131.150238,73.952843 125.227119,77.159660 
	C132.093613,80.637924 137.964722,83.676102 143.908661,86.564384 
	C144.991287,87.090454 146.622681,87.549957 147.572983,87.111992 
	C153.475739,84.391571 159.256516,81.406464 165.994400,78.052956 
	C158.332169,74.189758 151.745392,70.815796 145.086456,67.590858 
	C144.396606,67.256760 143.277496,67.808998 141.688690,68.247246 
M106.133789,56.694424 
	C102.810005,58.362579 99.486229,60.030735 95.392685,62.085220 
	C102.079193,65.462196 107.766586,68.442390 113.571213,71.173401 
	C114.705376,71.707008 116.527390,71.749123 117.634171,71.206383 
	C123.116753,68.517776 128.465866,65.556992 134.555084,62.324181 
	C130.322891,60.147293 126.455933,58.613312 123.099327,56.329304 
	C117.513168,52.528210 112.229706,52.204319 106.133789,56.694424 
z"/>
<path fill="#F6F6F6" opacity="1.000000" stroke="none" 
	d="
M1.000000,225.500000 
	C1.328265,225.093277 1.590591,225.279434 1.893488,225.779251 
	C1.666667,226.000000 1.333333,226.000000 1.000000,225.500000 
z"/>
<path fill="#F6F6F6" opacity="1.000000" stroke="none" 
	d="
M225.500000,226.000000 
	C225.098312,225.675018 225.283936,225.411560 225.778442,225.104828 
	C226.000000,225.333328 226.000000,225.666672 225.500000,226.000000 
z"/>
<path fill="#F6F6F6" opacity="1.000000" stroke="none" 
	d="
M226.000000,1.500000 
	C225.671738,1.906738 225.409424,1.720567 225.106522,1.220744 
	C225.333328,1.000000 225.666672,1.000000 226.000000,1.500000 
z"/>
<path fill="#F6F6F6" opacity="1.000000" stroke="none" 
	d="
M1.500000,1.000000 
	C1.901690,1.324981 1.716061,1.588428 1.221557,1.895171 
	C1.000000,1.666667 1.000000,1.333333 1.500000,1.000000 
z"/>
<path fill="#4E78CF" opacity="1.000000" stroke="none" 
	d="
M58.040115,145.010376 
	C57.984344,125.647491 57.928577,106.284607 58.161865,86.361679 
	C58.718296,85.614189 58.897121,85.363556 58.987404,85.049728 
	C62.836880,86.954636 66.818306,88.642052 70.476959,90.861504 
	C72.160469,91.882782 73.613663,93.753319 74.485435,95.568207 
	C80.999100,109.128593 87.341049,122.771477 94.824577,136.268066 
	C94.824577,126.155678 94.824577,116.043282 95.119766,105.375183 
	C95.690300,104.641899 95.878166,104.397163 95.978539,104.085251 
	C110.858871,110.583168 110.858871,110.583168 110.858871,126.499390 
	C110.858871,142.131226 110.858871,157.763062 110.858871,174.316513 
	C102.951836,169.157715 94.517204,166.332275 90.364471,157.168869 
	C85.095657,145.542648 78.731514,134.412811 72.018616,123.113052 
	C72.018616,132.435547 72.018616,141.758057 71.544205,151.547852 
	C70.522934,152.042480 69.976082,152.069824 69.429230,152.097183 
	C65.753105,150.261658 62.076988,148.426132 58.432167,146.165085 
	C58.322353,145.496506 58.181232,145.253448 58.040115,145.010376 
z"/>
<path fill="#4EABD0" opacity="1.000000" stroke="none" 
	d="
M141.991394,162.949829 
	C134.703491,166.754105 127.415604,170.558380 119.150696,174.872650 
	C119.150696,165.589951 119.069542,157.384186 119.262634,149.184875 
	C119.284546,148.254013 120.682480,147.039597 121.723885,146.500427 
	C128.051849,143.224426 134.461456,140.106094 141.537476,136.941101 
	C142.461502,136.961060 142.691864,136.975052 142.922241,136.989059 
	C142.963303,145.026962 143.004364,153.064850 142.768707,161.666809 
	C142.251709,162.419388 142.084839,162.659042 141.991394,162.949829 
z"/>
<path fill="#4FACD0" opacity="1.000000" stroke="none" 
	d="
M142.908585,100.976105 
	C142.951569,108.682121 142.994553,116.388138 142.744385,124.726227 
	C142.330566,125.714996 142.209900,126.071693 142.089233,126.428398 
	C134.651917,130.253860 127.214600,134.079330 119.118736,138.243515 
	C119.118736,129.438873 118.976341,121.527443 119.260490,113.631371 
	C119.307228,112.332420 120.978981,110.639427 122.323395,109.917015 
	C128.585953,106.551903 134.997299,103.463737 141.790375,100.395081 
	C142.395996,100.752136 142.623734,100.906288 142.908585,100.976105 
z"/>
<path fill="#4DABD0" opacity="1.000000" stroke="none" 
	d="
M151.339600,151.773743 
	C151.339798,145.997482 151.479141,140.683365 151.284500,135.381516 
	C151.177094,132.455933 152.288101,130.900803 154.922028,129.691467 
	C160.414703,127.169571 165.749100,124.302933 171.948746,121.174072 
	C171.948746,130.334335 172.026154,138.414612 171.849457,146.489334 
	C171.827698,147.483429 170.655609,148.837631 169.665543,149.361664 
	C163.971848,152.375229 158.172348,155.188889 151.339310,158.604950 
	C151.339310,155.978638 151.339310,154.109833 151.339600,151.773743 
z"/>
<path fill="#4EABD0" opacity="1.000000" stroke="none" 
	d="
M151.337860,103.129929 
	C150.214355,97.031792 152.519104,93.824059 157.919968,91.894173 
	C162.539169,90.243599 166.817261,87.638435 171.946152,85.110504 
	C171.946152,93.869614 171.986359,101.923363 171.882431,109.975258 
	C171.872314,110.759544 171.158844,111.882896 170.456894,112.255539 
	C164.356369,115.494003 158.183868,118.596832 151.337585,122.095222 
	C151.337585,115.430771 151.337585,109.519150 151.337860,103.129929 
z"/>
<path fill="#4EABD0" opacity="1.000000" stroke="none" 
	d="
M114.502289,82.464157 
	C121.933517,85.520287 129.042740,88.761307 137.339478,92.543701 
	C129.452728,96.508247 122.858521,99.887596 116.183350,103.098625 
	C115.328339,103.509918 113.894127,103.370247 112.996208,102.934105 
	C106.792923,99.921021 100.660744,96.761536 93.881393,93.333397 
	C101.030373,89.570518 107.605324,86.109779 114.502289,82.464157 
z"/>
<path fill="#4FACD0" opacity="1.000000" stroke="none" 
	d="
M100.287407,80.265320 
	C89.577530,89.029396 79.141769,88.646194 68.599060,80.715401 
	C67.336586,79.765701 65.823776,79.148781 63.651943,77.949707 
	C71.121307,74.204674 77.883629,70.781311 84.693253,67.454758 
	C85.319298,67.148926 86.371681,67.208305 87.015572,67.525482 
	C93.086815,70.516098 99.112289,73.599609 105.963898,77.067818 
	C103.640015,78.382034 102.129646,79.236183 100.287407,80.265320 
z"/>
<path fill="#4DABD0" opacity="1.000000" stroke="none" 
	d="
M142.023132,68.098610 
	C143.277496,67.808998 144.396606,67.256760 145.086456,67.590858 
	C151.745392,70.815796 158.332169,74.189758 165.994400,78.052956 
	C159.256516,81.406464 153.475739,84.391571 147.572983,87.111992 
	C146.622681,87.549957 144.991287,87.090454 143.908661,86.564384 
	C137.964722,83.676102 132.093613,80.637924 125.227119,77.159660 
	C131.150238,73.952843 136.419464,71.100044 142.023132,68.098610 
z"/>
<path fill="#4DABD0" opacity="1.000000" stroke="none" 
	d="
M106.458008,56.499332 
	C112.229706,52.204319 117.513168,52.528210 123.099327,56.329304 
	C126.455933,58.613312 130.322891,60.147293 134.555084,62.324181 
	C128.465866,65.556992 123.116753,68.517776 117.634171,71.206383 
	C116.527390,71.749123 114.705376,71.707008 113.571213,71.173401 
	C107.766586,68.442390 102.079193,65.462196 95.392685,62.085220 
	C99.486229,60.030735 102.810005,58.362579 106.458008,56.499332 
z"/>
<path fill="#3D6DCC" opacity="1.000000" stroke="none" 
	d="
M69.593193,152.359680 
	C69.976082,152.069824 70.522934,152.042480 71.479248,152.013275 
	C71.178192,152.214996 70.467674,152.418579 69.593193,152.359680 
z"/>
<path fill="#39A5CD" opacity="1.000000" stroke="none" 
	d="
M142.244415,162.921295 
	C142.084839,162.659042 142.251709,162.419388 142.690155,162.131851 
	C142.758026,162.319489 142.627731,162.606125 142.244415,162.921295 
z"/>
<path fill="#3D6DCC" opacity="1.000000" stroke="none" 
	d="
M95.685776,104.037010 
	C95.878166,104.397163 95.690300,104.641899 95.198830,104.912292 
	C95.119484,104.666336 95.256256,104.327553 95.685776,104.037010 
z"/>
<path fill="#3D6DCC" opacity="1.000000" stroke="none" 
	d="
M58.003052,145.256592 
	C58.181232,145.253448 58.322353,145.496506 58.326725,145.843597 
	C58.189980,145.947601 57.965984,145.502823 58.003052,145.256592 
z"/>
<path fill="#39A5CD" opacity="1.000000" stroke="none" 
	d="
M142.893646,136.706818 
	C142.691864,136.975052 142.461502,136.961060 141.885361,136.915985 
	C141.981400,136.731445 142.423233,136.578018 142.893646,136.706818 
z"/>
<path fill="#39A5CD" opacity="1.000000" stroke="none" 
	d="
M142.341400,126.272415 
	C142.209900,126.071693 142.330566,125.714996 142.683685,125.193253 
	C142.808609,125.390945 142.701096,125.753685 142.341400,126.272415 
z"/>
<path fill="#39A5CD" opacity="1.000000" stroke="none" 
	d="
M142.911163,100.713776 
	C142.623734,100.906288 142.395996,100.752136 142.132446,100.325523 
	C142.330933,100.242081 142.622345,100.346756 142.911163,100.713776 
z"/>
<path fill="#3D6DCC" opacity="1.000000" stroke="none" 
	d="
M58.694763,85.001923 
	C58.897121,85.363556 58.718296,85.614189 58.236881,85.897629 
	C58.149273,85.647125 58.275700,85.300621 58.694763,85.001923 
z"/>
</svg>