<svg version="1.1" id="Layer_1" xmlns="http://www.w3.org/2000/svg" xmlns:xlink="http://www.w3.org/1999/xlink" x="0px" y="0px"
	 width="100%" viewBox="0 0 353 143" enable-background="new 0 0 353 143" xml:space="preserve">
<path fill="#FEFEFE" opacity="1.000000" stroke="none" 
	d="
M221.000000,144.000000 
	C147.333344,144.000000 74.166687,144.000000 1.000020,144.000000 
	C1.000013,96.333351 1.000013,48.666695 1.000007,1.000032 
	C118.666634,1.000022 236.333267,1.000022 353.999939,1.000011 
	C353.999939,48.666630 353.999939,96.333260 353.999969,143.999939 
	C309.833344,144.000000 265.666656,144.000000 221.000000,144.000000 
M69.908157,95.981361 
	C71.860046,95.981361 73.811935,95.981361 75.812233,95.981361 
	C75.982033,95.169281 76.162262,94.708740 76.162598,94.248062 
	C76.178711,72.122169 76.193260,49.996231 76.131989,27.870506 
	C76.129463,26.957682 75.399605,26.046871 74.143791,24.969065 
	C72.090126,25.024412 70.036453,25.079762 67.109344,25.007807 
	C66.767715,25.284620 66.127892,25.560381 66.126915,25.838402 
	C66.046425,48.586285 65.992973,71.334457 66.107910,94.081749 
	C66.110886,94.670113 67.995911,95.248970 69.908157,95.981361 
M51.869843,69.912605 
	C53.911694,69.854782 55.953548,69.796959 58.856037,69.896431 
	C59.414631,62.794563 59.973225,55.692692 60.532520,48.581902 
	C56.233284,48.581902 53.169865,48.581902 49.764862,48.581902 
	C49.764862,55.300526 49.735352,61.737850 49.818573,68.173721 
	C49.825539,68.712547 50.591145,69.241562 51.869843,69.912605 
M26.841995,119.624168 
	C26.841995,95.921707 26.841995,72.219246 26.841995,48.630566 
	C23.197319,48.630566 20.127647,48.630566 16.752945,48.630566 
	C16.752945,72.028320 16.744444,95.136307 16.804880,118.244110 
	C16.806305,118.788437 17.581390,119.330734 18.874077,120.031403 
	C21.250824,119.978981 23.627571,119.926552 26.841995,119.624168 
M199.601166,65.473785 
	C201.649673,61.143192 204.888397,58.309212 209.827240,59.448017 
	C214.767059,60.587044 214.244827,65.112450 214.336914,68.875275 
	C214.474487,74.497658 214.372620,80.125916 214.372620,85.697647 
	C217.637360,85.697647 220.354691,85.697647 223.149017,85.697647 
	C223.149017,78.832855 223.151184,72.338875 223.145767,65.844894 
	C223.145218,65.178917 223.123535,64.511055 223.070938,63.847298 
	C222.442017,55.910522 218.019318,51.924610 210.294785,53.109901 
	C206.400208,53.707508 202.689407,55.502846 198.940948,56.741581 
	C198.811920,56.167168 198.466141,54.627689 198.010208,52.597816 
	C195.444138,53.087875 193.156784,53.524700 190.645309,54.881317 
	C190.645309,65.114655 190.645309,75.348000 190.645309,85.681252 
	C193.696289,85.681252 196.389679,85.681252 199.127991,85.681252 
	C199.127991,78.871933 199.127991,72.411423 199.601166,65.473785 
M181.164062,53.034393 
	C179.365921,53.034393 177.567780,53.034393 175.675278,53.034393 
	C175.346359,54.684334 175.084015,56.000263 174.782623,57.512146 
	C167.082245,51.320942 157.874008,51.070435 152.279282,56.523727 
	C146.209839,62.439739 145.123566,74.143616 151.085846,80.920197 
	C153.743271,83.940567 158.496490,86.391632 162.453751,86.641380 
	C166.550964,86.899963 170.836243,84.178528 174.965637,82.785400 
	C175.187927,83.379189 175.623779,84.543442 176.929184,86.003006 
	C178.882019,86.003006 180.834854,86.003006 183.199692,86.003006 
	C183.199692,75.226425 183.212799,64.795593 183.149597,54.365227 
	C183.147186,53.966877 182.408600,53.572990 181.164062,53.034393 
M303.144348,53.036415 
	C301.169647,53.036415 299.194916,53.036415 297.265289,53.036415 
	C296.993011,54.707932 296.777771,56.029350 296.522736,57.595253 
	C290.682678,52.780636 282.062866,51.388096 277.039734,54.163548 
	C271.388641,57.285969 267.481598,64.989304 269.220032,72.236191 
	C273.209290,88.866318 283.222351,90.538429 296.694641,82.226944 
	C296.891266,83.482254 297.081543,84.696953 297.266357,85.876747 
	C299.722046,85.876747 301.866058,85.876747 304.847900,85.624634 
	C304.904266,75.412659 304.977814,65.200676 304.973663,54.988728 
	C304.973419,54.385334 304.347992,53.782196 303.144348,53.036415 
M106.127037,53.363781 
	C106.111504,68.901360 106.095963,84.438934 106.286247,100.808517 
	C108.915665,100.808517 111.545090,100.808517 114.689835,100.808517 
	C114.689835,94.802277 114.689835,88.930099 114.689835,82.804169 
	C125.815224,88.551094 133.295151,87.776909 138.485352,80.661972 
	C143.663467,73.563606 142.819916,62.344898 136.658890,56.371342 
	C131.163010,51.042690 122.320518,51.365387 114.242706,57.374760 
	C114.068390,55.881664 113.911957,54.541664 113.752602,53.176712 
	C111.272324,53.176712 109.128883,53.176712 106.127037,53.363781 
M257.851624,86.077805 
	C259.707214,85.139397 263.004791,88.199448 263.840973,83.056244 
	C263.745239,69.049454 263.649506,55.042671 263.147217,40.433113 
	C260.507202,40.628830 257.867188,40.824547 254.945175,41.912300 
	C254.945175,46.791870 254.945175,51.671440 254.945175,57.080921 
	C245.440613,48.996300 230.025467,53.166805 228.410339,64.234505 
	C227.828323,68.222679 227.835526,72.675987 229.012817,76.470581 
	C232.526871,87.797043 245.509628,90.509308 254.681061,81.922134 
	C255.085983,82.063873 255.490891,82.205605 255.755127,83.067070 
	C256.170624,84.018288 256.586090,84.969513 257.851624,86.077805 
M320.369995,81.466164 
	C318.102051,80.203270 315.834137,78.940376 312.016724,76.814659 
	C312.561707,80.134117 312.216888,83.442062 313.357452,84.075500 
	C319.352539,87.405060 325.847321,88.462433 332.423523,85.468575 
	C336.515045,83.605888 338.142487,80.153740 338.199066,75.815788 
	C338.251617,71.787491 335.952698,69.273346 332.576019,67.771561 
	C329.870178,66.568130 326.819916,66.106537 324.183350,64.792412 
	C322.647888,64.027115 321.626038,62.231453 320.373077,60.899380 
	C321.973053,59.975815 323.591309,58.257053 325.169250,58.293358 
	C328.508667,58.370186 331.826996,59.363155 335.114594,59.973080 
	C337.722748,55.769859 335.785492,53.572445 331.753571,53.115662 
	C328.368561,52.732166 324.880310,53.379879 321.446533,53.277653 
	C316.775269,53.138580 314.082458,55.571735 312.955994,59.726288 
	C311.630676,64.614220 313.487549,68.659096 318.105194,70.928856 
	C320.443878,72.078423 323.272827,72.237312 325.598053,73.405502 
	C327.447998,74.334923 328.869843,76.116463 330.481750,77.519699 
	C328.525177,79.002502 326.673615,80.668884 324.560364,81.877823 
	C323.714600,82.361679 322.292389,81.837959 320.369995,81.466164 
M34.775177,74.918297 
	C34.258980,75.616745 33.307816,76.307098 33.294640,77.014915 
	C33.177601,83.300400 33.226582,89.588982 33.226582,96.132629 
	C36.852882,96.132629 40.101887,96.132629 43.450417,96.132629 
	C43.450417,88.976181 43.450417,82.081367 43.450417,74.901520 
	C40.670612,74.901520 38.188942,74.901520 34.775177,74.918297 
M33.664165,30.935909 
	C33.353252,37.901291 33.042343,44.866673 32.732742,51.802757 
	C36.630840,51.802757 39.688618,51.802757 42.770889,51.802757 
	C42.770889,44.691380 42.770889,37.840351 42.770889,30.792084 
	C39.883190,30.792084 37.255695,30.792084 33.664165,30.935909 
M33.181595,61.747566 
	C33.181595,63.979420 33.181595,66.211273 33.181595,68.433746 
	C37.119473,68.433746 40.207874,68.433746 43.551247,68.433746 
	C43.551247,65.085060 43.551247,62.027962 43.551247,58.386635 
	C41.210270,58.386635 39.033581,58.084457 36.999058,58.492012 
	C35.624271,58.767410 34.449753,60.042572 33.181595,61.747566 
M51.598083,86.225143 
	C54.337193,86.225143 57.076302,86.225143 59.616219,86.225143 
	C59.616219,82.405647 59.616219,79.357925 59.616219,76.519608 
	C56.143764,76.519608 53.085888,76.519608 49.427124,76.519608 
	C49.868809,80.010498 50.252575,83.043648 51.598083,86.225143 
M49.816006,100.528046 
	C49.816006,104.955948 49.816006,109.383858 49.816006,113.770935 
	C53.492699,113.770935 56.680634,113.770935 59.770874,113.770935 
	C59.770874,106.672737 59.770874,99.931595 59.770874,93.228119 
	C56.321911,93.228119 53.128319,93.228119 49.816002,93.228119 
	C49.816002,95.566658 49.816002,97.552002 49.816006,100.528046 
z"/>
<path fill="#160C56" opacity="1.000000" stroke="none" 
	d="
M254.023315,82.062973 
	C245.509628,90.509308 232.526871,87.797043 229.012817,76.470581 
	C227.835526,72.675987 227.828323,68.222679 228.410339,64.234505 
	C230.025467,53.166805 245.440613,48.996300 254.945175,57.080921 
	C254.945175,51.671440 254.945175,46.791870 255.505402,41.478260 
	C258.561676,41.041443 261.057709,41.038662 263.553772,41.035885 
	C263.649506,55.042671 263.745239,69.049454 263.407501,83.581589 
	C260.983215,84.711540 258.992401,85.316139 257.001587,85.920731 
	C256.586090,84.969513 256.170624,84.018288 255.782410,82.405296 
	C255.214218,81.850006 254.618774,81.956490 254.023315,82.062973 
M247.102081,80.491150 
	C254.322479,78.042587 257.280487,71.677544 254.392838,64.669769 
	C252.857971,60.944958 250.113419,58.813744 245.977615,58.758720 
	C241.593964,58.700394 238.639114,60.964447 237.219711,64.904961 
	C234.433426,72.640091 238.846298,81.072914 247.102081,80.491150 
z"/>
<path fill="#180D57" opacity="1.000000" stroke="none" 
	d="
M106.985443,53.176712 
	C109.128883,53.176712 111.272324,53.176712 113.752602,53.176712 
	C113.911957,54.541664 114.068390,55.881664 114.242706,57.374760 
	C122.320518,51.365387 131.163010,51.042690 136.658890,56.371342 
	C142.819916,62.344898 143.663467,73.563606 138.485352,80.661972 
	C133.295151,87.776909 125.815224,88.551094 114.689835,82.804169 
	C114.689835,88.930099 114.689835,94.802277 114.689835,100.808517 
	C111.545090,100.808517 108.915665,100.808517 106.468155,100.091095 
	C106.761864,83.974686 106.873657,68.575699 106.985443,53.176712 
M123.600037,80.576920 
	C130.475662,79.124199 133.078049,76.015732 132.986115,69.365471 
	C132.909027,63.787605 130.086319,59.808659 125.591515,58.941841 
	C120.166359,57.895603 115.565979,61.165630 114.331299,66.945786 
	C112.947060,73.426109 116.296478,78.694733 123.600037,80.576920 
z"/>
<path fill="#150B56" opacity="1.000000" stroke="none" 
	d="
M304.010071,85.876747 
	C301.866058,85.876747 299.722046,85.876747 297.266357,85.876747 
	C297.081543,84.696953 296.891266,83.482254 296.694641,82.226944 
	C283.222351,90.538429 273.209290,88.866318 269.220032,72.236191 
	C267.481598,64.989304 271.388641,57.285969 277.039734,54.163548 
	C282.062866,51.388096 290.682678,52.780636 296.522736,57.595253 
	C296.777771,56.029350 296.993011,54.707932 297.265289,53.036415 
	C299.194916,53.036415 301.169647,53.036415 303.574219,53.564857 
	C304.006104,64.687782 304.008087,75.282265 304.010071,85.876747 
M277.898743,67.838501 
	C277.963531,69.497581 277.806976,71.201416 278.131866,72.807899 
	C279.466339,79.406067 286.458923,82.587173 291.909668,79.171692 
	C295.948395,76.640976 297.613068,71.354393 296.092102,65.883728 
	C294.892487,61.568985 292.184418,59.007313 287.604614,58.773788 
	C282.722412,58.524845 279.894867,60.989582 277.898743,67.838501 
z"/>
<path fill="#160C57" opacity="1.000000" stroke="none" 
	d="
M176.059631,85.707687 
	C175.623779,84.543442 175.187927,83.379189 174.965637,82.785400 
	C170.836243,84.178528 166.550964,86.899963 162.453751,86.641380 
	C158.496490,86.391632 153.743271,83.940567 151.085846,80.920197 
	C145.123566,74.143616 146.209839,62.439739 152.279282,56.523727 
	C157.874008,51.070435 167.082245,51.320942 174.782623,57.512146 
	C175.084015,56.000263 175.346359,54.684334 175.675278,53.034393 
	C177.567780,53.034393 179.365921,53.034393 181.583557,53.563004 
	C182.003036,64.244942 182.003036,74.398270 182.003036,84.366310 
	C179.514145,84.928032 177.786896,85.317863 176.059631,85.707687 
M170.139465,59.957058 
	C165.721359,57.853294 161.716843,58.261089 158.442093,62.107304 
	C155.544357,65.510689 154.755814,72.045563 157.679840,75.633873 
	C159.562866,77.944725 163.012482,80.324486 165.699295,80.257004 
	C168.393448,80.189354 171.808533,77.674355 173.491974,75.249252 
	C176.626465,70.733749 175.180099,65.053810 170.139465,59.957058 
z"/>
<path fill="#170D57" opacity="1.000000" stroke="none" 
	d="
M190.869446,53.961525 
	C193.156784,53.524700 195.444138,53.087875 198.010208,52.597816 
	C198.466141,54.627689 198.811920,56.167168 198.940948,56.741581 
	C202.689407,55.502846 206.400208,53.707508 210.294785,53.109901 
	C218.019318,51.924610 222.442017,55.910522 223.070938,63.847298 
	C223.123535,64.511055 223.145218,65.178917 223.145767,65.844894 
	C223.151184,72.338875 223.149017,78.832855 223.149017,85.697647 
	C220.354691,85.697647 217.637360,85.697647 214.372620,85.697647 
	C214.372620,80.125916 214.474487,74.497658 214.336914,68.875275 
	C214.244827,65.112450 214.767059,60.587044 209.827240,59.448017 
	C204.888397,58.309212 201.649673,61.143192 199.041031,65.989319 
	C198.317566,71.437126 198.076797,76.368568 198.025040,81.302010 
	C198.000793,83.612724 197.507019,85.591316 194.822006,84.823700 
	C193.649887,84.488602 192.174759,82.588036 192.133102,81.354637 
	C191.882004,73.919815 192.074829,66.471191 191.953812,59.029869 
	C191.926239,57.334995 191.248138,55.650692 190.869446,53.961525 
z"/>
<path fill="#130754" opacity="1.000000" stroke="none" 
	d="
M26.004318,119.874123 
	C23.627571,119.926552 21.250824,119.978981 18.437870,119.492126 
	C18.002151,97.634735 18.022820,76.316589 17.979082,54.998562 
	C17.973225,52.144833 17.812912,49.876369 21.961060,49.877514 
	C26.015200,49.878635 26.037197,51.976852 26.029356,54.920650 
	C25.971685,76.571671 26.001831,98.222939 26.004318,119.874123 
z"/>
<path fill="#130754" opacity="1.000000" stroke="none" 
	d="
M67.982788,25.135109 
	C70.036453,25.079762 72.090126,25.024412 74.572395,25.512066 
	C75.000999,48.845810 75.000999,71.636559 75.000999,95.007202 
	C72.555649,95.007202 70.778854,95.007202 68.605392,94.914093 
	C67.806137,93.322540 67.058929,91.825447 67.053070,90.325447 
	C66.975060,70.361572 66.976265,50.397202 67.043587,30.433247 
	C67.049538,28.666166 67.655502,26.901110 67.982788,25.135109 
z"/>
<path fill="#160C56" opacity="1.000000" stroke="none" 
	d="
M320.751282,81.619514 
	C322.292389,81.837959 323.714600,82.361679 324.560364,81.877823 
	C326.673615,80.668884 328.525177,79.002502 330.481750,77.519707 
	C328.869843,76.116463 327.447998,74.334923 325.598053,73.405502 
	C323.272827,72.237312 320.443878,72.078423 318.105194,70.928856 
	C313.487549,68.659096 311.630676,64.614220 312.955994,59.726288 
	C314.082458,55.571735 316.775269,53.138580 321.446533,53.277653 
	C324.880310,53.379879 328.368561,52.732166 331.753571,53.115662 
	C335.785492,53.572445 337.722748,55.769859 335.114594,59.973080 
	C331.826996,59.363155 328.508667,58.370186 325.169250,58.293358 
	C323.591309,58.257053 321.973053,59.975815 320.373077,60.899387 
	C321.626038,62.231453 322.647888,64.027115 324.183350,64.792412 
	C326.819916,66.106537 329.870178,66.568130 332.576019,67.771561 
	C335.952698,69.273346 338.251617,71.787491 338.199066,75.815788 
	C338.142487,80.153740 336.515045,83.605888 332.423523,85.468575 
	C325.847321,88.462433 319.352539,87.405060 313.357452,84.075500 
	C312.216888,83.442062 312.561707,80.134117 312.016724,76.814659 
	C315.834137,78.940376 318.102051,80.203270 320.751282,81.619514 
z"/>
<path fill="#1E165C" opacity="1.000000" stroke="none" 
	d="
M35.241226,74.909912 
	C38.188942,74.901520 40.670612,74.901520 43.450417,74.901520 
	C43.450417,82.081367 43.450417,88.976181 43.450417,96.132629 
	C40.101887,96.132629 36.852882,96.132629 33.226582,96.132629 
	C33.226582,89.588982 33.177601,83.300400 33.294640,77.014915 
	C33.307816,76.307098 34.258980,75.616745 35.241226,74.909912 
z"/>
<path fill="#07064D" opacity="1.000000" stroke="none" 
	d="
M26.423157,119.749146 
	C26.001831,98.222939 25.971685,76.571671 26.029356,54.920650 
	C26.037197,51.976852 26.015200,49.878635 21.961060,49.877514 
	C17.812912,49.876369 17.973225,52.144833 17.979082,54.998562 
	C18.022820,76.316589 18.002151,97.634735 17.998640,119.413414 
	C17.581390,119.330734 16.806305,118.788437 16.804880,118.244110 
	C16.744444,95.136307 16.752945,72.028320 16.752945,48.630566 
	C20.127647,48.630566 23.197319,48.630566 26.841995,48.630566 
	C26.841995,72.219246 26.841995,95.921707 26.423157,119.749146 
z"/>
<path fill="#0C0451" opacity="1.000000" stroke="none" 
	d="
M34.146183,30.863997 
	C37.255695,30.792084 39.883190,30.792084 42.770889,30.792084 
	C42.770889,37.840351 42.770889,44.691380 42.770889,51.802757 
	C39.688618,51.802757 36.630840,51.802757 32.732742,51.802757 
	C33.042343,44.866673 33.353252,37.901291 34.146183,30.863997 
z"/>
<path fill="#150955" opacity="1.000000" stroke="none" 
	d="
M57.995399,69.739136 
	C55.953548,69.796959 53.911694,69.854782 51.435074,69.389816 
	C51.002270,63.551670 50.817898,58.224106 51.164982,52.931385 
	C51.233589,51.885231 53.350815,50.189167 54.515446,50.195679 
	C56.004406,50.204006 58.756008,51.621098 58.765266,52.455463 
	C58.829151,58.213131 58.320213,63.977154 57.995399,69.739136 
z"/>
<path fill="#FFCE19" opacity="1.000000" stroke="none" 
	d="
M33.183624,61.309055 
	C34.449753,60.042572 35.624271,58.767410 36.999058,58.492012 
	C39.033581,58.084457 41.210270,58.386635 43.551247,58.386635 
	C43.551247,62.027962 43.551247,65.085060 43.551247,68.433746 
	C40.207874,68.433746 37.119473,68.433746 33.181595,68.433746 
	C33.181595,66.211273 33.181595,63.979420 33.183624,61.309055 
z"/>
<path fill="#E70989" opacity="1.000000" stroke="none" 
	d="
M51.117214,86.150970 
	C50.252575,83.043648 49.868809,80.010498 49.427124,76.519608 
	C53.085888,76.519608 56.143764,76.519608 59.616219,76.519608 
	C59.616219,79.357925 59.616219,82.405647 59.616219,86.225143 
	C57.076302,86.225143 54.337193,86.225143 51.117214,86.150970 
z"/>
<path fill="#131259" opacity="1.000000" stroke="none" 
	d="
M58.425720,69.817780 
	C58.320213,63.977154 58.829151,58.213131 58.765266,52.455463 
	C58.756008,51.621098 56.004406,50.204006 54.515446,50.195679 
	C53.350815,50.189167 51.233589,51.885231 51.164982,52.931385 
	C50.817898,58.224106 51.002270,63.551670 51.002293,69.321075 
	C50.591145,69.241562 49.825539,68.712547 49.818573,68.173721 
	C49.735352,61.737850 49.764862,55.300526 49.764862,48.581902 
	C53.169865,48.581902 56.233284,48.581902 60.532520,48.581902 
	C59.973225,55.692692 59.414631,62.794563 58.425720,69.817780 
z"/>
<path fill="#000049" opacity="1.000000" stroke="none" 
	d="
M69.002060,95.007202 
	C70.778854,95.007202 72.555649,95.007202 75.000999,95.007202 
	C75.000999,71.636559 75.000999,48.845810 75.004799,25.595093 
	C75.399605,26.046871 76.129463,26.957682 76.131989,27.870506 
	C76.193260,49.996231 76.178711,72.122169 76.162598,94.248062 
	C76.162262,94.708740 75.982033,95.169281 75.812233,95.981361 
	C73.811935,95.981361 71.860046,95.981361 69.455055,95.700546 
	C69.001953,95.419731 69.002060,95.007202 69.002060,95.007202 
z"/>
<path fill="#010053" opacity="1.000000" stroke="none" 
	d="
M68.605392,94.914093 
	C69.002060,95.007202 69.001953,95.419731 69.002586,95.625992 
	C67.995911,95.248970 66.110886,94.670113 66.107910,94.081749 
	C65.992973,71.334457 66.046425,48.586285 66.126915,25.838402 
	C66.127892,25.560381 66.767715,25.284620 67.546066,25.071459 
	C67.655502,26.901110 67.049538,28.666166 67.043587,30.433247 
	C66.976265,50.397202 66.975060,70.361572 67.053070,90.325447 
	C67.058929,91.825447 67.806137,93.322540 68.605392,94.914093 
z"/>
<path fill="#00004B" opacity="1.000000" stroke="none" 
	d="
M190.757385,54.421421 
	C191.248138,55.650692 191.926239,57.334995 191.953812,59.029869 
	C192.074829,66.471191 191.882004,73.919815 192.133102,81.354637 
	C192.174759,82.588036 193.649887,84.488602 194.822006,84.823700 
	C197.507019,85.591316 198.000793,83.612724 198.025040,81.302010 
	C198.076797,76.368568 198.317566,71.437126 198.804443,66.227890 
	C199.127991,72.411423 199.127991,78.871933 199.127991,85.681252 
	C196.389679,85.681252 193.696289,85.681252 190.645309,85.681252 
	C190.645309,75.348000 190.645309,65.114655 190.757385,54.421421 
z"/>
<path fill="#00004B" opacity="1.000000" stroke="none" 
	d="
M49.816002,100.032700 
	C49.816002,97.552002 49.816002,95.566658 49.816002,93.228119 
	C53.128319,93.228119 56.321911,93.228119 59.770874,93.228119 
	C59.770874,99.931595 59.770874,106.672737 59.770874,113.770935 
	C56.680634,113.770935 53.492699,113.770935 49.816006,113.770935 
	C49.816006,109.383858 49.816006,104.955948 49.816002,100.032700 
M59.001373,106.399948 
	C58.999607,103.417946 58.858158,100.427658 59.034626,97.456238 
	C59.217976,94.369034 57.546135,93.941513 55.032570,93.959541 
	C52.586323,93.977089 50.826801,94.243904 50.964409,97.390511 
	C51.137959,101.358864 51.123795,105.345512 50.962696,109.315018 
	C50.847980,112.141663 52.007980,112.874283 54.730495,113.092003 
	C59.632961,113.484047 59.074459,110.366035 59.001373,106.399948 
z"/>
<path fill="#000048" opacity="1.000000" stroke="none" 
	d="
M106.556244,53.270248 
	C106.873657,68.575699 106.761864,83.974686 106.365250,99.675095 
	C106.095963,84.438934 106.111504,68.901360 106.556244,53.270248 
z"/>
<path fill="#01004B" opacity="1.000000" stroke="none" 
	d="
M176.494415,85.855347 
	C177.786896,85.317863 179.514145,84.928032 182.003036,84.366310 
	C182.003036,74.398270 182.003036,64.244942 182.008057,53.634319 
	C182.408600,53.572990 183.147186,53.966877 183.149597,54.365227 
	C183.212799,64.795593 183.199692,75.226425 183.199692,86.003006 
	C180.834854,86.003006 178.882019,86.003006 176.494415,85.855347 
z"/>
<path fill="#000043" opacity="1.000000" stroke="none" 
	d="
M304.428986,85.750687 
	C304.008087,75.282265 304.006104,64.687782 304.008820,53.636124 
	C304.347992,53.782196 304.973419,54.385334 304.973663,54.988728 
	C304.977814,65.200676 304.904266,75.412659 304.428986,85.750687 
z"/>
<path fill="#221B60" opacity="1.000000" stroke="none" 
	d="
M263.350464,40.734497 
	C261.057709,41.038662 258.561676,41.041443 255.646408,41.032242 
	C257.867188,40.824547 260.507202,40.628830 263.350464,40.734497 
z"/>
<path fill="#221B60" opacity="1.000000" stroke="none" 
	d="
M257.426605,85.999268 
	C258.992401,85.316139 260.983215,84.711540 263.325104,84.042122 
	C263.004791,88.199448 259.707214,85.139397 257.426605,85.999268 
z"/>
<path fill="#221B60" opacity="1.000000" stroke="none" 
	d="
M254.352188,81.992554 
	C254.618774,81.956490 255.214218,81.850006 255.852753,82.045425 
	C255.490891,82.205605 255.085983,82.063873 254.352188,81.992554 
z"/>
<path fill="#FAFAFB" opacity="1.000000" stroke="none" 
	d="
M246.731171,80.562340 
	C238.846298,81.072914 234.433426,72.640091 237.219711,64.904961 
	C238.639114,60.964447 241.593964,58.700394 245.977615,58.758720 
	C250.113419,58.813744 252.857971,60.944958 254.392838,64.669769 
	C257.280487,71.677544 254.322479,78.042587 246.731171,80.562340 
z"/>
<path fill="#FAFAFB" opacity="1.000000" stroke="none" 
	d="
M123.239334,80.483803 
	C116.296478,78.694733 112.947060,73.426109 114.331299,66.945786 
	C115.565979,61.165630 120.166359,57.895603 125.591515,58.941841 
	C130.086319,59.808659 132.909027,63.787605 132.986115,69.365471 
	C133.078049,76.015732 130.475662,79.124199 123.239334,80.483803 
z"/>
<path fill="#FAFAFB" opacity="1.000000" stroke="none" 
	d="
M277.945251,67.420654 
	C279.894867,60.989582 282.722412,58.524845 287.604614,58.773788 
	C292.184418,59.007313 294.892487,61.568985 296.092102,65.883728 
	C297.613068,71.354393 295.948395,76.640976 291.909668,79.171692 
	C286.458923,82.587173 279.466339,79.406067 278.131866,72.807899 
	C277.806976,71.201416 277.963531,69.497581 277.945251,67.420654 
z"/>
<path fill="#FAF9FB" opacity="1.000000" stroke="none" 
	d="
M170.481583,60.158314 
	C175.180099,65.053810 176.626465,70.733749 173.491974,75.249252 
	C171.808533,77.674355 168.393448,80.189354 165.699295,80.257004 
	C163.012482,80.324486 159.562866,77.944725 157.679840,75.633873 
	C154.755814,72.045563 155.544357,65.510689 158.442093,62.107304 
	C161.716843,58.261089 165.721359,57.853294 170.481583,60.158314 
z"/>
<path fill="#130754" opacity="1.000000" stroke="none" 
	d="
M59.001366,106.878326 
	C59.074459,110.366035 59.632961,113.484047 54.730495,113.092003 
	C52.007980,112.874283 50.847980,112.141663 50.962696,109.315018 
	C51.123795,105.345512 51.137959,101.358864 50.964409,97.390511 
	C50.826801,94.243904 52.586323,93.977089 55.032570,93.959541 
	C57.546135,93.941513 59.217976,94.369034 59.034626,97.456238 
	C58.858158,100.427658 58.999607,103.417946 59.001366,106.878326 
z"/>
</svg>